<?xml version="1.0" encoding="UTF-8" standalone="no"?>
<svg width="16px" height="16px" viewBox="0 0 16 16" version="1.1" xmlns="http://www.w3.org/2000/svg" xmlns:xlink="http://www.w3.org/1999/xlink">
    <!-- Generator: Sketch 3.6.1 (26313) - http://www.bohemiancoding.com/sketch -->
    <title>objects-16px_puzzle-10</title>
    <desc>Created with Sketch.</desc>
    <defs></defs>
    <g id="Page-1" stroke="none" stroke-width="1" fill="none" fill-rule="evenodd">
        <g id="添加组件" transform="translate(-276.000000, -213.000000)" stroke="#98A6AD">
            <g id="产品详情" transform="translate(130.000000, 100.000000)">
                <g id="card1" transform="translate(20.000000, 20.000000)">
                    <g id="组件" transform="translate(103.000000, 82.000000)">
                        <g id="objects-16px_puzzle-10" transform="translate(24.000000, 12.000000)">
                            <path d="M12,2 L8,2 C8,0.9 7.1,0 6,0 C4.9,0 4,0.9 4,2 L0,2 L0,6 C1.1,6 2,6.9 2,8 C2,9.1 1.1,10 0,10 L0,14 L4,14 C4,12.9 4.9,12 6,12 C7.1,12 8,12.9 8,14 L12,14 L12,10 C13.1,10 14,9.1 14,8 C14,6.9 13.1,6 12,6 L12,2 Z" id="Shape"></path>
                        </g>
                    </g>
                </g>
            </g>
        </g>
    </g>
</svg>