<?xml version="1.0" encoding="UTF-8" standalone="no"?>
<svg width="16px" height="16px" viewBox="0 0 16 16" version="1.1" xmlns="http://www.w3.org/2000/svg" xmlns:xlink="http://www.w3.org/1999/xlink">
    <!-- Generator: Sketch 3.6.1 (26313) - http://www.bohemiancoding.com/sketch -->
    <title>users-24px-outline_multiple-19</title>
    <desc>Created with Sketch.</desc>
    <defs></defs>
    <g id="Page-1" stroke="none" stroke-width="1" fill="none" fill-rule="evenodd">
        <g id="添加组件" transform="translate(-394.000000, -213.000000)" stroke="#98A6AD">
            <g id="产品详情" transform="translate(130.000000, 100.000000)">
                <g id="card1" transform="translate(20.000000, 20.000000)">
                    <g id="成员" transform="translate(208.000000, 82.000000)">
                        <g id="users-24px-outline_multiple-19" transform="translate(37.000000, 12.000000)">
                            <g id="Group" transform="translate(0.304348, 0.318182)">
                                <path d="M9.49565217,8.90909091 L13.3913043,8.90909091 L13.3913043,6.42727273 C13.3913043,5.98181818 13.1478261,5.6 12.8434783,5.34545455 L11.1391304,4.26363636" id="Shape"></path>
                                <path d="M7.42608696,1.4 C7.79130435,0.572727273 8.52173913,0 9.43478261,0 L9.43478261,0 C10.5913043,0 11.5652174,1.01818182 11.5652174,2.22727273 L11.5652174,2.86363636 C11.5652174,4.07272727 10.5913043,5.09090909 9.43478261,5.09090909 L9.43478261,5.09090909 C9.13043478,5.09090909 8.76521739,5.02727273 8.52173913,4.9" id="Shape"></path>
                                <path d="M3.59130435,7.57272727 L0.791304348,9.29090909 C0.304347826,9.60909091 0,10.1818182 0,10.7545455 L0,13.3636364 L10.9565217,13.3636364 L10.9565217,10.7545455 C10.9565217,10.1818182 10.6521739,9.60909091 10.1652174,9.29090909 L7.42608696,7.57272727" id="Shape"></path>
                                <path d="M5.47826087,8.27272727 L5.47826087,8.27272727 C3.77391304,8.27272727 2.43478261,6.87272727 2.43478261,5.09090909 L2.43478261,3.81818182 C2.43478261,2.03636364 3.77391304,0.636363636 5.47826087,0.636363636 L5.47826087,0.636363636 C7.1826087,0.636363636 8.52173913,2.03636364 8.52173913,3.81818182 L8.52173913,5.09090909 C8.52173913,6.87272727 7.1826087,8.27272727 5.47826087,8.27272727 L5.47826087,8.27272727 Z" id="Shape"></path>
                            </g>
                        </g>
                    </g>
                </g>
            </g>
        </g>
    </g>
</svg>