<?xml version="1.0" encoding="UTF-8"?>
<svg width="16px" height="16px" viewBox="0 0 16 16" version="1.1" xmlns="http://www.w3.org/2000/svg" xmlns:xlink="http://www.w3.org/1999/xlink">
    <!-- Generator: Sketch 3.6.1 (26313) - http://www.bohemiancoding.com/sketch -->
    <title>Search</title>
    <desc>Created with Sketch.</desc>
    <defs></defs>
    <g id="Page-1" stroke="none" stroke-width="1" fill="none" fill-rule="evenodd">
        <g id="1产品首页卡片视图" transform="translate(-1105.000000, -8.000000)" fill="#FFFFFF">
            <g id="Topbar">
                <g id="Search" transform="translate(1105.000000, 8.000000)">
                    <path d="M12.7,11.2298137 C13.6,10.0372671 14.1,8.64596273 14.1,7.05590062 C14.1,3.18012422 11,0 7.1,0 C3.2,0 0,3.18012422 0,7.05590062 C0,10.931677 3.2,14.1118012 7.1,14.1118012 C8.7,14.1118012 10.2,13.6149068 11.3,12.7204969 L14.3,15.7018634 C14.5,15.9006211 14.8,16 15,16 C15.2,16 15.5,15.9006211 15.7,15.7018634 C16.1,15.3043478 16.1,14.7080745 15.7,14.310559 L12.7,11.2298137 L12.7,11.2298137 Z M7.1,12.0248447 C4.3,12.0248447 2,9.83850932 2,7.05590062 C2,4.27329193 4.3,1.98757764 7.1,1.98757764 C9.9,1.98757764 12.2,4.27329193 12.2,7.05590062 C12.2,9.83850932 9.9,12.0248447 7.1,12.0248447 L7.1,12.0248447 Z" id="Shape"></path>
                </g>
            </g>
        </g>
    </g>
</svg>