<?xml version="1.0" encoding="UTF-8" standalone="no"?>
<svg width="120px" height="120px" viewBox="0 0 120 120" version="1.1" xmlns="http://www.w3.org/2000/svg" xmlns:xlink="http://www.w3.org/1999/xlink">
    <!-- Generator: Sketch 3.6.1 (26313) - http://www.bohemiancoding.com/sketch -->
    <title>pencil-ruler</title>
    <desc>Created with Sketch.</desc>
    <defs></defs>
    <g id="Page-1" stroke="none" stroke-width="1" fill="none" fill-rule="evenodd">
        <g id="EOS8-Portal" transform="translate(-158.000000, -316.000000)">
            <g id="Group" transform="translate(98.000000, 276.000000)">
                <g id="pencil-ruler" transform="translate(60.000000, 40.000000)">
                    <g id="Group">
                        <path d="M0,60 C4.05812251e-15,93.137085 26.862915,120 60,120 C93.137085,120 120,93.137085 120,60 C120,26.862915 93.137085,2.02906125e-15 60,0 C26.862915,-2.02906125e-15 4.05812251e-15,26.862915 0,60 L0,60 Z" id="Shape" fill="#BDC3C7"></path>
                        <path d="M30.6666667,43.9066666 L43.9066666,30.6666667 L89.3333333,76.0933334 L76.0933334,89.3333333 L30.6666667,43.9066666 Z M43.48,43.9066666 C43.48,42.7364225 42.7750619,41.6814082 41.6938973,41.2335752 C40.6127327,40.7857421 39.3682585,41.0332835 38.5407709,41.860771 C37.7132834,42.6882586 37.4657421,43.9327329 37.9135752,45.0138975 C38.3614082,46.095062 39.4164226,46.8 40.5866667,46.8 C41.3657181,46.8002068 42.111935,46.48624 42.656498,45.9291294 C43.201061,45.3720188 43.4979505,44.6188445 43.48,43.84 L43.48,43.9066666 Z" id="Shape" fill="#FABD6B"></path>
                        <path d="M76.0933334,90.6666667 C75.7389294,90.6687157 75.3982918,90.529582 75.1466667,90.28 L29.72,44.8533333 C29.2030353,44.3332833 29.2030353,43.4933833 29.72,42.9733334 L42.96,29.7333333 C43.4800499,29.2163685 44.3199501,29.2163685 44.84,29.7333333 L90.28,75.1466667 C90.7969647,75.6667167 90.7969647,76.5066167 90.28,77.0266666 L77.04,90.2666667 C76.7905714,90.5211409 76.4496612,90.6651874 76.0933334,90.6666667 L76.0933334,90.6666667 Z M32.56,43.9066666 L76.0933334,87.44 L87.44,76.08 L43.9066666,32.56 L32.56,43.9066666 Z M40.56,48.0666667 C38.2256764,48.0666667 36.3333333,46.1743235 36.3333333,43.84 C36.3333333,41.5056764 38.2256764,39.6133332 40.56,39.6133332 C42.8943236,39.6133332 44.7866667,41.5056764 44.7866667,43.84 C44.7794713,46.1609564 42.9075311,48.0447819 40.5866667,48.0666667 L40.56,48.0666667 Z M40.56,42.2666667 C39.6984358,42.2666667 39,42.9651025 39,43.8266667 C39,44.6882309 39.6984358,45.3866667 40.56,45.3866667 C41.4215642,45.3866667 42.12,44.6882309 42.12,43.8266667 C42.1128916,42.9806032 41.432637,42.2944333 40.5866667,42.28 L40.56,42.2666667 Z" id="Shape" fill="#464C63"></path>
                        <path d="M57.5866666,44.1733334 C57.1612073,43.7548716 56.4787927,43.7548716 56.0533334,44.1733334 L54.3333333,45.8933333 C53.997062,46.1523095 53.8410589,46.5825022 53.9331682,46.9968244 C54.0252775,47.4111466 54.3488534,47.7347225 54.7631756,47.8268318 C55.1774978,47.9189411 55.6076905,47.762938 55.8666667,47.4266667 L57.5866666,45.7066666 C58.0051284,45.2812073 58.0051284,44.5987927 57.5866666,44.1733334 L57.5866666,44.1733334 Z M48.5733333,35.1466666 C48.3705557,34.9422911 48.0945695,34.8273389 47.8066666,34.8273389 C47.5187637,34.8273389 47.2427775,34.9422911 47.04,35.1466666 L45.3333333,36.88 C44.9981065,37.3152798 45.0379632,37.9317278 45.426451,38.3202156 C45.8149388,38.7087034 46.4313868,38.7485601 46.8666667,38.4133334 L48.5866666,36.6933333 C48.7934383,36.488269 48.9086341,36.2083923 48.9061237,35.9171885 C48.9036133,35.6259848 48.7836096,35.3481357 48.5733333,35.1466666 L48.5733333,35.1466666 Z M66.6666667,53.2 C66.2412073,52.7815382 65.5587927,52.7815382 65.1333333,53.2 L63.4133333,54.92 C63.1394297,55.1939037 63.0324582,55.5931269 63.1327139,55.9672862 C63.2329696,56.3414455 63.5252213,56.6336972 63.8993806,56.7339528 C64.2735399,56.8342085 64.6727631,56.727237 64.9466667,56.4533333 L66.6666667,54.7333334 C67.0851285,54.307874 67.0851285,53.6254593 66.6666667,53.2 L66.6666667,53.2 Z M75.64,62.2266667 C75.2145406,61.808205 74.532126,61.808205 74.1066667,62.2266667 L72.3866667,64 C72.0514401,64.4352798 72.0912969,65.0517277 72.4797846,65.4402154 C72.8682723,65.8287031 73.4847201,65.8685599 73.92,65.5333334 L75.64,63.8133333 C75.8613219,63.6088937 75.9871819,63.3212954 75.9871819,63.02 C75.9871819,62.7187046 75.8613219,62.4311062 75.64,62.2266667 L75.64,62.2266667 Z M60.5733333,48.6933333 L57.8133333,51.44 C57.4641381,51.7433723 57.346915,52.2354406 57.5218247,52.6636679 C57.6967345,53.0918952 58.1249349,53.3611849 58.5866667,53.3333333 C58.8772741,53.3364721 59.1565799,53.2208972 59.36,53.0133333 L62.12,50.2666666 C62.3939036,49.992763 62.5008752,49.5935398 62.4006195,49.2193805 C62.3003638,48.8452212 62.0081121,48.5529695 61.6339528,48.4527138 C61.2597935,48.3524582 60.8605703,48.4594297 60.5866666,48.7333334 L60.5733333,48.6933333 Z M51.5466667,39.6666667 L48.8,42.4266667 C48.5956245,42.6294442 48.4806723,42.9054304 48.4806723,43.1933333 C48.4806723,43.4812362 48.5956245,43.7572224 48.8,43.96 C49.0034201,44.1675639 49.2827259,44.2831387 49.5733334,44.28 C49.8636432,44.2816085 50.1423759,44.1662708 50.3466667,43.96 L53.1066667,41.2133333 C53.4418932,40.7780535 53.4020364,40.1616056 53.0135487,39.7731179 C52.625061,39.3846302 52.0086131,39.3447735 51.5733333,39.68 L51.5466667,39.6666667 Z M69.5866666,57.72 L66.8266666,60.4666666 C66.4914399,60.9019465 66.5312966,61.5183945 66.9197844,61.9068823 C67.3082722,62.2953701 67.9247202,62.3352268 68.36,62 L71.12,59.24 C71.5434184,58.8165817 71.5434184,58.130085 71.12,57.7066666 C70.6965817,57.2832483 70.010085,57.2832483 69.5866666,57.7066666 L69.5866666,57.72 Z M78.6666667,66.7466667 L75.8666667,69.4933334 C75.6622912,69.6961109 75.547339,69.9720971 75.547339,70.26 C75.547339,70.5479029 75.6622912,70.8238891 75.8666667,71.0266666 C76.0668581,71.2309036 76.3406787,71.3461964 76.6266667,71.3466667 C76.9166834,71.3467886 77.1948663,71.2316785 77.4,71.0266666 L80.16,68.28 C80.4490125,67.8506362 80.3973645,67.2774467 80.0362536,66.9066632 C79.6751427,66.5358797 79.1035182,66.469102 78.6666667,66.7466667 L78.6666667,66.7466667 Z M84.6666667,71.2533333 C84.4638891,71.0489577 84.1879029,70.9340055 83.9,70.9340055 C83.6120971,70.9340055 83.3361108,71.0489577 83.1333333,71.2533333 L81.4133333,72.9733334 C81.0770619,73.2323095 80.9210587,73.6625022 81.013168,74.0768245 C81.1052773,74.4911468 81.4288533,74.8147227 81.8431756,74.906832 C82.2574979,74.9989413 82.6876906,74.842938 82.9466667,74.5066666 L84.6666667,72.7866667 C84.8710422,72.5838891 84.9859945,72.3079029 84.9859945,72.02 C84.9859945,71.7320971 84.8710422,71.4561108 84.6666667,71.2533333 L84.6666667,71.2533333 Z" id="Shape" fill="#464C63"></path>
                        <path d="M69.8666667,35.0933333 L30.6666667,74.2933334 L45.7066666,89.3333333 L84.9066667,50.1333333" id="Shape" fill="#D87070"></path>
                        <path d="M45.72,90.6666667 C45.365596,90.6687157 45.0249585,90.529582 44.7733334,90.28 L29.72,75.2266666 C29.2030353,74.7066167 29.2030353,73.8667167 29.72,73.3466667 L68.92,34.1466667 C69.44797,33.7446159 70.1912457,33.792039 70.6638387,34.2579286 C71.1364317,34.7238181 71.1944677,35.4663405 70.8,36 L32.56,74.2933334 L45.72,87.4533333 L84,49.2 C84.5290137,48.7469642 85.3175923,48.7774236 85.8100843,49.2699157 C86.3025764,49.7624078 86.3330358,50.5509863 85.88,51.08 L46.6666666,90.28 C46.4150415,90.529582 46.074404,90.6687157 45.72,90.6666667 L45.72,90.6666667 Z" id="Shape" fill="#464C63"></path>
                        <path d="M81.5066667,32.4533333 L69.8666667,35.0933333 L84.9066667,50.1333333 L87.56,38.4933333" id="Shape" fill="#E1E1E6"></path>
                        <path d="M84.9066667,51.4666666 C84.5522627,51.4687157 84.2116252,51.329582 83.96,51.08 L68.92,36 C68.5783067,35.65573 68.4505292,35.1530565 68.586344,34.6874059 C68.7221587,34.2217553 69.100138,33.8665942 69.5733333,33.76 L81.2133333,31.0933334 C81.6896874,30.9885354 82.1857658,31.14583 82.5147005,31.5059658 C82.8436353,31.8661016 82.9554533,32.3743654 82.8080339,32.8392992 C82.6606145,33.3042329 82.2763542,33.6552021 81.8,33.76 L72.4666666,35.8666666 L84.0933333,47.4933333 L86.2,38.16 C86.3620035,37.4236203 87.090287,36.9579964 87.8266666,37.12 C88.5630463,37.2820035 89.0286702,38.010287 88.8666667,38.7466666 L86.2,50.4 C86.0603278,51.0202034 85.5022132,51.4555328 84.8666667,51.44 L84.9066667,51.4666666 Z" id="Shape" fill="#464C63"></path>
                        <path d="M81.5066667,32.44 C82.1888518,35.4533097 84.5451934,37.8044612 87.56,38.48 L89.3333333,30.6666667 L81.5066667,32.44 Z" id="Shape" fill="#93CFEF"></path>
                        <path d="M87.56,39.8266666 L87.2666667,39.8266666 C83.7510003,39.0344572 81.0055428,36.2889997 80.2133333,32.7733334 C80.1335376,32.4285356 80.1940972,32.0661592 80.3816695,31.7660435 C80.5692418,31.4659277 80.8684361,31.2526979 81.2133333,31.1733333 L89.04,29.3333333 C89.4883057,29.2294057 89.9585147,29.3640053 90.2839213,29.689412 C90.6093279,30.0148186 90.7439276,30.4850276 90.64,30.9333333 L88.8666667,38.76 C88.7399284,39.3808883 88.1936915,39.826796 87.56,39.8266666 L87.56,39.8266666 Z M83.24,33.4266667 C83.9086962,34.9139901 85.0993433,36.1046372 86.5866667,36.7733333 L87.5733333,32.44 L83.24,33.4266667 Z" id="Shape" fill="#464C63"></path>
                    </g>
                </g>
            </g>
        </g>
    </g>
</svg>