<?xml version="1.0" encoding="UTF-8" standalone="no"?>
<svg width="120px" height="120px" viewBox="0 0 120 120" version="1.1" xmlns="http://www.w3.org/2000/svg" xmlns:xlink="http://www.w3.org/1999/xlink">
    <!-- Generator: Sketch 3.6.1 (26313) - http://www.bohemiancoding.com/sketch -->
    <title>color-swatches</title>
    <desc>Created with Sketch.</desc>
    <defs></defs>
    <g id="Page-1" stroke="none" stroke-width="1" fill="none" fill-rule="evenodd">
        <g id="EOS8-Portal" transform="translate(-438.000000, -316.000000)">
            <g id="Group" transform="translate(378.000000, 276.000000)">
                <g id="color-swatches" transform="translate(60.000000, 40.000000)">
                    <g id="Group">
                        <path d="M0,60 C4.05812251e-15,93.137085 26.862915,120 60,120 C93.137085,120 120,93.137085 120,60 C120,26.862915 93.137085,2.02906125e-15 60,0 C26.862915,-2.02906125e-15 4.05812251e-15,26.862915 0,60 L0,60 Z" id="Shape" fill="#BDC3C7"></path>
                        <path d="M79.92,88.08 L62.8933334,88.08 L62.8933334,62.8933334 L88.08,62.8933334 L88.08,80.0533334" id="Shape" fill="#F67742"></path>
                        <path d="M61.6266667,61.6266667 L89.3333333,61.6266667 L89.3333333,89.3333333 L61.6266667,89.3333333 L61.6266667,61.6266667 Z" id="Shape" fill="#E1E1E6"></path>
                        <path d="M65.4266667,65.4266667 L85.5333333,65.4266667 L85.5333333,80.64 L80.5466667,85.5333333 L65.4266667,85.5333333 L65.4266667,65.4266667 L65.4266667,65.4266667 Z" id="Shape" fill="#FABD6B"></path>
                        <path d="M80.5466667,86.8666666 L65.4266667,86.8666666 C64.690287,86.8666666 64.0933334,86.269713 64.0933334,85.5333333 L64.0933334,65.4266667 C64.0933334,64.690287 64.690287,64.0933334 65.4266667,64.0933334 L85.5333333,64.0933334 C86.269713,64.0933334 86.8666666,64.690287 86.8666666,65.4266667 L86.8666666,80.64 C86.8651874,80.9963278 86.7211409,81.3372381 86.4666667,81.5866666 L81.48,86.4933333 C81.2295113,86.7347801 80.8945702,86.8687566 80.5466667,86.8666666 L80.5466667,86.8666666 Z M66.76,84.2 L80,84.2 L84.2,80.0666667 L84.2,66.7333334 L66.76,66.7333334 L66.76,84.2 Z" id="Shape" fill="#464C63"></path>
                        <path d="M85.5733334,86.28 C85.5733334,86.6334622 85.8598711,86.92 86.2133333,86.92 C86.5667955,86.92 86.8533333,86.6334622 86.8533333,86.28 C86.8533333,85.9265378 86.5667955,85.64 86.2133333,85.64 C85.8598711,85.64 85.5733334,85.9265378 85.5733334,86.28 L85.5733334,86.28 Z" id="Shape" fill="#CCCCCC"></path>
                        <path d="M86.2133333,88.2533333 C85.1234914,88.2533333 84.24,87.3698419 84.24,86.28 C84.24,85.1901581 85.1234914,84.3066667 86.2133333,84.3066667 C87.3031752,84.3066667 88.1866666,85.1901581 88.1866666,86.28 C88.1866666,87.3698419 87.3031752,88.2533333 86.2133333,88.2533333 L86.2133333,88.2533333 Z M86.2133333,85.5866667 C85.8304159,85.5866668 85.5200001,85.8970827 85.5200002,86.2800001 C85.5200002,86.6629175 85.8304161,86.9733333 86.2133335,86.9733333 C86.5962509,86.9733333 86.9066667,86.6629174 86.9066667,86.28 C86.9066667,86.0961166 86.8336193,85.9197645 86.7035941,85.7897393 C86.5735688,85.6597141 86.3972168,85.5866667 86.2133333,85.5866667 L86.2133333,85.5866667 Z" id="Shape" fill="#464C63"></path>
                        <path d="M48.9466666,88.08 L31.92,88.08 L31.92,62.8933334 L57.1066666,62.8933334 L57.1066666,80.0533334" id="Shape" fill="#F67742"></path>
                        <path d="M30.6666667,61.6266667 L58.3733333,61.6266667 L58.3733333,89.3333333 L30.6666667,89.3333333 L30.6666667,61.6266667 Z" id="Shape" fill="#E1E1E6"></path>
                        <path d="M34.4666667,65.4266667 L54.5733333,65.4266667 L54.5733333,80.64 L49.5866667,85.5333333 L34.4666667,85.5333333 L34.4666667,65.4266667 L34.4666667,65.4266667 Z" id="Shape" fill="#D87070"></path>
                        <path d="M49.5866667,86.8666666 L34.4666667,86.8666666 C33.730287,86.8666666 33.1333334,86.269713 33.1333334,85.5333333 L33.1333334,65.4266667 C33.1333334,64.690287 33.730287,64.0933334 34.4666667,64.0933334 L54.5733333,64.0933334 C55.309713,64.0933334 55.9066666,64.690287 55.9066666,65.4266667 L55.9066666,80.64 C55.9051874,80.9963278 55.7611409,81.3372381 55.5066667,81.5866666 L50.52,86.4933333 C50.2695113,86.7347801 49.9345702,86.8687566 49.5866667,86.8666666 L49.5866667,86.8666666 Z M35.8,84.2 L49.0533333,84.2 L53.2533333,80.0666667 L53.2533333,66.7333334 L35.8,66.7333334 L35.8,84.2 Z" id="Shape" fill="#464C63"></path>
                        <path d="M54.6133334,86.28 C54.6133333,86.50865 54.7353166,86.7199313 54.9333333,86.8342563 C55.13135,86.9485813 55.3753166,86.9485813 55.5733333,86.8342563 C55.77135,86.7199313 55.8933333,86.50865 55.8933333,86.28 C55.8933333,85.9265378 55.6067955,85.64 55.2533333,85.64 C54.8998711,85.64 54.6133334,85.9265378 54.6133334,86.28 L54.6133334,86.28 Z" id="Shape" fill="#CCCCCC"></path>
                        <path d="M55.2533333,88.2533333 C54.1634914,88.2533333 53.28,87.3698419 53.28,86.28 C53.28,85.1901581 54.1634914,84.3066667 55.2533333,84.3066667 C56.3431752,84.3066667 57.2266666,85.1901581 57.2266666,86.28 C57.2266666,87.3698419 56.3431752,88.2533333 55.2533333,88.2533333 L55.2533333,88.2533333 Z M55.2533333,85.5866667 C54.8704159,85.5866668 54.5600001,85.8970827 54.5600002,86.2800001 C54.5600002,86.6629175 54.8704161,86.9733333 55.2533335,86.9733333 C55.6362509,86.9733333 55.9466667,86.6629174 55.9466667,86.28 C55.9466667,86.0961166 55.8736193,85.9197645 55.7435941,85.7897393 C55.6135688,85.6597141 55.4372168,85.5866667 55.2533333,85.5866667 L55.2533333,85.5866667 Z" id="Shape" fill="#464C63"></path>
                        <path d="M79.92,57.1066666 L62.8933334,57.1066666 L62.8933334,31.9333334 L88.08,31.9333334 L88.08,49.0933334" id="Shape" fill="#F67742"></path>
                        <path d="M61.6266667,30.6666667 L89.3333333,30.6666667 L89.3333333,58.3733333 L61.6266667,58.3733333 L61.6266667,30.6666667 Z" id="Shape" fill="#E1E1E6"></path>
                        <path d="M65.4266667,34.4533334 L85.5333333,34.4533334 L85.5333333,49.6666666 L80.5466667,54.5733333 L65.4266667,54.5733333 L65.4266667,34.4533334 L65.4266667,34.4533334 Z" id="Shape" fill="#6B7082"></path>
                        <path d="M81.0933333,55.9066666 L64.0933334,55.9066666 L64.0933334,33.1333334 L86.8666666,33.1333334 L86.8666666,50.2266667 L81.0933333,55.9066666 Z M66.76,53.24 L80,53.24 L84.2,49.1066667 L84.2,35.7733334 L66.76,35.7733334 L66.76,53.24 Z" id="Shape" fill="#464C63"></path>
                        <path d="M85.5733334,55.32 C85.5733334,55.6734622 85.8598711,55.96 86.2133333,55.96 C86.5667955,55.96 86.8533333,55.6734622 86.8533333,55.32 C86.8533333,54.9665378 86.5667955,54.68 86.2133333,54.68 C85.8598711,54.68 85.5733334,54.9665378 85.5733334,55.32 L85.5733334,55.32 Z" id="Shape" fill="#CCCCCC"></path>
                        <path d="M86.2133333,57.3333333 C85.1234914,57.3333333 84.24,56.4498419 84.24,55.36 C84.24,54.2701581 85.1234914,53.3866666 86.2133333,53.3866666 C87.3031752,53.3866666 88.1866666,54.2701581 88.1866666,55.36 C88.1866666,56.4498419 87.3031752,57.3333333 86.2133333,57.3333333 L86.2133333,57.3333333 Z M86.2133333,54.6666667 C85.8304159,54.6666667 85.5200001,54.9770827 85.5200002,55.36 C85.5200002,55.7429174 85.8304161,56.0533333 86.2133335,56.0533332 C86.5962509,56.0533332 86.9066667,55.7429173 86.9066667,55.36 C86.9066667,55.1761165 86.8336193,54.9997645 86.7035941,54.8697393 C86.5735688,54.739714 86.3972168,54.6666666 86.2133333,54.6666667 L86.2133333,54.6666667 Z" id="Shape" fill="#464C63"></path>
                        <path d="M48.9466666,57.1066666 L31.92,57.1066666 L31.92,31.9333334 L57.1066666,31.9333334 L57.1066666,49.0933334" id="Shape" fill="#F67742"></path>
                        <path d="M30.6666667,30.6666667 L58.3733333,30.6666667 L58.3733333,58.3733333 L30.6666667,58.3733333 L30.6666667,30.6666667 Z" id="Shape" fill="#E1E1E6"></path>
                        <path d="M34.4666667,34.4533334 L54.5733333,34.4533334 L54.5733333,49.6666666 L49.5866667,54.5733333 L34.4666667,54.5733333 L34.4666667,34.4533334 L34.4666667,34.4533334 Z" id="Shape" fill="#93CFEF"></path>
                        <path d="M49.5866667,55.9066666 L34.4666667,55.9066666 C33.730287,55.9066666 33.1333334,55.309713 33.1333334,54.5733333 L33.1333334,34.4666667 C33.1333334,33.730287 33.730287,33.1333334 34.4666667,33.1333334 L54.5733333,33.1333334 C55.309713,33.1333334 55.9066666,33.730287 55.9066666,34.4666667 L55.9066666,49.6666666 C55.9051874,50.0229945 55.7611409,50.3639047 55.5066667,50.6133333 L50.52,55.52 C50.2716525,55.7663256 49.9364532,55.9051938 49.5866667,55.9066666 L49.5866667,55.9066666 Z M35.8,53.24 L49.0533333,53.24 L53.2533333,49.1066667 L53.2533333,35.7733334 L35.8,35.7733334 L35.8,53.24 Z" id="Shape" fill="#464C63"></path>
                        <path d="M54.6133334,55.32 C54.6133333,55.54865 54.7353166,55.7599313 54.9333333,55.8742563 C55.13135,55.9885813 55.3753166,55.9885813 55.5733333,55.8742563 C55.77135,55.7599313 55.8933333,55.54865 55.8933333,55.32 C55.8933333,54.9665378 55.6067955,54.68 55.2533333,54.68 C54.8998711,54.68 54.6133334,54.9665378 54.6133334,55.32 L54.6133334,55.32 Z" id="Shape" fill="#CCCCCC"></path>
                        <path d="M55.2533333,57.3333333 C54.1634914,57.3333333 53.28,56.4498419 53.28,55.36 C53.28,54.2701581 54.1634914,53.3866666 55.2533333,53.3866666 C56.3431752,53.3866666 57.2266666,54.2701581 57.2266666,55.36 C57.2266666,56.4498419 56.3431752,57.3333333 55.2533333,57.3333333 L55.2533333,57.3333333 Z M55.2533333,54.6666667 C54.8704159,54.6666667 54.5600001,54.9770827 54.5600002,55.36 C54.5600002,55.7429174 54.8704161,56.0533333 55.2533335,56.0533332 C55.6362509,56.0533332 55.9466667,55.7429173 55.9466667,55.36 C55.9466667,55.1761165 55.8736193,54.9997645 55.7435941,54.8697393 C55.6135688,54.739714 55.4372168,54.6666666 55.2533333,54.6666667 L55.2533333,54.6666667 Z" id="Shape" fill="#464C63"></path>
                    </g>
                </g>
            </g>
        </g>
    </g>
</svg>