<?xml version="1.0" encoding="UTF-8" standalone="no"?>
<svg width="120px" height="120px" viewBox="0 0 120 120" version="1.1" xmlns="http://www.w3.org/2000/svg" xmlns:xlink="http://www.w3.org/1999/xlink">
    <!-- Generator: Sketch 3.6.1 (26313) - http://www.bohemiancoding.com/sketch -->
    <title>screen-infinity</title>
    <desc>Created with Sketch.</desc>
    <defs></defs>
    <g id="Page-1" stroke="none" stroke-width="1" fill="none" fill-rule="evenodd">
        <g id="EOS8-Portal" transform="translate(-718.000000, -316.000000)">
            <g id="Group" transform="translate(658.000000, 276.000000)">
                <g id="screen-infinity" transform="translate(60.000000, 40.000000)">
                    <g id="Group">
                        <path d="M0,60 C4.05812251e-15,93.137085 26.862915,120 60,120 C93.137085,120 120,93.137085 120,60 C120,26.862915 93.137085,2.02906125e-15 60,0 C26.862915,-2.02906125e-15 4.05812251e-15,26.862915 0,60 L0,60 Z" id="Shape" fill="#BDC3C7"></path>
                        <path d="M53.6,79.56 L66.4,79.56 L66.4,90.2266666 L53.6,90.2266666 L53.6,79.56 Z" id="Shape" fill="#BDC3C7"></path>
                        <path d="M66.4,91.56 C65.6636203,91.5599999 65.0666667,90.9630463 65.0666667,90.2266666 L65.0666667,79.56 C65.066885,78.8237747 65.6637747,78.2270619 66.4,78.2270619 C67.1362253,78.2270619 67.7331151,78.8237747 67.7333333,79.56 L67.7333333,90.2266666 C67.7333333,90.9630463 67.1363796,91.56 66.4,91.56 L66.4,91.56 Z M53.6,91.56 C52.8636204,91.56 52.2666667,90.9630463 52.2666667,90.2266666 L52.2666667,79.56 C52.2668849,78.8237747 52.8637747,78.2270619 53.6,78.2270619 C54.3362253,78.2270619 54.933115,78.8237747 54.9333333,79.56 L54.9333333,90.2266666 C54.9333333,90.9630463 54.3363797,91.5599999 53.6,91.56 L53.6,91.56 Z" id="Shape" fill="#464C63"></path>
                        <path d="M74.9333333,91.56 L45.0666667,91.56 C44.330287,91.56 43.7333333,90.9630463 43.7333333,90.2266666 C43.7333333,89.490287 44.330287,88.8933333 45.0666667,88.8933333 L74.9333333,88.8933333 C75.669713,88.8933333 76.2666667,89.490287 76.2666667,90.2266666 C76.2666667,90.9630463 75.669713,91.56 74.9333333,91.56 L74.9333333,91.56 Z" id="Shape" fill="#464C63"></path>
                        <path d="M28,29.7733334 L92,29.7733334 L92,79.5466666 L28,79.5466666 L28,29.7733334 L28,29.7733334 Z" id="Shape" fill="#6B7082"></path>
                        <path d="M28,72.44 L90.7866667,72.44 L90.7866667,78.2533334 L28,78.2533334 L28,72.44 Z" id="Shape" fill="#E1E1E6"></path>
                        <path d="M87.7333334,80.8933334 L32.2666666,80.8933334 C29.1769135,80.8860029 26.6739971,78.3830865 26.6666667,75.2933333 L26.6666667,34.04 C26.6739971,30.9502469 29.1769135,28.4473304 32.2666666,28.44 L87.7333334,28.44 C90.8261279,28.4400001 93.3333333,30.9472055 93.3333333,34.04 L93.3333333,75.2933333 C93.3260029,78.3830865 90.8230865,80.8860029 87.7333334,80.8933334 L87.7333334,80.8933334 Z M32.2666666,31.1066667 C30.6466314,31.1066667 29.3333333,32.4199648 29.3333333,34.04 L29.3333333,75.2933333 C29.3333333,76.9133686 30.6466314,78.2266666 32.2666666,78.2266666 L87.7333334,78.2266666 C89.3533686,78.2266666 90.6666667,76.9133686 90.6666667,75.2933333 L90.6666667,34.04 C90.6666667,32.4199648 89.3533686,31.1066667 87.7333334,31.1066667 L32.2666666,31.1066667 Z" id="Shape" fill="#464C63"></path>
                        <path d="M92,73.7733333 L28,73.7733333 C27.2637747,73.773115 26.6670619,73.1762253 26.6670619,72.44 C26.6670619,71.7037747 27.2637747,71.1068849 28,71.1066667 L92,71.1066667 C92.7362253,71.1068849 93.3329381,71.7037747 93.3329381,72.44 C93.3329381,73.1762253 92.7362253,73.773115 92,73.7733333 L92,73.7733333 Z" id="Shape" fill="#464C63"></path>
                        <path d="M73.0533333,63.4 C67.5733332,63.4 63.72,59.2666666 60,54.92 C56.3333333,59.2666668 52.44,63.4000001 46.96,63.4 C41.1536463,63.4 36.4466667,58.6930203 36.4466667,52.8866667 C36.4466667,47.080313 41.1536463,42.3733334 46.96,42.3733334 C52.4533332,42.3733334 56.2933332,46.4533334 60,50.7733334 C63.6533333,46.4533334 67.56,42.3733334 73.0533333,42.3733334 C78.8596869,42.3733334 83.5666666,47.080313 83.5666666,52.8866667 C83.5666666,58.6930203 78.8596869,63.4 73.0533333,63.4 L73.0533333,63.4 Z M61.7333333,52.8533333 C65.2266667,57.0133334 68.6,60.7333334 73.04,60.7333334 C77.3735944,60.7333334 80.8866667,57.220261 80.8866667,52.8866667 C80.8866667,48.5530723 77.3735944,45.04 73.04,45.04 C68.5866667,45.04 65.2133333,48.72 61.7333333,52.8533333 L61.7333333,52.8533333 Z M46.96,45.04 C42.6264056,45.04 39.1133333,48.5530723 39.1133333,52.8866667 C39.1133333,57.220261 42.6264056,60.7333334 46.96,60.7333334 C51.4,60.7333334 54.7733333,57 58.2666667,52.8533333 C54.7866667,48.72 51.4133333,45.04 46.96,45.04 L46.96,45.04 Z" id="Shape" fill="#FABD6B"></path>
                    </g>
                </g>
            </g>
        </g>
    </g>
</svg>