<svg xmlns="http://www.w3.org/2000/svg" xmlns:xlink="http://www.w3.org/1999/xlink" preserveAspectRatio="xMidYMid" width="212" height="177" viewBox="0 0 212 177">
  <defs>
    <style>
      .cls-1 {
        opacity: 0.8;
      }

      .cls-2, .cls-4 {
        fill: #fff;
      }

      .cls-2 {
        fill-rule: evenodd;
      }

      .cls-3, .cls-4 {
        font-size: 36px;
      }

      .cls-4 {
        text-anchor: middle;
        font-family: "PingFang SC";
      }
    </style>
  </defs>
  <g class="cls-1">
    <path d="M114.297,5.500 C93.163,5.500 75.072,18.509 67.561,36.961 C62.429,37.733 57.757,38.634 53.644,39.642 C60.643,16.700 81.946,-0.000 107.172,-0.000 C125.536,-0.000 141.835,8.845 152.044,22.508 C142.801,12.079 129.320,5.500 114.297,5.500 ZM34.563,50.516 C34.563,59.671 69.358,67.094 112.281,67.094 C145.386,67.094 173.638,62.677 184.839,56.456 C178.172,64.237 144.543,70.156 104.031,70.156 C90.036,70.156 76.864,69.448 65.336,68.203 C70.790,90.196 90.637,106.500 114.297,106.500 C129.320,106.500 142.801,99.921 152.044,89.493 C141.835,103.155 125.536,112.000 107.172,112.000 C79.818,112.000 57.061,92.372 52.173,66.432 C33.760,63.401 22.000,58.790 22.000,53.625 C22.000,49.131 30.929,45.063 45.369,42.084 C38.512,44.555 34.563,47.436 34.563,50.516 Z" class="cls-2"/>
    <text x="107" y="176" class="cls-3"><tspan class="cls-4">The Platform</tspan></text>
  </g>
</svg>
