<?xml version="1.0" encoding="UTF-8" standalone="no"?>
<svg width="50px" height="34px" viewBox="0 0 50 34" version="1.1" xmlns="http://www.w3.org/2000/svg" xmlns:xlink="http://www.w3.org/1999/xlink">
    <!-- Generator: Sketch 3.6.1 (26313) - http://www.bohemiancoding.com/sketch -->
    <title>LOGO</title>
    <desc>Created with Sketch.</desc>
    <defs></defs>
    <g id="Page-1" stroke="none" stroke-width="1" fill="none" fill-rule="evenodd">
        <g id="B1主页-1.2-Copy-2" transform="translate(-25.000000, -8.000000)" fill="#4D5666">
            <g id="Top-bar">
                <path d="M53.3399554,9.66964286 C46.8507237,9.66964286 41.2958505,13.6188036 38.9895848,19.2203036 C37.4137952,19.4546607 35.9792494,19.7281786 34.7163456,20.0341786 C36.8654008,13.0696429 43.4065242,8 51.1522117,8 C56.79091,8 61.7955465,10.6850893 64.9302378,14.8327857 C62.0921585,11.6668393 57.9527939,9.66964286 53.3399554,9.66964286 L53.3399554,9.66964286 Z M28.8574911,23.3352143 C28.8574911,26.1144107 39.5413568,28.3678214 52.7209391,28.3678214 C62.8858873,28.3678214 71.5607133,27.0269464 75,25.1384286 C72.952886,27.5005179 62.6270427,29.2973571 50.1877621,29.2973571 C45.8905729,29.2973571 41.8460872,29.0824286 38.3063947,28.7044821 C39.9810549,35.3809286 46.075111,40.3303571 53.3399554,40.3303571 C57.9527939,40.3303571 62.0921585,38.3331607 64.9302378,35.1675179 C61.7955465,39.3149107 56.79091,42 51.1522117,42 C42.7531181,42 35.7655414,36.0415 34.2646725,28.1668571 C28.6109286,27.2467321 25,25.8469643 25,24.2790179 C25,22.9147679 27.7416651,21.6798393 32.1754924,20.7755 C30.0700385,21.525625 28.8574911,22.4002143 28.8574911,23.3352143 L28.8574911,23.3352143 Z" id="LOGO"></path>
            </g>
        </g>
    </g>
</svg>