<?xml version="1.0" encoding="UTF-8" standalone="no"?>
<svg width="120px" height="120px" viewBox="0 0 120 120" version="1.1" xmlns="http://www.w3.org/2000/svg" xmlns:xlink="http://www.w3.org/1999/xlink">
    <!-- Generator: Sketch 3.6.1 (26313) - http://www.bohemiancoding.com/sketch -->
    <title>retina-ready-design</title>
    <desc>Created with Sketch.</desc>
    <defs></defs>
    <g id="Page-1" stroke="none" stroke-width="1" fill="none" fill-rule="evenodd">
        <g id="EOS8-Portal" transform="translate(-998.000000, -316.000000)">
            <g id="Group" transform="translate(938.000000, 276.000000)">
                <g id="retina-ready-design" transform="translate(60.000000, 40.000000)">
                    <g id="Group">
                        <path d="M0,60 C4.05812251e-15,93.137085 26.862915,120 60,120 C93.137085,120 120,93.137085 120,60 C120,26.862915 93.137085,2.02906125e-15 60,0 C26.862915,-2.02906125e-15 4.05812251e-15,26.862915 0,60 L0,60 Z" id="Shape" fill="#BDC3C7"></path>
                        <path d="M89.1333333,29.3333333 L30.8666667,29.3333333 C30.4529094,29.3403456 30.0588913,29.5114662 29.7713227,29.8090373 C29.483754,30.1066084 29.3262001,30.5062448 29.3333333,30.92 L29.3333333,90.6666667 L90.6666667,90.6666667 L90.6666667,30.92 C90.6737999,30.5062448 90.516246,30.1066084 90.2286773,29.8090373 C89.9411087,29.5114662 89.5470906,29.3403456 89.1333333,29.3333333 L89.1333333,29.3333333 Z" id="Shape" fill="#E1E1E6"></path>
                        <path d="M90.6666667,92 L29.3333333,92 C28.5969536,92 28,91.4030464 28,90.6666667 L28,30.92 C27.9928948,30.1526306 28.2909339,29.4138716 28.8285452,28.8662582 C29.3661565,28.3186448 30.0992967,28.0070399 30.8666667,28 L89.1333333,28 C89.9007033,28.0070399 90.6338435,28.3186448 91.1714548,28.8662582 C91.7090661,29.4138716 92.0071052,30.1526306 92,30.92 L92,90.6666667 C92,91.4030464 91.4030464,92 90.6666667,92 L90.6666667,92 Z M30.6666667,89.3333333 L89.3333333,89.3333333 L89.3333333,30.92 C89.3408376,30.8598065 89.323902,30.7991166 89.2863146,30.751506 C89.2487273,30.7038954 89.1936249,30.6733371 89.1333333,30.6666667 L30.8666667,30.6666667 C30.8063751,30.6733371 30.7512727,30.7038954 30.7136854,30.751506 C30.676098,30.7991166 30.6591624,30.8598065 30.6666667,30.92 L30.6666667,89.3333333 Z" id="Shape" fill="#464C63"></path>
                        <path d="M35.3333333,40.3066666 L84.6666667,40.3066666 L84.6666667,84.6266667 L35.3333333,84.6266667 L35.3333333,40.3066666 Z" id="Shape" fill="#93CFEF"></path>
                        <path d="M84.6666667,85.96 L35.3333333,85.96 C34.5969537,85.96 34,85.3630464 34,84.6266667 L34,40.3066666 C34,39.570287 34.5969536,38.9733333 35.3333333,38.9733333 L84.6666667,38.9733333 C85.0202887,38.9733333 85.3594272,39.1138091 85.6094757,39.3638576 C85.8595242,39.6139061 86,39.9530446 86,40.3066666 L86,84.6266667 C86,85.3630464 85.4030463,85.96 84.6666667,85.96 L84.6666667,85.96 Z M36.6666667,83.2933334 L83.3333333,83.2933334 L83.3333333,41.64 L36.6666667,41.64 L36.6666667,83.2933334 Z" id="Shape" fill="#464C63"></path>
                        <path d="M44.56,34.28 C44.56,35.2372936 45.3121616,36.0133334 46.24,36.0133334 C47.1678383,36.0133334 47.92,35.2372936 47.92,34.28 C47.92,33.3227065 47.1678383,32.5466667 46.24,32.5466667 C45.3121616,32.5466667 44.56,33.3227065 44.56,34.28 L44.56,34.28 Z" id="Shape" fill="#64A5DA"></path>
                        <path d="M39.16,34.28 C39.16,35.2372936 39.9121616,36.0133334 40.84,36.0133334 C41.7678383,36.0133334 42.52,35.2372936 42.52,34.28 C42.52,33.3227065 41.7678383,32.5466667 40.84,32.5466667 C39.9121616,32.5466667 39.16,33.3227065 39.16,34.28 L39.16,34.28 Z" id="Shape" fill="#E0A45C"></path>
                        <path d="M33.7466667,34.28 C33.7466667,35.2372936 34.4988283,36.0133334 35.4266667,36.0133334 C36.3545051,36.0133334 37.1066667,35.2372936 37.1066667,34.28 C37.1066667,33.3227065 36.3545051,32.5466667 35.4266667,32.5466667 C34.4988283,32.5466667 33.7466667,33.3227065 33.7466667,34.28 L33.7466667,34.28 Z" id="Shape" fill="#BD5858"></path>
                        <path d="M76.7733333,62.08 C73.3114548,68.0697734 66.918236,71.7589362 60,71.7589362 C53.081764,71.7589362 46.6885452,68.0697734 43.2266667,62.08 L43.2266667,61.7466667 C46.6885452,55.7568932 53.081764,52.0677304 60,52.0677304 C66.918236,52.0677304 73.3114548,55.7568932 76.7733333,61.7466667 L76.7733333,62.08 Z" id="Shape" fill="#FFFFFF"></path>
                        <path d="M60,73.0933334 C52.6201173,73.0712688 45.8029975,69.1453382 42.08,62.7733334 C41.957881,62.5675258 41.8934037,62.3326445 41.8933334,62.0933333 L41.8933334,61.76 C41.8934037,61.5206889 41.957881,61.2858076 42.08,61.08 C45.7996431,54.7028675 52.6173889,50.7715037 60,50.7466666 C67.3806093,50.766029 74.1989751,54.6926772 77.92,61.0666666 C78.042119,61.2724742 78.1065963,61.5073555 78.1066666,61.7466667 L78.1066666,62.08 C78.1065963,62.3193111 78.042119,62.5541924 77.92,62.76 C74.2023324,69.1391175 67.3833395,73.0712004 60,73.0933334 L60,73.0933334 Z M44.6933333,61.92 C47.9975317,67.1945564 53.7759947,70.4059321 60,70.4266666 C66.2240053,70.4059321 72.0024683,67.1945564 75.3066667,61.92 C72.0024683,56.6454436 66.2240053,53.4340679 60,53.4133334 C53.7759947,53.4340679 47.9975317,56.6454436 44.6933333,61.92 L44.6933333,61.92 Z" id="Shape" fill="#464C63"></path>
                        <path d="M52.6133333,61.9066666 C52.6079383,64.8955019 54.4042173,67.593038 57.163994,68.7405559 C59.9237708,69.8880738 63.1030922,69.2593974 65.2184296,67.1478783 C67.333767,65.0363592 67.9681865,61.8581787 66.8256565,59.0963333 C65.6831265,56.3344878 62.9888401,54.5333382 60,54.5333333 C55.925658,54.5333267 52.6206877,57.8323313 52.6133333,61.9066666 L52.6133333,61.9066666 Z M55.8533333,59.6 C55.8533333,58.7263616 56.3796004,57.9387472 57.1867371,57.6044202 C57.9938738,57.2700933 58.9229283,57.4548937 59.540684,58.0726494 C60.1584396,58.6904051 60.3432401,59.6194596 60.0089131,60.4265963 C59.6745862,61.2337329 58.8869718,61.76 58.0133333,61.76 C56.8307895,61.7527226 55.873944,60.7958771 55.8666667,59.6133333 L55.8533333,59.6 Z" id="Shape" fill="#464C63"></path>
                    </g>
                </g>
            </g>
        </g>
    </g>
</svg>