<?xml version="1.0" encoding="UTF-8" standalone="no"?>
<svg width="300px" height="300px" viewBox="0 0 300 300" version="1.1" xmlns="http://www.w3.org/2000/svg" xmlns:xlink="http://www.w3.org/1999/xlink">
    <!-- Generator: Sketch 3.6.1 (26313) - http://www.bohemiancoding.com/sketch -->
    <title>design-64px-outline_drag</title>
    <desc>Created with Sketch.</desc>
    <defs></defs>
    <g id="Page-1" stroke="none" stroke-width="1" fill="none" fill-rule="evenodd">
        <g id="design-64px-outline_drag">
            <circle id="Oval-306" fill="#6CC591" cx="150" cy="150" r="150"></circle>
            <g id="Group" transform="translate(76.000000, 76.000000)" stroke="#FFFFFF" stroke-width="4">
                <path d="M0,15.8571429 L0,0 L15.8571429,0" id="Shape"></path>
                <path d="M0,109 L0,124.857143 L15.8571429,124.857143" id="Shape"></path>
                <path d="M123.857143,15.8571429 L123.857143,0 L108,0" id="Shape"></path>
                <path d="M34,0 L52.5,0" id="Shape"></path>
                <path d="M0,35 L0,53.5" id="Shape"></path>
                <path d="M124,35 L124,53.5" id="Shape"></path>
                <path d="M0,72 L0,90.5" id="Shape"></path>
                <path d="M71,0 L89.5,0" id="Shape"></path>
                <path d="M34,124 L52.5,124" id="Shape"></path>
                <path d="M147.928571,89.7857143 L66,66 L89.7857143,147.928571 L105.642857,116.214286 L137.357143,147.928571 L142.642857,142.642857 L147.928571,137.357143 L116.214286,105.642857 L147.928571,89.7857143 Z" id="Shape"></path>
            </g>
        </g>
    </g>
</svg>