<svg xmlns="http://www.w3.org/2000/svg" xmlns:xlink="http://www.w3.org/1999/xlink" preserveAspectRatio="xMidYMid" width="300" height="300" viewBox="0 0 300 300">
  <defs>
    <style>
      .cls-1 {
        fill: #aacfb7;
      }

      .cls-2 {
        fill: #fff;
        fill-rule: evenodd;
      }
    </style>
  </defs>
  <g>
    <circle cx="150" cy="150" r="150" class="cls-1"/>
    <path d="M201.897,147.897 C200.271,150.939 197.129,152.837 193.696,152.839 L175.203,152.839 L166.270,152.839 L161.211,152.839 L161.211,176.226 L170.539,176.226 L170.539,185.580 L161.211,185.580 L151.883,185.580 L142.555,185.580 L142.555,176.226 L151.883,176.226 L151.883,152.839 L147.711,152.839 L137.891,152.839 L128.563,152.839 L119.283,152.839 C115.849,152.839 112.697,150.940 111.080,147.897 C109.463,144.854 109.645,141.164 111.544,138.295 L148.749,82.165 C150.475,79.563 153.378,77.999 156.489,77.999 C159.594,77.999 162.502,79.563 164.228,82.165 L201.433,138.295 C203.341,141.164 203.515,144.854 201.897,147.897 ZM190.039,136.885 L163.096,92.969 C161.685,90.832 159.306,89.548 156.764,89.548 C154.219,89.548 152.427,90.832 151.015,92.969 L122.177,136.885 C120.624,139.240 120.839,143.484 120.839,143.484 C120.839,143.484 125.754,143.484 128.563,143.484 L137.891,143.484 L175.203,143.484 L184.531,143.484 C187.341,143.484 191.674,143.484 191.674,143.484 C191.674,143.484 191.600,139.240 190.039,136.885 ZM128.563,213.644 L184.531,213.644 L184.531,171.547 L193.859,171.547 L193.859,213.644 C193.859,218.811 189.682,222.999 184.531,222.999 L128.563,222.999 C123.412,222.999 119.235,218.811 119.235,213.644 L119.235,171.547 L128.563,171.547 L128.563,213.644 Z" class="cls-2"/>
  </g>
</svg>
