<?xml version="1.0" encoding="UTF-8" standalone="no"?>
<svg width="300px" height="300px" viewBox="0 0 300 300" version="1.1" xmlns="http://www.w3.org/2000/svg" xmlns:xlink="http://www.w3.org/1999/xlink">
  <!-- Generator: Sketch 3.6.1 (26313) - http://www.bohemiancoding.com/sketch -->
  <title>design-64px-outline_compass</title>
  <desc>Created with Sketch.</desc>
  <defs></defs>
  <g id="Page-1" stroke="none" stroke-width="1" fill="none" fill-rule="evenodd">
    <g id="design-64px-outline_compass">
      <circle id="Oval-306" fill="#94BADA" cx="150" cy="150" r="150"></circle>
      <g id="users-64px-outline_multiple-11" transform="translate(76.000000, 76.000000)" stroke-width="4" stroke="#FFFFFF">
        <g id="Group">
          <path d="M103.6,54.2666667 L148,54.2666667 L148,78.9333333 L133.2,93.7333333 L133.2,128.266667 L108.533333,128.266667 L108.533333,93.7333333 L103.6,88.8" id="Shape"></path>
          <circle id="Oval" cx="123.333333" cy="24.6666667" r="14.8"></circle>
          <path d="M44.4,54.2666667 L0,54.2666667 L0,78.9333333 L14.8,93.7333333 L14.8,128.266667 L39.4666667,128.266667 L39.4666667,93.7333333 L44.4,88.8" id="Shape"></path>
          <circle id="Oval" cx="24.6666667" cy="24.6666667" r="14.8"></circle>
          <path d="M88.8,148 L59.2,148 L59.2,108.533333 L44.4,93.7333333 L44.4,54.2666667 L103.6,54.2666667 L103.6,93.7333333 L88.8,108.533333 L88.8,148 Z" id="Shape"></path>
          <circle id="Oval" cx="74" cy="19.7333333" r="19.7333333"></circle>
        </g>
      </g>
    </g>
  </g>
</svg>