<svg xmlns="http://www.w3.org/2000/svg" xmlns:xlink="http://www.w3.org/1999/xlink" preserveAspectRatio="xMidYMid" width="336" height="42" viewBox="0 0 336 42">
  <defs>
    <style>
      .cls-1 {
        opacity: 0.8;
      }

      .cls-2, .cls-4 {
        fill: #fff;
      }

      .cls-2 {
        fill-rule: evenodd;
      }

      .cls-3, .cls-4 {
        font-size: 36px;
      }

      .cls-4 {
        font-family: "OratorStd";
      }
    </style>
  </defs>
  <g class="cls-1">
    <path d="M34.609,2.062 C26.692,2.062 19.942,6.944 17.121,13.852 C15.186,14.143 13.430,14.482 11.881,14.862 C14.510,6.265 22.479,-0.000 31.938,-0.000 C38.806,-0.000 44.885,3.312 48.716,8.410 C45.251,4.524 40.223,2.062 34.609,2.062 ZM4.719,18.938 C4.719,22.372 17.765,25.156 33.859,25.156 C46.292,25.156 56.877,23.492 61.063,21.152 C58.599,24.080 45.991,26.312 30.766,26.312 C25.522,26.312 20.589,26.047 16.268,25.580 C18.318,33.822 25.740,39.938 34.609,39.938 C40.223,39.938 45.251,37.476 48.716,33.590 C44.885,38.688 38.806,42.000 31.938,42.000 C21.679,42.000 13.151,34.639 11.316,24.914 C4.412,23.777 -0.000,22.047 -0.000,20.109 C-0.000,18.421 3.364,16.895 8.794,15.777 C6.222,16.704 4.719,17.782 4.719,18.938 Z" class="cls-2"/>
    <text x="79" y="33" class="cls-3"><tspan class="cls-4">The Platform</tspan></text>
  </g>
</svg>
