<?xml version="1.0" encoding="UTF-8" standalone="no"?>
<svg width="207px" height="141px" viewBox="0 0 207 141" version="1.1" xmlns="http://www.w3.org/2000/svg" xmlns:xlink="http://www.w3.org/1999/xlink">
    <!-- Generator: Sketch 3.6.1 (26313) - http://www.bohemiancoding.com/sketch -->
    <title>LOGO</title>
    <desc>Created with Sketch.</desc>
    <defs></defs>
    <g id="Page-1" stroke="none" stroke-width="1" fill="none" fill-rule="evenodd">
        <g id="A1主页" transform="translate(-668.000000, -330.000000)" fill="#DEE3ED">
            <path d="M785.31944,337.338929 C758.583805,337.338929 735.697728,353.609471 726.195913,376.687651 C719.70366,377.653202 713.793331,378.780096 708.590167,380.040816 C717.444275,351.346929 744.393703,330.46 776.305936,330.46 C799.537373,330.46 820.156475,341.522568 833.071403,358.611077 C821.378517,345.567378 804.324334,337.338929 785.31944,337.338929 L785.31944,337.338929 Z M684.451687,393.641083 C684.451687,405.091372 728.469214,414.375424 782.769093,414.375424 C824.648679,414.375424 860.388963,408.851019 874.558824,401.070326 C866.124714,410.802134 823.582239,418.205111 772.332404,418.205111 C754.627984,418.205111 737.964703,417.319606 723.38117,415.762466 C730.28077,443.269426 755.388281,463.661071 785.31944,463.661071 C804.324334,463.661071 821.378517,455.432622 833.071403,442.390174 C820.156475,459.477432 799.537373,470.54 776.305936,470.54 C741.70167,470.54 712.912854,445.99098 706.729274,413.547451 C683.435849,409.756536 668.558824,403.989493 668.558824,397.529554 C668.558824,391.908844 679.854484,386.820938 698.121852,383.09506 C689.447382,386.185575 684.451687,389.788883 684.451687,393.641083 L684.451687,393.641083 Z" id="LOGO"></path>
        </g>
    </g>
</svg>