<?xml version="1.0" encoding="UTF-8" standalone="no"?>
<svg width="10px" height="10px" viewBox="0 0 10 10" version="1.1" xmlns="http://www.w3.org/2000/svg" xmlns:xlink="http://www.w3.org/1999/xlink">
    <!-- Generator: Sketch 3.6.1 (26313) - http://www.bohemiancoding.com/sketch -->
    <title>stop</title>
    <desc>Created with Sketch.</desc>
    <defs></defs>
    <g id="Page-1" stroke="none" stroke-width="1" fill="none" fill-rule="evenodd">
        <g id="04产品版本" transform="translate(-691.000000, -92.000000)">
            <g id="Group" transform="translate(70.000000, 60.000000)">
                <g id="stop" transform="translate(621.000000, 32.000000)">
                    <path d="M5,0 C2.25,0 0,2.25 0,5 C0,7.75 2.25,10 5,10 C7.75,10 10,7.75 10,5 C10,2.25 7.75,0 5,0 L5,0 Z" id="Shape" fill="#F05050"></path>
                    <path d="M7.08333333,6.66666667 C7.08333333,6.91666667 6.91666667,7.08333333 6.66666667,7.08333333 L3.33333333,7.08333333 C3.08333333,7.08333333 2.91666667,6.91666667 2.91666667,6.66666667 L2.91666667,3.33333333 C2.91666667,3.08333333 3.08333333,2.91666667 3.33333333,2.91666667 L6.66666667,2.91666667 C6.91666667,2.91666667 7.08333333,3.08333333 7.08333333,3.33333333 L7.08333333,6.66666667 L7.08333333,6.66666667 Z" id="Path" fill="#FFFFFF"></path>
                </g>
            </g>
        </g>
    </g>
</svg>