<?xml version="1.0" encoding="UTF-8" standalone="no"?>
<svg width="10px" height="10px" viewBox="0 0 10 10" version="1.1" xmlns="http://www.w3.org/2000/svg" xmlns:xlink="http://www.w3.org/1999/xlink">
    <!-- Generator: Sketch 3.6.1 (26313) - http://www.bohemiancoding.com/sketch -->
    <title>design</title>
    <desc>Created with Sketch.</desc>
    <defs></defs>
    <g id="Page-1" stroke="none" stroke-width="1" fill="none" fill-rule="evenodd">
        <g id="04产品版本" transform="translate(-972.000000, -92.000000)">
            <g id="Group" transform="translate(70.000000, 60.000000)">
                <g id="design" transform="translate(902.000000, 32.000000)">
                    <path d="M5,0 C2.25,0 0,2.25 0,5 C0,7.75 2.25,10 5,10 C7.75,10 10,7.75 10,5 C10,2.25 7.75,0 5,0 L5,0 Z" id="Shape" fill="#3CA8FF"></path>
                    <path d="M7.40625,3.84375 L6.15625,2.59375 C6.03125,2.46875 5.84375,2.46875 5.71875,2.59375 L5.3125,3 L5.84375,3.53125 L5.40625,3.96875 L4.875,3.4375 L4.375,3.9375 L4.90625,4.46875 L4.46875,4.90625 L3.9375,4.375 L3.4375,4.875 L3.96875,5.40625 L3.53125,5.84375 L3,5.3125 L2.59375,5.71875 C2.46875,5.84375 2.46875,6.03125 2.59375,6.15625 L3.84375,7.40625 C3.96875,7.53125 4.15625,7.53125 4.28125,7.40625 L7.40625,4.28125 C7.53125,4.15625 7.53125,3.96875 7.40625,3.84375 L7.40625,3.84375 Z" id="Shape" fill="#FFFFFF"></path>
                </g>
            </g>
        </g>
    </g>
</svg>