<?xml version="1.0" encoding="UTF-8" standalone="no"?>
<svg width="12px" height="14px" viewBox="0 0 12 14" version="1.1" xmlns="http://www.w3.org/2000/svg" xmlns:xlink="http://www.w3.org/1999/xlink">
    <!-- Generator: Sketch 3.6.1 (26313) - http://www.bohemiancoding.com/sketch -->
    <title>design-16px_usb</title>
    <desc>Created with Sketch.</desc>
    <defs></defs>
    <g id="Page-1" stroke="none" stroke-width="1" fill="none" fill-rule="evenodd">
        <g id="34项目代码浏览分支" transform="translate(-49.000000, -286.000000)" fill="#27C24C">
            <g id="Group-3-Copy" transform="translate(20.000000, 253.000000)">
                <g id="Group-3" transform="translate(17.000000, 30.000000)">
                    <g id="Group-2-Copy-2">
                        <g id="design-16px_usb" transform="translate(18.000000, 10.000000) scale(1, -1) translate(-18.000000, -10.000000) translate(12.000000, 3.000000)">
                            <path d="M12,5.25 L8.57142857,5.25 L8.57142857,8.75 L9.42857143,8.75 L9.42857143,9.8875 L6.85714286,10.9375 L6.85714286,2.975 L7.97142857,4.1125 L9.17142857,2.8875 L6.6,0.2625 C6.25714286,-0.0875 5.74285714,-0.0875 5.4,0.2625 L2.82857143,2.8875 L4.02857143,4.1125 L5.14285714,2.975 L5.14285714,10.9375 L2.57142857,9.8875 L2.57142857,8.4875 C3.08571429,8.225 3.42857143,7.6125 3.42857143,7 C3.42857143,6.0375 2.65714286,5.25 1.71428571,5.25 C0.771428571,5.25 0,6.0375 0,7 C0,7.6125 0.342857143,8.225 0.857142857,8.4875 L0.857142857,10.5 C0.857142857,10.85 1.02857143,11.2 1.37142857,11.2875 L5.14285714,12.8625 L5.14285714,14 L6.85714286,14 L6.85714286,12.8625 L10.6285714,11.375 C10.9714286,11.2 11.1428571,10.9375 11.1428571,10.5875 L11.1428571,8.8375 L12,8.8375 L12,5.25 L12,5.25 Z" id="Shape"></path>
                        </g>
                    </g>
                </g>
            </g>
        </g>
    </g>
</svg>