<?xml version="1.0" encoding="UTF-8" standalone="no"?>
<svg width="16px" height="14px" viewBox="0 0 16 14" version="1.1" xmlns="http://www.w3.org/2000/svg" xmlns:xlink="http://www.w3.org/1999/xlink">
    <!-- Generator: Sketch 3.6.1 (26313) - http://www.bohemiancoding.com/sketch -->
    <title>design-16px_code</title>
    <desc>Created with Sketch.</desc>
    <defs></defs>
    <g id="Page-1" stroke="none" stroke-width="1" fill="none" fill-rule="evenodd">
        <g id="17项目代码权限" transform="translate(-40.000000, -147.000000)" fill="#F05050">
            <g id="Group-3" transform="translate(0.000000, 112.000000)">
                <g id="design-16px_code" transform="translate(40.000000, 35.000000)">
                    <path d="M12.7,10.7 L11.3,9.3 L13.6,7 L11.3,4.7 L12.7,3.3 L15.7,6.3 C16.1,6.7 16.1,7.3 15.7,7.7 L12.7,10.7 L12.7,10.7 Z" id="Shape"></path>
                    <path d="M3.3,10.7 L0.3,7.7 C-0.1,7.3 -0.1,6.7 0.3,6.3 L3.3,3.3 L4.7,4.7 L2.4,7 L4.7,9.3 L3.3,10.7 L3.3,10.7 Z" id="Shape"></path>
                    <path d="M5.95860531,14 C5.85902508,14 5.75944485,14 5.65986462,13.9004455 C5.16196348,13.7013364 4.86322279,13.2035638 5.06238325,12.6062367 L9.0455924,0.659694267 C9.24475286,0.161921665 9.742654,-0.136741896 10.3401354,0.0623671445 C10.8380365,0.261476185 11.1367772,0.759248787 10.9376168,1.35657591 L6.9544076,13.3031184 C6.75524714,13.7013364 6.35692622,14 5.95860531,14 L5.95860531,14 Z" id="Shape"></path>
                </g>
            </g>
        </g>
    </g>
</svg>