<?xml version="1.0" encoding="UTF-8" standalone="no"?>
<svg width="20px" height="20px" viewBox="0 0 20 20" version="1.1" xmlns="http://www.w3.org/2000/svg" xmlns:xlink="http://www.w3.org/1999/xlink">
  <!-- Generator: Sketch 3.6.1 (26313) - http://www.bohemiancoding.com/sketch -->
  <title>admin</title>
  <desc>Created with Sketch.</desc>
  <defs></defs>
  <g id="Page-1" stroke="none" stroke-width="1" fill="none" fill-rule="evenodd">
    <g id="Artboard-1" transform="translate(-861.000000, -15319.000000)" fill="#3ca8ff">
      <g id="Group-32" transform="translate(398.000000, 14973.000000)">
        <g id="Group-26" transform="translate(104.000000, 345.000000)">
          <g id="admin" transform="translate(359.000000, 1.000000)">
            <path d="M16.625,6.5 L18,3.875 L16.25,2.125 L13.625,3.5 C13.25,3.25 12.75,3.125 12.25,3 L11.25,0 L8.75,0 L7.75,2.875 C7.375,3 6.875,3.125 6.5,3.375 L3.875,2 L2,3.875 L3.375,6.5 C3.125,6.875 3,7.375 2.875,7.75 L0,8.75 L0,11.25 L2.875,12.25 C3,12.75 3.25,13.125 3.375,13.625 L2,16.25 L3.75,18 L6.375,16.625 C6.75,16.875 7.25,17 7.75,17.125 L8.75,20 L11.25,20 L12.25,17.125 C12.75,17 13.125,16.75 13.625,16.625 L16.25,18 L18,16.25 L16.625,13.625 C16.875,13.25 17,12.75 17.125,12.25 L20,11.25 L20,8.75 L17.125,7.75 C17,7.375 16.875,6.875 16.625,6.5 L16.625,6.5 Z M10,13.75 C7.875,13.75 6.25,12.125 6.25,10 C6.25,7.875 7.875,6.25 10,6.25 C12.125,6.25 13.75,7.875 13.75,10 C13.75,12.125 12.125,13.75 10,13.75 L10,13.75 Z" id="Shape"></path>
          </g>
        </g>
      </g>
    </g>
  </g>
</svg>
