<?xml version="1.0" encoding="UTF-8" standalone="no"?>
<svg width="18px" height="18px" viewBox="0 0 18 18" version="1.1" xmlns="http://www.w3.org/2000/svg" xmlns:xlink="http://www.w3.org/1999/xlink">
    <!-- Generator: Sketch 3.6.1 (26313) - http://www.bohemiancoding.com/sketch -->
    <title>agile</title>
    <desc>Created with Sketch.</desc>
    <defs></defs>
    <g id="Page-1" stroke="none" stroke-width="1" fill="none" fill-rule="evenodd">
        <g id="Artboard-1" transform="translate(-192.000000, -10234.000000)" fill="#A6AAB2">
            <g id="Group-32" transform="translate(192.000000, 9887.000000)">
                <g id="Group-26" transform="translate(0.000000, 345.000000)">
                    <g id="agile" transform="translate(0.000000, 2.000000)">
                        <path d="M17.1346094,6.30236984 L10.1019011,6.30236984 L10.8232045,0.993445388 C10.9133674,0.633518306 10.6428786,0.183609454 10.2822269,0.0936276837 C9.92157521,-0.0863358571 9.5609235,0.00364591331 9.29043472,0.273591225 L0.274142034,10.171586 C0.00365325347,10.4415313 -0.0865096734,10.8014584 0.0938161803,11.1613854 C0.183979107,11.5213125 0.544630815,11.7012761 0.905282522,11.7012761 L7.93799082,11.7012761 L7.2166874,17.0102005 C7.12652448,17.3701276 7.39701326,17.8200365 7.75766496,17.9100182 C7.84782789,18 8.02815374,18 8.11831667,18 C8.38880545,18 8.56913131,17.9100182 8.74945716,17.7300547 L17.7657498,7.83205994 C18.0362386,7.56211463 18.0362386,7.20218755 17.9460757,6.84226047 C17.8559128,6.48233338 17.4952611,6.30236984 17.1346094,6.30236984 L17.1346094,6.30236984 Z" id="Shape"></path>
                    </g>
                </g>
            </g>
        </g>
    </g>
</svg>