<?xml version="1.0" encoding="UTF-8"?>
<svg width="14px" height="16px" viewBox="0 0 14 16" version="1.1" xmlns="http://www.w3.org/2000/svg" xmlns:xlink="http://www.w3.org/1999/xlink">
    <!-- Generator: Sketch 3.6.1 (26313) - http://www.bohemiancoding.com/sketch -->
    <title>Shape</title>
    <desc>Created with Sketch.</desc>
    <defs></defs>
    <g id="Page-1" stroke="none" stroke-width="1" fill="none" fill-rule="evenodd">
        <g id="Artboard-1" transform="translate(-546.000000, -7338.000000)" fill="#3CA8FF">
            <g id="控件" transform="translate(315.000000, 7037.000000)">
                <g id="Group-17" transform="translate(0.000000, 110.000000)">
                    <g id="Toplist" transform="translate(220.000000, 0.000000)">
                        <g id="location-16px_pin" transform="translate(11.000000, 191.000000)">
                            <path d="M7.04916643,0 C3.12177371,0 0,3.09516381 0,6.98907956 C0,8.88611544 0.704916643,10.6833073 2.11474993,11.9812793 C2.21545231,12.0811232 6.24354741,15.675507 6.34424979,15.775351 C6.7470593,16.074883 7.35127356,16.074883 7.6533807,15.775351 C7.75408308,15.675507 11.8828806,12.0811232 11.8828806,11.9812793 C13.2927138,10.6833073 13.9976305,8.88611544 13.9976305,6.98907956 C14.0983329,3.09516381 10.9765592,0 7.04916643,0 L7.04916643,0 Z M7.04916643,8.98595944 C5.94144028,8.98595944 5.03511888,8.08736349 5.03511888,6.98907956 C5.03511888,5.89079563 5.94144028,4.99219969 7.04916643,4.99219969 C8.15689259,4.99219969 9.06321398,5.89079563 9.06321398,6.98907956 C9.06321398,8.08736349 8.15689259,8.98595944 7.04916643,8.98595944 L7.04916643,8.98595944 Z" id="Shape"></path>
                        </g>
                    </g>
                </g>
            </g>
        </g>
    </g>
</svg>