<?xml version="1.0" encoding="UTF-8"?>
<svg width="28px" height="28px" viewBox="0 0 28 28" version="1.1" xmlns="http://www.w3.org/2000/svg" xmlns:xlink="http://www.w3.org/1999/xlink">
    <!-- Generator: Sketch 3.6.1 (26313) - http://www.bohemiancoding.com/sketch -->
    <title>social-color-1_logo-wordpress</title>
    <desc>Created with Sketch.</desc>
    <defs>
        <filter x="-50%" y="-50%" width="200%" height="200%" filterUnits="objectBoundingBox" id="filter-1">
            <feOffset dx="0" dy="0" in="SourceAlpha" result="shadowOffsetOuter1"></feOffset>
            <feGaussianBlur stdDeviation="2" in="shadowOffsetOuter1" result="shadowBlurOuter1"></feGaussianBlur>
            <feColorMatrix values="0 0 0 0 0   0 0 0 0 0   0 0 0 0 0  0 0 0 0.14 0" in="shadowBlurOuter1" type="matrix" result="shadowMatrixOuter1"></feColorMatrix>
            <feMerge>
                <feMergeNode in="shadowMatrixOuter1"></feMergeNode>
                <feMergeNode in="SourceGraphic"></feMergeNode>
            </feMerge>
        </filter>
    </defs>
    <g id="Page-1" stroke="none" stroke-width="1" fill="none" fill-rule="evenodd" filter="url(#filter-1)">
        <g id="Artboard-1" transform="translate(-495.000000, -1412.000000)" fill="#FFFFFF">
            <g id="布局" transform="translate(439.000000, 315.000000)">
                <g id="Group-2" transform="translate(49.891775, 1091.000000)">
                    <g id="Topbar" transform="translate(0.000000, 0.000000)">
                        <g id="social-color-1_logo-wordpress" transform="translate(9.978355, 10.000000)">
                            <g id="Group" transform="translate(0.000000, 0.000000)">
                                <path d="M1.41844811,9.99969583 C1.41844811,13.3951583 3.38722328,16.3298125 6.24286217,17.7200792 L2.15964447,6.5085 C1.68468725,7.57530417 1.41844811,8.75595417 1.41844811,9.99969583 L1.41844811,9.99969583 Z" id="Shape"></path>
                                <path d="M15.756758,9.56704167 C15.756758,8.50649583 15.376591,7.77250417 15.0510347,7.2012125 C14.6172423,6.49425 14.2102169,5.89614167 14.2102169,5.18917083 C14.2102169,4.40075833 14.8068269,3.66667917 15.6476447,3.66667917 C15.6856248,3.66667917 15.7216342,3.6713125 15.7585291,3.673625 C14.235695,2.27523333 12.2066505,1.42134167 9.97823441,1.42134167 C6.9876549,1.42134167 4.35687824,2.95917083 2.82626926,5.287825 C3.02727075,5.294275 3.21656846,5.298225 3.37719087,5.298225 C4.27231168,5.298225 5.65854217,5.18917083 5.65854217,5.18917083 C6.11977916,5.1621 6.17424435,5.84146667 5.71329839,5.89614167 C5.71329839,5.89614167 5.24940051,5.9505125 4.73369834,5.97768333 L7.85065787,15.2698542 L9.72414807,9.63960833 L8.39061161,5.97768333 C7.9294162,5.9505125 7.49278001,5.89614167 7.49278001,5.89614167 C7.03139335,5.86882083 7.08550514,5.1621 7.54708305,5.18917083 C7.54708305,5.18917083 8.9604131,5.298225 9.80148032,5.298225 C10.6965097,5.298225 12.0829813,5.18917083 12.0829813,5.18917083 C12.5444178,5.1621 12.5988248,5.84146667 12.1375878,5.89614167 C12.1375878,5.89614167 11.6731994,5.9505125 11.1579504,5.97768333 L14.2514317,15.1990583 L15.1054375,12.3402375 C15.4749817,11.153175 15.756758,10.301175 15.756758,9.56704167 L15.756758,9.56704167 Z" id="Shape"></path>
                                <path d="M10.1285209,10.7501042 L7.55997592,18.2291583 C8.32704533,18.4552458 9.1380486,18.5786958 9.97823441,18.5786958 C10.9750388,18.5786958 11.9310733,18.4062458 12.820785,18.0924 C12.7980676,18.0556208 12.7768096,18.016575 12.7594888,17.9741792 L10.1285209,10.7501042 L10.1285209,10.7501042 Z" id="Shape"></path>
                                <path d="M17.4895575,5.88425833 C17.5263527,6.157475 17.547116,6.45057083 17.547116,6.7663875 C17.547116,7.63654167 17.3844771,8.61510417 16.896178,9.838925 L14.2817326,17.4145167 C16.8265208,15.9275208 18.5379625,13.1645292 18.5379625,9.99969583 C18.5379708,8.50822083 18.157704,7.10607083 17.4895575,5.88425833 L17.4895575,5.88425833 Z" id="Shape"></path>
                                <path d="M9.97823441,7.08333337e-05 C4.4761279,7.08333337e-05 0,4.48580417 0,9.99969583 C0,15.5139917 4.4761279,19.9999292 9.97823441,19.9999292 C15.480291,19.9999292 19.95671,15.5139917 19.95671,9.99969583 C19.95671,4.48580417 15.480291,7.08333337e-05 9.97823441,7.08333337e-05 L9.97823441,7.08333337e-05 Z M9.97823441,19.5414375 C4.72858028,19.5414375 0.457599044,15.2608792 0.457599044,9.99969583 C0.457599044,4.73871667 4.72858028,0.4586125 9.97823441,0.4586125 C15.2278262,0.4586125 19.4990194,4.73871667 19.4990194,9.99969583 C19.4990194,15.2608792 15.2278262,19.5414375 9.97823441,19.5414375 L9.97823441,19.5414375 Z" id="Shape"></path>
                            </g>
                        </g>
                    </g>
                </g>
            </g>
        </g>
    </g>
</svg>