<?xml version="1.0" encoding="UTF-8" standalone="no"?>
<svg width="18px" height="18px" viewBox="0 0 18 18" version="1.1" xmlns="http://www.w3.org/2000/svg" xmlns:xlink="http://www.w3.org/1999/xlink">
  <!-- Generator: Sketch 3.6.1 (26313) - http://www.bohemiancoding.com/sketch -->
  <title>build</title>
  <desc>Created with Sketch.</desc>
  <defs></defs>
  <g id="Page-1" stroke="none" stroke-width="1" fill="none" fill-rule="evenodd">
    <g id="Artboard-1" transform="translate(-661.000000, -15320.000000)" fill="#3ca8ff">
      <g id="Group-32" transform="translate(398.000000, 14973.000000)">
        <g id="Group-26" transform="translate(104.000000, 345.000000)">
          <g id="build" transform="translate(159.000000, 2.000000)">
            <path d="M14.625,9 L14.625,1.125 C14.625,0.45 14.175,0 13.5,0 L4.5,0 C3.825,0 3.375,0.45 3.375,1.125 L3.375,9 L0,9 L0,18 L18,18 L18,9 L14.625,9 L14.625,9 Z M11.25,14.625 L6.75,14.625 L6.75,12.375 L11.25,12.375 L11.25,14.625 L11.25,14.625 Z M11.25,10.125 L6.75,10.125 L6.75,7.875 L11.25,7.875 L11.25,10.125 L11.25,10.125 Z M11.25,5.625 L6.75,5.625 L6.75,3.375 L11.25,3.375 L11.25,5.625 L11.25,5.625 Z" id="Shape"></path>
          </g>
        </g>
      </g>
    </g>
  </g>
</svg>
