<?xml version="1.0" encoding="UTF-8" standalone="no"?>
<svg width="20px" height="19px" viewBox="0 0 20 19" version="1.1" xmlns="http://www.w3.org/2000/svg" xmlns:xlink="http://www.w3.org/1999/xlink">
  <!-- Generator: Sketch 3.6.1 (26313) - http://www.bohemiancoding.com/sketch -->
  <title>code</title>
  <desc>Created with Sketch.</desc>
  <defs></defs>
  <g id="Page-1" stroke="none" stroke-width="1" fill="none" fill-rule="evenodd">
    <g id="Artboard-1" transform="translate(-621.000000, -15320.000000)" fill="#3ca8ff">
      <g id="Group-32" transform="translate(398.000000, 14973.000000)">
        <g id="Group-26" transform="translate(104.000000, 345.000000)">
          <g id="code" transform="translate(119.000000, 2.000000)">
            <g id="Group">
              <path d="M15.875,14.6 L14.125,12.7333333 L17,9.66666667 L14.125,6.6 L15.875,4.73333333 L19.625,8.73333333 C20.125,9.26666667 20.125,10.0666667 19.625,10.6 L15.875,14.6 L15.875,14.6 Z" id="Shape"></path>
              <path d="M4.125,14.6 L0.375,10.6 C-0.125,10.0666667 -0.125,9.26666667 0.375,8.73333333 L4.125,4.73333333 L5.875,6.6 L3,9.66666667 L5.875,12.7333333 L4.125,14.6 L4.125,14.6 Z" id="Shape"></path>
              <path d="M7.5,19 C7.375,19 7.25,19 7.125,18.8666667 C6.5,18.6 6.125,17.9333333 6.375,17.1333333 L11.375,1.13333333 C11.625,0.466666667 12.25,0.0666666667 13,0.333333333 C13.625,0.6 14,1.26666667 13.75,2.06666667 L8.75,18.0666667 C8.5,18.6 8,19 7.5,19 L7.5,19 Z" id="Shape"></path>
            </g>
          </g>
        </g>
      </g>
    </g>
  </g>
</svg>
