<?xml version="1.0" encoding="UTF-8" standalone="no"?>
<svg width="19px" height="18px" viewBox="0 0 19 18" version="1.1" xmlns="http://www.w3.org/2000/svg" xmlns:xlink="http://www.w3.org/1999/xlink">
    <!-- Generator: Sketch 3.6.1 (26313) - http://www.bohemiancoding.com/sketch -->
    <title>deliver</title>
    <desc>Created with Sketch.</desc>
    <defs></defs>
    <g id="Page-1" stroke="none" stroke-width="1" fill="none" fill-rule="evenodd">
        <g id="Artboard-1" transform="translate(-232.000000, -10234.000000)" fill="#A6AAB2">
            <g id="Group-32" transform="translate(192.000000, 9887.000000)">
                <g id="Group-26" transform="translate(0.000000, 345.000000)">
                    <g id="deliver" transform="translate(40.000000, 2.000000)">
                        <g id="Group">
                            <path d="M13.0625,3.91304348 C11.5583333,3.91304348 10.2916667,5.16521739 10.2916667,6.65217391 C10.2916667,8.13913043 11.5583333,9.39130435 13.0625,9.39130435 C14.5666667,9.39130435 15.8333333,8.13913043 15.8333333,6.65217391 C15.8333333,5.16521739 14.5666667,3.91304348 13.0625,3.91304348 L13.0625,3.91304348 Z" id="Shape"></path>
                            <path d="M7.52083333,0 C6.01666667,0 4.75,1.25217391 4.75,2.73913043 C4.75,4.22608696 6.01666667,5.47826087 7.52083333,5.47826087 C9.025,5.47826087 10.2916667,4.22608696 10.2916667,2.73913043 C10.2916667,1.25217391 9.025,0 7.52083333,0 L7.52083333,0 Z" id="Shape"></path>
                            <path d="M18.2083333,13.0695652 C17.9708333,12.3652174 17.0208333,10.9565217 15.0416667,10.9565217 L11.4791667,10.9565217 C10.925,10.4869565 10.2125,10.173913 9.5,10.173913 L7.52083333,10.173913 C6.65,9.15652174 5.38333333,8.60869565 3.95833333,8.60869565 L2.375,8.60869565 L2.375,8.60869565 C2.375,8.13913043 2.05833333,7.82608696 1.58333333,7.82608696 L0.791666667,7.82608696 C0.316666667,7.82608696 0,8.13913043 0,8.60869565 L0,14.8695652 C0,15.3391304 0.316666667,15.6521739 0.791666667,15.6521739 L1.58333333,15.6521739 C1.97916667,15.6521739 2.29583333,15.3391304 2.375,14.9478261 L6.72916667,16.9826087 C6.72916667,16.9826087 6.80833333,16.9826087 6.80833333,17.0608696 C7.28333333,17.2173913 7.67916667,17.2956522 8.15416667,17.2956522 C8.47083333,17.2956522 8.86666667,17.2173913 9.18333333,17.1391304 L9.2625,17.1391304 L17.6541667,14.0869565 C18.05,13.9304348 18.2875,13.5391304 18.2083333,13.0695652 L18.2083333,13.0695652 Z M8.7875,15.573913 C8.3125,15.6521739 7.8375,15.6521739 7.3625,15.4956522 L2.375,13.1478261 L2.375,10.173913 L3.95833333,10.173913 C4.9875,10.173913 5.9375,10.6434783 6.49166667,11.426087 C6.65,11.6608696 6.8875,11.7391304 7.125,11.7391304 L9.5,11.7391304 C9.975,11.7391304 10.45,12.0521739 10.7666667,12.5217391 L6.33333333,12.5217391 C5.85833333,12.5217391 5.54166667,12.8347826 5.54166667,13.3043478 C5.54166667,13.773913 5.85833333,14.0869565 6.33333333,14.0869565 L11.875,14.0869565 C12.35,14.0869565 12.6666667,13.773913 12.6666667,13.3043478 C12.6666667,13.0695652 12.5875,12.7565217 12.5083333,12.5217391 L15.0416667,12.5217391 C15.5958333,12.5217391 15.9916667,12.6782609 16.2291667,12.9130435 L8.7875,15.573913 L8.7875,15.573913 Z" id="Shape"></path>
                        </g>
                    </g>
                </g>
            </g>
        </g>
    </g>
</svg>