<?xml version="1.0" encoding="UTF-8" standalone="no"?>
<svg width="20px" height="20px" viewBox="0 0 20 20" version="1.1" xmlns="http://www.w3.org/2000/svg" xmlns:xlink="http://www.w3.org/1999/xlink">
  <!-- Generator: Sketch 3.6.1 (26313) - http://www.bohemiancoding.com/sketch -->
  <title>deploy</title>
  <desc>Created with Sketch.</desc>
  <defs></defs>
  <g id="Page-1" stroke="none" stroke-width="1" fill="none" fill-rule="evenodd">
    <g id="Artboard-1" transform="translate(-701.000000, -15319.000000)" fill="#3ca8ff">
      <g id="Group-32" transform="translate(398.000000, 14973.000000)">
        <g id="Group-26" transform="translate(104.000000, 345.000000)">
          <g id="deploy" transform="translate(199.000000, 1.000000)">
            <path d="M1.05492878,11 C1.5160776,15.1716166 4.82838339,18.4839224 9,18.9450712 L9,19.009222 C9,19.5490248 9.44771525,20 10,20 C10.5561352,20 11,19.5564136 11,19.009222 L11,18.9450712 C15.1716166,18.4839224 18.4839224,15.1716166 18.9450712,11 L19.009222,11 C19.5490248,11 20,10.5522847 20,10 C20,9.44386482 19.5564136,9 19.009222,9 L18.9450712,9 C18.4839224,4.82838339 15.1716166,1.5160776 11,1.05492878 L11,0.990777969 C11,0.45097518 10.5522847,0 10,0 C9.44386482,0 9,0.443586406 9,0.990777969 L9,1.05492878 C4.82838339,1.5160776 1.5160776,4.82838339 1.05492878,9 L0.990777969,9 C0.45097518,9 0,9.44771525 0,10 C0,10.5561352 0.443586406,11 0.990777969,11 L1.05492878,11 Z M4.08295844,11 C4.50447689,13.5125049 6.48749513,15.4955231 9,15.9170416 L9,14.990778 C9,14.4435864 9.44386482,14 10,14 C10.5522847,14 11,14.4509752 11,14.990778 L11,15.9170416 C13.5125049,15.4955231 15.4955231,13.5125049 15.9170416,11 L14.990778,11 C14.4435864,11 14,10.5561352 14,10 C14,9.44771525 14.4509752,9 14.990778,9 L15.9170416,9 C15.4955231,6.48749513 13.5125049,4.50447689 11,4.08295844 L11,5.00922203 C11,5.55641359 10.5561352,6 10,6 C9.44771525,6 9,5.54902482 9,5.00922203 L9,4.08295844 C6.48749513,4.50447689 4.50447689,6.48749513 4.08295844,9 L5.00922203,9 C5.55641359,9 6,9.44386482 6,10 C6,10.5522847 5.54902482,11 5.00922203,11 L4.08295844,11 Z M10,13 C11.6568542,13 13,11.6568542 13,10 C13,8.34314575 11.6568542,7 10,7 C8.34314575,7 7,8.34314575 7,10 C7,11.6568542 8.34314575,13 10,13 Z" id="Combined-Shape"></path>
          </g>
        </g>
      </g>
    </g>
  </g>
</svg>
