<?xml version="1.0" encoding="UTF-8"?>
<svg width="23px" height="23px" viewBox="0 0 23 23" version="1.1" xmlns="http://www.w3.org/2000/svg" xmlns:xlink="http://www.w3.org/1999/xlink">
    <!-- Generator: Sketch 3.6.1 (26313) - http://www.bohemiancoding.com/sketch -->
    <title>users-16px_multiple-11</title>
    <desc>Created with Sketch.</desc>
    <defs>
        <filter x="-50%" y="-50%" width="200%" height="200%" filterUnits="objectBoundingBox" id="filter-1">
            <feOffset dx="0" dy="0" in="SourceAlpha" result="shadowOffsetOuter1"></feOffset>
            <feGaussianBlur stdDeviation="2" in="shadowOffsetOuter1" result="shadowBlurOuter1"></feGaussianBlur>
            <feColorMatrix values="0 0 0 0 0   0 0 0 0 0   0 0 0 0 0  0 0 0 0.14 0" in="shadowBlurOuter1" type="matrix" result="shadowMatrixOuter1"></feColorMatrix>
            <feMerge>
                <feMergeNode in="shadowMatrixOuter1"></feMergeNode>
                <feMergeNode in="SourceGraphic"></feMergeNode>
            </feMerge>
        </filter>
    </defs>
    <g id="Page-1" stroke="none" stroke-width="1" fill="none" fill-rule="evenodd" filter="url(#filter-1)">
        <g id="Artboard-1" transform="translate(-398.000000, -1615.000000)" fill="#A6AAB2">
            <g id="布局" transform="translate(342.000000, 315.000000)">
                <g id="Group-2" transform="translate(50.000000, 1091.000000)">
                    <g id="Toplist" transform="translate(0.000000, 40.000000)">
                        <g id="users-16px_multiple-11" transform="translate(10.000000, 173.000000)">
                            <g id="Group">
                                <path d="M7.5,5.625 L7.5,5.625 C5.90625,5.625 4.6875,4.40625 4.6875,2.8125 L4.6875,2.8125 C4.6875,1.21875 5.90625,0 7.5,0 L7.5,0 C9.09375,0 10.3125,1.21875 10.3125,2.8125 L10.3125,2.8125 C10.3125,4.40625 9.09375,5.625 7.5,5.625 L7.5,5.625 Z" id="Shape"></path>
                                <path d="M9.375,15 L5.625,15 L5.625,11.25 L3.75,9.375 L3.75,6.5625 L11.25,6.5625 L11.25,9.375 L9.375,11.25 L9.375,15 Z" id="Shape"></path>
                                <path d="M1.875,4.6875 L1.875,4.6875 C0.84375,4.6875 0,3.84375 0,2.8125 L0,2.8125 C0,1.78125 0.84375,0.9375 1.875,0.9375 L1.875,0.9375 C2.90625,0.9375 3.75,1.78125 3.75,2.8125 L3.75,2.8125 C3.75,3.84375 2.90625,4.6875 1.875,4.6875 L1.875,4.6875 Z" id="Shape"></path>
                                <path d="M2.8125,9.75 L2.8125,5.625 L0,5.625 L0,8.4375 L0.9375,9.375 L0.9375,13.125 L3.75,13.125 L3.75,10.6875 L2.8125,9.75 Z" id="Shape"></path>
                                <path d="M13.125,4.6875 L13.125,4.6875 C14.15625,4.6875 15,3.84375 15,2.8125 L15,2.8125 C15,1.78125 14.15625,0.9375 13.125,0.9375 L13.125,0.9375 C12.09375,0.9375 11.25,1.78125 11.25,2.8125 L11.25,2.8125 C11.25,3.84375 12.09375,4.6875 13.125,4.6875 L13.125,4.6875 Z" id="Shape"></path>
                                <path d="M12.1875,9.75 L12.1875,5.625 L15,5.625 L15,8.4375 L14.0625,9.375 L14.0625,13.125 L11.25,13.125 L11.25,10.6875 L12.1875,9.75 Z" id="Shape"></path>
                            </g>
                        </g>
                    </g>
                </g>
            </g>
        </g>
    </g>
</svg>