<?xml version="1.0" encoding="UTF-8"?>
<svg width="23px" height="23px" viewBox="0 0 23 23" version="1.1" xmlns="http://www.w3.org/2000/svg" xmlns:xlink="http://www.w3.org/1999/xlink">
    <!-- Generator: Sketch 3.6.1 (26313) - http://www.bohemiancoding.com/sketch -->
    <title>ui-16px-1_settings-gear-64</title>
    <desc>Created with Sketch.</desc>
    <defs>
        <filter x="-50%" y="-50%" width="200%" height="200%" filterUnits="objectBoundingBox" id="filter-1">
            <feOffset dx="0" dy="0" in="SourceAlpha" result="shadowOffsetOuter1"></feOffset>
            <feGaussianBlur stdDeviation="2" in="shadowOffsetOuter1" result="shadowBlurOuter1"></feGaussianBlur>
            <feColorMatrix values="0 0 0 0 0   0 0 0 0 0   0 0 0 0 0  0 0 0 0.14 0" in="shadowBlurOuter1" type="matrix" result="shadowMatrixOuter1"></feColorMatrix>
            <feMerge>
                <feMergeNode in="shadowMatrixOuter1"></feMergeNode>
                <feMergeNode in="SourceGraphic"></feMergeNode>
            </feMerge>
        </filter>
    </defs>
    <g id="Page-1" stroke="none" stroke-width="1" fill="none" fill-rule="evenodd" filter="url(#filter-1)">
        <g id="Artboard-1" transform="translate(-398.000000, -1650.000000)" fill="#A6AAB2">
            <g id="布局" transform="translate(342.000000, 315.000000)">
                <g id="Group-2" transform="translate(50.000000, 1091.000000)">
                    <g id="Toplist" transform="translate(0.000000, 40.000000)">
                        <g id="ui-16px-1_settings-gear-64" transform="translate(10.000000, 208.000000)">
                            <path d="M12.46875,4.875 L13.5,2.90625 L12.1875,1.59375 L10.21875,2.625 C9.9375,2.4375 9.5625,2.34375 9.1875,2.25 L8.4375,0 L6.5625,0 L5.8125,2.15625 C5.53125,2.25 5.15625,2.34375 4.875,2.53125 L2.90625,1.5 L1.5,2.90625 L2.53125,4.875 C2.34375,5.15625 2.25,5.53125 2.15625,5.8125 L0,6.5625 L0,8.4375 L2.15625,9.1875 C2.25,9.5625 2.4375,9.84375 2.53125,10.21875 L1.5,12.1875 L2.8125,13.5 L4.78125,12.46875 C5.0625,12.65625 5.4375,12.75 5.8125,12.84375 L6.5625,15 L8.4375,15 L9.1875,12.84375 C9.5625,12.75 9.84375,12.5625 10.21875,12.46875 L12.1875,13.5 L13.5,12.1875 L12.46875,10.21875 C12.65625,9.9375 12.75,9.5625 12.84375,9.1875 L15,8.4375 L15,6.5625 L12.84375,5.8125 C12.75,5.53125 12.65625,5.15625 12.46875,4.875 L12.46875,4.875 Z M7.5,10.3125 C5.90625,10.3125 4.6875,9.09375 4.6875,7.5 C4.6875,5.90625 5.90625,4.6875 7.5,4.6875 C9.09375,4.6875 10.3125,5.90625 10.3125,7.5 C10.3125,9.09375 9.09375,10.3125 7.5,10.3125 L7.5,10.3125 Z" id="Shape"></path>
                        </g>
                    </g>
                </g>
            </g>
        </g>
    </g>
</svg>