<?xml version="1.0" encoding="UTF-8"?>
<svg width="10px" height="10px" viewBox="0 0 10 10" version="1.1" xmlns="http://www.w3.org/2000/svg" xmlns:xlink="http://www.w3.org/1999/xlink">
    <!-- Generator: Sketch 3.6.1 (26313) - http://www.bohemiancoding.com/sketch -->
    <title>arrows-24px-glyph-2_hit-right</title>
    <desc>Created with Sketch.</desc>
    <defs></defs>
    <g id="Page-1" stroke="none" stroke-width="1" fill="none" fill-rule="evenodd">
        <g id="Artboard-1" transform="translate(-1307.000000, -2977.000000)" fill="#C0C0C0">
            <g id="布局" transform="translate(342.000000, 315.000000)">
                <g id="产品左侧菜单小-copy" transform="translate(935.000000, 2002.000000)">
                    <g id="arrows-24px-glyph-2_hit-right" transform="translate(30.000000, 660.000000)">
                        <g id="Group">
                            <path d="M9.58333333,0 C9.81333333,0 10,0.186666667 10,0.416666667 L10,9.58333333 C10,9.81333333 9.81333333,10 9.58333333,10 C9.35333333,10 9.16666667,9.81333333 9.16666667,9.58333333 L9.16666667,0.416666667 C9.16666667,0.186666667 9.35333333,0 9.58333333,0 L9.58333333,0 Z" id="Shape"></path>
                            <path d="M3.75,7.91666667 L7.5,5 L3.75,2.08333333 L3.75,4.58333333 L0.416666667,4.58333333 C0.18625,4.58333333 0,4.76958333 0,5 C0,5.23041667 0.18625,5.41666667 0.416666667,5.41666667 L3.75,5.41666667 L3.75,7.91666667 L3.75,7.91666667 Z" id="Shape"></path>
                        </g>
                    </g>
                </g>
            </g>
        </g>
    </g>
</svg>