<?xml version="1.0" encoding="UTF-8" standalone="no"?>
<svg width="18px" height="18px" viewBox="0 0 18 18" version="1.1" xmlns="http://www.w3.org/2000/svg" xmlns:xlink="http://www.w3.org/1999/xlink">
  <!-- Generator: Sketch 3.6.1 (26313) - http://www.bohemiancoding.com/sketch -->
  <title>home</title>
  <desc>Created with Sketch.</desc>
  <defs></defs>
  <g id="Page-1" stroke="none" stroke-width="1" fill="none" fill-rule="evenodd">
    <g id="Artboard-1" transform="translate(-593.000000, -10234.000000)" fill="#3ca8ff">
      <g id="Group-32" transform="translate(375.000000, 9887.000000)">
        <g id="Group-26" transform="translate(0.000000, 345.000000)">
          <g id="home" transform="translate(218.000000, 2.000000)">
            <path d="M12.3168263,18 L14.5655221,18 C15.2401309,18 15.6898701,17.5478807 15.6898701,16.8697017 L15.6898701,8.95761381 L16.814218,8.95761381 L16.814218,8.95761381 C17.1515223,8.95761381 17.4888267,8.84458399 17.7136963,8.61852433 C18.1634355,8.16640502 18.0510007,7.48822606 17.6012615,7.03610675 L9.73082614,0.254317111 C9.28108698,-0.0847723705 8.71891302,-0.0847723705 8.26917386,0.254317111 L0.398738497,7.03610675 C-0.0510006665,7.48822606 -0.163435457,8.16640502 0.286303706,8.61852433 C0.398738497,8.84458399 0.73604287,8.95761381 1.07334724,8.95761381 L2.19769515,8.95761381 L2.19769515,16.8697017 C2.19769515,17.5478807 2.64743431,18 3.32204306,18 L5.57073888,18 C6.24534762,18 6.69508679,17.5478807 6.69508679,16.8697017 L6.69508679,13.4788069 L11.1924784,13.4788069 L11.1924784,16.8697017 C11.1924784,17.5478807 11.6422176,18 12.3168263,18 L12.3168263,18 Z" id="Shape"></path>
          </g>
        </g>
      </g>
    </g>
  </g>
</svg>
