<?xml version="1.0" encoding="UTF-8" standalone="no"?>
<svg width="18px" height="16px" viewBox="0 0 18 16" version="1.1" xmlns="http://www.w3.org/2000/svg" xmlns:xlink="http://www.w3.org/1999/xlink">
    <!-- Generator: Sketch 3.6.1 (26313) - http://www.bohemiancoding.com/sketch -->
    <title>linked</title>
    <desc>Created with Sketch.</desc>
    <defs></defs>
    <g id="Page-1" stroke="none" stroke-width="1" fill="none" fill-rule="evenodd">
        <g id="Artboard-1" transform="translate(-490.000000, -17291.000000)" fill="#A6AAB2">
            <g id="Group-32" transform="translate(388.000000, 16943.000000)">
                <g id="Group-26" transform="translate(102.000000, 345.000000)">
                    <g id="linked" transform="translate(0.000000, 3.000000)">
                        <g id="Group">
                            <path d="M14.625,4.73371429 L14.625,7.17485714 C15.294375,7.57142857 15.75,8.30057143 15.75,9.14285714 L15.75,11.4285714 C15.75,12.6891429 14.740875,13.7142857 13.5,13.7142857 L9,13.7142857 C7.759125,13.7142857 6.75,12.6891429 6.75,11.4285714 L6.75,9.14285714 C6.75,7.88228571 7.759125,6.85714286 9,6.85714286 L10.125,6.85714286 L10.125,4.57142857 L9,4.57142857 C6.51825,4.57142857 4.5,6.62171429 4.5,9.14285714 L4.5,11.4285714 C4.5,13.9497143 6.51825,16 9,16 L13.5,16 C15.98175,16 18,13.9497143 18,11.4285714 L18,9.14285714 C18,7.01828571 16.561125,5.24457143 14.625,4.73371429 L14.625,4.73371429 Z" id="Shape"></path>
                            <path d="M9,0 L4.5,0 C2.01825,0 0,2.05028571 0,4.57142857 L0,6.85714286 C0,8.98171429 1.438875,10.7554286 3.375,11.2662857 L3.375,8.82514286 C2.705625,8.42857143 2.25,7.69942857 2.25,6.85714286 L2.25,4.57142857 C2.25,3.31085714 3.259125,2.28571429 4.5,2.28571429 L9,2.28571429 C10.240875,2.28571429 11.25,3.31085714 11.25,4.57142857 L11.25,6.85714286 C11.25,8.11771429 10.240875,9.14285714 9,9.14285714 L7.875,9.14285714 L7.875,11.4285714 L9,11.4285714 C11.48175,11.4285714 13.5,9.37828571 13.5,6.85714286 L13.5,4.57142857 C13.5,2.05028571 11.48175,0 9,0 L9,0 Z" id="Shape"></path>
                        </g>
                    </g>
                </g>
            </g>
        </g>
    </g>
</svg>