<?xml version="1.0" encoding="UTF-8" standalone="no"?>
<svg width="30px" height="30px" viewBox="0 0 30 30" version="1.1" xmlns="http://www.w3.org/2000/svg" xmlns:xlink="http://www.w3.org/1999/xlink">
    <!-- Generator: Sketch 3.6.1 (26313) - http://www.bohemiancoding.com/sketch -->
    <title>homeicon</title>
    <desc>Created with Sketch.</desc>
    <defs></defs>
    <g id="Page-1" stroke="none" stroke-width="1" fill="none" fill-rule="evenodd">
        <g id="Artboard-1" transform="translate(-741.000000, -10573.000000)">
            <g id="Group-32" transform="translate(375.000000, 9887.000000)">
                <g id="Group-58" transform="translate(366.000000, 686.000000)">
                    <g id="homeicon">
                        <path d="M30,15 C30,23.2843188 23.2842375,29.9999188 15,29.9999188 C6.7157625,29.9999188 0,23.2843188 0,15 C0,6.7157625 6.7157625,8.12500002e-05 15,8.12500002e-05 C23.2842375,8.12500002e-05 30,6.7157625 30,15" id="Shape" fill="#FFFFFF"></path>
                        <path d="M15,28.4999269 C7.54418625,28.4999269 1.5,22.4558869 1.5,15 C1.5,7.54418625 7.54418625,1.50007313 15,1.50007313 C22.4558137,1.50007313 28.5,7.54418625 28.5,15 C28.5,22.4558869 22.4558137,28.4999269 15,28.4999269 Z" id="Shape" fill="#3CA8FF"></path>
                        <g id="ui-16px-1_home-simple" transform="translate(8.000000, 6.000000)" fill="#FFFFFF">
                            <path d="M9,17 L13,17 C13.6,17 14,16.6 14,16 L14,7 C14,6.7 13.9,6.4 13.6,6.2 L7.6,1.2 C7.2,0.9 6.7,0.9 6.3,1.2 L0.3,6.2 C0.1,6.4 0,6.7 0,7 L0,16 C0,16.6 0.4,17 1,17 L5,17 C5.6,17 6,16.6 6,16 L6,13 L8,13 L8,16 C8,16.6 8.4,17 9,17 L9,17 Z M5,11 C4.4,11 4,11.4 4,12 L4,15 L2,15 L2,7.5 L7,3.3 L12,7.5 L12,15 L10,15 L10,12 C10,11.4 9.6,11 9,11 L5,11 L5,11 Z" id="Shape"></path>
                        </g>
                    </g>
                </g>
            </g>
        </g>
    </g>
</svg>