<?xml version="1.0" encoding="UTF-8" standalone="no"?>
<svg width="30px" height="30px" viewBox="0 0 30 30" version="1.1" xmlns="http://www.w3.org/2000/svg" xmlns:xlink="http://www.w3.org/1999/xlink">
    <!-- Generator: Sketch 3.6.1 (26313) - http://www.bohemiancoding.com/sketch -->
    <title>product</title>
    <desc>Created with Sketch.</desc>
    <defs></defs>
    <g id="Page-1" stroke="none" stroke-width="1" fill="none" fill-rule="evenodd">
        <g id="Artboard-1" transform="translate(-841.000000, -10573.000000)">
            <g id="Group-32" transform="translate(375.000000, 9887.000000)">
                <g id="Group-58" transform="translate(366.000000, 686.000000)">
                    <g id="product" transform="translate(100.000000, 0.000000)">
                        <path d="M30,15 C30,23.2843188 23.2842375,29.9999188 15,29.9999188 C6.7157625,29.9999188 0,23.2843188 0,15 C0,6.7157625 6.7157625,8.12500002e-05 15,8.12500002e-05 C23.2842375,8.12500002e-05 30,6.7157625 30,15" id="Shape" fill="#FFFFFF"></path>
                        <path d="M15,28.4999269 C7.54418625,28.4999269 1.5,22.4558869 1.5,15 C1.5,7.54418625 7.54418625,1.50007313 15,1.50007313 C22.4558137,1.50007313 28.5,7.54418625 28.5,15 C28.5,22.4558869 22.4558137,28.4999269 15,28.4999269 Z" id="Shape" fill="#FF3C00"></path>
                        <path d="M10.6954115,7 C8.65514702,7 7.00111235,8.65403467 7.00111235,10.6942992 C7.00111235,12.7346294 8.65514702,14.388697 10.6954115,14.388697 L13.5572162,14.388697 C14.0169352,14.388697 14.3896449,14.0158229 14.3896449,13.5561038 L14.3896449,10.694365 C14.3897765,8.65403467 12.7357418,7 10.6954115,7 L10.6954115,7 L10.6954115,7 L10.6954115,7 L10.6954115,7 Z M10.6954115,15.6114346 C8.65514702,15.6114346 7.00111235,17.2653377 7.00111235,19.3057008 C7.00111235,21.346064 8.65514702,23 10.6954115,23 C12.7357089,23 14.3896449,21.3460969 14.3897765,19.3057008 L14.3897765,16.4438962 C14.3897765,15.9841113 14.0169353,15.6114346 13.5572162,15.6114346 L10.6954115,15.6114346 L10.6954115,15.6114346 L10.6954115,15.6114346 L10.6954115,15.6114346 L10.6954115,15.6114346 Z M19.3068132,7 C17.26645,7 15.6124153,8.65403467 15.6124153,10.6942992 L15.6124153,13.5561367 C15.6124153,14.0159873 15.985125,14.3885654 16.4450085,14.3885654 L19.3068132,14.3887299 C21.3470448,14.3887299 23.0011123,12.7346623 23.0011123,10.694332 C23.0011123,8.65403467 21.3470777,7 19.3068132,7 L19.3068132,7 L19.3068132,7 L19.3068132,7 L19.3068132,7 Z M19.3068132,15.6114346 L16.4450085,15.6114346 C15.9851579,15.6114346 15.6124153,15.9840455 15.6124153,16.4438962 L15.6124153,19.3057008 C15.6124153,21.346064 17.2663184,23 19.3066816,23 C21.3470448,23 23.0009808,21.3460969 23.0009808,19.3057008 C23.0011123,17.2653377 21.3470777,15.6114346 19.3068132,15.6114346 L19.3068132,15.6114346 L19.3068132,15.6114346 L19.3068132,15.6114346 L19.3068132,15.6114346 Z" id="Shape" fill="#FFFFFF"></path>
                    </g>
                </g>
            </g>
        </g>
    </g>
</svg>