<?xml version="1.0" encoding="UTF-8" standalone="no"?>
<svg width="18px" height="16px" viewBox="0 0 18 16" version="1.1" xmlns="http://www.w3.org/2000/svg" xmlns:xlink="http://www.w3.org/1999/xlink">
    <!-- Generator: Sketch 3.6.1 (26313) - http://www.bohemiancoding.com/sketch -->
    <title>map</title>
    <desc>Created with Sketch.</desc>
    <defs></defs>
    <g id="Page-1" stroke="none" stroke-width="1" fill="none" fill-rule="evenodd">
        <g id="Artboard-1" transform="translate(-782.000000, -15321.000000)" fill="#A6AAB2">
            <g id="Group-32" transform="translate(398.000000, 14973.000000)">
                <g id="Group-26" transform="translate(104.000000, 345.000000)">
                    <g id="map" transform="translate(280.000000, 3.000000)">
                        <path d="M17.626556,0.145454545 C17.4771784,0 17.253112,0 17.0290456,0 L11.2033195,1.45454545 L6.94605809,0.0727272727 C6.7966805,0 6.6473029,0 6.57261411,0 L0.597510373,1.45454545 C0.22406639,1.52727273 0,1.81818182 0,2.18181818 L0,15.2727273 C0,15.4909091 0.0746887967,15.7090909 0.298755187,15.8545455 C0.44813278,15.9272727 0.597510373,16 0.746887967,16 L0.89626556,16 L6.7219917,14.5454545 L10.9792531,15.9272727 C11.1286307,16 11.2780083,16 11.4273859,15.9272727 L17.4024896,14.4727273 C17.7012448,14.4 18,14.1090909 18,13.7454545 L18,0.727272727 C17.9253112,0.509090909 17.8506224,0.290909091 17.626556,0.145454545 L17.626556,0.145454545 Z M4.32,8.72727273 L3.6,8.72727273 C3.168,8.72727273 2.88,8.43636364 2.88,8 C2.88,7.56363636 3.168,7.27272727 3.6,7.27272727 L4.32,7.27272727 C4.752,7.27272727 5.04,7.56363636 5.04,8 C5.04,8.43636364 4.752,8.72727273 4.32,8.72727273 L4.32,8.72727273 Z M7.92,8.72727273 L7.2,8.72727273 C6.768,8.72727273 6.48,8.43636364 6.48,8 C6.48,7.56363636 6.768,7.27272727 7.2,7.27272727 L7.92,7.27272727 C8.352,7.27272727 8.64,7.56363636 8.64,8 C8.64,8.43636364 8.352,8.72727273 7.92,8.72727273 L7.92,8.72727273 Z M15.084,8.94545455 C15.372,9.23636364 15.372,9.67272727 15.084,9.96363636 C14.94,10.1090909 14.796,10.1818182 14.58,10.1818182 C14.364,10.1818182 14.22,10.1090909 14.076,9.96363636 L13.14,9.01818182 L12.204,9.96363636 C12.06,10.1090909 11.916,10.1818182 11.7,10.1818182 C11.484,10.1818182 11.34,10.1090909 11.196,9.96363636 C10.908,9.67272727 10.908,9.23636364 11.196,8.94545455 L12.132,8 L11.196,7.05454545 C10.908,6.76363636 10.908,6.32727273 11.196,6.03636364 C11.484,5.74545455 11.916,5.74545455 12.204,6.03636364 L13.14,6.98181818 L14.076,6.03636364 C14.364,5.74545455 14.796,5.74545455 15.084,6.03636364 C15.372,6.32727273 15.372,6.76363636 15.084,7.05454545 L14.148,8 L15.084,8.94545455 L15.084,8.94545455 Z" id="Shape"></path>
                    </g>
                </g>
            </g>
        </g>
    </g>
</svg>