<?xml version="1.0" encoding="UTF-8" standalone="no"?>
<svg width="18px" height="18px" viewBox="0 0 18 18" version="1.1" xmlns="http://www.w3.org/2000/svg" xmlns:xlink="http://www.w3.org/1999/xlink">
    <!-- Generator: Sketch 3.6.1 (26313) - http://www.bohemiancoding.com/sketch -->
    <title>Overview</title>
    <desc>Created with Sketch.</desc>
    <defs></defs>
    <g id="Page-1" stroke="none" stroke-width="1" fill="none" fill-rule="evenodd">
        <g id="Artboard-1" transform="translate(-312.000000, -10234.000000)" fill="#3ca8ff">
            <g id="Group-32" transform="translate(192.000000, 9887.000000)">
                <g id="Group-26" transform="translate(0.000000, 345.000000)">
                    <g id="Overview" transform="translate(120.000000, 2.000000)">
                        <g id="Group">
                            <path d="M4.5,18 L0,18 L0,13.5 L4.5,13.5 L4.5,18 L4.5,18 Z" id="Shape"></path>
                            <path d="M11.25,11.25 L6.75,11.25 L6.75,6.75 L11.25,6.75 L11.25,11.25 L11.25,11.25 Z" id="Shape"></path>
                            <path d="M4.5,11.25 L0,11.25 L0,6.75 L4.5,6.75 L4.5,11.25 L4.5,11.25 Z" id="Shape"></path>
                            <path d="M11.25,4.5 L6.75,4.5 L6.75,0 L11.25,0 L11.25,4.5 L11.25,4.5 Z" id="Shape"></path>
                            <path d="M4.5,4.5 L0,4.5 L0,0 L4.5,0 L4.5,4.5 L4.5,4.5 Z" id="Shape"></path>
                            <path d="M18,4.5 L13.5,4.5 L13.5,0 L18,0 L18,4.5 L18,4.5 Z" id="Shape"></path>
                            <rect id="Rectangle-path" x="14.25" y="14.25" width="3" height="3"></rect>
                            <rect id="Rectangle-path" x="14.25" y="7.5" width="3" height="3"></rect>
                            <rect id="Rectangle-path" x="7.5" y="14.25" width="3" height="3"></rect>
                        </g>
                    </g>
                </g>
            </g>
        </g>
    </g>
</svg>