<?xml version="1.0" encoding="UTF-8" standalone="no"?>
<svg width="16px" height="16px" viewBox="0 0 16 16" version="1.1" xmlns="http://www.w3.org/2000/svg" xmlns:xlink="http://www.w3.org/1999/xlink">
    <!-- Generator: Sketch 3.6.1 (26313) - http://www.bohemiancoding.com/sketch -->
    <title>Parameter</title>
    <desc>Created with Sketch.</desc>
    <defs></defs>
    <g id="Page-1" stroke="none" stroke-width="1" fill="none" fill-rule="evenodd">
        <g id="Artboard-1" transform="translate(-346.000000, -17291.000000)" fill="#A6AAB2">
            <g id="Group-32" transform="translate(313.000000, 16943.000000)">
                <g id="Group-26" transform="translate(0.000000, 345.000000)">
                    <g id="Parameter" transform="translate(33.000000, 3.000000)">
                        <g id="Group">
                            <path d="M3.33333333,7.33333333 L3.33333333,0.666666667 C3.33333333,0.298666667 3.03466667,0 2.66666667,0 C2.29866667,0 2,0.298666667 2,0.666666667 L2,7.33333333 L3.33333333,7.33333333 L3.33333333,7.33333333 Z" id="Shape"></path>
                            <path d="M8.66666667,2 L8.66666667,0.666666667 C8.66666667,0.298666667 8.368,0 8,0 C7.632,0 7.33333333,0.298666667 7.33333333,0.666666667 L7.33333333,2 L8.66666667,2 L8.66666667,2 Z" id="Shape"></path>
                            <path d="M14,7.33333333 L14,0.666666667 C14,0.298666667 13.7013333,0 13.3333333,0 C12.9653333,0 12.6666667,0.298666667 12.6666667,0.666666667 L12.6666667,7.33333333 L14,7.33333333 L14,7.33333333 Z" id="Shape"></path>
                            <path d="M2.66666667,8.66666667 C1.196,8.66666667 0,9.86266667 0,11.3333333 C0,12.572 0.853333333,13.6073333 2,13.9053333 L2,15.3333333 C2,15.7013333 2.29866667,16 2.66666667,16 C3.03466667,16 3.33333333,15.7013333 3.33333333,15.3333333 L3.33333333,13.9053333 C4.48,13.6073333 5.33333333,12.572 5.33333333,11.3333333 C5.33333333,9.86266667 4.13733333,8.66666667 2.66666667,8.66666667 L2.66666667,8.66666667 Z" id="Shape"></path>
                            <path d="M10.6666667,6 C10.6666667,4.52933333 9.47066667,3.33333333 8,3.33333333 C6.52933333,3.33333333 5.33333333,4.52933333 5.33333333,6 C5.33333333,7.23866667 6.18666667,8.274 7.33333333,8.572 L7.33333333,15.3333333 C7.33333333,15.7013333 7.632,16 8,16 C8.368,16 8.66666667,15.7013333 8.66666667,15.3333333 L8.66666667,8.572 C9.81333333,8.274 10.6666667,7.23866667 10.6666667,6 L10.6666667,6 Z" id="Shape"></path>
                            <path d="M16,11.3333333 C16,9.86266667 14.804,8.66666667 13.3333333,8.66666667 C11.8626667,8.66666667 10.6666667,9.86266667 10.6666667,11.3333333 C10.6666667,12.572 11.52,13.6073333 12.6666667,13.9053333 L12.6666667,15.3333333 C12.6666667,15.7013333 12.9653333,16 13.3333333,16 C13.7013333,16 14,15.7013333 14,15.3333333 L14,13.9053333 C15.1466667,13.6073333 16,12.572 16,11.3333333 L16,11.3333333 Z" id="Shape"></path>
                        </g>
                    </g>
                </g>
            </g>
        </g>
    </g>
</svg>