<?xml version="1.0" encoding="UTF-8" standalone="no"?>
<svg width="18px" height="18px" viewBox="0 0 18 18" version="1.1" xmlns="http://www.w3.org/2000/svg" xmlns:xlink="http://www.w3.org/1999/xlink">
    <!-- Generator: Sketch 3.6.1 (26313) - http://www.bohemiancoding.com/sketch -->
    <title>plan</title>
    <desc>Created with Sketch.</desc>
    <defs></defs>
    <g id="Page-1" stroke="none" stroke-width="1" fill="none" fill-rule="evenodd">
        <g id="Artboard-1" transform="translate(-742.000000, -15320.000000)" fill="#A6AAB2">
            <g id="Group-32" transform="translate(398.000000, 14973.000000)">
                <g id="Group-26" transform="translate(104.000000, 345.000000)">
                    <g id="plan" transform="translate(240.000000, 2.000000)">
                        <g id="Group">
                            <path d="M18,2.25 C18,1.836 17.664,1.5 17.25,1.5 L15,1.5 L15,0.75 C15,0.336 14.664,0 14.25,0 L11.25,0 C10.836,0 10.5,0.336 10.5,0.75 L10.5,1.5 L7.5,1.5 L7.5,0.75 C7.5,0.336 7.164,0 6.75,0 L3.75,0 C3.336,0 3,0.336 3,0.75 L3,1.5 L0.75,1.5 C0.336,1.5 0,1.836 0,2.25 L0,5.25 L18,5.25 L18,2.25 L18,2.25 Z M6,3.75 L4.5,3.75 L4.5,1.5 L6,1.5 L6,3.75 L6,3.75 Z M13.5,3.75 L12,3.75 L12,1.5 L13.5,1.5 L13.5,3.75 L13.5,3.75 Z" id="Shape"></path>
                            <path d="M0,6.75 L0,17.25 C0,17.664 0.336,18 0.75,18 L17.25,18 C17.664,18 18,17.664 18,17.25 L18,6.75 L0,6.75 L0,6.75 Z M8.03025,15.53025 C7.884,15.6765 7.692,15.75 7.5,15.75 C7.308,15.75 7.116,15.6765 6.96975,15.53025 L4.71975,13.28025 L5.78025,12.21975 L7.5,13.9395 L12.21975,9.21975 L13.28025,10.28025 L8.03025,15.53025 L8.03025,15.53025 Z" id="Shape"></path>
                        </g>
                    </g>
                </g>
            </g>
        </g>
    </g>
</svg>