<?xml version="1.0" encoding="UTF-8" standalone="no"?>
<svg width="16px" height="16px" viewBox="0 0 16 16" version="1.1" xmlns="http://www.w3.org/2000/svg" xmlns:xlink="http://www.w3.org/1999/xlink">
    <!-- Generator: Sketch 3.6.1 (26313) - http://www.bohemiancoding.com/sketch -->
    <title>producticon</title>
    <desc>Created with Sketch.</desc>
    <defs></defs>
    <g id="Page-1" stroke="none" stroke-width="1" fill="none" fill-rule="evenodd">
        <g id="Artboard-1" transform="translate(-454.000000, -17291.000000)" fill="#A6AAB2">
            <g id="Group-32" transform="translate(303.000000, 16943.000000)">
                <g id="Group-26" transform="translate(0.000000, 342.000000)">
                    <path d="M154.694299,6 C152.654035,6 151,7.65403467 151,9.69429915 C151,11.7346294 152.654035,13.388697 154.694299,13.388697 L157.556104,13.388697 C158.015823,13.388697 158.388533,13.0158229 158.388533,12.5561038 L158.388533,9.69436496 C158.388664,7.65403467 156.734629,6 154.694299,6 L154.694299,6 L154.694299,6 L154.694299,6 L154.694299,6 Z M154.694299,14.6114346 C152.654035,14.6114346 151,16.2653377 151,18.3057008 C151,20.346064 152.654035,22 154.694299,22 C156.734597,22 158.388533,20.3460969 158.388664,18.3057008 L158.388664,15.4438962 C158.388664,14.9841113 158.015823,14.6114346 157.556104,14.6114346 L154.694299,14.6114346 L154.694299,14.6114346 L154.694299,14.6114346 L154.694299,14.6114346 L154.694299,14.6114346 Z M163.305701,6 C161.265338,6 159.611303,7.65403467 159.611303,9.69429915 L159.611303,12.5561367 C159.611303,13.0159873 159.984013,13.3885654 160.443896,13.3885654 L163.305701,13.3887299 C165.345932,13.3887299 167,11.7346623 167,9.69433204 C167,7.65403467 165.345965,6 163.305701,6 L163.305701,6 L163.305701,6 L163.305701,6 L163.305701,6 Z M163.305701,14.6114346 L160.443896,14.6114346 C159.984046,14.6114346 159.611303,14.9840455 159.611303,15.4438962 L159.611303,18.3057008 C159.611303,20.346064 161.265206,22 163.305569,22 C165.345932,22 166.999868,20.3460969 166.999868,18.3057008 C167,16.2653377 165.345965,14.6114346 163.305701,14.6114346 L163.305701,14.6114346 L163.305701,14.6114346 L163.305701,14.6114346 L163.305701,14.6114346 Z" id="producticon"></path>
                </g>
            </g>
        </g>
    </g>
</svg>