<?xml version="1.0" encoding="UTF-8" standalone="no"?>
<svg width="30px" height="30px" viewBox="0 0 30 30" version="1.1" xmlns="http://www.w3.org/2000/svg" xmlns:xlink="http://www.w3.org/1999/xlink">
    <!-- Generator: Sketch 3.6.1 (26313) - http://www.bohemiancoding.com/sketch -->
    <title>projectset</title>
    <desc>Created with Sketch.</desc>
    <defs></defs>
    <g id="Page-1" stroke="none" stroke-width="1" fill="none" fill-rule="evenodd">
        <g id="Artboard-1" transform="translate(-891.000000, -10573.000000)">
            <g id="Group-32" transform="translate(375.000000, 9887.000000)">
                <g id="Group-58" transform="translate(366.000000, 686.000000)">
                    <g id="projectset" transform="translate(150.000000, 0.000000)">
                        <path d="M30,15 C30,23.2843188 23.2842375,29.9999188 15,29.9999188 C6.7157625,29.9999188 0,23.2843188 0,15 C0,6.7157625 6.7157625,8.12500002e-05 15,8.12500002e-05 C23.2842375,8.12500002e-05 30,6.7157625 30,15" id="Shape" fill="#FFFFFF"></path>
                        <path d="M15,28.4999269 C7.54418625,28.4999269 1.5,22.4558869 1.5,15 C1.5,7.54418625 7.54418625,1.50007313 15,1.50007313 C22.4558137,1.50007313 28.5,7.54418625 28.5,15 C28.5,22.4558869 22.4558137,28.4999269 15,28.4999269 Z" id="Shape" fill="#007ACC"></path>
                        <path d="M21.734375,17.9375 L22.25,16.953125 L21.59375,16.296875 L20.609375,16.8125 C20.46875,16.71875 20.28125,16.671875 20.09375,16.625 L19.71875,15.5 L18.78125,15.5 L18.40625,16.578125 C18.265625,16.625 18.078125,16.671875 17.9375,16.765625 L16.953125,16.25 L16.25,16.953125 L16.765625,17.9375 C16.671875,18.078125 16.625,18.265625 16.578125,18.40625 L15.5,18.78125 L15.5,19.71875 L16.578125,20.09375 C16.625,20.28125 16.71875,20.421875 16.765625,20.609375 L16.25,21.59375 L16.90625,22.25 L17.890625,21.734375 C18.03125,21.828125 18.21875,21.875 18.40625,21.921875 L18.78125,23 L19.71875,23 L20.09375,21.921875 C20.28125,21.875 20.421875,21.78125 20.609375,21.734375 L21.59375,22.25 L22.25,21.59375 L21.734375,20.609375 C21.828125,20.46875 21.875,20.28125 21.921875,20.09375 L23,19.71875 L23,18.78125 L21.921875,18.40625 C21.875,18.265625 21.828125,18.078125 21.734375,17.9375 L21.734375,17.9375 Z M19.25,21.078125 C18.2140625,21.078125 17.421875,20.2859375 17.421875,19.25 C17.421875,18.2140625 18.2140625,17.421875 19.25,17.421875 C20.2859375,17.421875 21.078125,18.2140625 21.078125,19.25 C21.078125,20.2859375 20.2859375,21.078125 19.25,21.078125 L19.25,21.078125 Z" id="Shape" fill="#FFFFFF"></path>
                        <path d="M12.500002,7 L7,7 L7,12.500002 C7,13.6044813 7.89550228,14.4999836 9.00000262,14.4999836 L14.5000046,14.4999836 L14.5000046,9.00000262 C14.5000046,7.89525065 13.6044813,7 12.500002,7 L12.500002,7 Z M13.2500213,11.7499826 L13.2500213,13.2499794 L9.24999509,13.2499794 C8.69777637,13.2499794 8.25000426,12.8022282 8.25000426,12.2497369 L8.25000426,11.9999961 L8.25000426,8.25000426 L12.2500095,8.25000426 C12.8022702,8.25000426 13.2500213,8.69750377 13.2500213,9.25001605 L13.2500213,11.7499826 L13.2500213,11.7499826 Z M17.499998,7 C16.3954977,7 15.5000164,7.89525065 15.5000164,9.00000262 L15.5000164,14.4999836 L20.9999974,14.4999836 C22.1044977,14.4999836 23,13.6044604 23,12.500002 L23,7 L17.499998,7 L17.499998,7 Z M21.7499957,10.0000144 L21.7499957,12.2497788 C21.7499957,12.8022702 21.3022656,13.2500213 20.7499839,13.2500213 L16.7499787,13.2500213 L16.7499787,11.7500246 L16.7499787,9.25003702 C16.7499787,8.69752474 17.1977089,8.25002523 17.7499905,8.25002523 L21.7499957,8.25002523 L21.7499957,10.0000354 L21.7499957,10.0000144 Z M7.00002097,17.4999771 L7.00002097,22.999979 L12.5000229,22.999979 C13.6045233,22.999979 14.5000256,22.1044768 14.5000256,20.9999764 L14.5000256,15.5000164 L9.00002359,15.5000164 C7.89550228,15.5000164 7.00002097,16.395267 7.00002097,17.4999771 L7.00002097,17.4999771 Z M13.2500213,16.7499787 L13.2500213,18.2499754 L13.2500213,20.749963 C13.2500213,21.3022236 12.8022911,21.7499748 12.2500095,21.7499748 L8.25000426,21.7499748 L8.25000426,20.4999495 L8.25000426,17.7499695 C8.25000426,17.1977089 8.69777637,16.7499577 9.24999509,16.7499577 L13.2500213,16.7499577 L13.2500213,16.7499787 Z" id="Shape" fill="#FFFFFF"></path>
                    </g>
                </g>
            </g>
        </g>
    </g>
</svg>