<?xml version="1.0" encoding="UTF-8" standalone="no"?>
<svg width="16px" height="16px" viewBox="0 0 16 16" version="1.1" xmlns="http://www.w3.org/2000/svg" xmlns:xlink="http://www.w3.org/1999/xlink">
  <!-- Generator: Sketch 3.6.1 (26313) - http://www.bohemiancoding.com/sketch -->
  <title>projecticon</title>
  <desc>Created with Sketch.</desc>
  <defs></defs>
  <g id="Page-1" stroke="none" stroke-width="1" fill="none" fill-rule="evenodd">
    <g id="Artboard-1" transform="translate(-418.000000, -17291.000000)" fill="#3ca8ff">
      <g id="Group-32" transform="translate(303.000000, 16943.000000)">
        <g id="Group-26" transform="translate(0.000000, 342.000000)">
          <path d="M120.500002,6 L115,6 L115,11.500002 C115,12.6044813 115.895502,13.4999836 117.000003,13.4999836 L122.500005,13.4999836 L122.500005,8.00000262 C122.500005,6.89525065 121.604481,6 120.500002,6 L120.500002,6 Z M120.718769,10.5374842 L120.718769,11.7187312 L117.568749,11.7187312 C117.133877,11.7187312 116.781257,11.3661273 116.781257,10.9310406 L116.781257,10.7343697 L116.781257,7.78125247 L119.93126,7.78125247 C120.366165,7.78125247 120.718769,8.13365818 120.718769,8.56876141 L120.718769,10.5374842 L120.718769,10.5374842 Z M129.000018,14.5000164 L123.500016,14.5000164 L123.500016,19.9999764 C123.500016,21.1044977 124.395519,21.999979 125.499998,21.999979 L131,21.999979 L131,16.4999771 C131.000021,15.395267 130.104477,14.5000164 129.000018,14.5000164 L129.000018,14.5000164 Z M129.187499,19.2187268 L129.187499,20.1874989 L126.087487,20.1874989 C125.659484,20.1874989 125.312476,19.8405071 125.312476,19.4124877 L125.312476,17.2812314 L125.312476,16.3124755 L128.412488,16.3124755 C128.840491,16.3124755 129.187499,16.6594673 129.187499,17.0874867 L129.187499,19.2187268 L129.187499,19.2187268 Z M123.500016,8.00000262 L123.500016,13.4999836 L128.999997,13.4999836 C130.104498,13.4999836 131,12.6044604 131,11.500002 L131,6 L125.499998,6 C124.395498,6 123.500016,6.89525065 123.500016,8.00000262 Z M129.218743,9.15939163 L129.218743,10.9310801 C129.218743,11.3661668 128.866156,11.7187706 128.431234,11.7187706 L125.281232,11.7187706 L125.281232,10.5375238 L125.281232,8.56878477 C125.281232,8.13368159 125.633819,7.78127592 126.06874,7.78127592 L129.218743,7.78127592 L129.218743,9.15940814 L129.218743,9.15939163 Z M115.000021,16.4999771 L115.000021,21.999979 L120.500023,21.999979 C121.604523,21.999979 122.500026,21.1044768 122.500026,19.9999764 L122.500026,14.5000164 L117.000024,14.5000164 C115.895502,14.5000164 115.000021,15.395267 115.000021,16.4999771 L115.000021,16.4999771 Z M120.68754,16.3124551 L120.68754,17.474965 L120.68754,19.4124762 C120.68754,19.8404828 120.340546,20.1874937 119.912523,20.1874937 L116.812485,20.1874937 L116.812485,19.2187137 L116.812485,17.0874563 C116.812485,16.6594497 117.159512,16.3124388 117.587487,16.3124388 L120.68754,16.3124388 L120.68754,16.3124551 Z" id="projecticon"></path>
        </g>
      </g>
    </g>
  </g>
</svg>
