<?xml version="1.0" encoding="UTF-8" standalone="no"?>
<svg width="16px" height="18px" viewBox="0 0 16 18" version="1.1" xmlns="http://www.w3.org/2000/svg" xmlns:xlink="http://www.w3.org/1999/xlink">
    <!-- Generator: Sketch 3.6.1 (26313) - http://www.bohemiancoding.com/sketch -->
    <title>requirement</title>
    <desc>Created with Sketch.</desc>
    <defs></defs>
    <g id="Page-1" stroke="none" stroke-width="1" fill="none" fill-rule="evenodd">
        <g id="Artboard-1" transform="translate(-543.000000, -15320.000000)" fill="#A6AAB2">
            <g id="Group-32" transform="translate(398.000000, 14973.000000)">
                <g id="Group-26" transform="translate(104.000000, 345.000000)">
                    <g id="requirement" transform="translate(41.000000, 2.000000)">
                        <rect id="Rectangle-path" x="5" y="0" width="6" height="4.5"></rect>
                        <path d="M12,1.125 L12,5.375 L4,5.375 L4,1.125 L1,1.125 C0.4,1.125 0,1.575 0,2.25 L0,16.875 C0,17.55 0.4,18 1,18 L15,18 C15.6,18 16,17.55 16,16.875 L16,2.25 C16,1.575 15.6,1.125 15,1.125 L12,1.125 Z M2.8950656,7.75 L13.1049344,7.75 L13.1049344,10 L2.8950656,10 L2.8950656,7.75 Z M2.8950656,12.25 L13.1049344,12.25 L13.1049344,14.5 L2.8950656,14.5 L2.8950656,12.25 Z" id="Combined-Shape"></path>
                    </g>
                </g>
            </g>
        </g>
    </g>
</svg>