<?xml version="1.0" encoding="UTF-8" standalone="no"?>
<svg width="18px" height="18px" viewBox="0 0 18 18" version="1.1" xmlns="http://www.w3.org/2000/svg" xmlns:xlink="http://www.w3.org/1999/xlink">
    <!-- Generator: Sketch 3.6.1 (26313) - http://www.bohemiancoding.com/sketch -->
    <title>team</title>
    <desc>Created with Sketch.</desc>
    <defs></defs>
    <g id="Page-1" stroke="none" stroke-width="1" fill="none" fill-rule="evenodd">
        <g id="Artboard-1" transform="translate(-822.000000, -15320.000000)" fill="#A6AAB2">
            <g id="Group-32" transform="translate(398.000000, 14973.000000)">
                <g id="Group-26" transform="translate(104.000000, 345.000000)">
                    <g id="team" transform="translate(320.000000, 2.000000)">
                        <path d="M9,6.75 L9,6.75 C7.0875,6.75 5.625,5.2875 5.625,3.375 L5.625,3.375 C5.625,1.4625 7.0875,0 9,0 L9,0 C10.9125,0 12.375,1.4625 12.375,3.375 L12.375,3.375 C12.375,5.2875 10.9125,6.75 9,6.75 L9,6.75 Z" id="Shape"></path>
                        <path d="M11.25,18 L6.75,18 L6.75,13.5 L4.5,11.25 L4.5,7.875 L13.5,7.875 L13.5,11.25 L11.25,13.5 L11.25,18 Z" id="Shape"></path>
                        <path d="M2.25,5.625 L2.25,5.625 C1.0125,5.625 0,4.6125 0,3.375 L0,3.375 C0,2.1375 1.0125,1.125 2.25,1.125 L2.25,1.125 C3.4875,1.125 4.5,2.1375 4.5,3.375 L4.5,3.375 C4.5,4.6125 3.4875,5.625 2.25,5.625 L2.25,5.625 Z" id="Shape"></path>
                        <path d="M3.375,11.7 L3.375,6.75 L0,6.75 L0,10.125 L1.125,11.25 L1.125,15.75 L4.5,15.75 L4.5,12.825 L3.375,11.7 Z" id="Shape"></path>
                        <path d="M15.75,5.625 L15.75,5.625 C16.9875,5.625 18,4.6125 18,3.375 L18,3.375 C18,2.1375 16.9875,1.125 15.75,1.125 L15.75,1.125 C14.5125,1.125 13.5,2.1375 13.5,3.375 L13.5,3.375 C13.5,4.6125 14.5125,5.625 15.75,5.625 L15.75,5.625 Z" id="Shape"></path>
                        <path d="M14.625,11.7 L14.625,6.75 L18,6.75 L18,10.125 L16.875,11.25 L16.875,15.75 L13.5,15.75 L13.5,12.825 L14.625,11.7 Z" id="Shape"></path>
                    </g>
                </g>
            </g>
        </g>
    </g>
</svg>