<?xml version="1.0" encoding="UTF-8" standalone="no"?>
<svg width="18px" height="16px" viewBox="0 0 18 16" version="1.1" xmlns="http://www.w3.org/2000/svg" xmlns:xlink="http://www.w3.org/1999/xlink">
    <!-- Generator: Sketch 3.6.1 (26313) - http://www.bohemiancoding.com/sketch -->
    <title>work item</title>
    <desc>Created with Sketch.</desc>
    <defs></defs>
    <g id="Page-1" stroke="none" stroke-width="1" fill="none" fill-rule="evenodd">
        <g id="Artboard-1" transform="translate(-582.000000, -15321.000000)" fill="#A6AAB2">
            <g id="Group-32" transform="translate(398.000000, 14973.000000)">
                <g id="Group-26" transform="translate(104.000000, 345.000000)">
                    <g id="work-item" transform="translate(80.000000, 3.000000)">
                        <g id="Group">
                            <path d="M16.875,13 L11.25,13 C11.25,13.6 10.8,14 10.125,14 L7.875,14 C7.2,14 6.75,13.6 6.75,13 L1.125,13 L1.125,15 C1.125,15.6 1.575,16 2.25,16 L15.75,16 C16.425,16 16.875,15.6 16.875,15 L16.875,13 L16.875,13 Z" id="Shape"></path>
                            <path d="M16.875,4 L13.5,4 L13.5,1 C13.5,0.4 13.05,0 12.375,0 L5.625,0 C4.95,0 4.5,0.4 4.5,1 L4.5,4 L1.125,4 C0.45,4 0,4.4 0,5 L0,11 C0,11.6 0.45,12 1.125,12 L6.75,12 L6.75,11 C6.75,10.4 7.2,10 7.875,10 L10.125,10 C10.8,10 11.25,10.4 11.25,11 L11.25,12 L16.875,12 C17.55,12 18,11.6 18,11 L18,5 C18,4.4 17.55,4 16.875,4 L16.875,4 Z M11.25,4 L6.75,4 L6.75,2 L11.25,2 L11.25,4 L11.25,4 Z" id="Shape"></path>
                        </g>
                    </g>
                </g>
            </g>
        </g>
    </g>
</svg>