<?xml version="1.0" encoding="UTF-8" standalone="no"?>
<svg width="98px" height="100px" viewBox="0 0 98 100" version="1.1" xmlns="http://www.w3.org/2000/svg" xmlns:xlink="http://www.w3.org/1999/xlink">
    <!-- Generator: Sketch 3.6.1 (26313) - http://www.bohemiancoding.com/sketch -->
    <title>EOSLOGO2</title>
    <desc>Created with Sketch.</desc>
    <defs></defs>
    <g id="Page-1" stroke="none" stroke-width="1" fill="none" fill-rule="evenodd">
        <g id="Artboard-1" transform="translate(-183.000000, -10711.000000)">
            <g id="logo" transform="translate(183.000000, 10711.000000)">
                <g id="EOSLOGO2">
                    <g id="Group">
                        <path d="M31.296,3.869 L30.2,4.305 C29.966,4.409 29.673,4.548 29.393,4.679 C30.024,4.4 30.649,4.117 31.296,3.869 L31.296,3.869 Z" id="Shape"></path>
                        <path id="Shape" fill="#FFFFFF" d="M96.749,55.629 C96.749,55.644 96.745,55.724 96.745,55.724 C96.749,55.702 96.749,55.675 96.753,55.652 C96.749,55.644 96.749,55.636 96.749,55.629 L96.749,55.629 Z"></path>
                        <path d="M79.372,86.27 C81.481,83.583 83.171,79.212 83.903,74.574 C84.737,69.304 84.301,64.002 82.688,59.649 C79.043,49.829 73.358,42.557 68.788,36.718 C66.686,34.025 64.692,31.48 63.239,29.107 C62.276,27.537 61.741,25.948 61.452,24.377 C61.452,24.358 61.444,24.343 61.444,24.328 C61.268,23.369 61.225,22.44 61.305,21.523 C61.309,21.488 61.309,21.454 61.313,21.416 C61.444,20.133 61.725,18.887 62.36,17.756 C64.225,14.45 67.977,12.483 72.395,12.502 C74.118,12.51 76.704,12.781 79.395,13.652 C75.577,11.645 71.805,11.252 68.444,11.237 C58.907,11.203 52.975,19.302 58.657,28.11 C63.651,35.833 73.999,44.812 79.796,59.668 C83.671,69.596 80.679,81.85 76.169,87.324 C69.774,95.093 61.157,97.672 61.157,97.672 C65.149,96.602 69.048,95.017 72.563,92.785 C73.075,92.433 73.602,92.02 74.129,91.608 C76.3,89.608 77.726,88.375 79.372,86.27 L79.372,86.27 Z" id="Shape" fill="#FFFFFF"></path>
                        <path id="Shape" fill="#FFFFFF" d="M79.647,13.788 C79.579,13.754 79.508,13.712 79.44,13.674 L78.989,13.582 C79.208,13.651 79.425,13.712 79.647,13.788 L79.647,13.788 Z"></path>
                        <path id="Shape" fill="#FFFFFF" d="M52.448,0.881 C52.38,0.874 52.327,0.859 52.259,0.851 C52.113,0.833 51.976,0.847 51.829,0.833 L51.134,1.057 C51.556,0.963 52.005,0.935 52.448,0.881 L52.448,0.881 Z"></path>
                        <path d="M62.407,95.413 C62.583,95.298 62.759,95.176 62.93,95.061 C63.957,94.35 64.912,93.593 65.815,92.795 C66.159,92.484 66.491,92.164 66.815,91.836 C67.229,91.438 67.594,91.01 67.969,90.594 C68.608,89.86 69.231,89.084 69.842,88.221 C72.922,83.876 74.426,78.832 74.305,73.216 C74.086,62.674 66.303,55.62 63.743,53.301 C62.88,52.518 61.505,51.501 59.755,50.209 C53.841,45.846 43.952,38.544 39.511,29.186 C36.378,22.565 37.382,13.536 41.964,7.219 C44.517,3.695 48.085,1.539 51.823,0.832 C36.262,-0.605 28.012,17.766 34.024,29.347 C40.305,41.467 56.415,50.073 60.713,53.625 C64.94,57.129 72.203,63.877 72.424,73.834 C72.711,86.219 66.028,95.011 51.408,99.6 C51.408,99.6 52.953,99.486 55.279,98.973 C57.886,97.973 60.294,96.804 62.407,95.413 L62.407,95.413 Z" id="Shape" fill="#FFFFFF"></path>
                        <path id="Shape" fill="#FFFFFF" d="M4.278,55.506 C4.143,55.155 4.018,54.796 3.891,54.433 C4.015,54.804 4.147,55.147 4.278,55.506 L4.278,55.506 Z"></path>
                        <path d="M5.337,58.181 L4.778,56.828 C4.962,57.287 5.146,57.737 5.337,58.181 L5.337,58.181 Z" id="Shape" fill="#FFFFFF"></path>
                        <path d="M13.765,15.6 C13.472,15.902 13.253,16.207 12.97,16.509 C12.865,16.7 12.318,17.655 11.763,18.706 C11.304,19.573 10.509,21.239 9.822,23.211 C7.951,28.557 5.986,36.933 8.222,47.299 C8.898,50.444 10.601,55.591 11.843,59.351 C12.343,60.875 12.781,62.194 13.025,62.999 C13.673,65.173 13.632,66.519 12.894,66.9 C12.031,67.351 10.453,66.224 8.562,63.809 C7.951,63.03 6.82,61.322 5.505,58.539 C7.448,62.857 9.776,66.174 11.435,67.935 C15.687,72.466 18.679,70.789 16.746,65.802 C15.623,62.883 11.611,53.964 10.228,49.253 C3.944,27.923 13.765,15.6 13.765,15.6 L13.765,15.6 Z" id="Shape" fill="#FFFFFF"></path>
                        <path id="Shape" fill="#FFFFFF" d="M0.392,44.418 C0.4,44.38 0.404,44.261 0.404,44.261 C0.4,44.3 0.4,44.341 0.392,44.384 L0.392,44.418 L0.392,44.418 Z"></path>
                        <path d="M22.239,8.978 C22.462,8.802 22.686,8.623 22.913,8.455 C22.683,8.63 22.466,8.79 22.239,8.978 L22.239,8.978 Z" id="Shape" fill="#FFFFFF"></path>
                        <path d="M25.974,6.418 C25.511,6.684 25.031,6.918 24.579,7.205 C24.216,7.453 23.837,7.759 23.462,8.038 C24.356,7.403 25.194,6.88 25.974,6.418 L25.974,6.418 Z" id="Shape" fill="#FFFFFF"></path>
                        <path id="Shape" fill="#FFFFFF" d="M27.54,5.535 C27.757,5.421 28.007,5.283 28.192,5.189 C27.972,5.296 27.757,5.423 27.54,5.535 L27.54,5.535 Z"></path>
                        <path d="M31.296,3.869 C30.65,4.117 30.025,4.4 29.394,4.679 C26.605,5.991 21.816,8.753 17.931,13.712 C15.829,16.406 14.132,20.78 13.402,25.416 C12.574,30.685 13.006,35.981 14.621,40.337 C18.267,50.161 23.953,57.429 28.523,63.271 C30.625,65.964 32.615,68.505 34.07,70.878 C36.478,74.803 36.799,78.94 34.949,82.227 C33.086,85.539 29.332,87.507 24.908,87.485 C22.83,87.477 20.398,87.061 18.779,86.644 C18.228,86.51 17.679,86.274 17.511,86.205 C21.407,88.322 25.267,88.734 28.702,88.75 C38.235,88.788 44.169,80.688 38.487,71.877 C33.489,64.158 23.141,55.175 17.348,40.322 C13.475,30.395 16.461,18.141 20.971,12.666 C27.367,4.898 35.987,2.318 35.987,2.318 C34.483,2.721 33.001,3.213 31.536,3.766 C31.591,3.747 31.704,3.707 31.708,3.705 L31.296,3.869 L31.296,3.869 Z" id="Shape" fill="#FFFFFF"></path>
                        <path id="Shape" fill="#FFFFFF" d="M38.188,2.595 C38.436,2.471 38.678,2.343 38.926,2.224 C38.679,2.345 38.437,2.471 38.188,2.595 L38.188,2.595 Z"></path>
                        <path d="M63.118,70.638 C56.839,58.521 40.725,49.916 36.43,46.359 C32.205,42.859 24.942,36.111 24.715,26.15 C24.432,13.766 31.115,4.978 45.731,0.388 C45.731,0.388 44.188,0.505 41.868,1.013 C41.348,1.212 40.845,1.424 40.345,1.642 C39.228,2.217 37.552,3.096 36.238,3.877 C27.541,9.031 22.799,17.09 22.998,26.773 C23.219,37.311 31.006,44.365 33.559,46.684 C34.43,47.467 35.811,48.488 37.561,49.779 C43.471,54.139 53.36,61.441 57.791,70.802 C60.611,76.747 60.127,84.634 56.553,90.901 C54.69,94.16 52.213,96.575 49.332,97.993 C48.521,98.39 47.353,98.788 46.283,98.952 C45.431,99.082 44.885,99.128 44.885,99.128 C45,99.106 45.084,99.066 45.194,99.044 C45.03,99.066 44.862,99.09 44.694,99.109 C44.762,99.116 44.817,99.131 44.885,99.138 C60.733,100.973 69.185,82.33 63.118,70.638 L63.118,70.638 Z" id="Shape" fill="#FFFFFF"></path>
                        <path id="Shape" fill="#FFFFFF" d="M27.849,10.869 C27.923,10.777 27.995,10.679 28.068,10.583 C27.995,10.679 27.923,10.777 27.849,10.869 L27.849,10.869 Z"></path>
                        <path id="Shape" fill="#FFFFFF" d="M92.792,44.288 C92.96,44.716 93.112,45.155 93.269,45.602 C93.12,45.151 92.952,44.728 92.792,44.288 L92.792,44.288 Z"></path>
                        <path d="M92.521,43.562 C92.082,42.423 91.615,41.338 91.119,40.322 L90.668,39.65 C91.286,40.788 91.921,42.095 92.521,43.562 L92.521,43.562 Z" id="Shape" fill="#FFFFFF"></path>
                        <path d="M83.38,84.386 C83.696,84.057 83.942,83.725 84.243,83.392 C85.161,81.952 86.364,79.43 87.362,76.828 C89.383,71.54 91.323,63.057 89.092,52.691 C88.412,49.546 86.707,44.395 85.461,40.639 C84.957,39.111 84.529,37.796 84.285,36.986 C83.631,34.816 83.678,33.471 84.41,33.09 C85.277,32.643 86.699,33.636 88.584,36.043 L89.596,37.602 L91.055,40.193 C89.244,36.487 87.203,33.64 85.709,32.054 C81.457,27.522 78.461,29.196 80.398,34.186 C81.525,37.106 85.535,46.024 86.921,50.735 C93.2,72.066 83.38,84.386 83.38,84.386 L83.38,84.386 Z" id="Shape" fill="#FFFFFF"></path>
                        <path d="M62.407,95.413 C60.294,96.804 57.886,97.973 55.28,98.974 C55.8,98.86 56.354,98.726 56.95,98.57 L58.141,97.943 C59.759,97.071 61.146,96.246 62.407,95.413 L62.407,95.413 Z" id="Shape" fill="#FFFFFF"></path>
                        <path d="M62.407,95.413 C60.294,96.804 57.886,97.973 55.28,98.974 C55.8,98.86 56.354,98.726 56.95,98.57 L58.141,97.943 C59.759,97.071 61.146,96.246 62.407,95.413 L62.407,95.413 Z" id="Shape" fill="#FFFFFF"></path>
                        <path d="M66.815,91.837 C67.213,91.439 67.594,91.026 67.969,90.595 C67.595,91.011 67.229,91.438 66.815,91.837 L66.815,91.837 Z" id="Shape" fill="#FFFFFF"></path>
                        <path d="M66.815,91.837 C67.213,91.439 67.594,91.026 67.969,90.595 C67.595,91.011 67.229,91.438 66.815,91.837 L66.815,91.837 Z" id="Shape" fill="#FFFFFF"></path>
                        <path d="M62.931,95.062 C63.982,94.335 64.937,93.59 65.816,92.796 C64.913,93.594 63.958,94.351 62.931,95.062 L62.931,95.062 Z" id="Shape" fill="#FFFFFF"></path>
                        <path d="M62.931,95.062 C63.982,94.335 64.937,93.59 65.816,92.796 C64.913,93.594 63.958,94.351 62.931,95.062 L62.931,95.062 Z" id="Shape" fill="#FFFFFF"></path>
                        <path d="M50.095,1.386 C48.505,2.005 45.013,3.606 42.247,7.423 C37.741,13.64 36.749,22.527 39.833,29.03 C44.233,38.311 54.077,45.583 59.962,49.927 C61.72,51.226 63.103,52.25 63.985,53.041 C66.571,55.383 74.434,62.51 74.657,73.204 C74.778,78.897 73.251,84.017 70.128,88.42 C67.083,92.718 62.651,96.115 56.982,98.561 C62.949,96.967 72.15,92.998 76.529,83.211 C81.486,72.165 79.07,61.114 69.771,49.04 C60.367,36.832 49.08,31.345 49.64,21.498 C50.447,7.498 66.029,6.039 75.202,9.106 C74.083,8.265 66.292,2.535 52.448,0.879 C52.005,0.933 51.555,0.961 51.134,1.055 L50.095,1.386 L50.095,1.386 Z" id="Shape" fill="#FFFFFF"></path>
                        <path d="M50.095,1.386 C48.505,2.005 45.013,3.606 42.247,7.423 C37.741,13.64 36.749,22.527 39.833,29.03 C44.233,38.311 54.077,45.583 59.962,49.927 C61.72,51.226 63.103,52.25 63.985,53.041 C66.571,55.383 74.434,62.51 74.657,73.204 C74.778,78.897 73.251,84.017 70.128,88.42 C67.083,92.718 62.651,96.115 56.982,98.561 C62.949,96.967 72.15,92.998 76.529,83.211 C81.486,72.165 79.07,61.114 69.771,49.04 C60.367,36.832 49.08,31.345 49.64,21.498 C50.447,7.498 66.029,6.039 75.202,9.106 C74.083,8.265 66.292,2.535 52.448,0.879 C52.005,0.933 51.555,0.961 51.134,1.055 L50.095,1.386 L50.095,1.386 Z" id="Shape" fill="#FFFFFF"></path>
                        <path d="M72.563,92.784 C72.995,92.509 73.395,92.195 73.811,91.905 C73.93,91.794 74.018,91.714 74.129,91.607 C73.603,92.02 73.075,92.433 72.563,92.784 L72.563,92.784 Z" id="Shape" fill="#FFFFFF"></path>
                        <path d="M72.563,92.784 C72.995,92.509 73.395,92.195 73.811,91.905 C73.93,91.794 74.018,91.714 74.129,91.607 C73.603,92.02 73.075,92.433 72.563,92.784 L72.563,92.784 Z" id="Shape" fill="#FFFFFF"></path>
                        <path id="Shape" fill="#FFFFFF" d="M61.444,24.327 C61.444,24.342 61.452,24.357 61.452,24.376 C61.452,24.357 61.444,24.342 61.444,24.327 L61.444,24.327 Z"></path>
                        <path id="Shape" fill="#FFFFFF" d="M61.444,24.327 C61.444,24.342 61.452,24.357 61.452,24.376 C61.452,24.357 61.444,24.342 61.444,24.327 L61.444,24.327 Z"></path>
                        <path id="Shape" fill="#FFFFFF" d="M61.313,21.415 C61.309,21.453 61.309,21.487 61.305,21.522 C61.31,21.483 61.31,21.453 61.313,21.415 L61.313,21.415 Z"></path>
                        <path id="Shape" fill="#FFFFFF" d="M61.313,21.415 C61.309,21.453 61.309,21.487 61.305,21.522 C61.31,21.483 61.31,21.453 61.313,21.415 L61.313,21.415 Z"></path>
                        <path d="M93.763,32.534 C89.505,21.824 84.546,16.456 79.648,13.788 C79.425,13.712 79.209,13.651 78.99,13.582 L78.242,13.433 C75.949,13.017 74.131,12.861 72.396,12.853 C68.105,12.833 64.47,14.729 62.671,17.927 C60.882,21.106 61.198,25.115 63.538,28.924 C64.981,31.281 66.97,33.815 69.067,36.497 C73.647,42.362 79.356,49.656 83.02,59.526 C86.54,69.024 84.014,80.916 79.651,86.487 C78.194,88.343 76.491,89.857 74.602,91.317 C79.731,87.488 83.85,82.112 85.829,74.519 C89.456,60.629 82.153,45.957 77.981,38.411 C73.877,30.987 71.577,26.337 73.631,24.243 C77.652,20.15 85.889,25.003 90.785,33.986 C97.437,46.19 96.795,55.132 96.748,55.629 C96.748,55.636 96.748,55.644 96.752,55.651 C97.858,47.765 96.093,37.112 93.763,32.534 L93.763,32.534 Z" id="Shape" fill="#FFFFFF"></path>
                        <path d="M93.763,32.534 C89.505,21.824 84.546,16.456 79.648,13.788 C79.425,13.712 79.209,13.651 78.99,13.582 L78.242,13.433 C75.949,13.017 74.131,12.861 72.396,12.853 C68.105,12.833 64.47,14.729 62.671,17.927 C60.882,21.106 61.198,25.115 63.538,28.924 C64.981,31.281 66.97,33.815 69.067,36.497 C73.647,42.362 79.356,49.656 83.02,59.526 C86.54,69.024 84.014,80.916 79.651,86.487 C78.194,88.343 76.491,89.857 74.602,91.317 C79.731,87.488 83.85,82.112 85.829,74.519 C89.456,60.629 82.153,45.957 77.981,38.411 C73.877,30.987 71.577,26.337 73.631,24.243 C77.652,20.15 85.889,25.003 90.785,33.986 C97.437,46.19 96.795,55.132 96.748,55.629 C96.748,55.636 96.748,55.644 96.752,55.651 C97.858,47.765 96.093,37.112 93.763,32.534 L93.763,32.534 Z" id="Shape" fill="#FFFFFF"></path>
                        <path d="M88.466,36.397 C86.407,33.76 85.081,33.141 84.577,33.401 C84.034,33.68 84.048,34.983 84.622,36.886 C84.866,37.688 85.298,39.006 85.798,40.524 C87.044,44.288 88.749,49.454 89.433,52.617 C91.687,63.068 89.792,71.711 87.615,76.995 C86.426,79.891 85.814,81 85.349,81.799 C85.058,82.292 84.867,82.62 84.699,82.872 C96.758,69.456 96.568,55.659 93.269,45.602 C93.113,45.155 92.96,44.715 92.792,44.288 C92.704,44.043 92.612,43.803 92.521,43.561 C91.921,42.094 91.287,40.788 90.667,39.649 L88.466,36.397 L88.466,36.397 Z" id="Shape" fill="#FFFFFF"></path>
                        <path d="M88.466,36.397 C86.407,33.76 85.081,33.141 84.577,33.401 C84.034,33.68 84.048,34.983 84.622,36.886 C84.866,37.688 85.298,39.006 85.798,40.524 C87.044,44.288 88.749,49.454 89.433,52.617 C91.687,63.068 89.792,71.711 87.615,76.995 C86.426,79.891 85.814,81 85.349,81.799 C85.058,82.292 84.867,82.62 84.699,82.872 C96.758,69.456 96.568,55.659 93.269,45.602 C93.113,45.155 92.96,44.715 92.792,44.288 C92.704,44.043 92.612,43.803 92.521,43.561 C91.921,42.094 91.287,40.788 90.667,39.649 L88.466,36.397 L88.466,36.397 Z" id="Shape" fill="#FFFFFF"></path>
                        <path d="M50.446,96.964 C52.723,95.539 54.704,93.43 56.247,90.725 C59.71,84.654 60.202,76.705 57.474,70.958 C53.076,61.673 43.23,54.401 37.349,50.065 C35.591,48.762 34.201,47.738 33.326,46.939 C30.738,44.6 22.867,37.474 22.646,26.78 C22.523,20.743 24.376,15.354 27.849,10.869 C27.923,10.777 27.995,10.679 28.068,10.583 C29.554,8.714 31.297,6.995 33.345,5.478 C34.728,4.458 36.431,3.48 38.189,2.595 C38.437,2.471 38.679,2.345 38.927,2.224 C39.726,1.841 40.521,1.476 41.308,1.145 C41.101,1.252 40.753,1.428 40.345,1.642 C40.845,1.424 41.349,1.212 41.868,1.013 C36.118,2.269 25.442,5.99 20.612,16.773 C15.661,27.824 18.075,38.871 27.372,50.949 C36.774,63.157 48.067,68.643 47.505,78.486 C46.694,92.49 31.116,93.943 21.943,90.882 C23.058,91.723 30.849,97.454 44.693,99.11 C44.861,99.09 45.029,99.067 45.193,99.045 C47.126,98.638 48.688,98.058 50.446,96.964 L50.446,96.964 Z" id="Shape" fill="#FFFFFF"></path>
                        <path d="M50.446,96.964 C52.723,95.539 54.704,93.43 56.247,90.725 C59.71,84.654 60.202,76.705 57.474,70.958 C53.076,61.673 43.23,54.401 37.349,50.065 C35.591,48.762 34.201,47.738 33.326,46.939 C30.738,44.6 22.867,37.474 22.646,26.78 C22.523,20.743 24.376,15.354 27.849,10.869 C27.923,10.777 27.995,10.679 28.068,10.583 C29.554,8.714 31.297,6.995 33.345,5.478 C34.728,4.458 36.431,3.48 38.189,2.595 C38.437,2.471 38.679,2.345 38.927,2.224 C39.726,1.841 40.521,1.476 41.308,1.145 C41.101,1.252 40.753,1.428 40.345,1.642 C40.845,1.424 41.349,1.212 41.868,1.013 C36.118,2.269 25.442,5.99 20.612,16.773 C15.661,27.824 18.075,38.871 27.372,50.949 C36.774,63.157 48.067,68.643 47.505,78.486 C46.694,92.49 31.116,93.943 21.943,90.882 C23.058,91.723 30.849,97.454 44.693,99.11 C44.861,99.09 45.029,99.067 45.193,99.045 C47.126,98.638 48.688,98.058 50.446,96.964 L50.446,96.964 Z" id="Shape" fill="#FFFFFF"></path>
                        <path d="M3.388,67.454 C7.632,78.142 12.581,83.507 17.464,86.174 C20.017,86.858 22.741,87.125 24.915,87.133 C29.202,87.152 32.839,85.257 34.64,82.055 C36.423,78.88 36.111,74.871 33.769,71.062 C32.324,68.708 30.341,66.175 28.24,63.489 C23.658,57.628 17.953,50.334 14.293,40.464 C10.766,30.965 13.369,19.127 17.656,13.503 C19.008,11.727 20.633,10.236 22.24,8.979 C22.467,8.791 22.683,8.631 22.914,8.456 C23.098,8.318 23.279,8.174 23.463,8.04 C23.838,7.761 24.217,7.455 24.58,7.207 C18.488,11.066 13.553,16.882 11.312,25.472 C7.691,39.361 14.988,54.034 19.162,61.58 C23.273,69.004 25.564,73.654 23.51,75.744 C19.49,79.841 11.252,74.987 6.362,66.005 C-0.158,54.033 0.333,45.23 0.393,44.42 L0.393,44.386 C-0.706,52.27 1.056,62.889 3.388,67.454 L3.388,67.454 Z" id="Shape" fill="#FFFFFF"></path>
                        <path d="M3.388,67.454 C7.632,78.142 12.581,83.507 17.464,86.174 C20.017,86.858 22.741,87.125 24.915,87.133 C29.202,87.152 32.839,85.257 34.64,82.055 C36.423,78.88 36.111,74.871 33.769,71.062 C32.324,68.708 30.341,66.175 28.24,63.489 C23.658,57.628 17.953,50.334 14.293,40.464 C10.766,30.965 13.369,19.127 17.656,13.503 C19.008,11.727 20.633,10.236 22.24,8.979 C22.467,8.791 22.683,8.631 22.914,8.456 C23.098,8.318 23.279,8.174 23.463,8.04 C23.838,7.761 24.217,7.455 24.58,7.207 C18.488,11.066 13.553,16.882 11.312,25.472 C7.691,39.361 14.988,54.034 19.162,61.58 C23.273,69.004 25.564,73.654 23.51,75.744 C19.49,79.841 11.252,74.987 6.362,66.005 C-0.158,54.033 0.333,45.23 0.393,44.42 L0.393,44.386 C-0.706,52.27 1.056,62.889 3.388,67.454 L3.388,67.454 Z" id="Shape" fill="#FFFFFF"></path>
                        <path d="M12.737,66.583 C13.272,66.309 13.253,65.005 12.688,63.099 C12.442,62.296 12.006,60.986 11.51,59.465 C10.264,55.697 8.557,50.535 7.873,47.371 C5.617,36.917 7.471,28.315 9.623,23.024 C11.238,19.049 12.32,17.357 12.771,16.738 C0.351,30.295 0.542,44.28 3.89,54.432 C4.017,54.795 4.142,55.155 4.277,55.505 C4.379,55.796 4.49,56.078 4.601,56.361 C5.621,58.623 7.841,62.322 8.837,63.59 C10.899,66.225 12.229,66.847 12.737,66.583 L12.737,66.583 Z" id="Shape" fill="#FFFFFF"></path>
                        <path d="M12.737,66.583 C13.272,66.309 13.253,65.005 12.688,63.099 C12.442,62.296 12.006,60.986 11.51,59.465 C10.264,55.697 8.557,50.535 7.873,47.371 C5.617,36.917 7.471,28.315 9.623,23.024 C11.238,19.049 12.32,17.357 12.771,16.738 C0.351,30.295 0.542,44.28 3.89,54.432 C4.017,54.795 4.142,55.155 4.277,55.505 C4.379,55.796 4.49,56.078 4.601,56.361 C5.621,58.623 7.841,62.322 8.837,63.59 C10.899,66.225 12.229,66.847 12.737,66.583 L12.737,66.583 Z" id="Shape" fill="#FFFFFF"></path>
                        <path id="Shape" fill="#FFFFFF" d="M56.706,98.695 C56.806,98.653 56.886,98.599 56.981,98.561 C56.969,98.561 56.958,98.565 56.95,98.569 L56.706,98.695 L56.706,98.695 Z"></path>
                        <path id="Shape" fill="#FFFFFF" d="M51.899,0.812 C51.876,0.816 51.848,0.829 51.823,0.833 L51.829,0.833 L51.899,0.812 L51.899,0.812 Z"></path>
                        <path d="M41.964,7.22 C37.382,13.536 36.378,22.566 39.511,29.187 C43.952,38.545 53.841,45.847 59.755,50.21 C61.505,51.502 62.88,52.519 63.743,53.302 C66.304,55.621 74.087,62.675 74.305,73.217 C74.426,78.833 72.922,83.877 69.842,88.222 C69.231,89.085 68.608,89.861 67.969,90.595 C72.227,85.868 74.541,79.98 74.401,73.213 C74.198,63.339 67.618,56.646 63.782,53.176 C59.891,49.649 45.288,41.12 39.591,29.107 C34.773,18.94 40.073,3.482 51.134,1.057 L51.829,0.833 L51.823,0.833 C48.085,1.54 44.517,3.695 41.964,7.22 L41.964,7.22 Z" id="Shape" fill="#FFFFFF"></path>
                        <path d="M41.964,7.22 C37.382,13.536 36.378,22.566 39.511,29.187 C43.952,38.545 53.841,45.847 59.755,50.21 C61.505,51.502 62.88,52.519 63.743,53.302 C66.304,55.621 74.087,62.675 74.305,73.217 C74.426,78.833 72.922,83.877 69.842,88.222 C69.231,89.085 68.608,89.861 67.969,90.595 C72.227,85.868 74.541,79.98 74.401,73.213 C74.198,63.339 67.618,56.646 63.782,53.176 C59.891,49.649 45.288,41.12 39.591,29.107 C34.773,18.94 40.073,3.482 51.134,1.057 L51.829,0.833 L51.823,0.833 C48.085,1.54 44.517,3.695 41.964,7.22 L41.964,7.22 Z" id="Shape" fill="#FFFFFF"></path>
                        <path d="M66.815,91.837 C66.491,92.165 66.159,92.485 65.815,92.796 C66.167,92.485 66.487,92.161 66.815,91.837 L66.815,91.837 Z" id="Shape" fill="#FFFFFF"></path>
                        <path d="M66.815,91.837 C66.491,92.165 66.159,92.485 65.815,92.796 C66.167,92.485 66.487,92.161 66.815,91.837 L66.815,91.837 Z" id="Shape" fill="#FFFFFF"></path>
                        <path id="Shape" fill="#FFFFFF" d="M62.407,95.413 C62.583,95.298 62.759,95.176 62.93,95.061 C62.759,95.176 62.583,95.298 62.407,95.413 L62.407,95.413 Z"></path>
                        <path id="Shape" fill="#FFFFFF" d="M62.407,95.413 C62.583,95.298 62.759,95.176 62.93,95.061 C62.759,95.176 62.583,95.298 62.407,95.413 L62.407,95.413 Z"></path>
                        <path d="M70.128,88.421 C73.251,84.019 74.778,78.899 74.657,73.205 C74.434,62.511 66.571,55.384 63.985,53.042 C63.102,52.251 61.719,51.227 59.962,49.928 C54.077,45.583 44.233,38.312 39.833,29.031 C36.749,22.528 37.741,13.64 42.247,7.424 C45.013,3.607 48.505,2.006 50.095,1.387 L51.134,1.058 C40.073,3.483 34.773,18.941 39.591,29.108 C45.288,41.122 59.892,49.65 63.782,53.177 C67.618,56.647 74.198,63.34 74.401,73.214 C74.542,79.981 72.227,85.869 67.969,90.596 C67.594,91.028 67.213,91.44 66.815,91.838 C66.487,92.162 66.167,92.486 65.815,92.797 C64.936,93.591 63.981,94.336 62.93,95.063 C62.758,95.177 62.582,95.299 62.407,95.415 C61.145,96.248 59.759,97.073 58.141,97.944 L56.95,98.571 C56.958,98.567 56.97,98.563 56.981,98.563 C62.651,96.116 67.083,92.719 70.128,88.421 L70.128,88.421 Z" id="Shape" fill="#FFFFFF"></path>
                        <path d="M70.128,88.421 C73.251,84.019 74.778,78.899 74.657,73.205 C74.434,62.511 66.571,55.384 63.985,53.042 C63.102,52.251 61.719,51.227 59.962,49.928 C54.077,45.583 44.233,38.312 39.833,29.031 C36.749,22.528 37.741,13.64 42.247,7.424 C45.013,3.607 48.505,2.006 50.095,1.387 L51.134,1.058 C40.073,3.483 34.773,18.941 39.591,29.108 C45.288,41.122 59.892,49.65 63.782,53.177 C67.618,56.647 74.198,63.34 74.401,73.214 C74.542,79.981 72.227,85.869 67.969,90.596 C67.594,91.028 67.213,91.44 66.815,91.838 C66.487,92.162 66.167,92.486 65.815,92.797 C64.936,93.591 63.981,94.336 62.93,95.063 C62.758,95.177 62.582,95.299 62.407,95.415 C61.145,96.248 59.759,97.073 58.141,97.944 L56.95,98.571 C56.958,98.567 56.97,98.563 56.981,98.563 C62.651,96.116 67.083,92.719 70.128,88.421 L70.128,88.421 Z" id="Shape" fill="#FFFFFF"></path>
                        <path d="M70.128,88.421 C73.251,84.019 74.778,78.899 74.657,73.205 C74.434,62.511 66.571,55.384 63.985,53.042 C63.102,52.251 61.719,51.227 59.962,49.928 C54.077,45.583 44.233,38.312 39.833,29.031 C36.749,22.528 37.741,13.64 42.247,7.424 C45.013,3.607 48.505,2.006 50.095,1.387 L51.134,1.058 C40.073,3.483 34.773,18.941 39.591,29.108 C45.288,41.122 59.892,49.65 63.782,53.177 C67.618,56.647 74.198,63.34 74.401,73.214 C74.542,79.981 72.227,85.869 67.969,90.596 C67.594,91.028 67.213,91.44 66.815,91.838 C66.487,92.162 66.167,92.486 65.815,92.797 C64.936,93.591 63.981,94.336 62.93,95.063 C62.758,95.177 62.582,95.299 62.407,95.415 C61.145,96.248 59.759,97.073 58.141,97.944 L56.95,98.571 C56.958,98.567 56.97,98.563 56.981,98.563 C62.651,96.116 67.083,92.719 70.128,88.421 L70.128,88.421 Z" id="Shape" fill="#FFFFFF"></path>
                        <path id="Shape" fill="#FFFFFF" d="M79.556,13.696 C79.501,13.681 79.449,13.67 79.396,13.651 C79.41,13.658 79.425,13.666 79.441,13.673 L79.556,13.696 L79.556,13.696 Z"></path>
                        <path d="M73.802,91.913 L73.45,92.241 C73.862,91.943 74.206,91.618 74.602,91.317 C74.334,91.511 74.079,91.713 73.811,91.905 C73.808,91.905 73.806,91.909 73.802,91.913 L73.802,91.913 Z" id="Shape" fill="#FFFFFF"></path>
                        <path d="M62.36,17.755 C61.725,18.886 61.444,20.132 61.313,21.415 C61.825,16.341 66.288,12.653 72.311,12.681 C74.397,12.689 76.659,12.879 78.989,13.582 L79.44,13.674 C79.424,13.666 79.409,13.658 79.395,13.652 C76.704,12.781 74.118,12.509 72.395,12.502 C67.978,12.481 64.226,14.449 62.36,17.755 L62.36,17.755 Z" id="Shape" fill="#FFFFFF"></path>
                        <path d="M62.36,17.755 C61.725,18.886 61.444,20.132 61.313,21.415 C61.825,16.341 66.288,12.653 72.311,12.681 C74.397,12.689 76.659,12.879 78.989,13.582 L79.44,13.674 C79.424,13.666 79.409,13.658 79.395,13.652 C76.704,12.781 74.118,12.509 72.395,12.502 C67.978,12.481 64.226,14.449 62.36,17.755 L62.36,17.755 Z" id="Shape" fill="#FFFFFF"></path>
                        <path id="Shape" fill="#FFFFFF" d="M61.444,24.327 C61.264,23.356 61.225,22.416 61.305,21.522 C61.226,22.439 61.269,23.368 61.444,24.327 L61.444,24.327 Z"></path>
                        <path id="Shape" fill="#FFFFFF" d="M61.444,24.327 C61.264,23.356 61.225,22.416 61.305,21.522 C61.226,22.439 61.269,23.368 61.444,24.327 L61.444,24.327 Z"></path>
                        <path d="M68.788,36.718 C73.358,42.557 79.044,49.828 82.688,59.649 C84.301,64.002 84.737,69.304 83.903,74.574 C83.171,79.213 81.481,83.584 79.372,86.27 C77.726,88.375 76.3,89.609 74.13,91.608 C75.913,90.224 77.751,88.524 79.433,86.377 C83.583,81.077 86.337,69.201 82.773,59.584 C77.435,45.202 67.906,36.502 63.308,29.02 C62.335,27.435 61.734,25.872 61.453,24.377 C61.742,25.948 62.277,27.537 63.24,29.107 C64.692,31.479 66.687,34.024 68.788,36.718 L68.788,36.718 Z" id="Shape" fill="#FFFFFF"></path>
                        <path d="M68.788,36.718 C73.358,42.557 79.044,49.828 82.688,59.649 C84.301,64.002 84.737,69.304 83.903,74.574 C83.171,79.213 81.481,83.584 79.372,86.27 C77.726,88.375 76.3,89.609 74.13,91.608 C75.913,90.224 77.751,88.524 79.433,86.377 C83.583,81.077 86.337,69.201 82.773,59.584 C77.435,45.202 67.906,36.502 63.308,29.02 C62.335,27.435 61.734,25.872 61.453,24.377 C61.742,25.948 62.277,27.537 63.24,29.107 C64.692,31.479 66.687,34.024 68.788,36.718 L68.788,36.718 Z" id="Shape" fill="#FFFFFF"></path>
                        <path d="M79.651,86.487 C84.014,80.916 86.54,69.024 83.02,59.526 C79.356,49.656 73.647,42.362 69.067,36.497 C66.969,33.814 64.981,31.281 63.538,28.924 C61.198,25.114 60.882,21.106 62.671,17.927 C64.47,14.729 68.105,12.833 72.396,12.853 C74.13,12.861 75.949,13.017 78.242,13.433 L78.99,13.582 C76.66,12.879 74.398,12.688 72.312,12.681 C66.289,12.654 61.826,16.341 61.314,21.415 C61.31,21.453 61.31,21.483 61.306,21.522 C61.226,22.416 61.265,23.356 61.445,24.327 C61.445,24.342 61.453,24.357 61.453,24.376 C61.734,25.87 62.336,27.434 63.308,29.019 C67.906,36.501 77.435,45.202 82.773,59.583 C86.337,69.2 83.584,81.076 79.433,86.376 C77.751,88.523 75.913,90.224 74.13,91.607 C74.019,91.713 73.931,91.794 73.812,91.905 C74.08,91.714 74.335,91.511 74.603,91.317 C76.491,89.857 78.194,88.344 79.651,86.487 L79.651,86.487 Z" id="Shape" fill="#FFFFFF"></path>
                        <path d="M79.651,86.487 C84.014,80.916 86.54,69.024 83.02,59.526 C79.356,49.656 73.647,42.362 69.067,36.497 C66.969,33.814 64.981,31.281 63.538,28.924 C61.198,25.114 60.882,21.106 62.671,17.927 C64.47,14.729 68.105,12.833 72.396,12.853 C74.13,12.861 75.949,13.017 78.242,13.433 L78.99,13.582 C76.66,12.879 74.398,12.688 72.312,12.681 C66.289,12.654 61.826,16.341 61.314,21.415 C61.31,21.453 61.31,21.483 61.306,21.522 C61.226,22.416 61.265,23.356 61.445,24.327 C61.445,24.342 61.453,24.357 61.453,24.376 C61.734,25.87 62.336,27.434 63.308,29.019 C67.906,36.501 77.435,45.202 82.773,59.583 C86.337,69.2 83.584,81.076 79.433,86.376 C77.751,88.523 75.913,90.224 74.13,91.607 C74.019,91.713 73.931,91.794 73.812,91.905 C74.08,91.714 74.335,91.511 74.603,91.317 C76.491,89.857 78.194,88.344 79.651,86.487 L79.651,86.487 Z" id="Shape" fill="#FFFFFF"></path>
                        <path d="M79.651,86.487 C84.014,80.916 86.54,69.024 83.02,59.526 C79.356,49.656 73.647,42.362 69.067,36.497 C66.969,33.814 64.981,31.281 63.538,28.924 C61.198,25.114 60.882,21.106 62.671,17.927 C64.47,14.729 68.105,12.833 72.396,12.853 C74.13,12.861 75.949,13.017 78.242,13.433 L78.99,13.582 C76.66,12.879 74.398,12.688 72.312,12.681 C66.289,12.654 61.826,16.341 61.314,21.415 C61.31,21.453 61.31,21.483 61.306,21.522 C61.226,22.416 61.265,23.356 61.445,24.327 C61.445,24.342 61.453,24.357 61.453,24.376 C61.734,25.87 62.336,27.434 63.308,29.019 C67.906,36.501 77.435,45.202 82.773,59.583 C86.337,69.2 83.584,81.076 79.433,86.376 C77.751,88.523 75.913,90.224 74.13,91.607 C74.019,91.713 73.931,91.794 73.812,91.905 C74.08,91.714 74.335,91.511 74.603,91.317 C76.491,89.857 78.194,88.344 79.651,86.487 L79.651,86.487 Z" id="Shape" fill="#FFFFFF"></path>
                        <path id="Shape" fill="#FFFFFF" d="M91.202,40.444 L91.056,40.191 C91.079,40.233 91.099,40.279 91.118,40.321 L91.202,40.444 L91.202,40.444 Z"></path>
                        <path d="M84.255,83.38 C84.255,83.384 84.247,83.392 84.243,83.392 C84.218,83.439 84.182,83.503 84.155,83.545 C84.354,83.354 84.507,83.163 84.698,82.872 C84.546,83.04 84.411,83.212 84.255,83.38 L84.255,83.38 Z" id="Shape" fill="#FFFFFF"></path>
                        <path d="M88.585,36.042 C86.7,33.635 85.278,32.642 84.411,33.089 C83.679,33.471 83.632,34.816 84.286,36.985 C84.53,37.796 84.958,39.11 85.462,40.638 C86.708,44.394 88.413,49.545 89.093,52.69 C91.323,63.056 89.384,71.539 87.363,76.827 C86.365,79.43 85.162,81.951 84.244,83.391 C84.248,83.391 84.256,83.383 84.256,83.379 C87.205,78.576 92.379,67.511 89.178,52.654 C88.223,48.199 85.199,39.709 84.371,36.931 C82.949,32.197 85.066,31.865 88.519,36.285 C89.146,37.088 89.896,38.242 90.667,39.648 L91.118,40.32 C91.098,40.278 91.079,40.232 91.056,40.19 L89.597,37.599 L88.585,36.042 L88.585,36.042 Z" id="Shape" fill="#FFFFFF"></path>
                        <path d="M88.585,36.042 C86.7,33.635 85.278,32.642 84.411,33.089 C83.679,33.471 83.632,34.816 84.286,36.985 C84.53,37.796 84.958,39.11 85.462,40.638 C86.708,44.394 88.413,49.545 89.093,52.69 C91.323,63.056 89.384,71.539 87.363,76.827 C86.365,79.43 85.162,81.951 84.244,83.391 C84.248,83.391 84.256,83.383 84.256,83.379 C87.205,78.576 92.379,67.511 89.178,52.654 C88.223,48.199 85.199,39.709 84.371,36.931 C82.949,32.197 85.066,31.865 88.519,36.285 C89.146,37.088 89.896,38.242 90.667,39.648 L91.118,40.32 C91.098,40.278 91.079,40.232 91.056,40.19 L89.597,37.599 L88.585,36.042 L88.585,36.042 Z" id="Shape" fill="#FFFFFF"></path>
                        <path d="M87.614,76.995 C89.792,71.711 91.686,63.068 89.432,52.617 C88.748,49.454 87.043,44.288 85.797,40.524 C85.297,39.006 84.865,37.688 84.621,36.886 C84.047,34.983 84.033,33.68 84.576,33.401 C85.08,33.141 86.406,33.76 88.465,36.397 L90.666,39.649 C89.895,38.243 89.145,37.088 88.518,36.286 C85.065,31.866 82.948,32.198 84.37,36.932 C85.198,39.709 88.222,48.2 89.177,52.655 C92.378,67.511 87.204,78.577 84.255,83.38 C84.411,83.212 84.546,83.04 84.698,82.872 C84.866,82.62 85.057,82.292 85.348,81.799 C85.813,81 86.425,79.892 87.614,76.995 L87.614,76.995 Z" id="Shape" fill="#FFFFFF"></path>
                        <path d="M87.614,76.995 C89.792,71.711 91.686,63.068 89.432,52.617 C88.748,49.454 87.043,44.288 85.797,40.524 C85.297,39.006 84.865,37.688 84.621,36.886 C84.047,34.983 84.033,33.68 84.576,33.401 C85.08,33.141 86.406,33.76 88.465,36.397 L90.666,39.649 C89.895,38.243 89.145,37.088 88.518,36.286 C85.065,31.866 82.948,32.198 84.37,36.932 C85.198,39.709 88.222,48.2 89.177,52.655 C92.378,67.511 87.204,78.577 84.255,83.38 C84.411,83.212 84.546,83.04 84.698,82.872 C84.866,82.62 85.057,82.292 85.348,81.799 C85.813,81 86.425,79.892 87.614,76.995 L87.614,76.995 Z" id="Shape" fill="#FFFFFF"></path>
                        <path d="M87.614,76.995 C89.792,71.711 91.686,63.068 89.432,52.617 C88.748,49.454 87.043,44.288 85.797,40.524 C85.297,39.006 84.865,37.688 84.621,36.886 C84.047,34.983 84.033,33.68 84.576,33.401 C85.08,33.141 86.406,33.76 88.465,36.397 L90.666,39.649 C89.895,38.243 89.145,37.088 88.518,36.286 C85.065,31.866 82.948,32.198 84.37,36.932 C85.198,39.709 88.222,48.2 89.177,52.655 C92.378,67.511 87.204,78.577 84.255,83.38 C84.411,83.212 84.546,83.04 84.698,82.872 C84.866,82.62 85.057,82.292 85.348,81.799 C85.813,81 86.425,79.892 87.614,76.995 L87.614,76.995 Z" id="Shape" fill="#FFFFFF"></path>
                        <path d="M38.188,2.595 C34.024,4.699 30.608,7.385 28.067,10.583 C27.995,10.679 27.922,10.777 27.848,10.869 C24.414,15.324 22.614,20.712 22.744,26.776 C22.949,36.653 29.529,43.343 33.357,46.813 C37.255,50.336 51.859,58.869 57.552,70.877 C62.486,81.289 56.796,97.2 45.191,99.042 C45.082,99.064 44.998,99.104 44.882,99.126 C44.882,99.126 45.429,99.08 46.28,98.95 C47.35,98.786 48.518,98.388 49.329,97.991 C52.21,96.573 54.686,94.158 56.55,90.899 C60.124,84.632 60.609,76.746 57.788,70.8 C53.356,61.439 43.468,54.137 37.558,49.777 C35.808,48.486 34.427,47.465 33.556,46.682 C31.003,44.363 23.216,37.309 22.995,26.771 C22.796,17.088 27.538,9.03 36.235,3.875 C37.549,3.094 39.225,2.215 40.342,1.64 C39.875,1.839 39.371,2.009 38.924,2.222 C38.679,2.343 38.437,2.471 38.188,2.595 L38.188,2.595 Z" id="Shape" fill="#FFFFFF"></path>
                        <path d="M38.188,2.595 C34.024,4.699 30.608,7.385 28.067,10.583 C27.995,10.679 27.922,10.777 27.848,10.869 C24.414,15.324 22.614,20.712 22.744,26.776 C22.949,36.653 29.529,43.343 33.357,46.813 C37.255,50.336 51.859,58.869 57.552,70.877 C62.486,81.289 56.796,97.2 45.191,99.042 C45.082,99.064 44.998,99.104 44.882,99.126 C44.882,99.126 45.429,99.08 46.28,98.95 C47.35,98.786 48.518,98.388 49.329,97.991 C52.21,96.573 54.686,94.158 56.55,90.899 C60.124,84.632 60.609,76.746 57.788,70.8 C53.356,61.439 43.468,54.137 37.558,49.777 C35.808,48.486 34.427,47.465 33.556,46.682 C31.003,44.363 23.216,37.309 22.995,26.771 C22.796,17.088 27.538,9.03 36.235,3.875 C37.549,3.094 39.225,2.215 40.342,1.64 C39.875,1.839 39.371,2.009 38.924,2.222 C38.679,2.343 38.437,2.471 38.188,2.595 L38.188,2.595 Z" id="Shape" fill="#FFFFFF"></path>
                        <path d="M38.188,2.595 C36.43,3.48 34.727,4.458 33.344,5.478 C31.295,6.996 29.553,8.714 28.067,10.583 C30.608,7.385 34.024,4.698 38.188,2.595 L38.188,2.595 Z" id="Shape" fill="#FFFFFF"></path>
                        <path d="M38.188,2.595 C36.43,3.48 34.727,4.458 33.344,5.478 C31.295,6.996 29.553,8.714 28.067,10.583 C30.608,7.385 34.024,4.698 38.188,2.595 L38.188,2.595 Z" id="Shape" fill="#FFFFFF"></path>
                        <path d="M38.188,2.595 C36.43,3.48 34.727,4.458 33.344,5.478 C31.295,6.996 29.553,8.714 28.067,10.583 C30.608,7.385 34.024,4.698 38.188,2.595 L38.188,2.595 Z" id="Shape" fill="#FFFFFF"></path>
                        <path d="M57.554,70.878 C51.861,58.869 37.257,50.337 33.359,46.814 C29.531,43.344 22.951,36.654 22.746,26.777 C22.615,20.713 24.416,15.325 27.85,10.87 C24.377,15.355 22.524,20.744 22.647,26.781 C22.868,37.475 30.739,44.601 33.327,46.94 C34.202,47.739 35.593,48.763 37.35,50.066 C43.231,54.402 53.077,61.673 57.475,70.959 C60.204,76.706 59.711,84.654 56.248,90.726 C54.705,93.431 52.725,95.54 50.447,96.965 C48.689,98.059 47.127,98.639 45.193,99.044 C56.798,97.201 62.487,81.29 57.554,70.878 L57.554,70.878 Z" id="Shape" fill="#FFFFFF"></path>
                        <path d="M57.554,70.878 C51.861,58.869 37.257,50.337 33.359,46.814 C29.531,43.344 22.951,36.654 22.746,26.777 C22.615,20.713 24.416,15.325 27.85,10.87 C24.377,15.355 22.524,20.744 22.647,26.781 C22.868,37.475 30.739,44.601 33.327,46.94 C34.202,47.739 35.593,48.763 37.35,50.066 C43.231,54.402 53.077,61.673 57.475,70.959 C60.204,76.706 59.711,84.654 56.248,90.726 C54.705,93.431 52.725,95.54 50.447,96.965 C48.689,98.059 47.127,98.639 45.193,99.044 C56.798,97.201 62.487,81.29 57.554,70.878 L57.554,70.878 Z" id="Shape" fill="#FFFFFF"></path>
                        <path d="M57.554,70.878 C51.861,58.869 37.257,50.337 33.359,46.814 C29.531,43.344 22.951,36.654 22.746,26.777 C22.615,20.713 24.416,15.325 27.85,10.87 C24.377,15.355 22.524,20.744 22.647,26.781 C22.868,37.475 30.739,44.601 33.327,46.94 C34.202,47.739 35.593,48.763 37.35,50.066 C43.231,54.402 53.077,61.673 57.475,70.959 C60.204,76.706 59.711,84.654 56.248,90.726 C54.705,93.431 52.725,95.54 50.447,96.965 C48.689,98.059 47.127,98.639 45.193,99.044 C56.798,97.201 62.487,81.29 57.554,70.878 L57.554,70.878 Z" id="Shape" fill="#FFFFFF"></path>
                        <path d="M38.927,2.224 C39.374,2.011 39.878,1.841 40.345,1.642 C40.753,1.428 41.101,1.252 41.308,1.145 C40.521,1.476 39.726,1.841 38.927,2.224 L38.927,2.224 Z" id="Shape" fill="#FFFFFF"></path>
                        <path d="M38.927,2.224 C39.374,2.011 39.878,1.841 40.345,1.642 C40.753,1.428 41.101,1.252 41.308,1.145 C40.521,1.476 39.726,1.841 38.927,2.224 L38.927,2.224 Z" id="Shape" fill="#FFFFFF"></path>
                        <path d="M38.927,2.224 C39.374,2.011 39.878,1.841 40.345,1.642 C40.753,1.428 41.101,1.252 41.308,1.145 C40.521,1.476 39.726,1.841 38.927,2.224 L38.927,2.224 Z" id="Shape" fill="#FFFFFF"></path>
                        <path d="M31.536,3.766 C31.345,3.833 30.913,3.994 30.2,4.305 L31.296,3.869 C31.376,3.839 31.456,3.796 31.536,3.766 L31.536,3.766 Z" id="Shape" fill="#FFFFFF"></path>
                        <path d="M25.974,6.418 C26.494,6.12 27.005,5.807 27.54,5.535 C27.069,5.779 26.554,6.074 25.974,6.418 L25.974,6.418 Z" id="Shape" fill="#FFFFFF"></path>
                        <path d="M30.2,4.305 L29.477,4.591 C29.454,4.597 28.971,4.8 28.192,5.19 C28.583,5.001 28.995,4.855 29.393,4.679 C29.673,4.548 29.966,4.408 30.2,4.305 L30.2,4.305 Z" id="Shape" fill="#FFFFFF"></path>
                        <path id="Shape" fill="#FFFFFF" d="M17.464,86.174 C17.456,86.174 17.448,86.174 17.437,86.17 C17.437,86.17 17.48,86.189 17.511,86.204 L17.511,86.2 C17.495,86.192 17.479,86.182 17.464,86.174 L17.464,86.174 Z"></path>
                        <path d="M22.913,8.454 C22.686,8.622 22.462,8.802 22.239,8.977 C20.704,10.249 19.149,11.774 17.716,13.608 C13.56,18.912 10.804,30.784 14.376,40.397 C19.71,54.788 29.239,63.488 33.837,70.969 C39.071,79.501 33.608,87.35 24.831,87.308 C22.55,87.296 20.065,87.082 17.511,86.2 L17.511,86.204 C17.679,86.273 18.228,86.51 18.779,86.643 C20.398,87.06 22.83,87.476 24.908,87.484 C29.332,87.506 33.086,85.539 34.949,82.226 C36.799,78.94 36.478,74.802 34.07,70.877 C32.615,68.504 30.625,65.963 28.523,63.27 C23.953,57.428 18.267,50.161 14.621,40.336 C13.006,35.981 12.574,30.684 13.402,25.415 C14.132,20.779 15.83,16.405 17.931,13.711 C21.816,8.752 26.605,5.99 29.394,4.678 C28.996,4.854 28.583,4.999 28.193,5.189 C28.007,5.283 27.757,5.42 27.541,5.535 C27.006,5.806 26.494,6.12 25.975,6.418 C25.196,6.88 24.358,7.403 23.463,8.038 C23.278,8.179 23.097,8.31 22.913,8.454 L22.913,8.454 Z" id="Shape" fill="#FFFFFF"></path>
                        <path d="M22.913,8.454 C22.686,8.622 22.462,8.802 22.239,8.977 C20.704,10.249 19.149,11.774 17.716,13.608 C13.56,18.912 10.804,30.784 14.376,40.397 C19.71,54.788 29.239,63.488 33.837,70.969 C39.071,79.501 33.608,87.35 24.831,87.308 C22.55,87.296 20.065,87.082 17.511,86.2 L17.511,86.204 C17.679,86.273 18.228,86.51 18.779,86.643 C20.398,87.06 22.83,87.476 24.908,87.484 C29.332,87.506 33.086,85.539 34.949,82.226 C36.799,78.94 36.478,74.802 34.07,70.877 C32.615,68.504 30.625,65.963 28.523,63.27 C23.953,57.428 18.267,50.161 14.621,40.336 C13.006,35.981 12.574,30.684 13.402,25.415 C14.132,20.779 15.83,16.405 17.931,13.711 C21.816,8.752 26.605,5.99 29.394,4.678 C28.996,4.854 28.583,4.999 28.193,5.189 C28.007,5.283 27.757,5.42 27.541,5.535 C27.006,5.806 26.494,6.12 25.975,6.418 C25.196,6.88 24.358,7.403 23.463,8.038 C23.278,8.179 23.097,8.31 22.913,8.454 L22.913,8.454 Z" id="Shape" fill="#FFFFFF"></path>
                        <path id="Shape" fill="#FFFFFF" d="M31.708,3.705 C31.704,3.707 31.591,3.747 31.536,3.766 C31.456,3.796 31.376,3.839 31.296,3.87 L31.708,3.705 L31.708,3.705 Z"></path>
                        <path id="Shape" fill="#FFFFFF" d="M31.708,3.705 C31.704,3.707 31.591,3.747 31.536,3.766 C31.456,3.796 31.376,3.839 31.296,3.87 L31.708,3.705 L31.708,3.705 Z"></path>
                        <path d="M24.831,87.309 C33.608,87.351 39.071,79.502 33.837,70.97 C29.239,63.489 19.71,54.788 14.376,40.398 C10.804,30.785 13.56,18.913 17.716,13.609 C19.15,11.775 20.704,10.251 22.239,8.978 C20.632,10.236 19.007,11.726 17.655,13.502 C13.368,19.126 10.764,30.964 14.292,40.463 C17.952,50.333 23.657,57.627 28.239,63.488 C30.341,66.175 32.323,68.708 33.768,71.061 C36.11,74.871 36.422,78.879 34.639,82.054 C32.838,85.256 29.201,87.151 24.914,87.132 C22.74,87.124 20.016,86.857 17.463,86.173 C17.479,86.181 17.494,86.192 17.51,86.199 C20.065,87.083 22.55,87.297 24.831,87.309 L24.831,87.309 Z" id="Shape" fill="#FFFFFF"></path>
                        <path d="M24.831,87.309 C33.608,87.351 39.071,79.502 33.837,70.97 C29.239,63.489 19.71,54.788 14.376,40.398 C10.804,30.785 13.56,18.913 17.716,13.609 C19.15,11.775 20.704,10.251 22.239,8.978 C20.632,10.236 19.007,11.726 17.655,13.502 C13.368,19.126 10.764,30.964 14.292,40.463 C17.952,50.333 23.657,57.627 28.239,63.488 C30.341,66.175 32.323,68.708 33.768,71.061 C36.11,74.871 36.422,78.879 34.639,82.054 C32.838,85.256 29.201,87.151 24.914,87.132 C22.74,87.124 20.016,86.857 17.463,86.173 C17.479,86.181 17.494,86.192 17.51,86.199 C20.065,87.083 22.55,87.297 24.831,87.309 L24.831,87.309 Z" id="Shape" fill="#FFFFFF"></path>
                        <path d="M24.831,87.309 C33.608,87.351 39.071,79.502 33.837,70.97 C29.239,63.489 19.71,54.788 14.376,40.398 C10.804,30.785 13.56,18.913 17.716,13.609 C19.15,11.775 20.704,10.251 22.239,8.978 C20.632,10.236 19.007,11.726 17.655,13.502 C13.368,19.126 10.764,30.964 14.292,40.463 C17.952,50.333 23.657,57.627 28.239,63.488 C30.341,66.175 32.323,68.708 33.768,71.061 C36.11,74.871 36.422,78.879 34.639,82.054 C32.838,85.256 29.201,87.151 24.914,87.132 C22.74,87.124 20.016,86.857 17.463,86.173 C17.479,86.181 17.494,86.192 17.51,86.199 C20.065,87.083 22.55,87.297 24.831,87.309 L24.831,87.309 Z" id="Shape" fill="#FFFFFF"></path>
                        <path id="Shape" fill="#FFFFFF" d="M22.913,8.454 C23.097,8.309 23.278,8.179 23.462,8.038 C23.278,8.172 23.097,8.316 22.913,8.454 L22.913,8.454 Z"></path>
                        <path id="Shape" fill="#FFFFFF" d="M22.913,8.454 C23.097,8.309 23.278,8.179 23.462,8.038 C23.278,8.172 23.097,8.316 22.913,8.454 L22.913,8.454 Z"></path>
                        <path id="Shape" fill="#FFFFFF" d="M22.913,8.454 C23.097,8.309 23.278,8.179 23.462,8.038 C23.278,8.172 23.097,8.316 22.913,8.454 L22.913,8.454 Z"></path>
                        <path id="Shape" fill="#FFFFFF" d="M5.394,58.318 C5.431,58.399 5.466,58.46 5.505,58.54 C5.446,58.418 5.39,58.304 5.337,58.181 L5.394,58.318 L5.394,58.318 Z"></path>
                        <path id="Shape" fill="#FFFFFF" d="M4.603,56.362 C4.546,56.232 4.476,56.094 4.427,55.975 L4.779,56.828 C4.732,56.714 4.691,56.592 4.644,56.473 C4.63,56.435 4.618,56.4 4.603,56.362 L4.603,56.362 Z"></path>
                        <path id="Shape" fill="#FFFFFF" d="M12.97,16.509 C12.986,16.487 13.017,16.433 13.017,16.433 C13.009,16.441 12.925,16.529 12.773,16.739 C12.81,16.693 12.849,16.655 12.886,16.609 C12.917,16.578 12.94,16.54 12.97,16.509 L12.97,16.509 Z"></path>
                        <path d="M12.894,66.9 C13.632,66.518 13.673,65.172 13.025,62.999 C12.781,62.193 12.343,60.875 11.843,59.351 C10.601,55.591 8.898,50.444 8.222,47.299 C5.986,36.933 7.951,28.557 9.822,23.211 C10.51,21.239 11.304,19.573 11.763,18.706 C12.318,17.655 12.865,16.7 12.97,16.509 C12.941,16.54 12.917,16.578 12.886,16.609 C9.937,21.416 4.763,32.482 7.964,47.334 C8.927,51.785 11.946,60.279 12.773,63.054 C14.193,67.788 12.078,68.12 8.623,63.7 C7.492,62.26 5.975,59.738 4.644,56.474 C4.691,56.593 4.732,56.715 4.779,56.829 L5.338,58.182 C5.391,58.305 5.447,58.419 5.506,58.541 C6.82,61.323 7.951,63.031 8.563,63.811 C10.452,66.225 12.03,67.352 12.894,66.9 L12.894,66.9 Z" id="Shape" fill="#FFFFFF"></path>
                        <path d="M12.894,66.9 C13.632,66.518 13.673,65.172 13.025,62.999 C12.781,62.193 12.343,60.875 11.843,59.351 C10.601,55.591 8.898,50.444 8.222,47.299 C5.986,36.933 7.951,28.557 9.822,23.211 C10.51,21.239 11.304,19.573 11.763,18.706 C12.318,17.655 12.865,16.7 12.97,16.509 C12.941,16.54 12.917,16.578 12.886,16.609 C9.937,21.416 4.763,32.482 7.964,47.334 C8.927,51.785 11.946,60.279 12.773,63.054 C14.193,67.788 12.078,68.12 8.623,63.7 C7.492,62.26 5.975,59.738 4.644,56.474 C4.691,56.593 4.732,56.715 4.779,56.829 L5.338,58.182 C5.391,58.305 5.447,58.419 5.506,58.541 C6.82,61.323 7.951,63.031 8.563,63.811 C10.452,66.225 12.03,67.352 12.894,66.9 L12.894,66.9 Z" id="Shape" fill="#FFFFFF"></path>
                        <path d="M8.622,63.698 C12.077,68.119 14.192,67.787 12.772,63.052 C11.946,60.278 8.926,51.783 7.963,47.332 C4.762,32.48 9.936,21.414 12.885,16.607 C12.848,16.653 12.809,16.691 12.772,16.737 C12.321,17.356 11.239,19.049 9.624,23.023 C7.472,28.314 5.618,36.916 7.874,47.37 C8.558,50.534 10.265,55.696 11.511,59.464 C12.007,60.985 12.443,62.295 12.689,63.098 C13.253,65.004 13.273,66.308 12.738,66.582 C12.23,66.846 10.9,66.224 8.84,63.59 C7.844,62.322 5.623,58.623 4.604,56.361 C4.62,56.399 4.631,56.433 4.645,56.471 C5.974,59.736 7.491,62.258 8.622,63.698 L8.622,63.698 Z" id="Shape" fill="#FFFFFF"></path>
                        <path d="M8.622,63.698 C12.077,68.119 14.192,67.787 12.772,63.052 C11.946,60.278 8.926,51.783 7.963,47.332 C4.762,32.48 9.936,21.414 12.885,16.607 C12.848,16.653 12.809,16.691 12.772,16.737 C12.321,17.356 11.239,19.049 9.624,23.023 C7.472,28.314 5.618,36.916 7.874,47.37 C8.558,50.534 10.265,55.696 11.511,59.464 C12.007,60.985 12.443,62.295 12.689,63.098 C13.253,65.004 13.273,66.308 12.738,66.582 C12.23,66.846 10.9,66.224 8.84,63.59 C7.844,62.322 5.623,58.623 4.604,56.361 C4.62,56.399 4.631,56.433 4.645,56.471 C5.974,59.736 7.491,62.258 8.622,63.698 L8.622,63.698 Z" id="Shape" fill="#FFFFFF"></path>
                        <path d="M8.622,63.698 C12.077,68.119 14.192,67.787 12.772,63.052 C11.946,60.278 8.926,51.783 7.963,47.332 C4.762,32.48 9.936,21.414 12.885,16.607 C12.848,16.653 12.809,16.691 12.772,16.737 C12.321,17.356 11.239,19.049 9.624,23.023 C7.472,28.314 5.618,36.916 7.874,47.37 C8.558,50.534 10.265,55.696 11.511,59.464 C12.007,60.985 12.443,62.295 12.689,63.098 C13.253,65.004 13.273,66.308 12.738,66.582 C12.23,66.846 10.9,66.224 8.84,63.59 C7.844,62.322 5.623,58.623 4.604,56.361 C4.62,56.399 4.631,56.433 4.645,56.471 C5.974,59.736 7.491,62.258 8.622,63.698 L8.622,63.698 Z" id="Shape" fill="#FFFFFF"></path>
                    </g>
                    <g id="Group" transform="translate(4.000000, 0.000000)" fill="#FFFFFF">
                        <path d="M46.476,1.389 C44.894,2.01 41.4,3.608 38.63,7.424 C34.126,13.643 33.13,22.525 36.214,29.032 C40.618,38.314 50.462,45.588 56.343,49.927 C58.101,51.224 59.486,52.248 60.364,53.044 C62.948,55.383 70.819,62.512 71.042,73.209 C71.155,78.897 69.634,84.018 66.515,88.428 C63.41,92.79 58.898,96.244 53.091,98.696 L54.53,97.942 C60.073,94.944 63.165,92.534 66.221,88.224 C69.305,83.879 70.803,78.828 70.688,73.213 C70.467,62.672 62.688,55.625 60.127,53.304 C59.262,52.52 57.887,51.502 56.135,50.211 C50.223,45.848 40.334,38.547 35.899,29.183 C32.756,22.568 33.764,13.536 38.346,7.219 C40.916,3.674 44.518,1.5 48.287,0.812 L46.476,1.389 L46.476,1.389 Z" id="Shape"></path>
                        <path d="M58.743,17.76 C56.891,21.045 57.214,25.188 59.614,29.11 C61.075,31.482 63.065,34.024 65.176,36.719 C69.74,42.556 75.422,49.828 79.069,59.648 C80.684,64.004 81.12,69.3 80.28,74.575 C79.551,79.208 77.864,83.583 75.759,86.269 C74.015,88.489 72.564,89.704 70.183,91.911 L69.833,92.244 C72.233,90.505 74.276,88.733 76.034,86.488 C80.401,80.913 82.927,69.026 79.393,59.526 C75.737,49.657 70.03,42.36 65.45,36.503 C63.346,33.817 61.366,31.278 59.921,28.924 C57.581,25.114 57.261,21.111 59.05,17.929 C60.855,14.733 64.488,12.835 68.779,12.857 C70.508,12.863 72.334,13.024 74.623,13.433 L75.945,13.696 C73.189,12.783 70.537,12.511 68.779,12.504 C64.356,12.479 60.603,14.444 58.743,17.76 L58.743,17.76 Z" id="Shape"></path>
                        <path d="M80.792,33.092 C80.058,33.469 80.021,34.815 80.669,36.988 C80.907,37.798 81.343,39.112 81.847,40.631 C83.095,44.395 84.792,49.544 85.472,52.692 C87.706,63.055 85.763,71.538 83.745,76.825 C82.712,79.511 81.464,82.132 80.54,83.54 C80.915,83.19 81.114,82.86 81.726,81.797 C82.201,80.999 82.804,79.897 83.997,76.995 C86.169,71.71 88.065,63.075 85.809,52.619 C85.137,49.454 83.422,44.292 82.174,40.524 C81.68,39.003 81.242,37.691 81.006,36.883 C80.432,34.983 80.408,33.683 80.951,33.401 C81.463,33.139 82.787,33.76 84.844,36.395 L87.59,40.448 L85.977,37.607 L84.967,36.044 C83.079,33.629 81.657,32.641 80.792,33.092 L80.792,33.092 Z" id="Shape"></path>
                        <path d="M37.688,1.142 C34.905,2.311 31.922,3.856 29.725,5.483 C22.698,10.682 18.852,18.079 19.028,26.78 C19.249,37.471 27.12,44.602 29.704,46.942 C30.585,47.741 31.977,48.765 33.727,50.062 C39.616,54.401 49.457,61.674 53.854,70.958 C56.579,76.708 56.088,84.655 52.631,90.722 C51.078,93.431 49.106,95.541 46.826,96.966 C44.976,98.125 43.361,98.718 41.267,99.126 C41.267,99.126 41.81,99.083 42.667,98.95 C43.729,98.786 44.897,98.389 45.718,97.988 C48.591,96.573 51.072,94.16 52.937,90.897 C56.509,84.633 56.998,76.749 54.177,70.806 C49.739,61.442 39.853,54.138 33.939,49.778 C32.187,48.487 30.812,47.465 29.941,46.682 C27.384,44.368 19.601,37.32 19.379,26.776 C19.18,17.087 23.922,9.04 32.617,3.88 C34.423,2.81 36.915,1.543 37.688,1.142 L37.688,1.142 Z" id="Shape"></path>
                        <path d="M14.04,13.501 C9.751,19.129 7.149,30.965 10.669,40.464 C14.331,50.332 20.038,57.629 24.626,63.488 C26.722,66.172 28.71,68.711 30.155,71.065 C32.489,74.875 32.809,78.878 31.02,82.055 C29.221,85.256 25.588,87.154 21.299,87.132 C19.111,87.12 16.373,86.857 13.82,86.169 C13.82,86.169 14.515,86.48 15.164,86.648 C16.787,87.056 19.209,87.478 21.289,87.486 C25.711,87.509 29.467,85.544 31.332,82.228 C33.182,78.943 32.863,74.802 30.453,70.878 C28.992,68.506 27.012,65.965 24.9,63.27 C20.326,57.432 14.644,50.16 11.004,40.337 C9.391,35.983 8.953,30.688 9.787,25.413 C10.516,20.78 12.205,16.405 14.314,13.719 C20.095,6.329 28.013,3.734 28.089,3.708 L25.857,4.589 C25.772,4.617 18.454,7.704 14.04,13.501 L14.04,13.501 Z" id="Shape"></path>
                        <path d="M6.011,23.021 C3.855,28.312 2.005,36.914 4.261,47.37 C4.941,50.535 6.646,55.697 7.892,59.465 C8.398,60.986 8.826,62.299 9.072,63.1 C9.644,65.006 9.66,66.309 9.123,66.588 C8.613,66.85 7.281,66.226 5.223,63.594 C4.176,62.246 1.737,58.184 0.813,55.982 L1.784,58.317 C3.138,61.243 4.323,63.01 4.95,63.809 C6.839,66.226 8.415,67.345 9.286,66.897 C10.013,66.524 10.059,65.174 9.407,62.998 C9.163,62.191 8.727,60.878 8.231,59.354 C6.985,55.594 5.278,50.44 4.606,47.297 C2.372,36.934 4.336,28.559 6.211,23.213 C6.891,21.242 7.686,19.576 8.147,18.705 C8.766,17.539 9.401,16.434 9.401,16.434 C9.368,16.468 8.167,17.707 6.011,23.021 L6.011,23.021 Z" id="Shape"></path>
                    </g>
                </g>
            </g>
        </g>
    </g>
</svg>