<?xml version="1.0" encoding="UTF-8" standalone="no"?>
<svg width="20px" height="20px" viewBox="0 0 20 20" version="1.1" xmlns="http://www.w3.org/2000/svg" xmlns:xlink="http://www.w3.org/1999/xlink">
    <!-- Generator: Sketch 3.6.1 (26313) - http://www.bohemiancoding.com/sketch -->
    <title>social-color-1_logo-wordpress</title>
    <desc>Created with Sketch.</desc>
    <defs></defs>
    <g id="Page-1" stroke="none" stroke-width="1" fill="none" fill-rule="evenodd">
        <g id="设计部署装配-copy-27" transform="translate(-10.000000, -10.000000)" fill="#FFFFFF">
            <g id="Topbar">
                <g id="social-color-1_logo-wordpress" transform="translate(10.000000, 10.000000)">
                    <g id="万达">
                        <path d="M9.77600415,0.0025066037 C4.2572257,0.121999408 -0.124978043,4.69809907 0.00272154552,10.2205469 C0.120558937,15.7370831 4.69433627,20.1140765 10.2190272,19.9977334 C15.7401077,19.8723531 20.1181436,15.3017048 19.997568,9.77949924 C19.8734062,4.25915926 15.2975208,-0.119942039 9.77600415,0.0025066037 L9.77600415,0.0025066037 L9.77600415,0.0025066037 Z M10.1786819,18.15061 C7.2304451,18.2115194 4.61127098,16.7189253 3.09777652,14.4221534 C3.79910649,14.7407524 4.62081816,14.9597983 5.50703385,15.0301566 C7.36257901,15.1809521 9.03498313,14.6697642 9.99268152,13.7816119 C10.9451459,14.6697642 12.6148361,15.1809521 14.4753972,15.0301566 C15.3771452,14.9564549 16.207871,14.7296317 16.9159373,14.3992579 C15.476906,16.6059256 13.0130552,18.0863572 10.1786819,18.15061 L10.1786819,18.15061 L10.1786819,18.15061 Z M9.44623876,5.07823737 C9.44623876,5.07823737 11.4658549,4.63365241 11.3748901,7.37416132 C11.3452793,8.69916988 11.1110584,9.98594654 10.8342145,10.7069495 C10.6225773,11.2906035 10.3231981,11.3082415 10.0899222,11.3136929 C10.081417,8.3255247 9.44623876,5.07823737 9.44623876,5.07823737 L9.44623876,5.07823737 L9.44623876,5.07823737 Z M15.2179206,12.2946629 C13.6599857,12.9087716 12.1157173,12.9946601 11.0098196,12.6449765 C12.0107226,11.384463 12.4106379,9.808476 12.590847,8.71952145 C12.7471397,7.81033916 12.8137276,6.81989592 12.7286269,5.7887011 C12.5465277,3.49447311 10.638255,3.3264515 9.97870001,3.22018721 C9.32355512,3.10929538 7.72394221,3.0983685 7.72394221,3.0983685 C7.72394221,3.0983685 8.70434544,7.00533752 8.92383362,12.6573328 C7.81938976,12.9912682 6.29676006,12.8994923 4.76710325,12.2946387 C3.4443343,11.7784114 2.38842597,10.9941974 1.74714144,10.1570694 L1.73810313,10.0737248 C1.63255106,5.50937576 5.25250703,1.72655134 9.81840916,1.6263683 C14.3766542,1.52385935 18.1610688,5.1477477 18.2629377,9.70596705 C18.2667178,9.85276488 18.2492711,9.99285155 18.2492711,10.1409335 C17.6036492,10.9862506 16.5437669,11.7742441 15.2179206,12.2946629 L15.2179206,12.2946629 L15.2179206,12.2946629 Z" id="Shape"></path>
                    </g>
                </g>
            </g>
        </g>
    </g>
</svg>