<?xml version="1.0" encoding="UTF-8" standalone="no"?>
<svg width="204px" height="276px" viewBox="0 0 204 276" version="1.1" xmlns="http://www.w3.org/2000/svg" xmlns:xlink="http://www.w3.org/1999/xlink">
    <!-- Generator: Sketch 3.6.1 (26313) - http://www.bohemiancoding.com/sketch -->
    <title>万达</title>
    <desc>Created with Sketch.</desc>
    <defs></defs>
    <g id="Page-1" stroke="none" stroke-width="1" fill="none" fill-rule="evenodd">
        <g id="Artboard-16" transform="translate(-2041.000000, -984.000000)">
            <g id="万达" transform="translate(2041.000000, 984.000000)">
                <g id="Group"></g>
                <path d="M99.0220635,0.134090648 C43.2187121,1.3400243 -1.09211831,47.5224923 0.199121239,103.255603 C1.39063879,158.929053 47.6385732,203.102121 103.501709,201.927974 C159.328337,200.662624 203.597025,154.535171 202.37782,98.804505 C201.122353,43.0926666 154.853102,-1.10167364 99.0220635,0.134090648 L99.0220635,0.134090648 L99.0220635,0.134090648 Z M103.093756,183.286615 C73.2825403,183.901319 46.7986552,168.837906 31.4948948,145.658648 C38.5864211,148.873982 46.895192,151.084616 55.8561977,151.794679 C74.6186177,153.316522 91.5291996,148.157561 101.213006,139.194237 C110.843888,148.157562 127.727028,153.316522 146.540166,151.794679 C155.658228,151.050873 164.058145,148.761751 171.217786,145.427584 C156.666963,167.697502 131.753637,182.638169 103.093756,183.286615 L103.093756,183.286615 L103.093756,183.286615 Z M95.6876275,51.3588871 C95.6876275,51.3588871 116.109058,46.87209 115.189264,74.5295876 C114.889853,87.9017101 112.521519,100.887992 109.7222,108.164428 C107.582222,114.054724 104.555037,114.232729 102.196259,114.287745 C102.110258,84.1308445 95.6876275,51.3588871 95.6876275,51.3588871 L95.6876275,51.3588871 L95.6876275,51.3588871 Z M154.048221,124.187795 C138.2951,130.385444 122.680168,131.252239 111.497838,127.723196 C121.61851,115.001965 125.66227,99.0969414 127.484461,88.1071002 C129.064821,78.9315391 129.738127,68.9358842 128.877628,58.5289601 C127.036325,35.3753754 107.740748,33.6796841 101.071631,32.607254 C94.4471069,31.4881222 78.2725562,31.377847 78.2725562,31.377847 C78.2725562,31.377847 88.1859432,70.8073799 90.4053068,127.847897 C79.2376781,131.218007 63.8415462,130.291795 48.3743596,124.187551 C34.9991278,118.977731 24.322268,111.063364 17.8378936,102.614981 L17.7465023,101.77386 C16.6792083,55.7099801 53.2825395,17.5333273 99.4508435,16.5222697 C145.541722,15.4877389 183.807984,52.0603925 184.838035,98.0624106 C184.876258,99.5439093 184.699845,100.957678 184.699845,102.452136 C178.171613,110.983164 167.45457,118.935676 154.048221,124.187795 L154.048221,124.187795 L154.048221,124.187795 Z" id="Shape" fill="#1296DB"></path>
                <path d="M182.931313,11.6537892 C182.931313,6.17696245 187.019666,2.04177385 192.263764,2.04177385 C197.441708,2.04177385 201.51536,6.17696245 201.51536,11.6537892 C201.51536,17.2345335 197.441708,21.3379355 192.263764,21.3379355 C187.019666,21.3379357 182.931313,17.2345335 182.931313,11.6537892 L182.931313,11.6537892 Z M192.263764,23.2644465 C198.499691,23.2644465 203.828566,18.3641793 203.828566,11.6537892 C203.828566,5.01553006 198.499691,0.11281777 192.263764,0.11281777 C185.958008,0.11281777 180.629133,5.01528539 180.629133,11.6537892 C180.628888,18.3641795 185.957762,23.2644465 192.263764,23.2644465 L192.263764,23.2644465 Z M189.831726,12.5694871 L192.136111,12.5694871 L195.615107,18.3641795 L197.862157,18.3641795 L194.111438,12.4907543 C196.050502,12.2450196 197.530894,11.199975 197.530894,8.80277835 C197.530894,6.17671825 195.984592,5.01528586 192.860381,5.01528586 L187.839493,5.01528586 L187.839493,18.3641798 L189.831726,18.3641798 L189.831726,12.5694871 L189.831726,12.5694871 Z M189.831726,10.8674384 L189.831726,6.72809293 L192.550434,6.72809293 C193.956587,6.72809293 195.44335,7.02688668 195.44335,8.68418986 C195.44335,10.7424929 193.922774,10.8674384 192.223337,10.8674384 L189.831726,10.8674384 L189.831726,10.8674384 Z" id="Shape" fill="#1296DB"></path>
                <text id="DevOps" font-family="SourceHanSansCN-Medium, Source Han Sans CN" font-size="48" font-weight="400" fill="#1296DB">
                    <tspan x="13" y="265">DevOps</tspan>
                </text>
            </g>
        </g>
    </g>
</svg>