<?xml version="1.0" standalone="no"?><!DOCTYPE svg PUBLIC "-//W3C//DTD SVG 1.1//EN" "http://www.w3.org/Graphics/SVG/1.1/DTD/svg11.dtd"><svg t="1487582083344" class="icon" style="" viewBox="0 0 1024 1024" version="1.1" xmlns="http://www.w3.org/2000/svg" p-id="5998" xmlns:xlink="http://www.w3.org/1999/xlink" width="200" height="200"><defs><style type="text/css"></style></defs><path d="M499.562736 65.561182C266.50168 70.608128 81.4388 263.886109 86.831624 497.134431c4.976338 232.998635 198.129476 417.867086 431.44022 412.95317 233.158271-5.29561 418.045141-198.343347 412.95317-431.581436C925.981592 245.346871 732.739427 60.389392 499.562736 65.561182L499.562736 65.561182zM516.568039 832.071759c-124.505665 2.572592-235.114832-60.46921-299.030537-157.476591 29.617551 13.456477 64.318888 22.708188 101.744265 25.679869 78.360695 6.369058 148.987243-15.22168 189.431374-52.734038 40.223097 37.512359 110.735034 59.103096 189.307553 52.734038 38.081317-3.112897 73.163323-12.69309 103.065354-26.646893C740.314962 766.829849 636.265188 829.357951 516.568039 832.071759L516.568039 832.071759zM485.636562 279.941783c0 0 85.289502-18.777669 81.44801 96.971565-1.25048 55.963593-11.141758 110.312408-22.833031 140.764977-8.937556 24.651446-21.580504 25.396413-31.431873 25.626657C512.460488 417.095513 485.636562 279.941783 485.636562 279.941783L485.636562 279.941783zM729.377866 584.737628c-65.792449 25.937742-131.007753 29.565363-177.710424 14.795984 42.268686-53.239552 59.157331-119.803573 66.76766-165.797094 6.600325-38.400588 9.41237-80.233346 5.818519-123.787304-7.690146-96.899934-88.277556-103.996562-116.130927-108.484783-27.66713-4.683672-95.219665-5.145184-95.219665-5.145184s41.402969 165.016311 50.672076 403.736251c-46.641273 14.104229-110.942765 10.227945-175.541015-15.318894-55.861262-21.803585-100.452853-54.92596-127.534652-90.283236l-0.381693-3.520173c-4.457522-192.781678 148.415214-352.554568 341.235778-356.785939 192.497199-4.329609 352.315114 148.730393 356.617094 341.253174 0.159636 6.200212-0.577145 12.116969-0.577145 18.371416C830.128501 529.475 785.369088 562.757011 729.377866 584.737628L729.377866 584.737628z" p-id="5999" fill="#1296db"></path><path d="M850.007247 113.772206c0-22.921036 17.074887-40.22719 38.97671-40.22719 21.62553 0 38.639019 17.306154 38.639019 40.22719 0 23.355941-17.013489 40.529065-38.639019 40.529065C867.082134 154.301272 850.007247 137.128147 850.007247 113.772206zM888.983957 162.363901c26.044166 0 48.300053-20.50808 48.300053-48.591695 0-27.78174-22.255887-48.300053-48.300053-48.300053-26.335808 0-48.591695 20.517289-48.591695 48.300053C840.391239 141.855822 862.647125 162.363901 888.983957 162.363901zM878.82662 117.604488l9.624195 0 14.529925 24.251334 9.384741 0-15.664771-24.580838c8.098445-1.028423 14.281261-5.402033 14.281261-15.434527 0-10.990309-6.458085-15.851013-19.506263-15.851013l-20.969591 0 0 55.866379 8.320503 0L878.82662 117.604488zM878.82662 110.481254 878.82662 93.157703l11.354606 0c5.872754 0 12.082176 1.25048 12.082176 8.18645 0 8.614192-6.350638 9.137101-13.44829 9.137101L878.82662 110.481254z" p-id="6000" fill="#1296db"></path></svg>