<?xml version="1.0" encoding="UTF-8" standalone="no"?>
<svg width="61px" height="61px" viewBox="0 0 61 61" version="1.1" xmlns="http://www.w3.org/2000/svg" xmlns:xlink="http://www.w3.org/1999/xlink">
    <!-- Generator: Sketch 3.6.1 (26313) - http://www.bohemiancoding.com/sketch -->
    <title>Group 2</title>
    <desc>Created with Sketch.</desc>
    <defs></defs>
    <g id="Page-1" stroke="none" stroke-width="1" fill="none" fill-rule="evenodd" stroke-linecap="round" opacity="0.196420243" stroke-linejoin="round">
        <g id="A1主页-1.1" transform="translate(-489.000000, -133.000000)" stroke="#FFFFFF" stroke-width="2">
            <g id="Group1" transform="translate(130.000000, 104.000000)">
                <g id="参与" transform="translate(330.000000, 0.000000)">
                    <g id="Group-2" transform="translate(30.000000, 30.000000)">
                        <path d="M28.9891648,1.99540909 C21.4646193,-1.62640909 12.161892,-0.317318182 5.92189204,5.91995455 C-1.06538069,12.9072273 -1.86992615,23.7372273 3.51098294,31.6081364 L3.95825567,32.0935909" id="Stroke-831"></path>
                        <path d="M43.7003466,17.4170455 C36.6421648,24.4752273 23.8730739,17.3570455 23.8730739,17.3570455 C16.454892,24.7725 9.57671022,20.2179545 9.57671022,20.2179545 L23.8730739,5.92159091 C31.7685284,-1.97386364 44.5676193,-1.97386364 52.4630739,5.92159091 C60.3585284,13.8170455 60.3585284,26.6161364 52.4630739,34.5115909 L51.494892,35.4797727" id="Stroke-833"></path>
                        <path d="M17.5130739,55.1783182 L4.01307385,41.6783182 C1.35125567,39.0165 1.35125567,34.6992273 4.01307385,32.0374091 C6.67761931,29.3728636 10.9921648,29.3728636 13.6567102,32.0374091 L27.1567102,45.5346818 C29.8185284,48.1992273 29.8185284,52.5165 27.1567102,55.1783182 C24.4921648,57.8401364 20.174892,57.8401364 17.5130739,55.1783182 L17.5130739,55.1783182 Z" id="Stroke-1200"></path>
                        <path d="M37.3452557,20.4650455 L49.6152557,32.7350455 C53.138892,36.2586818 53.138892,41.9750455 49.6152557,45.5014091 L39.2379829,55.8759545 C35.7143466,59.4023182 29.9979829,59.4023182 26.4716193,55.8759545 L26.4661648,55.8677727" id="Stroke-1201"></path>
                    </g>
                </g>
            </g>
        </g>
    </g>
</svg>