<?xml version="1.0" encoding="UTF-8" standalone="no"?>
<svg width="23px" height="29px" viewBox="0 0 23 29" version="1.1" xmlns="http://www.w3.org/2000/svg" xmlns:xlink="http://www.w3.org/1999/xlink">
    <!-- Generator: Sketch 3.6.1 (26313) - http://www.bohemiancoding.com/sketch -->
    <title>ceshi</title>
    <desc>Created with Sketch.</desc>
    <defs></defs>
    <g id="Page-1" stroke="none" stroke-width="1" fill="none" fill-rule="evenodd">
        <g id="Euler-Dashboard" transform="translate(-38.000000, -505.000000)">
            <g id="Side-bar">
                <g id="icon" transform="translate(0.000000, 74.000000)">
                    <g id="ceshi" transform="translate(0.000000, 420.000000)">
                        <rect id="Rectangle-10" fill-opacity="0" fill="#3B4250" x="0" y="0" width="100" height="70" rx="1"></rect>
                        <path d="M49.4273407,14.5269948 C48.7440169,14.5269948 48.1895655,15.0786835 48.1895655,15.7572726 C48.1895655,16.4346701 48.7440169,16.985763 49.4273407,16.985763 C50.1094658,16.985763 50.6645166,16.4346701 50.6645166,15.7572726 C50.6645166,15.0786835 50.1094658,14.5269948 49.4273407,14.5269948 L49.4273407,14.5269948 Z M50.5847955,14.6086162 C51.585805,14.6086162 52.4009984,13.7995521 52.4009984,12.8052017 C52.4009984,11.8102556 51.585805,11 50.5847955,11 C49.5837859,11 48.7691919,11.8102556 48.7691919,12.8052017 C48.7691919,13.7995521 49.5837859,14.6086162 50.5847955,14.6086162 L50.5847955,14.6086162 Z M47.0776657,15.4117224 C47.9474051,15.4117224 48.655904,14.7081108 48.655904,13.8442354 C48.655904,12.9791684 47.9474051,12.2755567 47.0776657,12.2755567 C46.2079262,12.2755567 45.5006261,12.9791684 45.5006261,13.8442354 C45.5006261,14.7081108 46.2079262,15.4117224 47.0776657,15.4117224 L47.0776657,15.4117224 Z M60.6470391,37.5126346 L56.76528,31.3707782 C56.7568883,31.3380105 56.7544907,31.3052428 56.7383067,31.2748582 C56.7065382,31.211706 56.6609832,31.1628523 56.6082354,31.1229353 L54.4869344,27.7663325 C53.9061091,26.8482414 53.4157943,25.1556414 53.4157943,24.0713288 L53.4157943,18.859479 L52.5166839,18.859479 L52.5166839,24.0713288 C52.5166839,25.3373531 53.0477584,27.1693648 53.726287,28.2423576 L55.6527808,31.2903484 C53.478732,32.1709056 51.3052826,31.7508834 49.0113523,31.3082217 C47.2472978,30.9674378 45.4298961,30.6195045 43.5939127,30.9024982 L45.2752491,28.2423576 C45.9537777,27.1693648 46.4854516,25.3373531 46.4854516,24.0713288 L46.4854516,18.859479 L45.5857419,18.859479 L45.5857419,24.0713288 C45.5857419,25.1556414 45.095427,26.8482414 44.5146017,27.7663325 L38.3520994,37.5132303 C37.9594879,38.1376037 37.8923543,38.7506574 38.1650844,39.2409812 C38.4378146,39.7307092 38.9946636,40 39.7355305,40 L59.2648068,40 C60.0044749,40 60.5625228,39.7307092 60.8352529,39.2409812 C61.1073836,38.7506574 61.0408495,38.1376037 60.6470391,37.5126346 L60.6470391,37.5126346 Z M60.048831,38.8078519 C59.9433354,38.9973087 59.6568189,39.1063358 59.2648068,39.1063358 L39.7355305,39.1063358 C39.342919,39.1063358 39.0570019,38.9973087 38.9515063,38.8078519 C38.8460107,38.6183951 38.9047525,38.3199112 39.1139455,37.9886597 L42.9543456,31.9147218 C43.0034969,31.919488 43.0538471,31.9206796 43.1041973,31.9075725 C44.9845368,31.440484 46.8588821,31.8021201 48.8405214,32.1858 C50.1568189,32.4401964 51.4958939,32.6987633 52.8493547,32.6987633 C53.9378777,32.6987633 55.0347923,32.528967 56.1365022,32.0571123 L59.885193,37.9880639 C60.0949854,38.3199112 60.1543267,38.6183951 60.048831,38.8078519 L60.048831,38.8078519 Z M48.2854706,29.1455543 C48.2854706,29.7586079 48.7865747,30.2572726 49.4039639,30.2572726 C50.0195547,30.2572726 50.5218577,29.7586079 50.5218577,29.1455543 C50.5218577,28.5330964 50.0195547,28.0344318 49.4039639,28.0344318 C48.7865747,28.0344318 48.2854706,28.5330964 48.2854706,29.1455543 L48.2854706,29.1455543 Z M44.1465659,18.785007 L54.853172,18.785007 L54.853172,17.8913428 L44.1465659,17.8913428 L44.1465659,18.785007 Z" fill="#A6AAB2"></path>
                    </g>
                </g>
            </g>
        </g>
    </g>
</svg>