<?xml version="1.0" encoding="UTF-8" standalone="no"?>
<svg width="62px" height="61px" viewBox="0 0 62 61" version="1.1" xmlns="http://www.w3.org/2000/svg" xmlns:xlink="http://www.w3.org/1999/xlink">
    <!-- Generator: Sketch 3.6.1 (26313) - http://www.bohemiancoding.com/sketch -->
    <title>Group</title>
    <desc>Created with Sketch.</desc>
    <defs></defs>
    <g id="Page-1" stroke="none" stroke-width="1" fill="none" fill-rule="evenodd" opacity="0.202658582">
        <g id="A1主页-1.1" transform="translate(-818.000000, -135.000000)" stroke="#FFFFFF" stroke-width="2">
            <g id="Group1" transform="translate(130.000000, 104.000000)">
                <g id="创建" transform="translate(661.000000, 0.000000)">
                    <g id="Group" transform="translate(28.000000, 32.000000)">
                        <path d="M37.3945714,41.0723 L51.4288571,41.0723 C58.3345714,41.0723 60.0002857,47.0723 60.0002857,47.0723 L29.7088571,58.6193 C27.3574286,59.2073 24.8945714,59.1143 22.5888571,58.3493 L8.57171429,51.3503" id="Stroke-1039" stroke-linecap="round" stroke-linejoin="round"></path>
                        <path d="M8.57142857,32.0723 L11.4742857,32.0723 C16.1657143,32.0723 20.4285714,34.2653 22.8571429,38.0723 L31.4285714,38.0723 C35.58,38.0723 40,42.7133 40,47.0723 L20,47.0723" id="Stroke-1040" stroke-linecap="round" stroke-linejoin="round"></path>
                        <g id="Group-3" transform="translate(17.000000, 0.000000)">
                            <path d="M0,15 C0,6.714 6.714,3.55271368e-15 15,3.55271368e-15 C23.286,3.55271368e-15 30,6.714 30,15 C30,23.286 23.286,30 15,30 C6.714,30 0,23.286 0,15 L0,15 Z" id="Stroke-1041" stroke-linecap="round" stroke-linejoin="round"></path>
                            <path d="M8.75,22.5 L15,6.25 L21.25,22.5" id="Line" stroke-linecap="square"></path>
                            <path d="M11.25,17.5 L18.75,17.5" id="Line" stroke-linecap="square"></path>
                        </g>
                        <path d="M8.57142857,53 L0,53 L0,29 L8.57142857,29 L8.57142857,53 Z" id="Stroke-1043" stroke-linecap="round" stroke-linejoin="round"></path>
                    </g>
                </g>
            </g>
        </g>
    </g>
</svg>