<?xml version="1.0" encoding="UTF-8" standalone="no"?>
<svg width="32px" height="21px" viewBox="0 0 32 21" version="1.1" xmlns="http://www.w3.org/2000/svg" xmlns:xlink="http://www.w3.org/1999/xlink">
    <!-- Generator: Sketch 3.6.1 (26313) - http://www.bohemiancoding.com/sketch -->
    <title>gushi</title>
    <desc>Created with Sketch.</desc>
    <defs></defs>
    <g id="Page-1" stroke="none" stroke-width="1" fill="none" fill-rule="evenodd">
        <g id="Euler-Dashboard" transform="translate(-34.000000, -163.000000)">
            <g id="Side-bar">
                <g id="icon" transform="translate(0.000000, 74.000000)">
                    <g id="gushi" transform="translate(0.000000, 70.000000)">
                        <rect id="Rectangle-10" fill-opacity="0" fill="#3B4250" x="0" y="0" width="100" height="70" rx="1"></rect>
                        <path d="M47.6657979,34.9530507 L47.1095139,34.9530507 C46.4543759,34.9530507 45.9214239,35.4916236 45.9214239,36.1542916 L45.9214239,36.8746639 C45.9214239,37.537332 46.4543759,38.0765253 47.1095139,38.0765253 L47.6657979,38.0765253 C48.3215498,38.0765253 48.8545018,37.537332 48.8545018,36.8746639 L48.8545018,36.1542916 C48.8545018,35.4916236 48.3215498,34.9530507 47.6657979,34.9530507 L47.6657979,34.9530507 Z M47.9335018,36.8746639 C47.9335018,37.0217166 47.8113158,37.1458118 47.6657979,37.1458118 L47.1095139,37.1458118 C46.9646099,37.1458118 46.8424239,37.0217166 46.8424239,36.8746639 L46.8424239,36.1542916 C46.8424239,36.0072389 46.9646099,35.8837642 47.1095139,35.8837642 L47.6657979,35.8837642 C47.8113158,35.8837642 47.9335018,36.0072389 47.9335018,36.1542916 L47.9335018,36.8746639 L47.9335018,36.8746639 Z M51.4541778,24.0463289 L52.0037078,24.0463289 C52.6606878,24.0463289 53.1960958,23.5058945 53.1960958,22.841365 L53.1960958,22.1271975 C53.1960958,21.4632885 52.6606878,20.9234747 52.0037078,20.9234747 L51.4541778,20.9234747 C50.7978118,20.9234747 50.2636318,21.4632885 50.2636318,22.1271975 L50.2636318,22.841365 C50.2636318,23.5058945 50.7978118,24.0463289 51.4541778,24.0463289 L51.4541778,24.0463289 Z M51.1846318,22.1271975 C51.1846318,21.9764219 51.3055898,21.8541882 51.4541778,21.8541882 L52.0037078,21.8541882 C52.1559798,21.8541882 52.2750958,21.97394 52.2750958,22.1271975 L52.2750958,22.841365 C52.2750958,22.995243 52.1559798,23.1156153 52.0037078,23.1156153 L51.4541778,23.1156153 C51.3025198,23.1156153 51.1846318,22.995243 51.1846318,22.841365 L51.1846318,22.1271975 L51.1846318,22.1271975 Z M52.2357998,34.9611169 L51.6979358,34.9611169 C51.0489378,34.9611169 50.5018638,35.5083764 50.5018638,36.1567735 L50.5018638,36.872182 C50.5018638,37.5205791 51.0489378,38.0690796 51.6979358,38.0690796 L52.2357998,38.0690796 C52.8970778,38.0690796 53.4343278,37.5323681 53.4343278,36.872182 L53.4343278,36.1567735 C53.4343278,35.4972079 52.8970778,34.9611169 52.2357998,34.9611169 L52.2357998,34.9611169 Z M52.5133278,36.872182 C52.5133278,37.0186143 52.3886858,37.1383661 52.2357998,37.1383661 L51.6979358,37.1383661 C51.5536458,37.1383661 51.4222498,37.011789 51.4222498,36.872182 L51.4222498,36.1567735 C51.4222498,36.017787 51.5536458,35.8918304 51.6979358,35.8918304 L52.2357998,35.8918304 C52.3886858,35.8918304 52.5133278,36.0103413 52.5133278,36.1567735 L52.5133278,36.872182 L52.5133278,36.872182 Z M42.5241619,24.0457084 L43.0712359,24.0457084 C43.7288299,24.0457084 44.2630099,23.505274 44.2630099,22.841365 L44.2630099,22.127818 C44.2630099,21.4645295 43.7288299,20.9240951 43.0712359,20.9240951 L42.5241619,20.9240951 C41.8665679,20.9240951 41.3317739,21.4645295 41.3317739,22.127818 L41.3317739,22.841365 C41.3317739,23.505274 41.8665679,24.0457084 42.5241619,24.0457084 L42.5241619,24.0457084 Z M42.2521599,22.127818 C42.2521599,21.9745605 42.3718899,21.8548087 42.5241619,21.8548087 L43.0712359,21.8548087 C43.2235079,21.8548087 43.3420099,21.9745605 43.3420099,22.127818 L43.3420099,22.841365 C43.3420099,22.9946225 43.2235079,23.1149948 43.0712359,23.1149948 L42.5241619,23.1149948 C42.3718899,23.1149948 42.2521599,22.9946225 42.2521599,22.841365 L42.2521599,22.127818 L42.2521599,22.127818 Z M37.952318,38.0752844 L38.50676,38.0752844 C39.1625119,38.0752844 39.6954639,37.536091 39.6954639,36.8740434 L39.6954639,36.1542916 C39.6954639,35.4922441 39.1625119,34.9542916 38.50676,34.9542916 L37.952318,34.9542916 C37.296566,34.9542916 36.763614,35.4922441 36.763614,36.1542916 L36.763614,36.8740434 C36.763614,37.536091 37.296566,38.0752844 37.952318,38.0752844 L37.952318,38.0752844 Z M37.684614,36.1542916 C37.684614,36.0078594 37.807414,35.8850052 37.952318,35.8850052 L38.50676,35.8850052 C38.6522779,35.8850052 38.7744639,36.0078594 38.7744639,36.1542916 L38.7744639,36.8740434 C38.7744639,37.0204757 38.6522779,37.1445708 38.50676,37.1445708 L37.952318,37.1445708 C37.807414,37.1445708 37.684614,37.0204757 37.684614,36.8740434 L37.684614,36.1542916 L37.684614,36.1542916 Z M56.0800538,19 L34.461114,19 C34.206304,19 34,19.2084798 34,19.4653568 L34,39.5346432 C34,39.7915202 34.206304,40 34.461114,40 L56.0800538,40 C56.3342498,40 56.5399398,39.7915202 56.5399398,39.5346432 L56.5399398,19.4653568 C56.5399398,19.2084798 56.3342498,19 56.0800538,19 L56.0800538,19 Z M34.921,19.9307135 L55.6189398,19.9307135 L55.6189398,39.0692865 L34.921,39.0692865 L34.921,19.9307135 Z M65.9439637,36.2808687 L62.2581217,29.442606 L65.8303737,22.662668 C65.8923877,22.5460186 65.9015977,22.4088935 65.8573897,22.2847983 C65.8125677,22.1613237 65.7186257,22.0620476 65.5976677,22.01303 C65.4435537,21.9497415 65.2845277,21.9174767 65.1230457,21.9174767 L64.4636097,21.9174767 C64.4157177,21.9025853 64.3665977,21.8957601 64.3094957,21.897001 L57.7839037,21.9174767 C57.5297077,21.9174767 57.3227897,22.1259566 57.3227897,22.3828335 C57.3227897,22.6403309 57.5297077,22.8481903 57.7839037,22.8481903 L63.8305757,22.8475698 L63.8361017,22.8475698 C63.8440837,22.8475698 63.8514517,22.8481903 63.8588197,22.8481903 L64.6895617,22.8481903 L61.3285257,29.2266805 C61.2554597,29.3644261 61.2566877,29.5307135 61.3303677,29.6684592 L64.8363077,36.1716649 L57.7839037,36.1716649 C57.5297077,36.1716649 57.3227897,36.3801448 57.3227897,36.6370217 C57.3227897,36.8938987 57.5297077,37.1023785 57.7839037,37.1023785 L65.1230457,37.1023785 C65.3440857,37.1023785 65.5595997,37.0366081 65.7794117,36.9007239 C65.9887857,36.7716649 66.0612377,36.4986556 65.9439637,36.2808687 L65.9439637,36.2808687 Z M38.05854,24.0457084 L38.6074559,24.0457084 C39.2644359,24.0457084 39.7992299,23.505274 39.7992299,22.841365 L39.7992299,22.127818 C39.7992299,21.4645295 39.2644359,20.9240951 38.6074559,20.9240951 L38.05854,20.9240951 C37.400946,20.9240951 36.866152,21.4645295 36.866152,22.127818 L36.866152,22.841365 C36.866152,23.505274 37.400946,24.0457084 38.05854,24.0457084 L38.05854,24.0457084 Z M37.787152,22.127818 C37.787152,21.9776629 37.90811,21.8548087 38.05854,21.8548087 L38.6074559,21.8548087 C38.7572719,21.8548087 38.8782299,21.9776629 38.8782299,22.127818 L38.8782299,22.841365 C38.8782299,22.9921406 38.7572719,23.1149948 38.6074559,23.1149948 L38.05854,23.1149948 C37.905654,23.1149948 37.787152,22.9946225 37.787152,22.841365 L37.787152,22.127818 L37.787152,22.127818 Z M43.0871999,34.9530507 L42.5431959,34.9530507 C41.8917419,34.9530507 41.3415979,35.5034126 41.3415979,36.1542916 L41.3415979,36.8746639 C41.3415979,37.5261634 41.8917419,38.0759049 42.5431959,38.0759049 L43.0871999,38.0759049 C43.7411099,38.0759049 44.2734479,37.5367115 44.2734479,36.8746639 L44.2734479,36.1542916 C44.2734479,35.4916236 43.7411099,34.9530507 43.0871999,34.9530507 L43.0871999,34.9530507 Z M43.3530619,36.8746639 C43.3530619,37.0210962 43.2314899,37.1451913 43.0871999,37.1451913 L42.5431959,37.1451913 C42.3964499,37.1451913 42.2632119,37.0161324 42.2632119,36.8746639 L42.2632119,36.1542916 C42.2632119,36.0128232 42.3964499,35.8837642 42.5431959,35.8837642 L43.0871999,35.8837642 C43.2314899,35.8837642 43.3530619,36.0072389 43.3530619,36.1542916 L43.3530619,36.8746639 L43.3530619,36.8746639 Z M46.9983799,24.0382627 L47.5411559,24.0382627 C48.1975218,24.0382627 48.7298598,23.5003102 48.7298598,22.8388831 L48.7298598,22.1309204 C48.7298598,21.4701138 48.1975218,20.9321613 47.5411559,20.9321613 L46.9983799,20.9321613 C46.3364879,20.9321613 45.7973959,21.4701138 45.7973959,22.1309204 L45.7973959,22.8388831 C45.7973959,23.5003102 46.3364879,24.0382627 46.9983799,24.0382627 L46.9983799,24.0382627 Z M46.7183959,22.1309204 C46.7183959,21.9857291 46.8467219,21.8628749 46.9983799,21.8628749 L47.5411559,21.8628749 C47.6842179,21.8628749 47.8088598,21.988211 47.8088598,22.1309204 L47.8088598,22.8388831 C47.8088598,22.9815926 47.6842179,23.1075491 47.5411559,23.1075491 L46.9983799,23.1075491 C46.8467219,23.1075491 46.7183959,22.9840745 46.7183959,22.8388831 L46.7183959,22.1309204 L46.7183959,22.1309204 Z" fill="#A6AAB2"></path>
                    </g>
                </g>
            </g>
        </g>
    </g>
</svg>