<?xml version="1.0" encoding="UTF-8" standalone="no"?>
<svg width="33px" height="23px" viewBox="0 0 33 23" version="1.1" xmlns="http://www.w3.org/2000/svg" xmlns:xlink="http://www.w3.org/1999/xlink">
    <!-- Generator: Sketch 3.6.1 (26313) - http://www.bohemiancoding.com/sketch -->
    <title>jiankong</title>
    <desc>Created with Sketch.</desc>
    <defs></defs>
    <g id="Page-1" stroke="none" stroke-width="1" fill="none" fill-rule="evenodd">
        <g id="Euler-Dashboard" transform="translate(-33.000000, -721.000000)">
            <g id="Side-bar">
                <g id="icon" transform="translate(0.000000, 74.000000)">
                    <g id="jiankong" transform="translate(0.000000, 630.000000)">
                        <rect id="Rectangle-10" fill-opacity="0" fill="#3B4250" x="0" y="0" width="100" height="70" rx="1"></rect>
                        <path d="M49.4978537,34.6461634 C52.9465179,34.6461634 55.7512925,31.8883746 55.7512925,28.5 C55.7512925,25.1116254 52.9465179,22.3538366 49.4978537,22.3538366 C46.0512732,22.3538366 43.2444148,25.1116254 43.2444148,28.5 C43.2444148,31.8883746 46.0512732,34.6461634 49.4978537,34.6461634 L49.4978537,34.6461634 Z M49.4978537,23.7124355 C52.180786,23.7124355 54.3673596,25.8607833 54.3673596,28.5 C54.3673596,31.1392167 52.180786,33.2875645 49.4978537,33.2875645 C46.8149214,33.2875645 44.6283478,31.1392167 44.6283478,28.5 C44.6283478,25.8607833 46.8149214,23.7124355 49.4978537,23.7124355 L49.4978537,23.7124355 Z M33.8027849,29.9945701 C38.1808172,35.1395763 42.3212981,40 49.4978537,40 C56.6723255,40 61.863034,33.9746306 65.2950279,29.988428 L65.6284335,29.6014777 C66.0972852,29.0589283 66.1264582,28.2686487 65.6930309,27.6933416 C61.940134,22.7162186 56.7056661,17 49.4978537,17 C43.475715,17 38.8622149,21.023055 33.3610225,27.5152216 C32.8775843,28.0843867 32.8796681,28.913566 33.3672738,29.482731 L33.8027849,29.9945701 L33.8027849,29.9945701 Z M49.4939881,18.5818678 C55.8371377,18.5818678 60.9028304,23.6915006 64.7180374,28.5602267 C60.9567729,32.9158213 55.9082437,38.4181322 49.4939881,38.4181322 C42.9865591,38.4181322 39.0855344,34.0842192 34.3214294,28.4975909 C39.7867871,22.1978786 44.1389674,18.5818678 49.4939881,18.5818678 L49.4939881,18.5818678 Z" fill="#0F94F7"></path>
                    </g>
                </g>
            </g>
        </g>
    </g>
</svg>