<?xml version="1.0" encoding="UTF-8" standalone="no"?>
<svg width="25px" height="25px" viewBox="0 0 25 25" version="1.1" xmlns="http://www.w3.org/2000/svg" xmlns:xlink="http://www.w3.org/1999/xlink">
    <!-- Generator: Sketch 3.6.1 (26313) - http://www.bohemiancoding.com/sketch -->
    <title>kaifa</title>
    <desc>Created with Sketch.</desc>
    <defs></defs>
    <g id="Page-1" stroke="none" stroke-width="1" fill="none" fill-rule="evenodd">
        <g id="Euler-Dashboard" transform="translate(-37.000000, -439.000000)">
            <g id="Side-bar">
                <g id="icon" transform="translate(0.000000, 74.000000)">
                    <g id="kaifa" transform="translate(0.000000, 350.000000)">
                        <rect id="Rectangle-10" fill-opacity="0" fill="#3B4250" x="0" y="0" width="100" height="70" rx="1"></rect>
                        <path d="M43.7209406,24.5484016 L46.7505114,27.6615892 C46.836465,27.7505202 46.9494999,27.7946831 47.0625348,27.7946831 C47.1755697,27.7946831 47.2886046,27.7505202 47.375147,27.6615892 C47.5476429,27.4843323 47.5476429,27.1975754 47.375147,27.0203185 L44.1395229,23.6947856 C44.0111812,23.5635066 43.8192574,23.5253934 43.6514712,23.599805 C42.1761302,24.2580149 40.5653829,24.0105812 39.5486575,22.9700288 C38.6891213,22.0849542 38.3876949,20.7491753 38.7144364,19.4315456 L40.8214776,21.5955316 C40.9445208,21.7207609 41.1258476,21.7606891 41.2877466,21.6995869 L43.2405422,20.9566808 C43.3606418,20.9107029 43.456015,20.8133024 43.500758,20.6886781 L44.2213555,18.6880346 C44.2814053,18.5222721 44.2413721,18.3353357 44.1195063,18.2101064 L42.0112877,16.0412806 C43.2958822,15.704311 44.5946061,16.0146618 45.457086,16.9009463 C46.4696903,17.9408937 46.7098895,19.5954931 46.0687696,21.1163935 C45.9969454,21.2869957 46.034035,21.4860316 46.1617879,21.6173106 L49.397412,24.9416336 C49.5699079,25.1188905 49.8489629,25.1188905 50.0220476,24.9416336 C50.1945435,24.7643767 50.1945435,24.4770148 50.0220476,24.3003629 L46.991888,21.1871753 C47.6300642,19.4031119 47.2862497,17.4962391 46.0811328,16.2590706 C44.8177323,14.960195 42.8319682,14.6347199 41.0251759,15.4302585 C40.890947,15.4895458 40.7932189,15.6135652 40.7655489,15.7611784 C40.7378789,15.9087917 40.7826219,16.0612447 40.8862372,16.1683248 L43.2952935,18.6456865 L42.7430709,20.1780814 L41.2459472,20.7473604 L38.8368909,18.2742335 C38.7326868,18.1677584 38.5819736,18.1205705 38.4412687,18.1496092 C38.2970315,18.1786479 38.1757545,18.2790733 38.1186483,18.4176119 C37.3480093,20.2760869 37.6641538,22.3148437 38.9257881,23.6119044 C40.1326712,24.8502828 41.9877387,25.2029816 43.7209406,24.5484016 L43.7209406,24.5484016 Z M45.916879,31.4596055 L56.296662,20.7945482 L56.6469524,21.1539018 C56.7299624,21.2398079 56.8424086,21.2869957 56.9595646,21.2869957 L56.9701616,21.2869957 C57.0902612,21.2839709 57.205651,21.2307333 57.2863061,21.1387775 L59.8125184,18.2881479 C59.9714737,18.1084711 59.964409,17.8326037 59.798389,17.6613965 L58.7216138,16.557322 C58.5544164,16.3849049 58.2865472,16.3794601 58.1116964,16.5421977 L55.3382202,19.136924 C55.2481455,19.2204102 55.1963379,19.3377749 55.1933943,19.4617942 C55.1904506,19.5864185 55.2381372,19.705598 55.3223247,19.793319 L55.6720264,20.1526726 L45.2928321,30.8183349 L43.7209406,29.2030587 C43.5549205,29.0330615 43.262325,29.0330615 43.096305,29.2030587 L37.7077193,34.7415805 C36.7645844,35.7113511 36.7639956,37.2897239 37.7065419,38.2600996 L38.6944198,39.2728233 C39.1489143,39.7416768 39.7570656,40 40.4052501,40 C41.0546121,40 41.6627634,39.7410718 42.1172579,39.2728233 L47.507021,33.7349065 C47.5894423,33.6502104 47.6371289,33.5340557 47.6371289,33.4142712 C47.6371289,33.2938817 47.5894423,33.1783319 47.507021,33.0936358 L45.916879,31.4596055 L45.916879,31.4596055 Z M58.3948723,17.5047087 L58.8752707,17.9977611 L56.9448465,20.1762665 L56.2748792,19.487808 L58.3948723,17.5047087 L58.3948723,17.5047087 Z M41.4914449,38.6315526 C40.9150846,39.2256354 39.8960044,39.2256354 39.3190554,38.6315526 L38.3317662,37.6182239 C37.7324457,37.0023621 37.7330344,35.9993179 38.3323549,35.3834561 L41.665707,31.9574978 L44.8130225,35.2201136 L41.4914449,38.6315526 L41.4914449,38.6315526 Z M45.4370694,34.5788429 L42.2891651,31.3156221 L43.4089171,30.1655697 L46.5709507,33.4142712 L45.4370694,34.5788429 L45.4370694,34.5788429 Z M60.7744925,31.3591801 C59.5699643,30.1214067 57.7178404,29.7681029 55.9787513,30.422078 L52.2615515,26.6010727 C52.0890556,26.4238158 51.8094119,26.4238158 51.636916,26.6010727 C51.46442,26.7783296 51.46442,27.0656915 51.636916,27.2429484 L55.5607577,31.274484 C55.6890994,31.405763 55.8827894,31.4438763 56.0482207,31.3700696 C57.5282714,30.7130697 59.13843,30.9598984 60.1492682,32.0010558 C61.0141029,32.8885502 61.3155293,34.2249341 60.9858442,35.5413539 L58.8782143,33.374343 C58.7557598,33.2491137 58.5738443,33.2085806 58.4119453,33.2702877 L56.4673918,34.0119838 C56.3472922,34.0573567 56.2513303,34.1547573 56.2065873,34.2787766 L55.4789251,36.28184 C55.4176979,36.4488124 55.4583198,36.6357488 55.5807743,36.7615831 L57.6901704,38.928594 C56.4055758,39.2649586 55.1056745,38.9552128 54.2437834,38.0689283 C53.2317678,37.0283759 52.9915686,35.3737766 53.6309222,33.854691 C53.7027465,33.6840888 53.6662457,33.4856579 53.5379039,33.3537739 L49.6146509,29.3210283 C49.442155,29.1437714 49.1625113,29.1437714 48.9900154,29.3210283 C48.8175194,29.4976803 48.8175194,29.7856471 48.9900154,29.962904 L52.7078039,33.7839093 C52.0713939,35.5661578 52.4152083,37.4724256 53.6197365,38.710804 C54.423344,39.5371962 55.519547,39.9691464 56.6769773,39.9691464 C57.337525,39.9691464 58.0186781,39.8281879 58.6762821,39.5390111 C58.8110998,39.4797238 58.9088279,39.3557045 58.9364979,39.2080912 C58.9641679,39.059873 58.9182475,38.90742 58.8146322,38.8009448 L56.4055758,36.326003 L56.9630969,34.7905832 L58.4537447,34.2225142 L60.8616236,36.696851 C60.9646502,36.8027212 61.1130085,36.850514 61.2572457,36.8214753 C61.4003055,36.7930417 61.5215825,36.6932212 61.5798662,36.5546825 C62.3558037,34.6980225 62.0396592,32.6586607 60.7744925,31.3591801 L60.7744925,31.3591801 Z" fill="#0F94F7"></path>
                    </g>
                </g>
            </g>
        </g>
    </g>
</svg>