<?xml version="1.0" encoding="UTF-8" standalone="no"?>
<svg width="25px" height="22px" viewBox="0 0 25 22" version="1.1" xmlns="http://www.w3.org/2000/svg" xmlns:xlink="http://www.w3.org/1999/xlink">
    <!-- Generator: Sketch 3.6.1 (26313) - http://www.bohemiancoding.com/sketch -->
    <title>kanban</title>
    <desc>Created with Sketch.</desc>
    <defs></defs>
    <g id="Page-1" stroke="none" stroke-width="1" fill="none" fill-rule="evenodd">
        <g id="Euler-Dashboard" transform="translate(-37.000000, -92.000000)">
            <g id="Side-bar">
                <g id="icon" transform="translate(0.000000, 74.000000)">
                    <g id="kanban">
                        <rect id="Rectangle-10" fill-opacity="0" fill="#3B4250" x="0" y="0" width="100" height="70" rx="1"></rect>
                        <path d="M41.0427879,18.9521611 L57.9565708,18.9521611 C58.2220712,18.9521611 58.4375497,18.738877 58.4375497,18.4760806 C58.4375497,18.2132841 58.2220712,18 57.9565708,18 L41.0427879,18 C40.7779288,18 40.561809,18.2132841 40.561809,18.4760806 C40.561809,18.738877 40.7779288,18.9521611 41.0427879,18.9521611 L41.0427879,18.9521611 Z M61.5190211,21.4233366 L37.4809789,21.4233366 C37.2154785,21.4233366 37,21.6366207 37,21.8994172 L37,39.5239194 C37,39.7867159 37.2154785,40 37.4809789,40 L61.5190211,40 C61.7845215,40 62,39.7867159 62,39.5239194 L62,21.8994172 C62,21.6366207 61.7845215,21.4233366 61.5190211,21.4233366 L61.5190211,21.4233366 Z M37.9619578,22.3754977 L61.0374009,22.3754977 L61.0374009,39.0478389 L37.9619578,39.0478389 L37.9619578,22.3754977 Z M39.2625247,20.7149287 L59.7400405,20.7149287 C60.0061822,20.7149287 60.2203781,20.5016446 60.2203781,20.2388482 C60.2203781,19.9760517 60.0061822,19.7627676 59.7400405,19.7627676 L39.2625247,19.7627676 C38.996383,19.7627676 38.7815458,19.9760517 38.7815458,20.2388482 C38.7815458,20.5016446 38.996383,20.7149287 39.2625247,20.7149287 L39.2625247,20.7149287 Z" fill="#0F94F7"></path>
                    </g>
                </g>
            </g>
        </g>
    </g>
</svg>