<?xml version="1.0" encoding="UTF-8" standalone="no"?>
<svg width="22px" height="24px" viewBox="0 0 22 24" version="1.1" xmlns="http://www.w3.org/2000/svg" xmlns:xlink="http://www.w3.org/1999/xlink">
    <!-- Generator: Sketch 3.6.1 (26313) - http://www.bohemiancoding.com/sketch -->
    <title>市场</title>
    <desc>Created with Sketch.</desc>
    <defs></defs>
    <g id="Page-1" stroke="none" stroke-width="1" fill="none" fill-rule="evenodd" stroke-linecap="round" stroke-linejoin="round">
        <g id="看板" transform="translate(-39.000000, -209.000000)" stroke="#A6AAB2" stroke-width="2">
            <g id="Side-bar">
                <g id="icon" transform="translate(38.000000, 67.000000)">
                    <g id="市场" transform="translate(2.000000, 143.000000)">
                        <path d="M2,11 L2,22 L8,22 L8,17 L12,17 L12,22 L18,22 L18,11" id="Stroke-4272"></path>
                        <path d="M20,8 C20,9.958 18.881,11 17.5,11 C16.119,11 15,9.881 15,8.5 C15,9.881 13.881,11 12.5,11 C11.119,11 10,9.881 10,8.5 C10,9.881 8.881,11 7.5,11 C6.119,11 5,9.881 5,8.5 C5,9.881 3.881,11 2.5,11 C1.119,11 0,9.958 0,8 L4,0 L16,0 L20,8 L20,8 Z" id="Stroke-4525"></path>
                    </g>
                </g>
            </g>
        </g>
    </g>
</svg>