<?xml version="1.0" encoding="UTF-8" standalone="no"?>
<svg width="22px" height="16px" viewBox="0 0 22 16" version="1.1" xmlns="http://www.w3.org/2000/svg" xmlns:xlink="http://www.w3.org/1999/xlink">
    <!-- Generator: Sketch 3.6.1 (26313) - http://www.bohemiancoding.com/sketch -->
    <title>Message</title>
    <desc>Created with Sketch.</desc>
    <defs></defs>
    <g id="Page-1" stroke="none" stroke-width="1" fill="none" fill-rule="evenodd">
        <g id="Euler-Dashboard" transform="translate(-1058.000000, -30.000000)">
            <g id="Top-bar">
                <g id="Message" transform="translate(1049.000000, 18.000000)">
                    <rect id="Rectangle-868" x="0" y="0" width="40" height="40"></rect>
                    <path d="M30.9911925,12.3317742 C30.988084,12.3053321 30.9839393,12.2803867 30.9746138,12.2559401 C30.9668425,12.2329903 30.9559627,12.213034 30.9435286,12.1925787 C30.9316127,12.1716246 30.9191786,12.152666 30.9031179,12.1342064 C30.8860211,12.1137512 30.8647796,12.0977861 30.8425019,12.0813221 C30.831104,12.0723418 30.8228146,12.0603679 30.8098625,12.0528843 C30.8026093,12.048893 30.7943199,12.048893 30.7865486,12.0454007 C30.7632347,12.032928 30.7378485,12.0264422 30.7119442,12.0194574 C30.686558,12.0129716 30.6627261,12.0069847 30.6368218,12.0049891 C30.6285324,12.0044902 30.6207611,12 30.6114356,12 L9.38856443,12 C9.37923888,12 9.3714676,12.0044902 9.36214205,12.005488 C9.33779201,12.0069847 9.31447815,12.0129716 9.29012811,12.0189585 C9.26370573,12.0264422 9.23780143,12.032928 9.21293331,12.0454007 C9.20619819,12.048893 9.19790882,12.048893 9.19065561,12.0528843 C9.17718538,12.0603679 9.16993218,12.0723418 9.15749812,12.0813221 C9.13522042,12.0977861 9.11449699,12.1137512 9.09740015,12.1342064 C9.0808214,12.152666 9.06838734,12.1716246 9.05647136,12.1920798 C9.0440373,12.213034 9.0331575,12.2329903 9.02486812,12.2559401 C9.01709683,12.2803867 9.01295215,12.3053321 9.00984363,12.3317742 C9.00777129,12.3462426 9,12.3592142 9,12.3741815 L9,27.6258185 C9,27.8323667 9.17459495,28 9.38856443,28 L30.6114356,28 C30.8259231,28 31,27.8323667 31,27.6258185 L31,12.3741815 C31,12.3592142 30.9932649,12.3462426 30.9911925,12.3317742 L30.9911925,12.3317742 Z M29.896477,12.748363 C28.744254,14.3902713 25.0544461,19.1543499 20,20.835672 C14.9455539,19.1543499 11.2562641,14.3902713 10.103523,12.748363 L29.896477,12.748363 L29.896477,12.748363 Z M9.77764695,13.6204553 C10.8521571,15.0932336 13.0695648,17.7928282 16.1241993,19.7734955 C13.0146477,22.1153726 10.7625283,25.0409729 9.77764695,26.4473963 L9.77764695,13.6204553 L9.77764695,13.6204553 Z M10.1594763,27.251637 C10.935569,26.105145 13.3871515,22.7205488 16.8173983,20.2005613 C17.7675678,20.7583411 18.7897513,21.2392891 19.8766956,21.589024 C19.8772136,21.5895229 19.8782498,21.589024 19.8798041,21.5895229 C19.9181424,21.6014967 19.9585531,21.6079825 20,21.6079825 C20.0404107,21.6079825 20.0808214,21.6014967 20.1196778,21.5895229 C20.1201959,21.589024 20.1212321,21.5895229 20.1222683,21.589024 C21.2097306,21.2392891 22.2298417,20.75884 23.1794932,20.202058 C26.60974,22.7220455 29.0608044,26.1056439 29.8374152,27.251637 L10.1594763,27.251637 L10.1594763,27.251637 Z M30.2223531,26.4533832 C29.2405803,25.0494543 26.9869066,22.1203617 23.8732102,19.7749922 C26.929399,17.7943249 29.148361,15.0932336 30.2223531,13.6204553 L30.2223531,26.4533832 L30.2223531,26.4533832 Z" id="Fill-71" fill="#0F94F7"></path>
                </g>
            </g>
        </g>
    </g>
</svg>