<?xml version="1.0" encoding="UTF-8" standalone="no"?>
<svg width="80px" height="80px" viewBox="0 0 80 80" version="1.1" xmlns="http://www.w3.org/2000/svg" xmlns:xlink="http://www.w3.org/1999/xlink">
    <!-- Generator: Sketch 3.6.1 (26313) - http://www.bohemiancoding.com/sketch -->
    <title>depend</title>
    <desc>Created with Sketch.</desc>
    <defs></defs>
    <g id="Page-1" stroke="none" stroke-width="1.5" fill="none" fill-rule="evenodd">
        <g id="components" transform="translate(-2924.000000, -1149.000000)">
            <g id="component" transform="translate(2924.000000, 1149.000000)">
                <circle id="Oval-12-Copy-7" fill="#DDDDDD" cx="40" cy="40" r="40"></circle>
                <path d="M62,17 L52,17 L52,21 L57.172,21 L52.369,25.803 C50.031,24.051 47.14,23 44,23 C41.451,23 39.065,23.696 37.004,24.892 C34.943,23.692 32.552,23 30,23 C22.28,23 16,29.28 16,37 C16,44.039 21.227,49.865 28,50.84 L28,54 L24,54 L24,58 L28,58 L28,63 L32,63 L32,58 L36,58 L36,54 L32,54 L32,50.84 C38.773,49.864 44,44.039 44,37 C44,34.177 43.153,31.55 41.71,29.349 C40.397,29.744 39.23,30.464 38.296,31.422 C39.371,33.017 40,34.936 40,37 C40,39.783 38.855,42.301 37.015,44.116 C35.164,42.302 34,39.79 34,37 C34,31.486 38.486,27 44,27 C49.514,27 54,31.486 54,37 C54,42.514 49.514,47 44,47 C43.497,47 43.007,46.951 42.524,46.879 C41.551,48.11 40.403,49.198 39.11,50.102 C40.635,50.673 42.278,51 44,51 C51.72,51 58,44.72 58,37 C58,33.86 56.949,30.969 55.197,28.631 L60,23.828 L60,29 L64,29 L64,19 C64,17.896 63.104,17 62,17 L62,17 Z M30,47 C24.486,47 20,42.514 20,37 C20,31.486 24.486,27 30,27 C31.265,27 32.473,27.243 33.587,27.675 C31.365,30.154 30,33.417 30,37 C30,40.585 31.374,43.841 33.599,46.319 C32.481,46.753 31.27,47 30,47 L30,47 Z" id="Shape" fill-opacity="0.1" fill="#000000"></path>
            </g>
        </g>
    </g>
</svg>