<?xml version="1.0" encoding="UTF-8" standalone="no"?>
<svg width="80px" height="80px" viewBox="0 0 80 80" version="1.1" xmlns="http://www.w3.org/2000/svg" xmlns:xlink="http://www.w3.org/1999/xlink">
    <!-- Generator: Sketch 3.6.1 (26313) - http://www.bohemiancoding.com/sketch -->
    <title>pruduct</title>
    <desc>Created with Sketch.</desc>
    <defs></defs>
    <g id="Page-1" stroke="none" stroke-width="1.5" fill="none" fill-rule="evenodd">
        <g id="components" transform="translate(-2808.000000, -1148.000000)">
            <g id="component" transform="translate(2808.000000, 1148.000000)">
                <circle id="Oval-12-Copy-7" fill="#DDDDDD" cx="40" cy="40" r="40"></circle>
                <path d="M37.769,33.154 C37.301,34.275 36.214,35 35,35 L22,35 L22,57 C22,57.443 22.292,57.834 22.718,57.959 L39,62.748 L39,30.2 L37.769,33.154 L37.769,33.154 Z" id="Shape" fill-opacity="0.1" fill="#000000"></path>
                <path d="M45,35 C43.786,35 42.699,34.275 42.231,33.155 L41,30.2 L41,62.748 L57.282,57.959 C57.708,57.834 58,57.443 58,57 L58,35 L45,35 L45,35 Z" id="Shape" fill-opacity="0.1" fill="#000000"></path>
                <path d="M62.857,31.485 L56.857,21.485 C56.699,21.221 56.428,21.046 56.124,21.007 L40.131,19.009 C40.045,18.997 39.954,18.997 39.868,19.009 L23.876,21.008 C23.571,21.046 23.301,21.222 23.143,21.485 L17.143,31.485 C16.957,31.794 16.953,32.178 17.13,32.493 C17.307,32.807 17.64,33 18,33 L35,33 C35.404,33 35.768,32.757 35.923,32.385 L40,22.6 L44.077,32.385 C44.232,32.757 44.596,33 45,33 L62,33 C62.36,33 62.693,32.807 62.87,32.493 C63.048,32.179 63.043,31.794 62.857,31.485 L62.857,31.485 Z" id="Shape" fill-opacity="0.1" fill="#000000"></path>
            </g>
        </g>
    </g>
</svg>