<?xml version="1.0" encoding="UTF-8" standalone="no"?>
<svg width="80px" height="80px" viewBox="0 0 80 80" version="1.1" xmlns="http://www.w3.org/2000/svg" xmlns:xlink="http://www.w3.org/1999/xlink">
    <!-- Generator: Sketch 3.6.1 (26313) - http://www.bohemiancoding.com/sketch -->
    <title>component</title>
    <desc>Created with Sketch.</desc>
    <defs></defs>
    <g id="Page-1" stroke="none" stroke-width="1.5" fill="none" fill-rule="evenodd">
        <g id="components" transform="translate(-2692.000000, -1149.000000)">
            <g id="component" transform="translate(2692.000000, 1149.000000)">
                <circle id="Oval-12" fill="#eee" cx="40" cy="40" r="40"></circle>
                <path d="M59.1428571,37.7 C58.2285714,37.7 57.5428571,37.93 56.8571429,38.16 L56.8571429,26.2 L44.9714286,26.2 C45.2,25.51 45.4285714,24.82 45.4285714,23.9 C45.4285714,19.99 42.4571429,17 38.5714286,17 C34.6857143,17 31.7142857,19.99 31.7142857,23.9 C31.7142857,24.82 31.9428571,25.51 32.1714286,26.2 L18,26.2 L18,37.7 C21.8857143,37.7 24.8571429,40.69 24.8571429,44.6 C24.8571429,48.51 21.8857143,51.5 18,51.5 L18,63 L31.7142857,63 C31.7142857,59.09 34.6857143,56.1 38.5714286,56.1 C42.4571429,56.1 45.4285714,59.09 45.4285714,63 L56.8571429,63 L56.8571429,51.04 C57.5428571,51.27 58.2285714,51.5 59.1428571,51.5 C63.0285714,51.5 66,48.51 66,44.6 C66,40.69 63.0285714,37.7 59.1428571,37.7 L59.1428571,37.7 Z" id="Shape" fill-opacity="0.5" fill="#ddd"></path>
            </g>
        </g>
    </g>
</svg>
