<?xml version="1.0" encoding="UTF-8" standalone="no"?>
<svg width="20px" height="22px" viewBox="0 0 20 22" version="1.1" xmlns="http://www.w3.org/2000/svg" xmlns:xlink="http://www.w3.org/1999/xlink">
    <!-- Generator: Sketch 3.6.1 (26313) - http://www.bohemiancoding.com/sketch -->
    <title>out</title>
    <desc>Created with Sketch.</desc>
    <defs></defs>
    <g id="Page-1" stroke="none" stroke-width="1" fill="none" fill-rule="evenodd">
        <g id="Euler-Dashboard" transform="translate(-1387.000000, -27.000000)">
            <g id="Top-bar">
                <g id="User" transform="translate(1260.000000, 17.000000)">
                    <g id="out" transform="translate(117.000000, 1.000000)">
                        <rect id="Rectangle-868" x="0" y="0" width="40" height="40"></rect>
                        <path d="M22.4610216,11.8873853 C22.2510368,11.8364075 22.0358024,11.9592641 21.9822563,12.164195 C21.9292351,12.369126 22.0562759,12.5766058 22.2678356,12.629113 C26.3567641,13.6354157 29.2125571,17.1972379 29.2125571,21.2897395 C29.2125571,26.2223561 25.0800567,30.2353323 20.0010499,30.2353323 C14.9204683,30.2353323 10.7874429,26.2223561 10.7874429,21.2897395 C10.7874429,17.2441375 13.6028138,13.6930207 17.6334716,12.6540921 C17.8439813,12.6000556 17.9689223,12.3905367 17.9132763,12.1861155 C17.8576303,11.9827139 17.6434459,11.8608768 17.4318862,11.9149133 C13.0563284,13.0430531 10,16.8985077 10,21.2897395 C10,26.6439429 14.4863247,31 20.0010499,31 C25.5147252,31 30,26.6439429 30,21.2897395 C30,16.8465103 26.8995748,12.9803504 22.4610216,11.8873853 L22.4610216,11.8873853 Z M19.9480288,17.1381036 C20.165363,17.1381036 20.3417502,16.9668181 20.3417502,16.7557698 L20.3417502,9.38233386 C20.3417502,9.17128557 20.165363,9 19.9480288,9 C19.7306945,9 19.5543073,9.17128557 19.5543073,9.38233386 L19.5543073,16.7557698 C19.5543073,16.9668181 19.7306945,17.1381036 19.9480288,17.1381036 L19.9480288,17.1381036 Z" id="Fill-190" fill="#0F94F7"></path>
                    </g>
                </g>
            </g>
        </g>
    </g>
</svg>