<?xml version="1.0" encoding="UTF-8" standalone="no"?>
<svg width="22px" height="24px" viewBox="0 0 22 24" version="1.1" xmlns="http://www.w3.org/2000/svg" xmlns:xlink="http://www.w3.org/1999/xlink">
    <!-- Generator: Sketch 3.6.1 (26313) - http://www.bohemiancoding.com/sketch -->
    <title>平台</title>
    <desc>Created with Sketch.</desc>
    <defs></defs>
    <g id="Page-1" stroke="none" stroke-width="1" fill="none" fill-rule="evenodd">
        <g id="看板" transform="translate(-39.000000, -420.000000)" stroke-width="2" stroke="#A6AAB2">
            <g id="Side-bar">
                <g id="icon" transform="translate(38.000000, 67.000000)">
                    <g id="平台" transform="translate(2.000000, 354.000000)">
                        <g id="Group">
                            <path d="M9,12 C6.176,12 3.671,12.638 2.025,13.193 C0.81,13.604 0,14.749 0,16.032 L0,20 L9,20" id="Shape"></path>
                            <path d="M9,12 L9,12 C6.239,12 4,8.761 4,6 L4,5 C4,2.239 6.239,0 9,0 L9,0 C11.761,0 14,2.239 14,5 L14,6 C14,8.761 11.761,12 9,12 L9,12 Z" id="Shape"></path>
                            <path d="M14.858,18.515 L18.142,20.485" id="Shape"></path>
                            <path d="M14.858,17.485 L18.142,15.515" id="Shape"></path>
                            <circle id="Oval" cx="14" cy="18" r="1"></circle>
                            <circle id="Oval" cx="19" cy="15" r="1"></circle>
                            <circle id="Oval" cx="19" cy="21" r="1"></circle>
                        </g>
                    </g>
                </g>
            </g>
        </g>
    </g>
</svg>