<?xml version="1.0" encoding="UTF-8" standalone="no"?>
<svg width="18px" height="18px" viewBox="0 0 18 18" version="1.1" xmlns="http://www.w3.org/2000/svg" xmlns:xlink="http://www.w3.org/1999/xlink">
    <!-- Generator: Sketch 3.6.1 (26313) - http://www.bohemiancoding.com/sketch -->
    <title>search</title>
    <desc>Created with Sketch.</desc>
    <defs></defs>
    <g id="Page-1" stroke="none" stroke-width="1" fill="none" fill-rule="evenodd">
        <g id="шо╛шоб" transform="translate(-965.000000, -29.000000)" fill="#9B9B9B">
            <g id="Top-bar">
                <g id="search" transform="translate(757.000000, 23.000000)">
                    <path d="M225.906846,23.4608508 L219.515964,17.1102635 C220.623644,15.9287687 221.307412,14.3500725 221.307412,12.6121589 C221.307412,8.96616277 218.322655,6 214.653282,6 C210.984333,6 208,8.96616277 208,12.6121589 C208,16.2573127 210.984333,19.2238967 214.653282,19.2238967 C216.344687,19.2238967 217.885603,18.5882904 219.061108,17.5516919 L225.4575,23.9077549 C225.519391,23.9692516 225.600782,24 225.682597,24 C225.763564,24 225.844531,23.9692516 225.906846,23.9077549 C226.031051,23.7843403 226.031051,23.5842655 225.906846,23.4608508 L225.906846,23.4608508 Z M214.653282,18.5920812 C211.334907,18.5920812 208.635866,15.9089718 208.635866,12.6121589 C208.635866,9.31450367 211.334907,6.63181542 214.653282,6.63181542 C217.971657,6.63181542 220.671546,9.31450367 220.671546,12.6121589 C220.671546,15.9089718 217.971657,18.5920812 214.653282,18.5920812 L214.653282,18.5920812 Z"></path>
                </g>
            </g>
        </g>
    </g>
</svg>