<?xml version="1.0" encoding="UTF-8" standalone="no"?>
<svg width="22px" height="22px" viewBox="0 0 22 22" version="1.1" xmlns="http://www.w3.org/2000/svg" xmlns:xlink="http://www.w3.org/1999/xlink">
    <!-- Generator: Sketch 3.6.1 (26313) - http://www.bohemiancoding.com/sketch -->
    <title>setting</title>
    <desc>Created with Sketch.</desc>
    <defs></defs>
    <g id="Page-1" stroke="none" stroke-width="1" fill="none" fill-rule="evenodd">
        <g id="Euler-Dashboard" transform="translate(-1174.000000, -27.000000)">
            <g id="Top-bar">
                <g id="setting" transform="translate(1165.000000, 18.000000)">
                    <rect id="Rectangle-868-Copy" x="0" y="0" width="40" height="40"></rect>
                    <path d="M30.0010598,18.1697322 L28.5497986,18.1697322 C28.3845176,18.1697322 28.183486,18.0205129 28.1233838,17.8241445 L27.2695179,15.7537269 C27.1928358,15.6133157 27.22755,15.3640988 27.3415369,15.25063 L28.3648289,14.2263018 C28.5549799,14.0382233 28.6591225,13.7869339 28.6591225,13.5201008 C28.6591225,13.2522315 28.5549799,13.0014602 28.3663833,12.8138998 L27.1866183,11.6299899 C26.8109795,11.258496 26.1555545,11.2569417 25.7757707,11.6320624 L24.7519606,12.6594993 C24.6410824,12.7693413 24.4473046,12.8382516 24.2048232,12.713384 L22.1359601,11.8641812 C21.9800052,11.8180683 21.8333765,11.6175549 21.8333765,11.4517557 L21.8333765,9.99997645 C21.8333765,9.4486941 21.3836462,9 20.8313276,9 L19.1660818,9 C18.6158357,9 18.1681779,9.4486941 18.1681779,9.99997645 L18.1681779,11.4517557 C18.1681779,11.61341 18.0153317,11.8180683 17.822072,11.8771343 L15.7526907,12.7320365 C15.6174607,12.8066461 15.3583995,12.7693413 15.2485575,12.6605356 L14.2216387,11.6325805 C13.8449636,11.258496 13.1874661,11.258496 12.8107911,11.6336167 L11.6310261,12.8128636 C11.4413933,13.0014602 11.3372507,13.2522315 11.3372507,13.5201008 C11.3372507,13.7869339 11.4413933,14.0382233 11.6299899,14.2252655 L12.6558724,15.2516662 C12.7698594,15.3646169 12.806128,15.6138339 12.7107934,15.7931043 L11.8626269,17.8614493 C11.8154777,18.0168861 11.6118556,18.1697322 11.4507195,18.1697322 L9.99738584,18.1697322 C9.44713973,18.1697322 9,18.6184263 9,19.1691906 L9,20.8359907 C9,21.3862368 9.44713973,21.8349309 9.99738584,21.8349309 L11.4507195,21.8349309 C11.6118556,21.8349309 11.8154777,21.9872589 11.8755799,22.1789642 L12.7289277,24.2483455 C12.8076823,24.3918655 12.77245,24.6369374 12.6558724,24.7524787 L11.6310261,25.776807 C11.4413933,25.9654035 11.3372507,26.2172111 11.3372507,26.4855985 C11.3372507,26.753986 11.4424295,27.0047573 11.6299899,27.1907633 L12.8118273,28.3746732 C13.191093,28.7451308 13.8459999,28.7446127 14.2226749,28.3700101 L15.2485575,27.3430913 C15.3568451,27.2348037 15.5501048,27.1664115 15.792068,27.2917972 L17.8593768,28.1399637 C18.0153317,28.1855585 18.1681779,28.3896988 18.1681779,28.5518711 L18.1681779,30.0031323 C18.1681779,30.5549328 18.6158357,31.0031087 19.1660818,31.0031087 L20.8313276,31.0031087 C21.3836462,31.0031087 21.8333765,30.5549328 21.8333765,30.0031323 L21.8333765,28.5518711 C21.8333765,28.3860719 21.9800052,28.1855585 22.1743011,28.1264925 L24.2452368,27.2731448 C24.3794305,27.1985351 24.6426368,27.2353218 24.7509244,27.3430913 L25.7757707,28.3715645 C26.1514095,28.7472033 26.8120157,28.7477214 27.1886908,28.3715645 L28.3648289,27.1923177 C28.5539436,27.0047573 28.6591225,26.753986 28.6591225,26.4855985 C28.6591225,26.2172111 28.5549799,25.9654035 28.3658651,25.7778432 L27.3405007,24.7540331 C27.22755,24.6405643 27.1928358,24.389793 27.2886884,24.2094864 L28.136855,22.1411413 C28.183486,21.9841502 28.3845176,21.8349309 28.5497986,21.8349309 L30.0010598,21.8349309 C30.5513059,21.8349309 31,21.3862368 31,20.8359907 L31,19.1691906 C31,18.6184263 30.5513059,18.1697322 30.0010598,18.1697322 L30.0010598,18.1697322 Z M30.2222981,20.8359907 C30.2222981,20.955677 30.120228,21.0577471 30.0010598,21.0577471 L28.5497986,21.0577471 C28.0435929,21.0577471 27.5347966,21.4370128 27.405266,21.8831163 L26.5887049,23.8747792 C26.3467417,24.3162196 26.4332682,24.9426297 26.7897365,25.3027249 L27.8171734,26.3280893 C27.8736488,26.3840465 27.8819387,26.4503662 27.8819387,26.4850804 C27.8819387,26.5197946 27.8731306,26.5855962 27.8161372,26.6420715 L26.6384447,27.8218365 C26.5275665,27.9327147 26.436895,27.9321966 26.3265349,27.8223546 L25.3001342,26.7933633 C25.0840772,26.5773062 24.7680224,26.453475 24.4343515,26.453475 C24.2307294,26.453475 24.0353972,26.5011422 23.9100115,26.5726431 L21.9162761,27.3943854 C21.4339041,27.5373872 21.0561927,28.0456654 21.0561927,28.5518711 L21.0561927,30.0031323 C21.0561927,30.124373 20.9530864,30.225925 20.8313276,30.225925 L19.1660818,30.225925 C19.044323,30.225925 18.9453616,30.1264454 18.9453616,30.0031323 L18.9453616,28.5518711 C18.9453616,28.0461836 18.5650597,27.5373872 18.1168837,27.4078566 L16.1267752,26.5918137 C15.9620122,26.5011422 15.76668,26.453475 15.563576,26.453475 C15.2309413,26.453475 14.9159228,26.5773062 14.6998658,26.7938814 L13.6745013,27.8192459 C13.5900473,27.9026636 13.4372012,27.8995549 13.3584466,27.8223546 L12.1781635,26.6405172 C12.1227244,26.5855962 12.1144344,26.5197946 12.1144344,26.4850804 C12.1144344,26.4503662 12.1227244,26.3840465 12.1797179,26.3280893 L13.2061186,25.3027249 C13.5625868,24.9457384 13.6527402,24.3188102 13.4289112,23.9136384 L12.6071689,21.919903 C12.4626128,21.4364947 11.9548527,21.0577471 11.4507195,21.0577471 L9.99738584,21.0577471 C9.87821766,21.0577471 9.77718377,20.955677 9.77718377,20.8359907 L9.77718377,19.1691906 C9.77718377,19.0489861 9.87821766,18.946916 9.99738584,18.946916 L11.4507195,18.946916 C11.9548527,18.946916 12.4626128,18.5676503 12.5942159,18.1199925 L13.4097407,16.1283295 C13.6537764,15.6853348 13.5636231,15.0578884 13.2045642,14.700902 L12.1781635,13.6750194 C12.1367137,13.6340878 12.1144344,13.5786486 12.1144344,13.5195827 C12.1144344,13.4605167 12.1367137,13.4050776 12.1797179,13.3631097 L13.3600009,12.1838628 C13.4434187,12.1014814 13.5921198,12.1025176 13.6729469,12.1833447 L14.6998658,13.2097454 C14.9169591,13.4268387 15.2324957,13.5511881 15.5661666,13.5511881 C15.7682344,13.5511881 15.9625303,13.5035209 16.0873978,13.43202 L18.0790608,12.6092414 C18.5650597,12.4662396 18.9453616,11.9574433 18.9453616,11.4517557 L18.9453616,9.99997645 C18.9453616,9.87769954 19.044323,9.77718377 19.1660818,9.77718377 L20.8313276,9.77718377 C20.9530864,9.77718377 21.0561927,9.8792539 21.0561927,9.99997645 L21.0561927,11.4517557 C21.0561927,11.9584795 21.4339041,12.4672759 21.8784532,12.5957702 L23.8706342,13.4133676 C24.3048209,13.6517039 24.9493653,13.5594781 25.3011705,13.2092273 L26.3244624,12.1828266 C26.4068439,12.1004451 26.5586538,12.1025176 26.6384447,12.1807541 L27.8171734,13.3636278 C27.8586232,13.4050776 27.8819387,13.4605167 27.8819387,13.5195827 C27.8819387,13.5786486 27.8586232,13.6340878 27.8166553,13.6760557 L26.7928452,14.700902 C26.4348225,15.0578884 26.3446692,15.6853348 26.5705706,16.0889522 L27.3917948,18.0821695 C27.5342785,18.5671322 28.0435929,18.946916 28.5497986,18.946916 L30.0010598,18.946916 C30.120228,18.946916 30.2222981,19.0489861 30.2222981,19.1691906 L30.2222981,20.8359907 L30.2222981,20.8359907 Z M19.9997409,16.959398 C18.3225784,16.959398 16.9578437,18.3241327 16.9578437,20.0018134 C16.9578437,21.6794941 18.3225784,23.0437107 19.9997409,23.0437107 C21.6763854,23.0437107 23.040602,21.6794941 23.040602,20.0018134 C23.040602,18.3241327 21.6763854,16.959398 19.9997409,16.959398 L19.9997409,16.959398 Z M19.9997409,22.2665269 C18.7510657,22.2665269 17.7350274,21.2510068 17.7350274,20.0018134 C17.7350274,18.7526201 18.7510657,17.7365818 19.9997409,17.7365818 C21.2473799,17.7365818 22.2634182,18.7526201 22.2634182,20.0018134 C22.2634182,21.2510068 21.2473799,22.2665269 19.9997409,22.2665269 L19.9997409,22.2665269 Z" id="Fill-185" fill="#0F94F7"></path>
                </g>
            </g>
        </g>
    </g>
</svg>