<?xml version="1.0" encoding="UTF-8" standalone="no"?>
<svg width="19px" height="28px" viewBox="0 0 19 28" version="1.1" xmlns="http://www.w3.org/2000/svg" xmlns:xlink="http://www.w3.org/1999/xlink">
    <!-- Generator: Sketch 3.6.1 (26313) - http://www.bohemiancoding.com/sketch -->
    <title>sheji</title>
    <desc>Created with Sketch.</desc>
    <defs></defs>
    <g id="Page-1" stroke="none" stroke-width="1" fill="none" fill-rule="evenodd">
        <g id="Euler-Dashboard" transform="translate(-40.000000, -366.000000)">
            <g id="Side-bar">
                <g id="icon" transform="translate(0.000000, 74.000000)">
                    <g id="sheji" transform="translate(0.000000, 280.000000)">
                        <rect id="Rectangle-10" fill-opacity="0" fill="#3B4250" x="0" y="0" width="100" height="70" rx="1"></rect>
                        <path d="M51.3087236,37.5919156 L47.6948143,37.5919156 C47.0267511,37.5919156 46.4836918,38.1310745 46.4836918,38.7932828 C46.4836918,39.4590578 47.0267511,40 47.6948143,40 L51.3087236,40 C51.9750178,40 52.5174875,39.4590578 52.5174875,38.7932828 C52.5174875,38.1310745 51.9750178,37.5919156 51.3087236,37.5919156 L51.3087236,37.5919156 Z M51.3087236,39.108337 L47.6948143,39.108337 C47.5143841,39.108337 47.3681532,38.9674543 47.3681532,38.7932828 C47.3681532,38.622678 47.5143841,38.4835785 47.6948143,38.4835785 L51.3087236,38.4835785 C51.4873848,38.4835785 51.6330261,38.622678 51.6330261,38.7932828 C51.6330261,38.9674543 51.4873848,39.108337 51.3087236,39.108337 L51.3087236,39.108337 Z M49.4997052,12 C44.2619247,12 40,16.2912766 40,21.5657601 C40,24.5558032 41.3508674,27.3116362 43.7082519,29.1389508 C43.7312479,29.1627285 43.7571921,29.1841284 43.7860845,29.2025561 C43.8108494,29.2192005 43.834435,29.2388171 43.8945784,29.2863724 C44.6056854,29.8499034 45.4347205,31.0328429 45.4347205,32.5112201 L45.4347205,33.2156338 C45.4347205,33.4617328 45.6334295,33.6614653 45.8769512,33.6614653 L53.1230488,33.6614653 C53.3677497,33.6614653 53.5658691,33.4617328 53.5658691,33.2156338 L53.5658691,32.5112201 C53.5658691,30.7873384 54.5812308,29.6359043 55.1814853,29.2269282 C55.2003538,29.2144449 55.2174534,29.2001783 55.2333737,29.1853173 C57.6279055,27.3591916 59,24.5843365 59,21.5657601 C59,16.2912766 54.7380753,12 49.4997052,12 L49.4997052,12 Z M54.6673184,28.4993313 C54.6608323,28.5040868 54.6537566,28.5094368 54.6472706,28.5153812 C53.6619806,29.2073116 52.6814077,30.699361 52.6814077,32.5112201 L52.6814077,32.7698023 L49.9431152,32.7698023 L49.9431152,24.112944 C50.7674332,23.9108337 51.3841976,23.164809 51.3841976,22.2719572 C51.3841976,21.2245505 50.5386525,20.3727151 49.5008845,20.3727151 C48.4619371,20.3727151 47.6169817,21.2245505 47.6169817,22.2719572 C47.6169817,23.164809 48.2331564,23.9108337 49.0586538,24.112944 L49.0586538,32.7698023 L46.319182,32.7698023 L46.319182,32.5112201 C46.319182,30.7130331 45.3079477,29.2727003 44.4671198,28.6075197 C44.4582751,28.5991975 44.4116935,28.5611532 44.4022593,28.5534255 C44.3804425,28.5367811 44.3592155,28.5207312 44.338578,28.5046812 C44.3261956,28.4933868 44.3132235,28.4820924 44.2990721,28.4719869 C42.1297831,26.8152772 40.8844614,24.2978154 40.8844614,21.5657601 C40.8844614,16.7828801 44.7495578,12.891663 49.4997052,12.891663 C54.2498526,12.891663 58.1155386,16.7828801 58.1155386,21.5657601 C58.1155386,24.3162431 56.8584241,26.8426215 54.6673184,28.4993313 L54.6673184,28.4993313 Z M49.5008845,23.2789419 C48.9495702,23.2789419 48.5014431,22.8277604 48.5014431,22.2719572 C48.5014431,21.7167484 48.9495702,21.2643781 49.5008845,21.2643781 C50.0510195,21.2643781 50.4997362,21.7167484 50.4997362,22.2719572 C50.4997362,22.8277604 50.0510195,23.2789419 49.5008845,23.2789419 L49.5008845,23.2789419 Z M52.268659,34.2184574 L46.7307513,34.2184574 C46.0638674,34.2184574 45.5202185,34.7582107 45.5202185,35.4210135 C45.5202185,36.0844108 46.0638674,36.6247585 46.7307513,36.6247585 L52.268659,36.6247585 C52.9367222,36.6247585 53.4809608,36.0844108 53.4809608,35.4210135 C53.4809608,34.7582107 52.9367222,34.2184574 52.268659,34.2184574 L52.268659,34.2184574 Z M52.268659,35.7330956 L46.7307513,35.7330956 C46.5544487,35.7330956 46.4046799,35.589835 46.4046799,35.4210135 C46.4046799,35.252192 46.5544487,35.1101204 46.7307513,35.1101204 L52.268659,35.1101204 C52.4467306,35.1101204 52.5964994,35.252192 52.5964994,35.4210135 C52.5964994,35.5928073 52.4496788,35.7330956 52.268659,35.7330956 L52.268659,35.7330956 Z" fill="#0F94F7"></path>
                    </g>
                </g>
            </g>
        </g>
    </g>
</svg>