<?xml version="1.0" encoding="UTF-8" standalone="no"?>
<svg width="24px" height="24px" viewBox="0 0 24 24" version="1.1" xmlns="http://www.w3.org/2000/svg" xmlns:xlink="http://www.w3.org/1999/xlink">
    <!-- Generator: Sketch 3.6.1 (26313) - http://www.bohemiancoding.com/sketch -->
    <title>shengchan</title>
    <desc>Created with Sketch.</desc>
    <defs></defs>
    <g id="Page-1" stroke="none" stroke-width="1" fill="none" fill-rule="evenodd">
        <g id="Euler-Dashboard" transform="translate(-38.000000, -650.000000)">
            <g id="Side-bar">
                <g id="icon" transform="translate(0.000000, 74.000000)">
                    <g id="shengchan" transform="translate(0.000000, 560.000000)">
                        <rect id="Rectangle-10" fill-opacity="0" fill="#3B4250" x="0" y="0" width="100" height="70" rx="1"></rect>
                        <path d="M38.524527,36.7158149 L61.4753872,36.7158149 C61.6623667,36.7158149 61.83464,36.618149 61.9291802,36.4585823 C62.0230201,36.2997034 62.0237204,36.1029962 61.9305808,35.9434295 L50.4555008,16.240382 C50.267821,15.9191852 49.729292,15.9205608 49.5423125,16.240382 L38.0693334,35.9434295 C37.9761938,36.1029962 37.9768941,36.2997034 38.0714343,36.4585823 C38.1645739,36.618149 38.3375475,36.7158149 38.524527,36.7158149 L38.524527,36.7158149 Z M49.9996069,17.5354858 L60.5699021,35.6841337 L39.4300121,35.6841337 L49.9996069,17.5354858 L49.9996069,17.5354858 Z M61.4753872,38.9683188 L38.524527,38.9683188 C38.235304,38.9683188 38.0000039,39.1994154 38.0000039,39.4841594 C38.0000039,39.7689034 38.235304,40 38.524527,40 L61.4753872,40 C61.7653105,40 61.9999102,39.7689034 61.9999102,39.4841594 C61.9999102,39.1994154 61.7653105,38.9683188 61.4753872,38.9683188 L61.4753872,38.9683188 Z" fill="#0F94F7"></path>
                    </g>
                </g>
            </g>
        </g>
    </g>
</svg>