<?xml version="1.0" encoding="UTF-8" standalone="no"?>
<svg width="27px" height="23px" viewBox="0 0 27 23" version="1.1" xmlns="http://www.w3.org/2000/svg" xmlns:xlink="http://www.w3.org/1999/xlink">
    <!-- Generator: Sketch 3.6.1 (26313) - http://www.bohemiancoding.com/sketch -->
    <title>shichang</title>
    <desc>Created with Sketch.</desc>
    <defs></defs>
    <g id="Page-1" stroke="none" stroke-width="1" fill="none" fill-rule="evenodd">
        <g id="Euler-Dashboard" transform="translate(-36.000000, -301.000000)">
            <g id="Side-bar">
                <g id="icon" transform="translate(0.000000, 74.000000)">
                    <g id="shichang" transform="translate(0.000000, 210.000000)">
                        <rect id="Rectangle-10" fill-opacity="0" fill="#3B4250" x="0" y="0" width="100" height="70" rx="1"></rect>
                        <path d="M60.8590504,36.3882337 C60.77766,36.225345 60.6123357,36.122738 60.4323866,36.122738 L38.5676134,36.122738 C38.3870284,36.122738 38.2229758,36.225345 38.1409496,36.3882337 L36.6930903,39.3041963 C36.6199661,39.4529764 36.6275964,39.6299735 36.7147096,39.7723407 C36.8005511,39.9140666 36.9550657,40 37.12039,40 L61.87961,40 C62.0455702,40 62.1994489,39.9140666 62.2852904,39.7723407 C62.3724036,39.6299735 62.3800339,39.4529764 62.3062738,39.3041963 L60.8590504,36.3882337 L60.8590504,36.3882337 Z M37.8916914,39.0380594 L38.8626537,37.0846787 L60.1379822,37.0846787 L61.1076727,39.0380594 L37.8916914,39.0380594 L37.8916914,39.0380594 Z M39.7331496,28.6099819 C41.125053,28.6099819 42.3459093,27.8301687 42.9887664,26.6809703 C43.6290801,27.8301687 44.8512081,28.6099819 46.2443832,28.6099819 C47.6369224,28.6099819 48.8577787,27.8301687 49.4993641,26.6809703 C50.1396778,27.8301687 51.36117,28.6099819 52.7549809,28.6099819 C54.148156,28.6099819 55.370284,27.83081 56.0112336,26.6816116 C56.652819,27.8301687 57.8736753,28.6099819 59.2674862,28.6099819 C61.3251378,28.6099819 63,26.9214555 63,24.8462289 L62.9980924,24.6743622 C62.9942772,24.6301129 62.9910979,24.5884288 62.9891903,24.5544403 C63.0025435,24.3992472 62.9275117,24.115154 62.7214922,23.3289279 L61.069521,18.3479994 C60.8743111,17.5919141 60.1150911,17 59.3406104,17 L39.6612972,17 C38.8855447,17 38.1263247,17.5919141 37.9419245,18.3140109 L36.3440017,23.040987 C36.2460788,23.4231981 36.0782111,24.0766764 36.0610428,24.1709466 C36.0483256,24.2446954 36.0260704,24.4332357 36.0235269,24.4332357 L36.0235269,24.429388 L36,24.8462289 C36,26.9214555 37.6742264,28.6099819 39.7331496,28.6099819 L39.7331496,28.6099819 Z M36.9512505,24.7622194 C36.9633319,24.6288303 36.972234,24.5140388 36.972234,24.5140388 L36.972234,24.5281472 C36.9747774,24.5069845 36.9919457,24.3844974 36.9995761,24.3440959 C37.0161085,24.2626516 37.1350148,23.7977136 37.2564646,23.3180259 L38.8537516,18.5910498 C38.9408648,18.2556531 39.3172955,17.9619406 39.6612972,17.9619406 L59.3406104,17.9619406 C59.6833404,17.9619406 60.0610428,18.2556531 60.1564222,18.6224732 L61.8083934,23.6040429 C61.9152183,24.0099819 62.0016956,24.3582044 62.0315812,24.4947999 C62.0315812,24.5640597 62.0385757,24.6384497 62.046206,24.7179702 L62.046206,24.8462289 C62.046206,26.3911055 60.7992794,27.6480413 59.2674862,27.6480413 C57.7465028,27.6480413 56.4989402,26.3988011 56.4881306,24.8648264 C56.4855871,24.6006134 56.273209,24.3877039 56.0112336,24.3877039 C55.7486223,24.3877039 55.5356083,24.6012547 55.5343366,24.8654677 C55.5235269,26.3994424 54.2759644,27.6480413 52.7549809,27.6480413 C51.2339975,27.6480413 49.9883425,26.3994424 49.9775329,24.8654677 C49.9756253,24.6012547 49.7626113,24.3877039 49.5006359,24.3877039 C49.2386604,24.3877039 49.0262823,24.6006134 49.0237389,24.8648264 C49.0110216,26.3988011 47.7647308,27.6480413 46.2443832,27.6480413 C44.7233997,27.6480413 43.4764731,26.3994424 43.4662993,24.8654677 C43.4637558,24.6012547 43.2513777,24.3877039 42.9894023,24.3877039 L42.9887664,24.3877039 C42.726791,24.3877039 42.5150487,24.6006134 42.5125053,24.8648264 C42.5004239,26.3988011 41.2534972,27.6480413 39.7331496,27.6480413 C38.2007206,27.6480413 36.953794,26.3911055 36.953794,24.8462289 L36.9512505,24.7622194 L36.9512505,24.7622194 Z M59.7850784,29.8701241 L59.7850784,34.677262 C59.7850784,34.9427576 59.9980924,35.1582323 60.2619754,35.1582323 C60.5252226,35.1582323 60.7388724,34.9427576 60.7388724,34.677262 L60.7388724,29.8701241 C60.7388724,29.6046285 60.5252226,29.3891538 60.2619754,29.3891538 C59.9980924,29.3891538 59.7850784,29.6046285 59.7850784,29.8701241 L59.7850784,29.8701241 Z M38.0913523,29.8701241 L38.0913523,34.677262 C38.0913523,34.9427576 38.3050021,35.1582323 38.5676134,35.1582323 C38.8314964,35.1582323 39.0451462,34.9427576 39.0451462,34.677262 L39.0451462,29.8701241 C39.0451462,29.6046285 38.8314964,29.3891538 38.5676134,29.3891538 C38.3050021,29.3891538 38.0913523,29.6046285 38.0913523,29.8701241 L38.0913523,29.8701241 Z" fill="#A6AAB2"></path>
                    </g>
                </g>
            </g>
        </g>
    </g>
</svg>