<?xml version="1.0" encoding="UTF-8" standalone="no"?>
<svg width="24px" height="20px" viewBox="0 0 24 20" version="1.1" xmlns="http://www.w3.org/2000/svg" xmlns:xlink="http://www.w3.org/1999/xlink">
    <!-- Generator: Sketch 3.6.1 (26313) - http://www.bohemiancoding.com/sketch -->
    <title>租户</title>
    <desc>Created with Sketch.</desc>
    <defs></defs>
    <g id="Page-1" stroke="none" stroke-width="1" fill="none" fill-rule="evenodd">
        <g id="看板" transform="translate(-38.000000, -353.000000)">
            <g id="Side-bar">
                <g id="icon" transform="translate(38.000000, 67.000000)">
                    <g id="租户" transform="translate(1.000000, 287.000000)">
                        <g id="Group">
                            <path d="M14,8 L18,8" id="Shape" stroke="#A6AAB2" stroke-width="2"></path>
                            <path d="M14,12 L18,12" id="Shape" stroke="#A6AAB2" stroke-width="2"></path>
                            <path d="M3,14 C3,12.343 4.343,11 6,11 L8,11 C9.657,11 11,12.343 11,14 L3,14 L3,14 Z" id="Shape" fill="#A6AAB2"></path>
                            <path d="M18,0 C18,1.105 17.105,2 16,2 C14.895,2 14,1.105 14,0 L8,0 C8,1.105 7.105,2 6,2 C4.895,2 4,1.105 4,0 L0,0 L0,18 L22,18 L22,0 L18,0 L18,0 Z" id="Shape" stroke="#A6AAB2" stroke-width="2"></path>
                            <circle id="Oval" fill="#A6AAB2" cx="7" cy="8" r="2"></circle>
                        </g>
                    </g>
                </g>
            </g>
        </g>
    </g>
</svg>