<?xml version="1.0" encoding="UTF-8" standalone="no"?>
<svg width="32px" height="21px" viewBox="0 0 32 21" version="1.1" xmlns="http://www.w3.org/2000/svg" xmlns:xlink="http://www.w3.org/1999/xlink">
    <!-- Generator: Sketch 3.6.1 (26313) - http://www.bohemiancoding.com/sketch -->
    <title>yufa</title>
    <desc>Created with Sketch.</desc>
    <defs></defs>
    <g id="Page-1" stroke="none" stroke-width="1" fill="none" fill-rule="evenodd">
        <g id="Euler-Dashboard" transform="translate(-34.000000, -583.000000)">
            <g id="Side-bar">
                <g id="icon" transform="translate(0.000000, 74.000000)">
                    <g id="yufa" transform="translate(0.000000, 490.000000)">
                        <rect id="Rectangle-10" fill-opacity="0" fill="#3B4250" x="0" y="0" width="100" height="70" rx="1"></rect>
                        <path d="M65.9904365,19.3962141 C65.9841184,19.3634691 65.9733775,19.3333437 65.9613731,19.3025635 C65.9512641,19.2783322 65.9411551,19.2554107 65.9291506,19.233799 C65.9240961,19.2252853 65.9215689,19.2154619 65.9165144,19.2069482 C65.9045099,19.1905757 65.8887146,19.1794424 65.8754465,19.1650346 C65.8577558,19.1440778 65.8413286,19.1250858 65.8217424,19.1087133 C65.7971017,19.0884114 65.7711974,19.0746585 65.7446613,19.0602507 C65.7244433,19.0491174 65.7035934,19.0366744 65.6808482,19.0288156 C65.6479939,19.0170274 65.6145078,19.013098 65.5797581,19.0091686 C65.5626992,19.0072039 65.5475357,19 65.5304767,19 L65.5292131,19 L34.4730835,19.0563213 C34.2904896,19.0569762 34.123691,19.1663444 34.0453462,19.337928 C33.9670014,19.5095116 33.9916421,19.7131853 34.1078957,19.8592278 L39.5787633,26.7526976 L38.9362096,33.1451693 C38.9191507,33.3187176 38.9905455,33.4883366 39.1251217,33.5911557 C39.2091528,33.6553359 39.3077156,33.6874259 39.407542,33.6874259 C39.4694597,33.6874259 39.532641,33.6749828 39.5920314,33.6487869 L43.3879631,31.9827231 L48.1031825,39.7694755 C48.1821591,39.9011102 48.3167352,39.9862471 48.4664749,39.9980353 C48.4797429,39.9993451 48.4911156,40 48.5050155,40 C48.6395916,40 48.7703769,39.9397493 48.8600943,39.8336556 L65.8861874,19.8160045 C65.8931373,19.8068359 65.8962964,19.7957026 65.9032463,19.786534 C65.917778,19.7655772 65.9310461,19.7433107 65.9424187,19.7203892 C65.9569504,19.6922285 65.9695867,19.6653777 65.978432,19.6352523 C65.985382,19.6123308 65.9898047,19.5900642 65.9929637,19.565833 C65.9980182,19.5317782 65.9992819,19.4990332 65.9980182,19.4656334 C65.9967546,19.4518805 66.0018091,19.4400923 65.9992819,19.4263394 C65.9980182,19.4152061 65.9917001,19.4073473 65.9904365,19.3962141 L65.9904365,19.3962141 Z M35.4764024,20.0367055 L61.9259843,19.988243 L40.2421668,26.0427868 L35.4764024,20.0367055 L35.4764024,20.0367055 Z M40.50816,26.9858417 L58.1749113,22.0537953 L42.1932049,28.7737167 C42.0718969,28.7927088 41.9588024,28.8581987 41.8817212,28.9675669 L40.0500957,31.541321 L40.50816,26.9858417 L40.50816,26.9858417 Z M40.8935659,32.0108838 L42.2506999,30.104472 L42.8780901,31.1405227 L40.8935659,32.0108838 L40.8935659,32.0108838 Z M48.5688286,38.6908564 L43.00003,29.4941059 L63.8454318,20.729589 L48.5688286,38.6908564 L48.5688286,38.6908564 Z" id="yufa-" fill="#A6AAB2"></path>
                    </g>
                </g>
            </g>
        </g>
    </g>
</svg>