<?xml version="1.0" encoding="UTF-8" standalone="no"?>
<svg width="20px" height="25px" viewBox="0 0 20 25" version="1.1" xmlns="http://www.w3.org/2000/svg" xmlns:xlink="http://www.w3.org/1999/xlink">
    <!-- Generator: Sketch 3.6.1 (26313) - http://www.bohemiancoding.com/sketch -->
    <title>ziyuan</title>
    <desc>Created with Sketch.</desc>
    <defs></defs>
    <g id="Page-1" stroke="none" stroke-width="1" fill="none" fill-rule="evenodd">
        <g id="Euler-Dashboard" transform="translate(-40.000000, -229.000000)">
            <g id="Side-bar">
                <g id="icon" transform="translate(0.000000, 74.000000)">
                    <g id="ziyuan" transform="translate(0.000000, 140.000000)">
                        <rect id="Rectangle-10" fill-opacity="0" fill="#3B4250" x="0" y="0" width="100" height="70" rx="1"></rect>
                        <path d="M60,19.8494398 C60,17.1304211 55.6066031,15 50,15 C44.392183,15 40,17.1304211 40,19.8494398 C40,19.8959239 40.0115312,19.9412006 40.0139589,19.987081 C40.0121381,20.0003622 40.0060691,20.0118323 40.0060691,20.0257172 L40.0060691,24.8745533 C40.0048553,24.8993045 40,24.9246595 40,24.9500145 C40,24.9705399 40.0048553,24.9892543 40.0060691,25.0091761 L40.0060691,29.9733169 C40.0048553,29.9992756 40,30.0252342 40,30.0511929 C40,30.070511 40.0048553,30.089829 40.0060691,30.1091471 L40.0060691,34.8752777 C40.0060691,34.8939921 40.0145658,34.9102917 40.0169934,34.9296098 C40.0109243,35.0032599 40,35.0769101 40,35.1517676 C40,37.8707862 44.392183,40 50,40 C55.6066031,40 60,37.8707862 60,35.1517676 C60,35.084758 59.9890757,35.0189559 59.9830066,34.95255 C59.9884688,34.9265913 60,34.9024437 60,34.8752777 L60,20.0257172 C60,20.0051917 59.9902895,19.9876847 59.9878619,19.967763 C59.9890757,19.9279194 60,19.889887 60,19.8494398 L60,19.8494398 Z M50,39.0944654 C45.0725253,39.0944654 40.9103599,37.2888293 40.9103599,35.1517676 C40.9103599,34.2824544 41.6101232,33.5912296 42.2394853,33.1414807 C44.0589913,34.2214817 46.8349821,34.900029 50,34.900029 C53.1650179,34.900029 55.9422225,34.220878 57.7617285,33.140877 C58.4129392,33.6063218 59.0896401,34.2945282 59.0896401,35.1517676 C59.0896401,37.2888293 54.9262608,39.0944654 50,39.0944654 L50,39.0944654 Z M40.916429,33.0925819 L40.916429,32.1007196 C41.0766523,32.2715638 41.2581174,32.4369748 41.4571827,32.5951415 C41.2550828,32.755723 41.0766523,32.9223414 40.916429,33.0925819 L40.916429,33.0925819 Z M59.0896401,33.0980151 C58.9269891,32.9253598 58.7467379,32.757534 58.5428173,32.5951415 C58.7443103,32.43456 58.9263822,32.2679417 59.0896401,32.0946827 L59.0896401,33.0980151 L59.0896401,33.0980151 Z M57.5353523,32.2220612 C57.5268556,32.2268908 57.5201796,32.2329277 57.511683,32.2383609 C55.8590763,33.2893847 53.0782303,33.9944943 50,33.9944943 C45.1101535,33.9944943 40.9801542,32.2160243 40.916429,30.1000918 L40.916429,29.9938424 C40.9461674,29.1522989 41.6228682,28.4803922 42.2394853,28.0415097 C44.0589913,29.120907 46.8349821,29.800058 50,29.800058 C53.1650179,29.800058 55.9416156,29.120907 57.7605147,28.040906 C58.3995873,28.4972955 59.0896401,29.1873129 59.0896401,30.0511929 C59.0896401,30.8456486 58.511865,31.5942239 57.5353523,32.2220612 L57.5353523,32.2220612 Z M40.916429,27.9920071 L40.916429,27.0007486 C41.0766523,27.1715928 41.2581174,27.3364001 41.4571827,27.4951705 C41.2550828,27.6551483 41.0766523,27.8211629 40.916429,27.9920071 L40.916429,27.9920071 Z M59.0896401,27.998044 C58.9263822,27.8253888 58.7497724,27.655752 58.5452449,27.4933594 C58.7455241,27.3333816 58.9269891,27.1667633 59.0896401,26.9947117 L59.0896401,27.998044 L59.0896401,27.998044 Z M50,28.8945233 C45.1101535,28.8945233 40.9801542,27.1154496 40.916429,24.9989134 L40.916429,24.8950787 C40.9461674,24.0595721 41.611337,23.3888728 42.2394853,22.9397276 C44.0589913,24.0197286 46.8349821,24.6988796 50,24.6988796 C53.1650179,24.6988796 55.9416156,24.0197286 57.7605147,22.9397276 C58.4123323,23.4057761 59.0896401,24.0933787 59.0896401,24.9500145 C59.0896401,27.0876799 54.9262608,28.8945233 50,28.8945233 L50,28.8945233 Z M40.916429,22.8914324 L40.916429,21.9001739 C41.0766523,22.0704144 41.2569036,22.234618 41.4547551,22.3927847 C41.2520483,22.5539699 41.0778661,22.7211919 40.916429,22.8914324 L40.916429,22.8914324 Z M59.0896401,22.8974693 C58.9263822,22.7254178 58.7467379,22.557592 58.5422104,22.3951995 C58.7437033,22.2334106 58.9263822,22.0667922 59.0896401,21.894137 L59.0896401,22.8974693 L59.0896401,22.8974693 Z M57.5317109,22.0227229 C57.5256418,22.0269487 57.5207866,22.0311745 57.5141106,22.0354004 C55.8615039,23.0870279 53.0806579,23.7933449 50,23.7933449 C45.0725253,23.7933449 40.9103599,21.9871052 40.9103599,19.8494398 C40.9103599,17.7117744 45.0725253,15.9055346 50,15.9055346 C54.9262608,15.9055346 59.0896401,17.7117744 59.0896401,19.8494398 C59.0896401,20.6457066 58.5106512,21.3948855 57.5317109,22.0227229 L57.5317109,22.0227229 Z" fill="#0F94F7"></path>
                    </g>
                </g>
            </g>
        </g>
    </g>
</svg>