<?xml version="1.0" encoding="UTF-8" standalone="no"?>
<svg width="12px" height="12px" viewBox="0 0 12 12" version="1.1" xmlns="http://www.w3.org/2000/svg" xmlns:xlink="http://www.w3.org/1999/xlink">
    <!-- Generator: Sketch 3.6.1 (26313) - http://www.bohemiancoding.com/sketch -->
    <title>ui-color-1_settings</title>
    <desc>Created with Sketch.</desc>
    <defs></defs>
    <g id="Page-1" stroke="none" stroke-width="1" fill="none" fill-rule="evenodd">
        <g id="25构建定义浏览代码质量" transform="translate(-71.000000, -159.000000)">
            <g id="Group-3" transform="translate(50.000000, 120.000000)">
                <g id="Group-2-Copy" transform="translate(21.000000, 37.000000)">
                    <g id="ui-color-1_settings" transform="translate(0.000000, 2.000000)">
                        <g id="Group">
                            <path d="M5.2173913,4.77426894 L3.54011217,3.1326766 L3.76579304,2.46991149 C3.7971287,2.37815489 3.77267217,2.27692596 3.7028687,2.20860766 L2.22732783,0.764461277 C2.12542696,0.664728511 1.96034348,0.664728511 1.85844261,0.764461277 L0.382643478,2.20861021 C0.333730435,2.25648255 0.306216522,2.32131064 0.306216522,2.38912851 C0.306216522,2.45694638 0.333730435,2.52177447 0.382643478,2.56964681 L1.85844261,4.01404596 C1.90812,4.06266638 1.97486609,4.08884681 2.04288522,4.08884681 C2.07039913,4.08884681 2.09842174,4.08460851 2.12542696,4.07563149 L2.80237565,3.85478298 L4.47962087,5.49634213 C4.58151913,5.59607489 4.71501391,5.64594383 4.84850609,5.64594383 C4.98199826,5.64594383 5.11549043,5.59607745 5.2173913,5.49634213 C5.42119565,5.29687404 5.42119565,4.97373702 5.2173913,4.77426894 L5.2173913,4.77426894 Z" id="Shape" fill="#8E8E8E"></path>
                            <path d="M5.14866261,7.98216 L8.46196696,11.2249711 C9.18233739,11.9300145 10.3502896,11.9300145 11.07066,11.2249711 L11.0706626,11.2249685 C11.791033,10.5199251 11.791033,9.37682298 11.0706626,8.67177957 L7.75735826,5.42896851 L5.14866261,7.98216 L5.14866261,7.98216 Z" id="Shape" fill="#E86C60"></path>
                            <path d="M9.99660261,10.4289396 C9.92985652,10.4289396 9.86311043,10.4040051 9.81216,10.3541387 L7.60546957,8.19464681 C7.5035687,8.09491404 7.5035687,7.93334298 7.60546957,7.83361021 C7.70737043,7.73387745 7.87245391,7.73387745 7.97435478,7.83361021 L10.1810452,9.99310213 C10.2829461,10.0928349 10.2829461,10.254406 10.1810452,10.3541387 C10.1300948,10.4040051 10.0633487,10.4289396 9.99660261,10.4289396 L9.99660261,10.4289396 Z" id="Shape" fill="#C9514B"></path>
                            <path d="M11.7001539,2.36569021 C11.6721313,2.28116681 11.6013078,2.21708681 11.5131626,2.19614298 C11.4239974,2.17544936 11.3317774,2.20112936 11.2675774,2.26396085 L9.90056087,3.60164426 L8.42476174,2.15724511 L9.79177826,0.819561702 C9.85597565,0.756730213 9.88221652,0.665721702 9.86107043,0.579451915 C9.8396713,0.492931915 9.77419826,0.423617872 9.68783739,0.396191489 C9.28634348,0.268782128 8.8700713,0.222405957 8.45227304,0.257811064 C6.84807913,0.393699574 5.56538348,1.7864834 5.59289739,3.36203234 C5.59722783,3.60488426 5.63085652,3.84624 5.69352522,4.0813634 L0.80247913,8.30684936 C0.385445217,8.66738809 0.146483478,9.16555915 0.129161739,9.70960851 C0.11184,10.2536579 0.318954783,10.7652945 0.712296522,11.1502672 C1.09035391,11.5202809 1.58814522,11.721743 2.12007391,11.721743 C2.14147304,11.721743 2.16312783,11.7214928 2.18452696,11.7207447 C2.74040348,11.7037889 3.24940435,11.4696638 3.61752522,11.0617532 L7.9346113,6.27501702 C8.39597217,6.3932017 8.87058261,6.40566894 9.34875913,6.3129166 C10.4836904,6.0917566 11.4189026,5.24850383 11.7309783,4.16489362 C11.9026826,3.56798553 11.8922374,2.94589532 11.7001539,2.36569021 L11.7001539,2.36569021 Z M2.34782609,9.95744681 C2.05968261,9.95744681 1.82608696,9.72882128 1.82608696,9.44680851 C1.82608696,9.16478043 2.05968261,8.93617021 2.34782609,8.93617021 C2.63596957,8.93617021 2.86956522,9.16478043 2.86956522,9.44680851 C2.86956522,9.72882128 2.63596957,9.95744681 2.34782609,9.95744681 L2.34782609,9.95744681 Z" id="Shape" fill="#B3B3B3"></path>
                        </g>
                    </g>
                </g>
            </g>
        </g>
    </g>
</svg>