<?xml version="1.0" encoding="UTF-8" standalone="no"?>
<svg width="11px" height="14px" viewBox="0 0 11 14" version="1.1" xmlns="http://www.w3.org/2000/svg" xmlns:xlink="http://www.w3.org/1999/xlink">
    <!-- Generator: Sketch 3.6.1 (26313) - http://www.bohemiancoding.com/sketch -->
    <title>design-color-2_filter-organization</title>
    <desc>Created with Sketch.</desc>
    <defs></defs>
    <g id="Page-1" stroke="none" stroke-width="1" fill="none" fill-rule="evenodd">
        <g id="38机构人员" transform="translate(-49.000000, -135.000000)">
            <g id="Group-3" transform="translate(0.000000, 70.000000)">
                <g id="Group-2" transform="translate(36.000000, 62.000000)">
                    <g id="design-color-2_filter-organization" transform="translate(13.000000, 3.000000)">
                        <g id="Group">
                            <path d="M4.05263158,3.20833333 L4.05263158,2.625 L0.578947368,2.625 L0.578947368,0.291666667 C0.578947368,0.130666667 0.449263158,0 0.289473684,0 C0.129684211,0 0,0.130666667 0,0.291666667 L0,12.25 C0,12.411 0.129684211,12.5416667 0.289473684,12.5416667 L4.05263158,12.5416667 L4.05263158,11.9583333 L0.578947368,11.9583333 L0.578947368,7.875 L4.05263158,7.875 L4.05263158,7.29166667 L0.578947368,7.29166667 L0.578947368,3.20833333 L4.05263158,3.20833333 L4.05263158,3.20833333 Z" id="Shape" fill="#B3B3B3"></path>
                            <path d="M10.7105263,4.66666667 L4.34210526,4.66666667 C4.18231579,4.66666667 4.05263158,4.53629167 4.05263158,4.375 L4.05263158,1.45833333 C4.05263158,1.29704167 4.18231579,1.16666667 4.34210526,1.16666667 L10.7105263,1.16666667 C10.8703158,1.16666667 11,1.29704167 11,1.45833333 L11,4.375 C11,4.53629167 10.8703158,4.66666667 10.7105263,4.66666667 L10.7105263,4.66666667 Z" id="Shape" fill="#3CA8FF"></path>
                            <path d="M10.7105263,14 L4.34210526,14 C4.18231579,14 4.05263158,13.869625 4.05263158,13.7083333 L4.05263158,10.7916667 C4.05263158,10.630375 4.18231579,10.5 4.34210526,10.5 L10.7105263,10.5 C10.8703158,10.5 11,10.630375 11,10.7916667 L11,13.7083333 C11,13.869625 10.8703158,14 10.7105263,14 L10.7105263,14 Z" id="Shape" fill="#3CA8FF"></path>
                            <path d="M10.7105263,9.33333333 L4.34210526,9.33333333 C4.18231579,9.33333333 4.05263158,9.20295833 4.05263158,9.04166667 L4.05263158,6.125 C4.05263158,5.96370833 4.18231579,5.83333333 4.34210526,5.83333333 L10.7105263,5.83333333 C10.8703158,5.83333333 11,5.96370833 11,6.125 L11,9.04166667 C11,9.20295833 10.8703158,9.33333333 10.7105263,9.33333333 L10.7105263,9.33333333 Z" id="Shape" fill="#3CA8FF"></path>
                        </g>
                    </g>
                </g>
            </g>
        </g>
    </g>
</svg>