<?xml version="1.0" encoding="UTF-8" standalone="no"?>
<svg width="15px" height="13px" viewBox="0 0 15 13" version="1.1" xmlns="http://www.w3.org/2000/svg" xmlns:xlink="http://www.w3.org/1999/xlink">
    <!-- Generator: Sketch 3.6.1 (26313) - http://www.bohemiancoding.com/sketch -->
    <title>files-color_folder-17</title>
    <desc>Created with Sketch.</desc>
    <defs></defs>
    <g id="Page-1" stroke="none" stroke-width="1" fill="none" fill-rule="evenodd">
        <g id="19设计构建定义" transform="translate(-23.000000, -134.000000)">
            <g id="Group-3" transform="translate(10.000000, 130.000000)">
                <g id="Group-2-Copy-2">
                    <g id="files-color_folder-17" transform="translate(13.000000, 4.000000)">
                        <g id="Group">
                            <path d="M13.3695652,4.12195122 L1.63043478,4.12195122 L1.63043478,0.634146341 C1.63043478,0.283780488 1.92228261,0 2.2826087,0 L4.56521739,0 L5.86956522,1.26829268 L12.3913043,1.26829268 C12.9316304,1.26829268 13.3695652,1.69412195 13.3695652,2.2195122 L13.3695652,4.12195122 L13.3695652,4.12195122 Z" id="Shape" fill="#C7AA3D"></path>
                            <path d="M14.0217391,6.34146341 L0.97826087,6.34146341 L0.97826087,2.85365854 C0.97826087,2.67863415 1.12434783,2.53658537 1.30434783,2.53658537 L13.6956522,2.53658537 C13.8756522,2.53658537 14.0217391,2.67863415 14.0217391,2.85365854 L14.0217391,6.34146341 L14.0217391,6.34146341 Z" id="Shape" fill="#E6E6E6"></path>
                            <path d="M13.0901087,13 L1.9098913,13 C1.58804348,13 1.31413043,12.7717073 1.26521739,12.4622439 L0.0613043478,4.8524878 C0.000652173913,4.4685122 0.306195652,4.12195122 0.705978261,4.12195122 L14.2940217,4.12195122 C14.6938043,4.12195122 14.9993478,4.4685122 14.9386957,4.8524878 L13.7347826,12.4622439 C13.6855435,12.7717073 13.4119565,13 13.0901087,13 L13.0901087,13 Z" id="Shape" fill="#F9D44C"></path>
                        </g>
                    </g>
                </g>
            </g>
        </g>
    </g>
</svg>