<?xml version="1.0" encoding="UTF-8" standalone="no"?>
<svg width="14px" height="14px" viewBox="0 0 14 14" version="1.1" xmlns="http://www.w3.org/2000/svg" xmlns:xlink="http://www.w3.org/1999/xlink">
    <!-- Generator: Sketch 3.6.1 (26313) - http://www.bohemiancoding.com/sketch -->
    <title>users-color_single-05</title>
    <desc>Created with Sketch.</desc>
    <defs></defs>
    <g id="Page-1" stroke="none" stroke-width="1" fill="none" fill-rule="evenodd">
        <g id="38机构人员" transform="translate(-60.000000, -165.000000)">
            <g id="Group-3" transform="translate(0.000000, 70.000000)">
                <g id="Group-2-Copy-3" transform="translate(60.000000, 92.000000)">
                    <g id="users-color_single-05" transform="translate(0.000000, 3.000000)">
                        <g id="Group">
                            <path d="M13.1248446,11.3898371 L8.90909091,9.54545455 L8.90909091,6.36363636 L5.09090909,6.36363636 L5.09090909,9.54545455 L5.05115577,9.5653215 L0.876145773,11.3898371 C0.392270168,11.6013045 0,12.2021679 0,12.7302052 L0,13.680886 C0,13.857125 0.143127441,14 0.318725591,14 L13.6812938,14 C13.8573192,14 14,13.8606789 14,13.680886 L14,12.7302052 C14,12.2014105 13.6089727,11.6016541 13.1248446,11.3898371 L13.1248446,11.3898371 Z" id="Shape" fill="#335262"></path>
                            <path d="M7,8.27272727 C5.07009055,8.27272727 3.5,6.70263672 3.5,4.77272727 L3.5,3.5 C3.5,1.57009055 5.07009055,0 7,0 C8.92990945,0 10.5,1.57009055 10.5,3.5 L10.5,4.77272727 C10.5,6.70263672 8.92990945,8.27272727 7,8.27272727 L7,8.27272727 Z" id="Shape" fill="#5A7A84"></path>
                        </g>
                    </g>
                </g>
            </g>
        </g>
    </g>
</svg>