<?xml version="1.0" encoding="UTF-8" standalone="no"?>
<svg width="14px" height="14px" viewBox="0 0 14 14" version="1.1" xmlns="http://www.w3.org/2000/svg" xmlns:xlink="http://www.w3.org/1999/xlink">
    <!-- Generator: Sketch 3.6.1 (26313) - http://www.bohemiancoding.com/sketch -->
    <title>social-16px_logo-creative-market</title>
    <desc>Created with Sketch.</desc>
    <defs></defs>
    <g id="Page-1" stroke="none" stroke-width="1" fill="none" fill-rule="evenodd">
        <g id="34项目代码浏览分支" transform="translate(-48.000000, -376.000000)" fill="#3CA8FF">
            <g id="Group-3-Copy" transform="translate(20.000000, 253.000000)">
                <g id="Group-3-Copy-2" transform="translate(18.000000, 120.000000)">
                    <g id="Group-2-Copy-2">
                        <g id="social-16px_logo-creative-market" transform="translate(10.000000, 3.000000)">
                            <path d="M14,5.425 C14,4.9 13.7375,1.75 13.7375,1.75 C13.7375,1.225 13.5625,0.875 13.3,0.7 C13.125,0.4375 12.775,0.2625 12.25,0.2625 C12.25,0.2625 9.1,0 8.4875,0 C7.7875,0 7.2625,0 6.3,0.9625 L0.4375,6.825 C0.175,7.0875 -0.525,7.875 0.7,9.1875 L4.8125,13.3 C6.0375,14.525 6.9125,13.825 7.175,13.5625 C7.35,13.3 12.6,8.1375 13.0375,7.7 C14,6.7375 14,6.2125 14,5.425 L14,5.425 Z M11.4625,3.4125 C11.025,3.4125 10.5875,3.0625 10.5875,2.5375 C10.5875,2.1 10.9375,1.6625 11.4625,1.6625 C11.9,1.6625 12.3375,2.0125 12.3375,2.5375 C12.3375,3.0625 11.9875,3.4125 11.4625,3.4125 L11.4625,3.4125 Z" id="Shape"></path>
                        </g>
                    </g>
                </g>
            </g>
        </g>
    </g>
</svg>