<?xml version="1.0" encoding="UTF-8" standalone="no"?>
<svg width="14px" height="12px" viewBox="0 0 14 12" version="1.1" xmlns="http://www.w3.org/2000/svg" xmlns:xlink="http://www.w3.org/1999/xlink">
    <!-- Generator: Sketch 3.6.1 (26313) - http://www.bohemiancoding.com/sketch -->
    <title>files-color_folder-14</title>
    <desc>Created with Sketch.</desc>
    <defs></defs>
    <g id="Page-1" stroke="none" stroke-width="1" fill="none" fill-rule="evenodd">
        <g id="19设计构建定义" transform="translate(-23.000000, -134.000000)">
            <g id="Group-3" transform="translate(10.000000, 130.000000)">
                <g id="Group-2-Copy-2">
                    <g id="files-color_folder-14" transform="translate(13.000000, 4.000000)">
                        <g id="Group">
                            <path d="M4.86956522,1.2 L3.65217391,0 L0.608695652,0 C0.272391304,0 0,0.2685 0,0.6 L0,10.8 C0,11.4627 0.545086957,12 1.2173913,12 L12.7826087,12 C13.454913,12 14,11.4627 14,10.8 L14,2.4 C14,1.7373 13.454913,1.2 12.7826087,1.2 L4.86956522,1.2 L4.86956522,1.2 Z" id="Shape" fill="#F9D44C"></path>
                            <path d="M14,3 L0,3 L0,0.6 C0,0.2685 0.272391304,0 0.608695652,0 L3.65217391,0 L4.86956522,1.2 L12.7826087,1.2 C13.454913,1.2 14,1.7373 14,2.4 L14,3 L14,3 Z" id="Shape" fill="#C7AA3D"></path>
                        </g>
                    </g>
                </g>
            </g>
        </g>
    </g>
</svg>