<?xml version="1.0" encoding="UTF-8" standalone="no"?>
<svg width="11px" height="14px" viewBox="0 0 11 14" version="1.1" xmlns="http://www.w3.org/2000/svg" xmlns:xlink="http://www.w3.org/1999/xlink">
    <!-- Generator: Sketch 3.6.1 (26313) - http://www.bohemiancoding.com/sketch -->
    <title>files-color_single-folded-content</title>
    <desc>Created with Sketch.</desc>
    <defs></defs>
    <g id="Page-1" stroke="none" stroke-width="1" fill="none" fill-rule="evenodd">
        <g id="19设计构建定义" transform="translate(-36.000000, -163.000000)">
            <g id="Group-3" transform="translate(10.000000, 130.000000)">
                <g id="Group-2" transform="translate(26.000000, 32.000000)">
                    <g id="files-color_single-folded-content" transform="translate(0.000000, 1.000000)">
                        <g id="Group">
                            <path d="M10.4210526,14 L0.578947368,14 C0.259078947,14 0,13.7276087 0,13.3913043 L0,0.608695652 C0,0.272391304 0.259078947,0 0.578947368,0 L7.52631579,0 L11,3.65217391 L11,13.3913043 C11,13.7276087 10.7409211,14 10.4210526,14 L10.4210526,14 Z" id="Shape" fill="#E6E6E6"></path>
                            <path d="M7.52631579,0 L7.52631579,3.04347826 C7.52631579,3.37978261 7.78539474,3.65217391 8.10526316,3.65217391 L11,3.65217391 L7.52631579,0 L7.52631579,0 Z" id="Shape" fill="#B3B3B3"></path>
                            <path d="M8.39473684,10.3478261 L2.60526316,10.3478261 C2.44547368,10.3478261 2.31578947,10.4841739 2.31578947,10.6521739 C2.31578947,10.8201739 2.44547368,10.9565217 2.60526316,10.9565217 L8.39473684,10.9565217 C8.55452632,10.9565217 8.68421053,10.8201739 8.68421053,10.6521739 C8.68421053,10.4841739 8.55452632,10.3478261 8.39473684,10.3478261 L8.39473684,10.3478261 Z" id="Shape" fill="#B3B3B3"></path>
                            <path d="M8.39473684,7.30434783 L2.60526316,7.30434783 C2.44547368,7.30434783 2.31578947,7.44069565 2.31578947,7.60869565 C2.31578947,7.77669565 2.44547368,7.91304348 2.60526316,7.91304348 L8.39473684,7.91304348 C8.55452632,7.91304348 8.68421053,7.77669565 8.68421053,7.60869565 C8.68421053,7.44069565 8.55452632,7.30434783 8.39473684,7.30434783 L8.39473684,7.30434783 Z" id="Shape" fill="#B3B3B3"></path>
                            <path d="M4.92105263,4.26086957 L2.60526316,4.26086957 C2.44547368,4.26086957 2.31578947,4.39721739 2.31578947,4.56521739 C2.31578947,4.73321739 2.44547368,4.86956522 2.60526316,4.86956522 L4.92105263,4.86956522 C5.08084211,4.86956522 5.21052632,4.73321739 5.21052632,4.56521739 C5.21052632,4.39721739 5.08084211,4.26086957 4.92105263,4.26086957 L4.92105263,4.26086957 Z" id="Shape" fill="#B3B3B3"></path>
                        </g>
                    </g>
                </g>
            </g>
        </g>
    </g>
</svg>