<?xml version="1.0" encoding="UTF-8" standalone="no"?>
<svg width="30px" height="30px" viewBox="0 0 30 30" version="1.1" xmlns="http://www.w3.org/2000/svg" xmlns:xlink="http://www.w3.org/1999/xlink">
    <!-- Generator: Sketch 3.6.1 (26313) - http://www.bohemiancoding.com/sketch -->
    <title>page-link copy 7</title>
    <desc>Created with Sketch.</desc>
    <defs></defs>
    <g id="Page-1" stroke="none" stroke-width="1" fill="none" fill-rule="evenodd">
        <g id="38机构人员" transform="translate(-479.000000, -306.000000)">
            <g id="Table-head-options" transform="translate(200.000000, 184.000000)">
                <g id="table-white">
                    <g id="pagination-sm" transform="translate(0.000000, 120.000000)">
                        <g id="page-link-copy-7" transform="translate(279.000000, 2.000000)">
                            <rect id="BG" stroke="#ECEEEF" fill="#FFFFFF" x="0" y="0" width="30" height="30"></rect>
                            <g id="arrows-color-1_refresh-69" transform="translate(10.000000, 10.000000)" fill="#0275D8">
                                <g id="Group">
                                    <path d="M5,0.909090909 C6.25918409,0.909090909 7.41742273,1.47569091 8.18438409,2.42940682 L6.44575682,2.1966 L6.32501818,3.0977 L9.02809773,3.45969318 C9.04851591,3.46235682 9.06893636,3.46368864 9.08913182,3.46368864 C9.31329773,3.46368864 9.50838864,3.29789545 9.53901591,3.06951136 L9.90101136,0.366431818 L8.99991136,0.245693182 L8.79855,1.74940455 C7.86213182,0.650802273 6.48974318,0 5,0 C2.32112273,0 0.12755,2.11765 0.00541590909,4.76687727 C-0.000468181818,4.89448864 0.105365909,4.99999545 0.233111364,4.99999545 L0.688311364,4.99999545 C0.811293182,4.99999545 0.908463636,4.90193636 0.915027273,4.77913182 C1.03012045,2.62576818 2.81845909,0.909090909 5,0.909090909 L5,0.909090909 Z" id="Shape"></path>
                                    <path d="M5,9.09090909 C3.74081591,9.09090909 2.58257727,8.52430909 1.81561591,7.57059318 L3.55424318,7.8034 L3.67498182,6.9023 L0.971902273,6.54030455 C0.724877273,6.50856591 0.494275,6.68168409 0.460981818,6.93048636 L0.0989886364,9.63356818 L0.774811364,9.72412273 C0.899225,9.74079318 1.01359545,9.65344318 1.03025682,9.52902727 L1.20145,8.25059545 C2.13786818,9.34919773 3.51025682,10 5,10 C7.67887273,10 9.87244318,7.88235455 9.99459545,5.23313409 C10.0004795,5.10551591 9.89464091,5.00000227 9.76688636,5.00000227 L9.31168636,5.00000227 C9.18871136,5.00000227 9.09154545,5.09805455 9.08498409,5.22085455 C8.96988864,7.374225 7.18154545,9.09090909 5,9.09090909 L5,9.09090909 Z" id="Shape"></path>
                                </g>
                            </g>
                        </g>
                    </g>
                </g>
            </g>
        </g>
    </g>
</svg>