<?xml version="1.0" encoding="UTF-8" standalone="no"?>
<svg width="15px" height="14px" viewBox="0 0 15 14" version="1.1" xmlns="http://www.w3.org/2000/svg" xmlns:xlink="http://www.w3.org/1999/xlink">
    <!-- Generator: Sketch 3.6.1 (26313) - http://www.bohemiancoding.com/sketch -->
    <title>users-color_man-add</title>
    <desc>Created with Sketch.</desc>
    <defs></defs>
    <g id="Page-1" stroke="none" stroke-width="1" fill="none" fill-rule="evenodd">
        <g id="Artboard-16" transform="translate(-298.000000, -690.000000)">
            <g id="users-color_man-add" transform="translate(298.000000, 690.000000)">
                <g id="Group">
                    <rect id="Rectangle-path" fill="#DAC2A7" x="4.86956522" y="6.85106383" width="3.65217391" height="4.46808511"></rect>
                    <path d="M10.0434783,3.27659574 L10.0434783,5.65957447 C10.0434783,7.46617036 8.54152189,8.93617021 6.69565217,8.93617021 C4.84978246,8.93617021 3.34782609,7.46617036 3.34782609,5.65957447 L3.34782609,3.27659574 L10.0434783,3.27659574 L10.0434783,3.27659574 Z" id="Shape" fill="#EAD8C5"></path>
                    <path d="M12.5541957,11.5564512 L8.52173913,9.82978723 C8.00800009,10.2021277 7.37921748,10.4255319 6.69565217,10.4255319 C6.01208687,10.4255319 5.38330426,10.2021277 4.87504336,9.82978723 L0.838049739,11.5564512 C0.375207609,11.7544139 0,12.3169231 0,12.8112673 L0,13.701255 C0,13.866247 0.1369004,14 0.304856696,14 L13.0864484,14 C13.2548166,14 13.3913043,13.8695672 13.3913043,13.701255 L13.3913043,12.8112673 C13.3913043,12.3162141 13.0172817,11.7547411 12.5541957,11.5564512 Z" id="Shape" fill="#444444"></path>
                    <path d="M3.34782609,3.2762685 C3.34782609,2.28938685 4.11943603,1.21965012 5.0686027,0.887874221 L7.32251161,0.100034706 C7.48056829,0.0447881447 7.6692851,0.118600583 7.74378323,0.264430153 L8.2173913,1.19148936 C9.22591153,1.19148936 10.0434783,1.9936689 10.0434783,2.9787234 L10.0434783,4.76595745 C10.0434783,3.94340645 9.36217109,3.27659574 8.52173913,3.27659574 L4.86956522,3.27659574 C4.02913298,3.27659574 3.34782609,3.94340645 3.34782609,4.76595745 L3.34782609,3.2762685 L3.34782609,3.2762685 Z" id="Shape" fill="#C6A279"></path>
                    <ellipse id="Oval" fill="#72C472" cx="11.5652174" cy="10.7234043" rx="3.11956522" ry="3.05319149"></ellipse>
                    <path d="M10.510468,12.2767698 L9.29998779,11.0662897 L10.1557973,10.2104802 L10.9383727,10.9930556 L12.9314283,9 L13.7872378,9.85580948 L11.3662774,12.2767698 C11.2482556,12.3947916 11.0933142,12.4541052 10.9383727,12.4541052 C10.7834312,12.4541052 10.6284898,12.3947916 10.510468,12.2767698 Z" id="Shape" fill="#FFFFFF"></path>
                </g>
            </g>
        </g>
    </g>
</svg>