<?xml version="1.0" encoding="UTF-8" standalone="no"?>
<svg width="16px" height="16px" viewBox="0 0 16 16" version="1.1" xmlns="http://www.w3.org/2000/svg" xmlns:xlink="http://www.w3.org/1999/xlink">
    <!-- Generator: Sketch 3.6.1 (26313) - http://www.bohemiancoding.com/sketch -->
    <title>ui-16px-2_ban</title>
    <desc>Created with Sketch.</desc>
    <defs></defs>
    <g id="Page-1" stroke="none" stroke-width="1" fill="none" fill-rule="evenodd">
        <g id="60实例详情" transform="translate(-507.000000, -192.000000)">
            <g id="Modal" transform="translate(190.000000, 35.000000)">
                <g id="ui-16px-2_ban" transform="translate(317.000000, 157.000000)">
                    <circle id="Oval-172" fill="#E78585" cx="8" cy="8" r="8"></circle>
                    <path d="M8,4 C5.8,4 4,5.8 4,8 C4,10.2 5.8,12 8,12 C10.2,12 12,10.2 12,8 C12,5.8 10.2,4 8,4 L8,4 Z M8,5 C8.65,5 9.25,5.2 9.75,5.55 L5.55,9.75 C5.2,9.25 5,8.65 5,8 C5,6.35 6.35,5 8,5 L8,5 Z M8,11 C7.35,11 6.75,10.8 6.25,10.45 L10.45,6.25 C10.8,6.75 11,7.35 11,8 C11,9.65 9.65,11 8,11 L8,11 Z" id="Shape" fill="#FFFFFF"></path>
                </g>
            </g>
        </g>
    </g>
</svg>