<?xml version="1.0" encoding="UTF-8" standalone="no"?>
<svg width="16px" height="16px" viewBox="0 0 16 16" version="1.1" xmlns="http://www.w3.org/2000/svg" xmlns:xlink="http://www.w3.org/1999/xlink">
    <!-- Generator: Sketch 3.6.1 (26313) - http://www.bohemiancoding.com/sketch -->
    <title>Shape</title>
    <desc>Created with Sketch.</desc>
    <defs></defs>
    <g id="Page-1" stroke="none" stroke-width="1" fill="none" fill-rule="evenodd">
        <g id="57查看部署转换计划进度" transform="translate(-445.000000, -506.000000)" fill="#FF3A00">
            <g id="ui-24px-glyph-1_circle-remove" transform="translate(445.000000, 506.000000)">
                <path d="M8,0 C3.6,0 0,3.6 0,8 C0,12.4 3.6,16 8,16 C12.4,16 16,12.4 16,8 C16,3.6 12.4,0 8,0 L8,0 Z M11.1333333,10.2 C11.4,10.4666667 11.4,10.8666667 11.1333333,11.1333333 C11,11.2666667 10.8666667,11.3333333 10.6666667,11.3333333 C10.4666667,11.3333333 10.3333333,11.2666667 10.2,11.1333333 L8,8.93333333 L5.8,11.1333333 C5.66666667,11.2666667 5.53333333,11.3333333 5.33333333,11.3333333 C5.13333333,11.3333333 5,11.2666667 4.86666667,11.1333333 C4.6,10.8666667 4.6,10.4666667 4.86666667,10.2 L7.06666667,8 L4.86666667,5.8 C4.6,5.53333333 4.6,5.13333333 4.86666667,4.86666667 C5.13333333,4.6 5.53333333,4.6 5.8,4.86666667 L8,7.06666667 L10.2,4.86666667 C10.4666667,4.6 10.8666667,4.6 11.1333333,4.86666667 C11.4,5.13333333 11.4,5.53333333 11.1333333,5.8 L8.93333333,8 L11.1333333,10.2 L11.1333333,10.2 Z" id="Shape"></path>
            </g>
        </g>
    </g>
</svg>