<?xml version="1.0" encoding="UTF-8" standalone="no"?>
<svg width="16px" height="16px" viewBox="0 0 16 16" version="1.1" xmlns="http://www.w3.org/2000/svg" xmlns:xlink="http://www.w3.org/1999/xlink">
    <!-- Generator: Sketch 3.6.1 (26313) - http://www.bohemiancoding.com/sketch -->
    <title>Group</title>
    <desc>Created with Sketch.</desc>
    <defs></defs>
    <g id="Page-1" stroke="none" stroke-width="1" fill="none" fill-rule="evenodd">
        <g id="60实例详情" transform="translate(-507.000000, -138.000000)">
            <g id="Modal" transform="translate(190.000000, 35.000000)">
                <g id="arrows-color-1_circle-right-09" transform="translate(317.000000, 103.000000)">
                    <g id="Group">
                        <path d="M8,0 C3.58865391,0 0,3.58882435 0,8 C0,12.4111757 3.58865391,16 8,16 C12.4113461,16 16,12.4111757 16,8 C16,3.58882435 12.4113461,0 8,0 L8,0 Z" id="Shape" fill="#EA9860"></path>
                        <path d="M10.2798922,7.71059826 L6.10597913,4.92798957 C5.99966261,4.85648696 5.86175304,4.85003478 5.74898087,4.91066783 C5.63586783,4.97129739 5.56521739,5.08916522 5.56521739,5.2173913 L5.56521739,10.7826087 C5.56521739,10.9108348 5.63586783,11.0287026 5.74898087,11.0893357 C5.8002713,11.1168487 5.85665739,11.1304348 5.91304348,11.1304348 C5.98064,11.1304348 6.04789565,11.1107339 6.10597913,11.0720104 L10.2798922,8.28940174 C10.3766991,8.22486261 10.4347826,8.11633739 10.4347826,8 C10.4347826,7.88366261 10.3766991,7.77513739 10.2798922,7.71059826 L10.2798922,7.71059826 Z" id="Shape" fill="#FFFFFF"></path>
                    </g>
                </g>
            </g>
        </g>
    </g>
</svg>