<?xml version="1.0" encoding="UTF-8" standalone="no"?>
<svg width="16px" height="16px" viewBox="0 0 16 16" version="1.1" xmlns="http://www.w3.org/2000/svg" xmlns:xlink="http://www.w3.org/1999/xlink">
    <!-- Generator: Sketch 3.6.1 (26313) - http://www.bohemiancoding.com/sketch -->
    <title>Shape</title>
    <desc>Created with Sketch.</desc>
    <defs></defs>
    <g id="Page-1" stroke="none" stroke-width="1" fill="none" fill-rule="evenodd">
        <g id="57查看部署转换计划进度" transform="translate(-424.000000, -481.000000)" fill="#999999">
            <g id="ui-24px-glyph-2_alert-circle-?" transform="translate(424.000000, 481.000000)">
                <path d="M8,0 C3.58866667,0 0,3.58866667 0,8 C0,12.4113333 3.58866667,16 8,16 C12.4113333,16 16,12.4113333 16,8 C16,3.58866667 12.4113333,0 8,0 L8,0 Z M8,12.6666667 C7.632,12.6666667 7.33333333,12.368 7.33333333,12 C7.33333333,11.632 7.632,11.3333333 8,11.3333333 C8.368,11.3333333 8.66666667,11.632 8.66666667,12 C8.66666667,12.368 8.368,12.6666667 8,12.6666667 L8,12.6666667 Z M8.66666667,8.57866667 L8.66666667,10 L7.33333333,10 L7.33333333,8 C7.33333333,7.632 7.63133333,7.33333333 8,7.33333333 C8.71,7.33333333 9.33333333,6.71 9.33333333,6 C9.33333333,5.29 8.71,4.66666667 8,4.66666667 C7.45866667,4.66666667 6.93866667,5.11466667 6.74933333,5.548 C6.602,5.88466667 6.21266667,6.04 5.872,5.892 C5.53466667,5.74466667 5.38,5.35133333 5.528,5.014 C5.95333333,4.04066667 6.99266667,3.33333333 8,3.33333333 C9.44533333,3.33333333 10.6666667,4.55466667 10.6666667,6 C10.6666667,7.216 9.802,8.274 8.66666667,8.57866667 L8.66666667,8.57866667 Z" id="Shape"></path>
            </g>
        </g>
    </g>
</svg>