<?xml version="1.0" encoding="UTF-8" standalone="no"?>
<svg width="16px" height="16px" viewBox="0 0 16 16" version="1.1" xmlns="http://www.w3.org/2000/svg" xmlns:xlink="http://www.w3.org/1999/xlink">
    <!-- Generator: Sketch 3.6.1 (26313) - http://www.bohemiancoding.com/sketch -->
    <title>design-24px-glyph-2_cursor-load</title>
    <desc>Created with Sketch.</desc>
    <defs></defs>
    <g id="Page-1" stroke="none" stroke-width="1" fill="none" fill-rule="evenodd">
        <g id="58查看部署转换计划进度" transform="translate(-444.000000, -550.000000)" fill="#E0C50F">
            <g id="Modal" transform="translate(190.000000, 35.000000)">
                <g id="Group-3" transform="translate(20.000000, 308.000000)">
                    <g id="Group-2-Copy-5" transform="translate(0.000000, 200.000000)">
                        <g id="design-24px-glyph-2_cursor-load" transform="translate(233.313708, 6.313708)">
                            <path d="M8.6862915,0.686291501 C4.2752915,0.686291501 0.686291501,4.2752915 0.686291501,8.6862915 C0.686291501,13.0972915 4.2752915,16.6862915 8.6862915,16.6862915 C13.0972915,16.6862915 16.6862915,13.0972915 16.6862915,8.6862915 C16.6862915,4.2752915 13.0972915,0.686291501 8.6862915,0.686291501 L8.6862915,0.686291501 Z M4.61522369,13.1005051 L8.85786438,8.85786438 L4.61522369,4.61522369 C6.95504003,2.27540735 10.7606887,2.27540735 13.1005051,4.61522369 L8.85786438,8.85786438 L13.1005051,13.1005051 C10.7606887,15.4403214 6.95504003,15.4403214 4.61522369,13.1005051 L4.61522369,13.1005051 Z" id="Shape"></path>
                        </g>
                    </g>
                </g>
            </g>
        </g>
    </g>
</svg>