<?xml version="1.0" encoding="UTF-8" standalone="no"?>
<svg width="16px" height="16px" viewBox="0 0 16 16" version="1.1" xmlns="http://www.w3.org/2000/svg" xmlns:xlink="http://www.w3.org/1999/xlink">
    <!-- Generator: Sketch 3.6.1 (26313) - http://www.bohemiancoding.com/sketch -->
    <title>ui-color-2_alert-circle-!</title>
    <desc>Created with Sketch.</desc>
    <defs></defs>
    <g id="Page-1" stroke="none" stroke-width="1" fill="none" fill-rule="evenodd">
        <g id="59部署转换实例" transform="translate(-867.000000, -249.000000)">
            <g id="Table-head-options" transform="translate(0.000000, 152.000000)">
                <g id="th-copy-3" transform="translate(0.000000, 90.000000)">
                    <g id="ui-color-2_alert-circle-!" transform="translate(867.000000, 7.000000)">
                        <g id="Group">
                            <path d="M8,0 C3.58882435,0 0,3.58882435 0,8 C0,12.4111757 3.58882435,16 8,16 C12.4111757,16 16,12.4111757 16,8 C16,3.58882435 12.4111757,0 8,0 L8,0 Z" id="Shape" fill="#EFD358"></path>
                            <path d="M8,10 C8.43059493,10 8.77971014,9.77872065 8.77971014,9.5057971 L8.77971014,3.08115942 C8.77971014,2.80823587 8.43059493,2.58695652 8,2.58695652 C7.56940507,2.58695652 7.22028986,2.80823587 7.22028986,3.08115942 L7.22028986,9.5057971 C7.22028986,9.77872065 7.56940507,10 8,10 L8,10 Z" id="Shape" fill="#FFFFFF"></path>
                            <ellipse id="Oval" fill="#FFFFFF" cx="8" cy="12.1304348" rx="0.847826087" ry="0.847826087"></ellipse>
                        </g>
                    </g>
                </g>
            </g>
        </g>
    </g>
</svg>