<?xml version="1.0" encoding="UTF-8" standalone="no"?>
<svg width="16px" height="16px" viewBox="0 0 16 16" version="1.1" xmlns="http://www.w3.org/2000/svg" xmlns:xlink="http://www.w3.org/1999/xlink">
    <!-- Generator: Sketch 3.6.1 (26313) - http://www.bohemiancoding.com/sketch -->
    <title>ui-16px-2_ban</title>
    <desc>Created with Sketch.</desc>
    <defs></defs>
    <g id="Page-1" stroke="none" stroke-width="1" fill="none" fill-rule="evenodd">
        <g id="20构建定义浏览" transform="translate(-1121.000000, -147.000000)" fill="#58666E">
            <g id="Table-head-options" transform="translate(231.000000, 80.000000)">
                <g id="table-white">
                    <g id="tbody" transform="translate(0.000000, 30.000000)">
                        <g id="tr" transform="translate(0.000000, 30.000000)">
                            <g id="td-copy-4" transform="translate(880.000000, 0.000000)">
                                <g id="ui-16px-2_ban" transform="translate(10.000000, 7.000000)">
                                    <path d="M8,0 C3.6,0 0,3.6 0,8 C0,12.4 3.6,16 8,16 C12.4,16 16,12.4 16,8 C16,3.6 12.4,0 8,0 L8,0 Z M8,2 C9.3,2 10.5,2.4 11.5,3.1 L3.1,11.5 C2.4,10.5 2,9.3 2,8 C2,4.7 4.7,2 8,2 L8,2 Z M8,14 C6.7,14 5.5,13.6 4.5,12.9 L12.9,4.5 C13.6,5.5 14,6.7 14,8 C14,11.3 11.3,14 8,14 L8,14 Z" id="Shape"></path>
                                </g>
                            </g>
                        </g>
                    </g>
                </g>
            </g>
        </g>
    </g>
</svg>