<?xml version="1.0" encoding="UTF-8" standalone="no"?>
<svg width="16px" height="15px" viewBox="0 0 16 15" version="1.1" xmlns="http://www.w3.org/2000/svg" xmlns:xlink="http://www.w3.org/1999/xlink">
    <!-- Generator: Sketch 3.6.1 (26313) - http://www.bohemiancoding.com/sketch -->
    <title>undo</title>
    <desc>Created with Sketch.</desc>
    <defs></defs>
    <g id="Page-1" stroke="none" stroke-width="1" fill="none" fill-rule="evenodd">
        <g id="Artboard-1" transform="translate(-388.000000, -14959.000000)" fill="#46535A">
            <g id="Group-32" transform="translate(392.000000, 14668.000000)">
                <g id="Group-28" transform="translate(0.000000, 288.000000)">
                    <g id="undo" transform="translate(-4.000000, 2.000000)">
                        <g id="Group">
                            <path d="M2.6688,13.1552 C1.8944,12.1738667 1.376,11.0048 1.17013333,9.776 L3.27466667,9.42293333 C3.42186667,10.2997333 3.79093333,11.1338667 4.34453333,11.8336 L2.6688,13.1552 L2.6688,13.1552 Z" id="Shape"></path>
                            <path d="M7.2896,15.8965333 C6.14826667,15.7045333 5.0496,15.2405333 4.1152,14.5536 L5.38026667,12.8352 C6.04586667,13.3248 6.8288,13.6565333 7.64373333,13.7930667 L7.2896,15.8965333 L7.2896,15.8965333 Z" id="Shape"></path>
                            <path d="M9.776,15.8965333 L9.424,13.792 C10.2762667,13.6490667 11.0912,13.2938667 11.7802667,12.7637333 L13.0805333,14.4554667 C12.1152,15.1978667 10.9728,15.696 9.776,15.8965333 L9.776,15.8965333 Z" id="Shape"></path>
                            <path d="M8.53333333,1.06666667 C6.53546667,1.06666667 4.64,1.87626667 3.25546667,3.25546667 L0.96,0.96 L0.213333333,7.78666667 L7.04,7.04 L4.76266667,4.76266667 C5.75253333,3.77813333 7.10613333,3.2 8.53333333,3.2 C11.4741333,3.2 13.8666667,5.59253333 13.8666667,8.53333333 C13.8666667,9.664 13.5178667,10.7434667 12.8565333,11.6565333 L14.5856,12.9077333 C15.5104,11.6277333 16,10.1152 16,8.53333333 C16,4.416 12.6496,1.06666667 8.53333333,1.06666667 L8.53333333,1.06666667 Z" id="Shape"></path>
                        </g>
                    </g>
                </g>
            </g>
        </g>
    </g>
</svg>