<?xml version="1.0" encoding="UTF-8" standalone="no"?>
<svg width="16px" height="16px" viewBox="0 0 16 16" version="1.1" xmlns="http://www.w3.org/2000/svg" xmlns:xlink="http://www.w3.org/1999/xlink">
    <!-- Generator: Sketch 3.6.1 (26313) - http://www.bohemiancoding.com/sketch -->
    <title>media-color-1_button-circle-stop</title>
    <desc>Created with Sketch.</desc>
    <defs></defs>
    <g id="Page-1" stroke="none" stroke-width="1" fill="none" fill-rule="evenodd">
        <g id="59部署转换实例" transform="translate(-867.000000, -219.000000)" fill="#F05050">
            <g id="Table-head-options" transform="translate(0.000000, 152.000000)">
                <g id="th-copy-2" transform="translate(0.000000, 60.000000)">
                    <g id="media-color-1_button-circle-stop" transform="translate(867.000000, 7.000000)">
                        <g id="Group">
                            <path d="M8,16 C3.58865391,16 0,12.4113461 0,8 C0,3.58865391 3.58865391,0 8,0 C12.4113461,0 16,3.58865391 16,8 C16,12.4113461 12.4113461,16 8,16 L8,16 Z M8,1.39130435 C4.35597913,1.39130435 1.39130435,4.35597913 1.39130435,8 C1.39130435,11.6440209 4.35597913,14.6086957 8,14.6086957 C11.6440209,14.6086957 14.6086957,11.6440209 14.6086957,8 C14.6086957,4.35597913 11.6440209,1.39130435 8,1.39130435 L8,1.39130435 Z" id="Shape"></path>
                            <path d="M10.4347826,11.1304348 L5.56521739,11.1304348 C5.18172522,11.1304348 4.86956522,10.8182748 4.86956522,10.4347826 L4.86956522,5.56521739 C4.86956522,5.18172522 5.18172522,4.86956522 5.56521739,4.86956522 L10.4347826,4.86956522 C10.8182748,4.86956522 11.1304348,5.18172522 11.1304348,5.56521739 L11.1304348,10.4347826 C11.1304348,10.8182748 10.8182748,11.1304348 10.4347826,11.1304348 L10.4347826,11.1304348 Z" id="Shape"></path>
                        </g>
                    </g>
                </g>
            </g>
        </g>
    </g>
</svg>