<?xml version="1.0" encoding="UTF-8" standalone="no"?>
<svg width="20px" height="20px" viewBox="0 0 20 20" version="1.1" xmlns="http://www.w3.org/2000/svg" xmlns:xlink="http://www.w3.org/1999/xlink">
    <!-- Generator: Sketch 3.6.1 (26313) - http://www.bohemiancoding.com/sketch -->
    <title>ui-24px-glyph-1_circle-add</title>
    <desc>Created with Sketch.</desc>
    <defs></defs>
    <g id="Page-1" stroke="none" stroke-width="1" fill="none" fill-rule="evenodd">
        <g id="19设计构建定义" transform="translate(-410.000000, -162.000000)" fill="#58666E">
            <g id="Group-8" transform="translate(200.000000, 162.000000)">
                <g id="ui-24px-glyph-1_circle-add" transform="translate(210.000000, 0.000000)">
                    <path d="M10,0 C4.5,0 0,4.5 0,10 C0,15.5 4.5,20 10,20 C15.5,20 20,15.5 20,10 C20,4.5 15.5,0 10,0 L10,0 Z M14.1666667,10.8333333 L10.8333333,10.8333333 L10.8333333,14.1666667 C10.8333333,14.6666667 10.5,15 10,15 C9.5,15 9.16666667,14.6666667 9.16666667,14.1666667 L9.16666667,10.8333333 L5.83333333,10.8333333 C5.33333333,10.8333333 5,10.5 5,10 C5,9.5 5.33333333,9.16666667 5.83333333,9.16666667 L9.16666667,9.16666667 L9.16666667,5.83333333 C9.16666667,5.33333333 9.5,5 10,5 C10.5,5 10.8333333,5.33333333 10.8333333,5.83333333 L10.8333333,9.16666667 L14.1666667,9.16666667 C14.6666667,9.16666667 15,9.5 15,10 C15,10.5 14.6666667,10.8333333 14.1666667,10.8333333 L14.1666667,10.8333333 Z" id="Shape"></path>
                </g>
            </g>
        </g>
    </g>
</svg>