<?xml version="1.0" encoding="UTF-8" standalone="no"?>
<svg width="19px" height="20px" viewBox="0 0 19 20" version="1.1" xmlns="http://www.w3.org/2000/svg" xmlns:xlink="http://www.w3.org/1999/xlink">
    <!-- Generator: Sketch 3.6.1 (26313) - http://www.bohemiancoding.com/sketch -->
    <title>ui-color-1_trash-round</title>
    <desc>Created with Sketch.</desc>
    <defs></defs>
    <g id="Page-1" stroke="none" stroke-width="1" fill="none" fill-rule="evenodd">
        <g id="15构建定义任务" transform="translate(-1241.000000, -50.000000)">
            <g id="Group-7" transform="translate(231.000000, 50.000000)">
                <g id="ui-color-1_trash-round" transform="translate(1010.000000, 0.000000)">
                    <g id="Group">
                        <path d="M15.1136364,20 L3.88636364,20 C2.93241682,20 2.15909091,19.2213652 2.15909091,18.2608696 L2.15909091,6.52173913 C2.15909091,6.28161304 2.35242455,6.08695652 2.59090909,6.08695652 L16.4090909,6.08695652 C16.6475755,6.08695652 16.8409091,6.28161304 16.8409091,6.52173913 L16.8409091,18.2608696 C16.8409091,19.2213652 16.0675832,20 15.1136364,20 L15.1136364,20 Z" id="Shape" fill="#B3B3B3"></path>
                        <path d="M9.5,17.3913043 C9.26132114,17.3913043 9.06818182,17.1966304 9.06818182,16.9565217 L9.06818182,9.56521739 C9.06818182,9.3251087 9.26132114,9.13043478 9.5,9.13043478 C9.73867886,9.13043478 9.93181818,9.3251087 9.93181818,9.56521739 L9.93181818,16.9565217 C9.93181818,17.1966304 9.73867886,17.3913043 9.5,17.3913043 L9.5,17.3913043 Z" id="Shape" fill="#8E8E8E"></path>
                        <path d="M6.04545455,17.3913043 C5.80677568,17.3913043 5.61363636,17.1966304 5.61363636,16.9565217 L5.61363636,9.56521739 C5.61363636,9.3251087 5.80677568,9.13043478 6.04545455,9.13043478 C6.28413341,9.13043478 6.47727273,9.3251087 6.47727273,9.56521739 L6.47727273,16.9565217 C6.47727273,17.1966304 6.28413341,17.3913043 6.04545455,17.3913043 L6.04545455,17.3913043 Z" id="Shape" fill="#8E8E8E"></path>
                        <path d="M12.9545455,17.3913043 C12.7158666,17.3913043 12.5227273,17.1966304 12.5227273,16.9565217 L12.5227273,9.56521739 C12.5227273,9.3251087 12.7158666,9.13043478 12.9545455,9.13043478 C13.1932243,9.13043478 13.3863636,9.3251087 13.3863636,9.56521739 L13.3863636,16.9565217 C13.3863636,17.1966304 13.1932243,17.3913043 12.9545455,17.3913043 L12.9545455,17.3913043 Z" id="Shape" fill="#8E8E8E"></path>
                        <path d="M16.4090909,3.91304348 L13.3863636,3.91304348 C13.3863636,1.75547826 11.6430661,0 9.5,0 C7.35693386,0 5.61363636,1.75547826 5.61363636,3.91304348 L2.59090909,3.91304348 C1.15998455,3.91304348 0,5.0809913 0,6.52173913 L19,6.52173913 C19,5.0809913 17.8400155,3.91304348 16.4090909,3.91304348 L16.4090909,3.91304348 Z M6.47727273,3.91304348 C6.47727273,2.23484348 7.83344955,0.869565217 9.5,0.869565217 C11.1665505,0.869565217 12.5227273,2.23484348 12.5227273,3.91304348 L6.47727273,3.91304348 L6.47727273,3.91304348 Z" id="Shape" fill="#8E8E8E"></path>
                    </g>
                </g>
            </g>
        </g>
    </g>
</svg>