<?xml version="1.0" encoding="UTF-8" standalone="no"?>
<svg width="20px" height="20px" viewBox="0 0 20 20" version="1.1" xmlns="http://www.w3.org/2000/svg" xmlns:xlink="http://www.w3.org/1999/xlink">
    <!-- Generator: Sketch 3.6.1 (26313) - http://www.bohemiancoding.com/sketch -->
    <title>arrows-color-2_dots-upload</title>
    <desc>Created with Sketch.</desc>
    <defs></defs>
    <g id="Page-1" stroke="none" stroke-width="1" fill="none" fill-rule="evenodd">
        <g id="15构建定义任务" transform="translate(-1162.000000, -50.000000)">
            <g id="Group-7" transform="translate(231.000000, 50.000000)">
                <g id="arrows-color-2_dots-upload" transform="translate(931.000000, 0.000000)">
                    <path d="M8.26086957,0.869565217 L11.7391304,0.869565217 C11.9794478,0.869565217 12.173913,0.674891304 12.173913,0.434782609 C12.173913,0.194673913 11.9794478,0 11.7391304,0 L8.26086957,0 C8.02055217,0 7.82608696,0.194673913 7.82608696,0.434782609 C7.82608696,0.674891304 8.02055217,0.869565217 8.26086957,0.869565217 L8.26086957,0.869565217 Z" id="Shape" fill="#B3B3B3"></path>
                    <path d="M11.7391304,19.1304348 L8.26086957,19.1304348 C8.02055217,19.1304348 7.82608696,19.3251087 7.82608696,19.5652174 C7.82608696,19.8053261 8.02055217,20 8.26086957,20 L11.7391304,20 C11.9794478,20 12.173913,19.8053261 12.173913,19.5652174 C12.173913,19.3251087 11.9794478,19.1304348 11.7391304,19.1304348 L11.7391304,19.1304348 Z" id="Shape" fill="#B3B3B3"></path>
                    <path d="M0.434782609,12.173913 C0.6751,12.173913 0.869565217,11.9792391 0.869565217,11.7391304 L0.869565217,8.26086957 C0.869565217,8.02076087 0.6751,7.82608696 0.434782609,7.82608696 C0.194465217,7.82608696 0,8.02076087 0,8.26086957 L0,11.7391304 C0,11.9792391 0.194465217,12.173913 0.434782609,12.173913 L0.434782609,12.173913 Z" id="Shape" fill="#B3B3B3"></path>
                    <path d="M19.5652174,7.82608696 C19.3249,7.82608696 19.1304348,8.02076087 19.1304348,8.26086957 L19.1304348,11.7391304 C19.1304348,11.9792391 19.3249,12.173913 19.5652174,12.173913 C19.8055348,12.173913 20,11.9792391 20,11.7391304 L20,8.26086957 C20,8.02076087 19.8055348,7.82608696 19.5652174,7.82608696 L19.5652174,7.82608696 Z" id="Shape" fill="#B3B3B3"></path>
                    <path d="M3.91304348,0 L0.434782609,0 C0.194465217,0 0,0.194673913 0,0.434782609 L0,3.91304348 C0,4.15315217 0.194465217,4.34782609 0.434782609,4.34782609 C0.6751,4.34782609 0.869565217,4.15315217 0.869565217,3.91304348 L0.869565217,0.869565217 L3.91304348,0.869565217 C4.15336087,0.869565217 4.34782609,0.674891304 4.34782609,0.434782609 C4.34782609,0.194673913 4.15336087,0 3.91304348,0 L3.91304348,0 Z" id="Shape" fill="#B3B3B3"></path>
                    <path d="M19.5652174,0 L16.0869565,0 C15.8466391,0 15.6521739,0.194673913 15.6521739,0.434782609 C15.6521739,0.674891304 15.8466391,0.869565217 16.0869565,0.869565217 L19.1304348,0.869565217 L19.1304348,3.91304348 C19.1304348,4.15315217 19.3249,4.34782609 19.5652174,4.34782609 C19.8055348,4.34782609 20,4.15315217 20,3.91304348 L20,0.434782609 C20,0.194673913 19.8055348,0 19.5652174,0 L19.5652174,0 Z" id="Shape" fill="#B3B3B3"></path>
                    <path d="M19.5652174,15.6521739 C19.3249,15.6521739 19.1304348,15.8468478 19.1304348,16.0869565 L19.1304348,19.1304348 L16.0869565,19.1304348 C15.8466391,19.1304348 15.6521739,19.3251087 15.6521739,19.5652174 C15.6521739,19.8053261 15.8466391,20 16.0869565,20 L19.5652174,20 C19.8055348,20 20,19.8053261 20,19.5652174 L20,16.0869565 C20,15.8468478 19.8055348,15.6521739 19.5652174,15.6521739 L19.5652174,15.6521739 Z" id="Shape" fill="#B3B3B3"></path>
                    <path d="M3.91304348,19.1304348 L0.869565217,19.1304348 L0.869565217,16.0869565 C0.869565217,15.8468478 0.6751,15.6521739 0.434782609,15.6521739 C0.194465217,15.6521739 0,15.8468478 0,16.0869565 L0,19.5652174 C0,19.8053261 0.194465217,20 0.434782609,20 L3.91304348,20 C4.15336087,20 4.34782609,19.8053261 4.34782609,19.5652174 C4.34782609,19.3251087 4.15336087,19.1304348 3.91304348,19.1304348 L3.91304348,19.1304348 Z" id="Shape" fill="#B3B3B3"></path>
                    <path d="M6.18295885,4.53188119 C6.07079299,4.58330452 6,4.6879246 6,4.8025951 L6,15.6973674 C6,15.8120379 6.07079299,15.916658 6.18295885,15.9680813 C6.22983309,15.9893594 6.28058346,16 6.33100944,16 C6.40115365,16 6.47130117,15.9796086 6.52948601,15.939413 L14.4737125,10.4920268 C14.5571103,10.4349896 14.6062454,10.3451441 14.6062454,10.2499813 C14.6062454,10.1548185 14.5571103,10.0649729 14.4737125,10.0079357 L6.52948601,4.56054958 C6.42927952,4.49139198 6.29480362,4.48075142 6.18295885,4.53188119 Z" id="Shape" fill="#72C472"></path>
                </g>
            </g>
        </g>
    </g>
</svg>