<?xml version="1.0" encoding="UTF-8" standalone="no"?>
<svg width="16px" height="12px" viewBox="0 0 16 12" version="1.1" xmlns="http://www.w3.org/2000/svg" xmlns:xlink="http://www.w3.org/1999/xlink">
    <!-- Generator: Sketch 3.6.1 (26313) - http://www.bohemiancoding.com/sketch -->
    <title>ui-16px-1_eye-19</title>
    <desc>Created with Sketch.</desc>
    <defs></defs>
    <g id="Page-1" stroke="none" stroke-width="1" fill="none" fill-rule="evenodd">
        <g id="20构建定义浏览" transform="translate(-1157.000000, -149.000000)" fill="#58666E">
            <g id="Table-head-options" transform="translate(231.000000, 80.000000)">
                <g id="table-white">
                    <g id="tbody" transform="translate(0.000000, 30.000000)">
                        <g id="tr" transform="translate(0.000000, 30.000000)">
                            <g id="td-copy-4" transform="translate(880.000000, 0.000000)">
                                <g id="ui-16px-1_eye-19" transform="translate(46.000000, 9.000000)">
                                    <g id="Group">
                                        <path d="M8,12 C12.707,12 15.744,6.716 15.871,6.492 C16.042,6.188 16.043,5.816 15.872,5.512 C15.746,5.287 12.731,0 8,0 C3.245,0 0.251,5.289 0.126,5.514 C-0.043,5.817 -0.042,6.186 0.128,6.489 C0.254,6.713 3.269,12 8,12 L8,12 Z M8,2 C10.839,2 13.036,4.835 13.818,6 C13.034,7.166 10.837,10 8,10 C5.159,10 2.962,7.162 2.181,5.999 C2.958,4.835 5.146,2 8,2 L8,2 Z" id="Shape"></path>
                                        <circle id="Oval" cx="8" cy="6" r="3"></circle>
                                    </g>
                                </g>
                            </g>
                        </g>
                    </g>
                </g>
            </g>
        </g>
    </g>
</svg>