<?xml version="1.0" encoding="UTF-8" standalone="no"?>
<svg width="16px" height="16px" viewBox="0 0 16 16" version="1.1" xmlns="http://www.w3.org/2000/svg" xmlns:xlink="http://www.w3.org/1999/xlink">
    <!-- Generator: Sketch 3.6.1 (26313) - http://www.bohemiancoding.com/sketch -->
    <title>Group</title>
    <desc>Created with Sketch.</desc>
    <defs></defs>
    <g id="Page-1" stroke="none" stroke-width="1" fill="none" fill-rule="evenodd">
        <g id="46查看部署装配组件" transform="translate(-1254.000000, -203.000000)" fill="#46535A">
            <g id="Group-6" transform="translate(1000.000000, 164.000000)">
                <g id="Group-5" transform="translate(0.000000, 32.000000)">
                    <g id="Group" transform="translate(254.000000, 7.000000)">
                        <path d="M11,0 C9.7,0 8.4,0.5 7.5,1.5 L6.3,2.6 C5.9,3 5.9,3.6 6.3,4 C6.7,4.4 7.3,4.4 7.7,4 L8.9,2.8 C10,1.7 12,1.7 13.1,2.8 C13.7,3.4 14,4.2 14,5 C14,5.8 13.7,6.6 13.1,7.1 L12,8.3 C11.6,8.7 11.6,9.3 12,9.7 C12.2,9.9 12.5,10 12.7,10 C12.9,10 13.2,9.9 13.4,9.7 L14.6,8.5 C15.5,7.6 16,6.3 16,5 C16,3.7 15.5,2.4 14.5,1.5 C13.6,0.5 12.3,0 11,0 L11,0 Z" id="Shape"></path>
                        <path d="M8.3,12 L7.1,13.2 C6,14.3 4,14.3 2.9,13.2 C2.3,12.6 2,11.8 2,11 C2,10.2 2.3,9.4 2.9,8.9 L4,7.7 C4.4,7.3 4.4,6.7 4,6.3 C3.6,5.9 3,5.9 2.6,6.3 L1.5,7.5 C0.5,8.4 0,9.7 0,11 C0,12.3 0.5,13.6 1.5,14.5 C2.4,15.5 3.7,16 5,16 C6.3,16 7.6,15.5 8.5,14.5 L9.7,13.3 C10.1,12.9 10.1,12.3 9.7,11.9 C9.3,11.5 8.7,11.6 8.3,12 L8.3,12 Z" id="Shape"></path>
                        <path d="M9.4,5.2 L5.2,9.4 C4.8,9.8 4.8,10.4 5.2,10.8 C5.4,11 5.7,11.1 5.9,11.1 C6.1,11.1 6.4,11 6.6,10.8 L10.8,6.6 C11.2,6.2 11.2,5.6 10.8,5.2 C10.4,4.8 9.8,4.8 9.4,5.2 L9.4,5.2 Z" id="Shape"></path>
                    </g>
                </g>
            </g>
        </g>
    </g>
</svg>