<?xml version="1.0" encoding="UTF-8" standalone="no"?>
<svg width="16px" height="16px" viewBox="0 0 16 16" version="1.1" xmlns="http://www.w3.org/2000/svg" xmlns:xlink="http://www.w3.org/1999/xlink">
    <!-- Generator: Sketch 3.6.1 (26313) - http://www.bohemiancoding.com/sketch -->
    <title>docback</title>
    <desc>Created with Sketch.</desc>
    <defs></defs>
    <g id="Page-1" stroke="none" stroke-width="1" fill="none" fill-rule="evenodd">
        <g id="Artboard-1" transform="translate(-578.000000, -15263.000000)" fill="#46535A">
            <g id="Group-32" transform="translate(398.000000, 14973.000000)">
                <g id="Group-28" transform="translate(0.000000, 290.000000)">
                    <g id="docback" transform="translate(180.000000, 0.000000)">
                        <path d="M15.3333333,2.66666667 L8.33333333,2.66666667 L6.53333333,0.266666667 C6.40733333,0.0986666667 6.20933333,0 6,0 L0.666666667,0 C0.298,0 0,0.298 0,0.666666667 L0,15.3333333 C0,15.702 0.298,16 0.666666667,16 L15.3333333,16 C15.702,16 16,15.702 16,15.3333333 L16,3.33333333 C16,2.96466667 15.702,2.66666667 15.3333333,2.66666667 L15.3333333,2.66666667 Z M7.55383301,4.2645874 L5.7979123,2.21666667 C5.6955373,2.08016667 5.5346623,2 5.36457896,2 L2.54166667,2 C2.242125,2 2,2.242125 2,2.54166667 L2,13.4583333 C2,13.757875 2.242125,14 2.54166667,14 L13.4583333,14 C13.757875,14 14,13.757875 14,13.4583333 L13.9999997,4.80625407 C13.9999997,4.5067124 13.7578747,4.2645874 13.458333,4.2645874 L7.55383301,4.2645874 Z M4.52866667,10.138 C4.39866667,10.008 4.33333333,9.83733333 4.33333333,9.66666667 C4.33333333,9.496 4.39866667,9.32533333 4.52866667,9.19533333 L7.66666667,6.05733333 L8.60933333,7 L6.60933333,9 L11.6666667,9 L11.6666667,10.3333333 L6.60933333,10.3333333 L8.60933333,12.3333333 L7.66666667,13.276 L4.52866667,10.138 L4.52866667,10.138 Z" id="Shape"></path>
                    </g>
                </g>
            </g>
        </g>
    </g>
</svg>