<?xml version="1.0" encoding="UTF-8" standalone="no"?>
<svg width="16px" height="16px" viewBox="0 0 16 16" version="1.1" xmlns="http://www.w3.org/2000/svg" xmlns:xlink="http://www.w3.org/1999/xlink">
    <!-- Generator: Sketch 3.6.1 (26313) - http://www.bohemiancoding.com/sketch -->
    <title>play</title>
    <desc>Created with Sketch.</desc>
    <defs></defs>
    <g id="Page-1" stroke="none" stroke-width="1" fill="none" fill-rule="evenodd">
        <g id="Artboard-1" transform="translate(-756.000000, -15263.000000)" fill="#46535A">
            <g id="Group-32" transform="translate(398.000000, 14973.000000)">
                <g id="Group-28" transform="translate(0.000000, 290.000000)">
                    <g id="play" transform="translate(358.000000, 0.000000)">
                        <g id="Group">
                            <path d="M1,0 C0.4,0 0,0.428571429 0,1.07142857 L0,14.9285714 C0,15.5714286 0.4,16 1,16 L15,16 C15.6,16 16,15.5714286 16,14.9285714 L16,1.07142857 C16,0.428571429 15.6,0 15,0 L1,0 Z M14,14 L2,14 L2,2 L14,2 L14,14 L14,14 Z" id="Shape"></path>
                            <path d="M6,5 L6,11 L10,8 L6,5 Z" id="Shape"></path>
                        </g>
                    </g>
                </g>
            </g>
        </g>
    </g>
</svg>