<?xml version="1.0" encoding="UTF-8" standalone="no"?>
<svg width="16px" height="16px" viewBox="0 0 16 16" version="1.1" xmlns="http://www.w3.org/2000/svg" xmlns:xlink="http://www.w3.org/1999/xlink">
    <!-- Generator: Sketch 3.6.1 (26313) - http://www.bohemiancoding.com/sketch -->
    <title>Group</title>
    <desc>Created with Sketch.</desc>
    <defs></defs>
    <g id="Page-1" stroke="none" stroke-width="1" fill="none" fill-rule="evenodd">
        <g id="59部署转换实例" transform="translate(-867.000000, -189.000000)" fill="#72C472">
            <g id="Table-head-options" transform="translate(0.000000, 152.000000)">
                <g id="th-copy" transform="translate(0.000000, 30.000000)">
                    <g id="running" transform="translate(867.000000, 7.000000)">
                        <g id="Group">
                            <circle id="Oval" cx="13" cy="2" r="2"></circle>
                            <path d="M15.7070312,5.2929688 C15.3164062,4.9023438 14.6835937,4.9023438 14.2929687,5.2929688 L13,6.5859375 L8.7070312,2.2929688 C8.4384765,2.0239258 8.0419921,1.9306641 7.6835937,2.0512696 L4.6835937,3.0512696 C4.159668,3.2260742 3.8764648,3.7924805 4.0512695,4.3164062 C4.2260742,4.8403319 4.7895508,5.125 5.3164062,4.9487305 L7.7299805,4.144043 L8.6312867,5.0453492 L6.65625,7.0200195 C6.1728516,7.5039062 5.9345703,8.171875 6.0019531,8.8525391 C6.0698242,9.5322266 6.4345703,10.1396485 7.0839843,10.5668946 L8.5581054,11.3598634 L7.1679687,13.4453126 C6.8618164,13.9047853 6.9858398,14.525879 7.4453125,14.8320314 C7.9032388,15.1377527 8.5251808,15.0145752 8.8320313,14.5546876 L10.8320313,11.5546876 C11.1590052,11.0642263 10.9924393,10.3989698 10.4736329,10.1191407 L8.1118164,8.8540039 C7.9670744,8.7572422 7.9502888,8.554594 8.0708008,8.434082 L10.0454102,6.4594726 L12.2929688,8.7070312 C12.6836052,9.0976676 13.3163949,9.0976676 13.7070313,8.7070312 L15.7070313,6.7070312 C16.0976562,6.3164062 16.0976562,5.6835938 15.7070312,5.2929688 L15.7070312,5.2929688 Z" id="Shape"></path>
                            <path d="M4.2929688,10.2929688 L0.2929688,14.2929688 C-0.0976562,14.6835938 -0.0976562,15.3164063 0.2929688,15.7070313 C0.4882812,15.9023438 0.7441406,16 1,16 C1.2558594,16 1.5117188,15.9023438 1.7070312,15.7070312 L5.7070312,11.7070312 C6.0976562,11.3164062 6.0976562,10.6835937 5.7070312,10.2929687 C5.3164062,9.9023437 4.6835938,9.9023438 4.2929688,10.2929688 L4.2929688,10.2929688 Z" id="Shape"></path>
                        </g>
                    </g>
                </g>
            </g>
        </g>
    </g>
</svg>