<?xml version="1.0" encoding="UTF-8" standalone="no"?>
<svg width="19px" height="20px" viewBox="0 0 19 20" version="1.1" xmlns="http://www.w3.org/2000/svg" xmlns:xlink="http://www.w3.org/1999/xlink">
    <!-- Generator: Sketch 3.6.1 (26313) - http://www.bohemiancoding.com/sketch -->
    <title>ui-color-2_disk</title>
    <desc>Created with Sketch.</desc>
    <defs></defs>
    <g id="Page-1" stroke="none" stroke-width="1" fill="none" fill-rule="evenodd">
        <g id="15构建定义任务" transform="translate(-1202.000000, -50.000000)">
            <g id="Group-7" transform="translate(231.000000, 50.000000)">
                <g id="ui-color-2_disk" transform="translate(971.000000, 0.000000)">
                    <g id="Group">
                        <path d="M18.525,20 L0.475,20 C0.212667,20 0,19.7868 0,19.5238095 L0,0.476190476 C0,0.2132 0.212667,0 0.475,0 L17.1,0 L19,1.9047619 L19,19.5238095 C19,19.7868 18.787333,20 18.525,20 L18.525,20 Z" id="Shape" fill="#444444"></path>
                        <path d="M16.625,9.04761905 L2.375,9.04761905 C2.11266225,9.04761905 1.9,9.26081905 1.9,9.52380952 L1.9,18.5714286 C1.9,18.834419 2.11266225,19.047619 2.375,19.047619 L16.625,19.047619 C16.887333,19.047619 17.1,18.834419 17.1,18.5714286 L17.1,9.52380952 C17.1,9.26081905 16.887333,9.04761905 16.625,9.04761905 L16.625,9.04761905 Z" id="Shape" fill="#E6E6E6"></path>
                        <path d="M7.6,12.8571429 L3.8,12.8571429 C3.53745325,12.8571429 3.325,12.6441571 3.325,12.3809524 C3.325,12.1177476 3.53745325,11.9047619 3.8,11.9047619 L7.6,11.9047619 C7.86254675,11.9047619 8.075,12.1177476 8.075,12.3809524 C8.075,12.6441571 7.86254675,12.8571429 7.6,12.8571429 L7.6,12.8571429 Z" id="Shape" fill="#444444"></path>
                        <path d="M5.7,15.7142857 L3.8,15.7142857 C3.53745325,15.7142857 3.325,15.5013 3.325,15.2380952 C3.325,14.9748905 3.53745325,14.7619048 3.8,14.7619048 L5.7,14.7619048 C5.96254675,14.7619048 6.175,14.9748905 6.175,15.2380952 C6.175,15.5013 5.96254675,15.7142857 5.7,15.7142857 L5.7,15.7142857 Z" id="Shape" fill="#444444"></path>
                        <path d="M14.725,6.66666667 L2.375,6.66666667 C2.11266225,6.66666667 1.9,6.45346667 1.9,6.19047619 L1.9,0 L15.2,0 L15.2,6.19047619 C15.2,6.45346667 14.987333,6.66666667 14.725,6.66666667 L14.725,6.66666667 Z" id="Shape" fill="#666666"></path>
                        <path d="M14.725,6.66666667 L5.225,6.66666667 C4.96266225,6.66666667 4.75,6.45346667 4.75,6.19047619 L4.75,0 L15.2,0 L15.2,6.19047619 C15.2,6.45346667 14.987333,6.66666667 14.725,6.66666667 L14.725,6.66666667 Z" id="Shape" fill="#E6E6E6"></path>
                        <path d="M12.825,5.71428571 L10.925,5.71428571 C10.662667,5.71428571 10.45,5.50109048 10.45,5.23809524 L10.45,1.42857143 C10.45,1.16558095 10.662667,0.952380952 10.925,0.952380952 L12.825,0.952380952 C13.087333,0.952380952 13.3,1.16558095 13.3,1.42857143 L13.3,5.23809524 C13.3,5.50109048 13.087333,5.71428571 12.825,5.71428571 L12.825,5.71428571 Z" id="Shape" fill="#444444"></path>
                    </g>
                </g>
            </g>
        </g>
    </g>
</svg>