<?xml version="1.0" encoding="UTF-8" standalone="no"?>
<svg width="16px" height="16px" viewBox="0 0 16 16" version="1.1" xmlns="http://www.w3.org/2000/svg" xmlns:xlink="http://www.w3.org/1999/xlink">
    <!-- Generator: Sketch 3.6.1 (26313) - http://www.bohemiancoding.com/sketch -->
    <title>save</title>
    <desc>Created with Sketch.</desc>
    <defs></defs>
    <g id="Page-1" stroke="none" stroke-width="1" fill="none" fill-rule="evenodd">
        <g id="Artboard-1" transform="translate(-434.000000, -15263.000000)" fill="#46535A">
            <g id="Group-32" transform="translate(398.000000, 14973.000000)">
                <g id="Group-28" transform="translate(0.000000, 290.000000)">
                    <g id="save" transform="translate(36.000000, 0.000000)">
                        <g id="Group">
                            <path d="M11.7,0.3 C11.5,0.1 11.3,0 11,0 L10,0 L10,3 C10,3.6 9.6,4 9,4 L4,4 C3.4,4 3,3.6 3,3 L3,0 L1,0 C0.4,0 0,0.4 0,1 L0,15 C0,15.6 0.4,16 1,16 L15,16 C15.6,16 16,15.6 16,15 L16,5 C16,4.7 15.9,4.5 15.7,4.3 L11.7,0.3 L11.7,0.3 Z M13,14 L3,14 L3,11 C3,10.4 3.4,10 4,10 L12,10 C12.6,10 13,10.4 13,11 L13,14 L13,14 Z" id="Shape"></path>
                            <rect id="Rectangle-path" x="7" y="0" width="2" height="3"></rect>
                        </g>
                    </g>
                </g>
            </g>
        </g>
    </g>
</svg>