<?xml version="1.0" encoding="UTF-8" standalone="no"?>
<svg width="20px" height="20px" viewBox="0 0 20 20" version="1.1" xmlns="http://www.w3.org/2000/svg" xmlns:xlink="http://www.w3.org/1999/xlink">
    <!-- Generator: Sketch 3.6.1 (26313) - http://www.bohemiancoding.com/sketch -->
    <title>ui-color-1_settings-tool-67</title>
    <desc>Created with Sketch.</desc>
    <defs></defs>
    <g id="Page-1" stroke="none" stroke-width="1" fill="none" fill-rule="evenodd">
        <g id="设计部署装配-copy-26" transform="translate(-1201.000000, -50.000000)" fill="#B3B3B3">
            <g id="Group-5" transform="translate(1161.000000, 50.000000)">
                <g id="ui-color-1_settings-tool-67" transform="translate(40.000000, 0.000000)">
                    <path d="M19.7391511,3.68923556 C19.6914089,3.54210222 19.5707467,3.43055556 19.4205733,3.39409778 C19.2686622,3.35720444 19.1115467,3.40277778 19.0021689,3.51215111 L16.6731778,5.84114222 L14.1588533,3.32681778 L16.4878444,0.997826667 C16.5972178,0.888453333 16.6419244,0.730031111 16.6058978,0.579422222 C16.56944,0.429248889 16.4574622,0.308155556 16.3103244,0.260844444 C15.6267289,0.0394888889 14.9175289,-0.0421066667 14.2057244,0.01996 C11.4726533,0.256506667 9.28732,2.68098222 9.33419556,5.42360444 C9.34157333,5.84634667 9.39886667,6.26648444 9.50563556,6.67620889 L1.17274222,14.0312489 C0.46224,14.6588533 0.05512,15.52604 0.0256088889,16.4730889 C-0.00390222222,17.4201378 0.34896,18.3107644 1.01909778,18.9809022 C1.66319556,19.625 2.51128444,19.9761289 3.41753333,19.9761289 C3.45399111,19.9761289 3.49044889,19.9756933 3.52690667,19.9743911 C4.47395556,19.9448756 5.34114222,19.53776 5.96874667,18.8272578 L13.3237822,10.4947911 C14.1106756,10.7000844 14.9197022,10.7230889 15.7330711,10.5603289 C17.6666667,10.1753467 19.2599822,8.70746222 19.7916667,6.82117778 C20.0842,5.78212 20.0664044,4.69921778 19.7391511,3.68923556 L19.7391511,3.68923556 Z M3.55555556,17.3333333 C3.06464444,17.3333333 2.66666667,16.9353556 2.66666667,16.4444444 C2.66666667,15.9535067 3.06464444,15.5555556 3.55555556,15.5555556 C4.04646667,15.5555556 4.44444444,15.9535067 4.44444444,16.4444444 C4.44444444,16.9353556 4.04646667,17.3333333 3.55555556,17.3333333 L3.55555556,17.3333333 Z" id="Shape"></path>
                </g>
            </g>
        </g>
    </g>
</svg>