<?xml version="1.0" encoding="UTF-8" standalone="no"?>
<svg width="16px" height="16px" viewBox="0 0 16 16" version="1.1" xmlns="http://www.w3.org/2000/svg" xmlns:xlink="http://www.w3.org/1999/xlink">
    <!-- Generator: Sketch 3.6.1 (26313) - http://www.bohemiancoding.com/sketch -->
    <title>arrows-16px-2_file-upload-86</title>
    <desc>Created with Sketch.</desc>
    <defs></defs>
    <g id="Page-1" stroke="none" stroke-width="1" fill="none" fill-rule="evenodd">
        <g id="55部署转换变量" transform="translate(-776.000000, -253.000000)" fill="#46535A">
            <g id="Table-head-options" transform="translate(0.000000, 186.000000)">
                <g id="table-white">
                    <g id="tbody" transform="translate(0.000000, 30.000000)">
                        <g id="tr" transform="translate(0.000000, 30.000000)">
                            <g id="td-copy-4" transform="translate(680.000000, 0.000000)">
                                <g id="arrows-16px-2_file-upload-86" transform="translate(96.000000, 7.000000)">
                                    <g id="Group">
                                        <path d="M7,4 L7,8 L9,8 L9,4 L12,4 L8,0 L4,4 L7,4 Z" id="Shape"></path>
                                        <path d="M15,0 L12,0 L12,2 L14,2 L14,10 L2,10 L2,2 L4,2 L4,0 L1,0 C0.4,0 0,0.4 0,1 L0,15 C0,15.6 0.4,16 1,16 L15,16 C15.6,16 16,15.6 16,15 L16,1 C16,0.4 15.6,0 15,0 L15,0 Z" id="Shape"></path>
                                    </g>
                                </g>
                            </g>
                        </g>
                    </g>
                </g>
            </g>
        </g>
    </g>
</svg>