<?xml version="1.0" encoding="UTF-8" standalone="no"?>
<svg width="20px" height="20px" viewBox="0 0 20 20" version="1.1" xmlns="http://www.w3.org/2000/svg" xmlns:xlink="http://www.w3.org/1999/xlink">
    <!-- Generator: Sketch 3.6.1 (26313) - http://www.bohemiancoding.com/sketch -->
    <title>files-color_archive-paper-check</title>
    <desc>Created with Sketch.</desc>
    <defs></defs>
    <g id="Page-1" stroke="none" stroke-width="1" fill="none" fill-rule="evenodd">
        <g id="设计部署装配-copy-26" transform="translate(-1161.000000, -50.000000)">
            <g id="Group-5" transform="translate(1161.000000, 50.000000)">
                <g id="files-color_archive-paper-check">
                    <g id="Group">
                        <path d="M17.3913043,0.869565217 L17.3913043,18.6956522 L2.60869565,18.6956522 L2.60869565,0.869565217 C2.60869565,0.389130435 2.99782609,0 3.47826087,0 L16.5217391,0 C17.0021739,0 17.3913043,0.389130435 17.3913043,0.869565217 L17.3913043,0.869565217 Z" id="Shape" fill="#E6E6E6"></path>
                        <path d="M13.0434783,13.0434783 L13.0434783,15.2173913 C13.0434783,15.4573913 12.8486957,15.6521739 12.6086957,15.6521739 L7.39130435,15.6521739 C7.15130435,15.6521739 6.95652174,15.4573913 6.95652174,15.2173913 L6.95652174,13.0434783 L0.434782609,13.0434783 C0.194782609,13.0434783 0,13.2382609 0,13.4782609 L0,19.5652174 C0,19.8052174 0.194782609,20 0.434782609,20 L19.5652174,20 C19.8052174,20 20,19.8052174 20,19.5652174 L20,13.4782609 C20,13.2382609 19.8052174,13.0434783 19.5652174,13.0434783 L13.0434783,13.0434783 L13.0434783,13.0434783 Z" id="Shape" fill="#A67C52"></path>
                        <path d="M10,11.3043478 C7.6026087,11.3043478 5.65217391,9.35391304 5.65217391,6.95652174 C5.65217391,4.55913043 7.6026087,2.60869565 10,2.60869565 C12.3973913,2.60869565 14.3478261,4.55913043 14.3478261,6.95652174 C14.3478261,9.35391304 12.3973913,11.3043478 10,11.3043478 L10,11.3043478 Z" id="Shape" fill="#72C472"></path>
                        <path d="M9.13043478,9.13043478 C9.01913043,9.13043478 8.90782609,9.08782609 8.82304348,9.00304348 L7.51869565,7.69869565 C7.34869565,7.52869565 7.34869565,7.25391304 7.51869565,7.08391304 C7.68869565,6.91391304 7.96347826,6.91391304 8.13347826,7.08391304 L9.13043478,8.08086957 L11.8665217,5.34478261 C12.0365217,5.17478261 12.3113043,5.17478261 12.4813043,5.34478261 C12.6513043,5.51478261 12.6513043,5.78956522 12.4813043,5.95956522 L9.43782609,9.00304348 C9.35304348,9.08782609 9.24173913,9.13043478 9.13043478,9.13043478 L9.13043478,9.13043478 Z" id="Shape" fill="#FFFFFF"></path>
                    </g>
                </g>
            </g>
        </g>
    </g>
</svg>