<?xml version="1.0" encoding="UTF-8" standalone="no"?>
<svg width="34px" height="34px" viewBox="0 0 34 34" version="1.1" xmlns="http://www.w3.org/2000/svg" xmlns:xlink="http://www.w3.org/1999/xlink">
    <!-- Generator: Sketch 3.6.1 (26313) - http://www.bohemiancoding.com/sketch -->
    <title>arrows-color-1_refresh-69 copy</title>
    <desc>Created with Sketch.</desc>
    <defs></defs>
    <g id="Page-1" stroke="none" stroke-width="1" fill="none" fill-rule="evenodd">
        <g id="40下级机构" transform="translate(-272.000000, -94.000000)">
            <g id="Group-4" transform="translate(200.000000, 94.000000)">
                <g id="arrows-color-1_refresh-69-copy" transform="translate(72.000000, 0.000000)">
                    <rect id="Rectangle-284-Copy" fill="#FFFFFF" x="0" y="0" width="34" height="34"></rect>
                    <g id="files-color_single-copy-04" transform="translate(10.000000, 10.000000)" fill="#E86C60">
                        <g id="ui-color-2_small-remove">
                            <path d="M13.7721344,0.227865556 C13.4683189,-0.07595 12.9761256,-0.07595 12.67231,0.227865556 L7,5.90017556 L1.32769,0.227865556 C1.02387444,-0.07595 0.531681111,-0.07595 0.227865556,0.227865556 C-0.07595,0.531681111 -0.07595,1.02387444 0.227865556,1.32769 L5.90017556,7 L0.227865556,12.67231 C-0.07595,12.9761256 -0.07595,13.4683189 0.227865556,13.7721344 C0.379773333,13.9240422 0.578775556,14 0.777777778,14 C0.97678,14 1.17578222,13.9240422 1.32769,13.7721344 L7,8.09982444 L12.67231,13.7721344 C12.8242178,13.9240422 13.02322,14 13.2222222,14 C13.4212244,14 13.6202267,13.9240422 13.7721344,13.7721344 C14.07595,13.4683189 14.07595,12.9761256 13.7721344,12.67231 L8.09982444,7 L13.7721344,1.32769 C14.0759578,1.02387444 14.0759578,0.531681111 13.7721344,0.227865556 L13.7721344,0.227865556 Z" id="Shape"></path>
                        </g>
                    </g>
                </g>
            </g>
        </g>
    </g>
</svg>