<?xml version="1.0" encoding="UTF-8" standalone="no"?>
<svg width="34px" height="34px" viewBox="0 0 34 34" version="1.1" xmlns="http://www.w3.org/2000/svg" xmlns:xlink="http://www.w3.org/1999/xlink">
    <!-- Generator: Sketch 3.6.1 (26313) - http://www.bohemiancoding.com/sketch -->
    <title>ui-color-2_disk</title>
    <desc>Created with Sketch.</desc>
    <defs></defs>
    <g id="Page-1" stroke="none" stroke-width="1" fill="none" fill-rule="evenodd">
        <g id="40下级机构" transform="translate(-200.000000, -94.000000)">
            <g id="Group-4" transform="translate(200.000000, 94.000000)">
                <g id="ui-color-2_disk">
                    <rect id="Rectangle-284" fill="#FFFFFF" x="0" y="0" width="34" height="34"></rect>
                    <g id="ui-16px-1_simple-add" transform="translate(10.000000, 10.000000)" fill="#72C472">
                        <path d="M13.125,6.125 L7.875,6.125 L7.875,0.875 C7.875,0.35 7.525,0 7,0 C6.475,0 6.125,0.35 6.125,0.875 L6.125,6.125 L0.875,6.125 C0.35,6.125 0,6.475 0,7 C0,7.525 0.35,7.875 0.875,7.875 L6.125,7.875 L6.125,13.125 C6.125,13.65 6.475,14 7,14 C7.525,14 7.875,13.65 7.875,13.125 L7.875,7.875 L13.125,7.875 C13.65,7.875 14,7.525 14,7 C14,6.475 13.65,6.125 13.125,6.125 L13.125,6.125 Z" id="Shape"></path>
                    </g>
                </g>
            </g>
        </g>
    </g>
</svg>