<?xml version="1.0" encoding="UTF-8" standalone="no"?>
<svg width="17px" height="20px" viewBox="0 0 17 20" version="1.1" xmlns="http://www.w3.org/2000/svg" xmlns:xlink="http://www.w3.org/1999/xlink">
    <!-- Generator: Sketch 3.6.1 (26313) - http://www.bohemiancoding.com/sketch -->
    <title>design-color_todo</title>
    <desc>Created with Sketch.</desc>
    <defs></defs>
    <g id="Page-1" stroke="none" stroke-width="1" fill="none" fill-rule="evenodd">
        <g id="46查看部署装配组件" transform="translate(-1013.000000, -351.000000)">
            <g id="Group-6" transform="translate(1000.000000, 164.000000)">
                <g id="Group-5-Copy-3" transform="translate(0.000000, 182.000000)">
                    <g id="design-color_todo" transform="translate(13.000000, 5.000000)">
                        <g id="Group">
                            <path d="M16.1052632,0.869565217 L0.894736842,0.869565217 C0.400394737,0.869565217 0,1.25869565 0,1.73913043 L0,19.1304348 C0,19.6108696 0.400394737,20 0.894736842,20 L16.1052632,20 C16.5996053,20 17,19.6108696 17,19.1304348 L17,1.73913043 C17,1.25869565 16.5996053,0.869565217 16.1052632,0.869565217 L16.1052632,0.869565217 Z" id="Shape" fill="#A67C52"></path>
                            <path d="M14.3157895,17.826087 L2.68421053,17.826087 C2.43726316,17.826087 2.23684211,17.6313043 2.23684211,17.3913043 L2.23684211,3.47826087 C2.23684211,3.23826087 2.43726316,3.04347826 2.68421053,3.04347826 L14.3157895,3.04347826 C14.5627368,3.04347826 14.7631579,3.23826087 14.7631579,3.47826087 L14.7631579,17.3913043 C14.7631579,17.6313043 14.5627368,17.826087 14.3157895,17.826087 L14.3157895,17.826087 Z" id="Shape" fill="#FFFFFF"></path>
                            <path d="M10.2894737,1.73913043 C10.2894737,0.778695652 9.48823684,0 8.5,0 C7.51176316,0 6.71052632,0.778695652 6.71052632,1.73913043 L5.36842105,1.73913043 C5.12147368,1.73913043 4.92105263,1.93391304 4.92105263,2.17391304 L4.92105263,3.91304348 C4.92105263,4.15304348 5.12147368,4.34782609 5.36842105,4.34782609 L11.6315789,4.34782609 C11.8785263,4.34782609 12.0789474,4.15304348 12.0789474,3.91304348 L12.0789474,2.17391304 C12.0789474,1.93391304 11.8785263,1.73913043 11.6315789,1.73913043 L10.2894737,1.73913043 L10.2894737,1.73913043 Z" id="Shape" fill="#EFD358"></path>
                            <ellipse id="Oval" fill="#B29930" cx="8.5" cy="1.73913043" rx="0.447368421" ry="0.434782609"></ellipse>
                            <path d="M9.9699522,15.9628383 C9.87179029,15.9628383 9.77362839,15.9263179 9.69885662,15.8536496 L8.16507681,14.3630196 C8.01514983,14.2173106 8.01514983,13.981791 8.16507681,13.8360819 C8.31500379,13.6903729 8.557341,13.6903729 8.70726797,13.8360819 L9.9699522,15.0632431 L12.7664162,12.345452 C12.9163432,12.1997429 13.1586804,12.1997429 13.3086074,12.345452 C13.4585344,12.491161 13.4585344,12.7266806 13.3086074,12.8723897 L10.2410478,15.8536496 C10.166276,15.9263179 10.0681141,15.9628383 9.9699522,15.9628383 L9.9699522,15.9628383 Z" id="Shape" fill="#72C472"></path>
                            <g transform="translate(4.026316, 5.217391)" id="Shape" fill="#B3B3B3">
                                <path d="M9.1812201,0.778032037 L0.213516746,0.778032037 C0.0954419856,0.778032037 0,0.604141876 0,0.389016018 C0,0.17389016 0.0954419856,0 0.213516746,0 L9.1812201,0 C9.29929486,0 9.39473684,0.17389016 9.39473684,0.389016018 C9.39473684,0.604141876 9.29929486,0.778032037 9.1812201,0.778032037 L9.1812201,0.778032037 Z"></path>
                                <path d="M9.1812201,3.70709382 L0.213516746,3.70709382 C0.0954419856,3.70709382 0,3.53320366 0,3.3180778 C0,3.10295195 0.0954419856,2.92906178 0.213516746,2.92906178 L9.1812201,2.92906178 C9.29929486,2.92906178 9.39473684,3.10295195 9.39473684,3.3180778 C9.39473684,3.53320366 9.29929486,3.70709382 9.1812201,3.70709382 L9.1812201,3.70709382 Z"></path>
                                <path d="M3.62978469,7.07093822 L0.213516746,7.07093822 C0.0954419856,7.07093822 0,6.89704805 0,6.6819222 C0,6.46679634 0.0954419856,6.29290618 0.213516746,6.29290618 L3.62978469,6.29290618 C3.74785945,6.29290618 3.84330144,6.46679634 3.84330144,6.6819222 C3.84330144,6.89704805 3.74785945,7.07093822 3.62978469,7.07093822 L3.62978469,7.07093822 Z"></path>
                                <path d="M3.62978469,10.8695652 L0.213516746,10.8695652 C0.0954419856,10.8695652 0,10.6956751 0,10.4805492 C0,10.2654233 0.0954419856,10.0915332 0.213516746,10.0915332 L3.62978469,10.0915332 C3.74785945,10.0915332 3.84330144,10.2654233 3.84330144,10.4805492 C3.84330144,10.6956751 3.74785945,10.8695652 3.62978469,10.8695652 L3.62978469,10.8695652 Z"></path>
                            </g>
                        </g>
                    </g>
                </g>
            </g>
        </g>
    </g>
</svg>