<?xml version="1.0" encoding="UTF-8" standalone="no"?>
<svg width="20px" height="20px" viewBox="0 0 20 20" version="1.1" xmlns="http://www.w3.org/2000/svg" xmlns:xlink="http://www.w3.org/1999/xlink">
    <!-- Generator: Sketch 3.6.1 (26313) - http://www.bohemiancoding.com/sketch -->
    <title>arrows-color-2_dots-upload</title>
    <desc>Created with Sketch.</desc>
    <defs></defs>
    <g id="Page-1" stroke="none" stroke-width="1" fill="none" fill-rule="evenodd">
        <g id="19设计构建定义" transform="translate(-1162.000000, -102.000000)">
            <g id="Group-7" transform="translate(200.000000, 100.000000)">
                <g id="Group-6" transform="translate(924.000000, 2.000000)">
                    <g id="arrows-color-2_dots-upload" transform="translate(38.000000, 0.000000)">
                        <g id="Group">
                            <path d="M8.26086957,0.869565217 L11.7391304,0.869565217 C11.9794478,0.869565217 12.173913,0.674891304 12.173913,0.434782609 C12.173913,0.194673913 11.9794478,0 11.7391304,0 L8.26086957,0 C8.02055217,0 7.82608696,0.194673913 7.82608696,0.434782609 C7.82608696,0.674891304 8.02055217,0.869565217 8.26086957,0.869565217 L8.26086957,0.869565217 Z" id="Shape" fill="#B3B3B3"></path>
                            <path d="M11.7391304,19.1304348 L8.26086957,19.1304348 C8.02055217,19.1304348 7.82608696,19.3251087 7.82608696,19.5652174 C7.82608696,19.8053261 8.02055217,20 8.26086957,20 L11.7391304,20 C11.9794478,20 12.173913,19.8053261 12.173913,19.5652174 C12.173913,19.3251087 11.9794478,19.1304348 11.7391304,19.1304348 L11.7391304,19.1304348 Z" id="Shape" fill="#B3B3B3"></path>
                            <path d="M0.434782609,12.173913 C0.6751,12.173913 0.869565217,11.9792391 0.869565217,11.7391304 L0.869565217,8.26086957 C0.869565217,8.02076087 0.6751,7.82608696 0.434782609,7.82608696 C0.194465217,7.82608696 0,8.02076087 0,8.26086957 L0,11.7391304 C0,11.9792391 0.194465217,12.173913 0.434782609,12.173913 L0.434782609,12.173913 Z" id="Shape" fill="#B3B3B3"></path>
                            <path d="M19.5652174,7.82608696 C19.3249,7.82608696 19.1304348,8.02076087 19.1304348,8.26086957 L19.1304348,11.7391304 C19.1304348,11.9792391 19.3249,12.173913 19.5652174,12.173913 C19.8055348,12.173913 20,11.9792391 20,11.7391304 L20,8.26086957 C20,8.02076087 19.8055348,7.82608696 19.5652174,7.82608696 L19.5652174,7.82608696 Z" id="Shape" fill="#B3B3B3"></path>
                            <path d="M3.91304348,0 L0.434782609,0 C0.194465217,0 0,0.194673913 0,0.434782609 L0,3.91304348 C0,4.15315217 0.194465217,4.34782609 0.434782609,4.34782609 C0.6751,4.34782609 0.869565217,4.15315217 0.869565217,3.91304348 L0.869565217,0.869565217 L3.91304348,0.869565217 C4.15336087,0.869565217 4.34782609,0.674891304 4.34782609,0.434782609 C4.34782609,0.194673913 4.15336087,0 3.91304348,0 L3.91304348,0 Z" id="Shape" fill="#B3B3B3"></path>
                            <path d="M19.5652174,0 L16.0869565,0 C15.8466391,0 15.6521739,0.194673913 15.6521739,0.434782609 C15.6521739,0.674891304 15.8466391,0.869565217 16.0869565,0.869565217 L19.1304348,0.869565217 L19.1304348,3.91304348 C19.1304348,4.15315217 19.3249,4.34782609 19.5652174,4.34782609 C19.8055348,4.34782609 20,4.15315217 20,3.91304348 L20,0.434782609 C20,0.194673913 19.8055348,0 19.5652174,0 L19.5652174,0 Z" id="Shape" fill="#B3B3B3"></path>
                            <path d="M19.5652174,15.6521739 C19.3249,15.6521739 19.1304348,15.8468478 19.1304348,16.0869565 L19.1304348,19.1304348 L16.0869565,19.1304348 C15.8466391,19.1304348 15.6521739,19.3251087 15.6521739,19.5652174 C15.6521739,19.8053261 15.8466391,20 16.0869565,20 L19.5652174,20 C19.8055348,20 20,19.8053261 20,19.5652174 L20,16.0869565 C20,15.8468478 19.8055348,15.6521739 19.5652174,15.6521739 L19.5652174,15.6521739 Z" id="Shape" fill="#B3B3B3"></path>
                            <path d="M3.91304348,19.1304348 L0.869565217,19.1304348 L0.869565217,16.0869565 C0.869565217,15.8468478 0.6751,15.6521739 0.434782609,15.6521739 C0.194465217,15.6521739 0,15.8468478 0,16.0869565 L0,19.5652174 C0,19.8053261 0.194465217,20 0.434782609,20 L3.91304348,20 C4.15336087,20 4.34782609,19.8053261 4.34782609,19.5652174 C4.34782609,19.3251087 4.15336087,19.1304348 3.91304348,19.1304348 L3.91304348,19.1304348 Z" id="Shape" fill="#B3B3B3"></path>
                            <path d="M9.3851913,4.1678 L5.03736522,8.51562609 L6.26698261,9.74524348 L9.13043478,6.88195217 L9.13043478,14.7826087 C9.13043478,15.0227304 9.32509565,15.2173913 9.56521739,15.2173913 L10.4347826,15.2173913 C10.6749043,15.2173913 10.8695652,15.0227304 10.8695652,14.7826087 L10.8695652,6.88195217 L13.7330174,9.74524348 L14.9626348,8.51562609 L10.6148087,4.1678 C10.2752609,3.82824783 9.72473913,3.82824783 9.3851913,4.1678 L9.3851913,4.1678 Z" id="Shape" fill="#72C472"></path>
                        </g>
                    </g>
                </g>
            </g>
        </g>
    </g>
</svg>