<?xml version="1.0" encoding="UTF-8" standalone="no"?>
<svg width="16px" height="16px" viewBox="0 0 16 16" version="1.1" xmlns="http://www.w3.org/2000/svg" xmlns:xlink="http://www.w3.org/1999/xlink">
    <!-- Generator: Sketch 3.6.1 (26313) - http://www.bohemiancoding.com/sketch -->
    <title>variable</title>
    <desc>Created with Sketch.</desc>
    <defs></defs>
    <g id="Page-1" stroke="none" stroke-width="1" fill="none" fill-rule="evenodd">
        <g id="Artboard-1" transform="translate(-828.000000, -15263.000000)" fill="#46535A">
            <g id="Group-32" transform="translate(398.000000, 14973.000000)">
                <g id="Group-28" transform="translate(0.000000, 288.000000)">
                    <g id="variable" transform="translate(430.000000, 2.000000)">
                        <path d="M0,1.00087166 C0,0.448105505 0.444630861,0 1.00087166,0 L14.9991283,0 C15.5518945,0 16,0.444630861 16,1.00087166 L16,14.9991283 C16,15.5518945 15.5553691,16 14.9991283,16 L1.00087166,16 C0.448105505,16 0,15.5553691 0,14.9991283 L0,1.00087166 Z M8.78609263,3.71640277 C10.0733641,3.93132361 11.0577482,4.93428749 11.0577482,6.22381249 C11.0577482,6.65365415 10.7548608,6.94021526 10.3005297,6.94021526 C9.84619856,6.94021526 9.54331115,6.65365415 9.54331115,6.22381249 C9.54331115,5.72233054 9.24042374,5.36412916 8.78609263,5.2208486 L8.78609263,7.4416972 C9.84619856,7.72825831 11.0577482,8.22974026 11.0577482,9.80582636 C11.0577482,11.0953514 10.0733641,12.0983152 8.78609263,12.2415958 L8.78609263,12.3132361 C8.78609263,12.7430777 8.48320522,13.0296388 8.0288741,13.0296388 C7.57454299,13.0296388 7.27165558,12.7430777 7.27165558,12.3132361 L7.27165558,12.2415958 C5.98438408,12.0983152 5,11.0237111 5,9.80582636 C5,9.3759847 5.30288741,9.08942359 5.75721853,9.08942359 C6.21154964,9.08942359 6.51443705,9.3759847 6.51443705,9.80582636 C6.51443705,10.3073083 6.81732446,10.6655097 7.27165558,10.8087902 L7.27165558,8.58794164 C6.21154964,8.30138053 5,7.79989859 5,6.22381249 C5,4.93428749 5.98438408,3.93132361 7.27165558,3.78804305 L7.27165558,3.71640277 C7.27165558,3.28656111 7.57454299,3 8.0288741,3 C8.48320522,3 8.78609263,3.28656111 8.78609263,3.71640277 Z M9.54331115,9.80582636 C9.54331115,9.3759847 9.31614559,9.16106386 8.78609263,8.94614303 L8.78609263,10.8087902 C9.24042374,10.6655097 9.54331115,10.3073083 9.54331115,9.80582636 Z M6.51443705,6.22381249 C6.51443705,6.65365415 6.74160261,6.86857498 7.27165558,7.08349582 L7.27165558,5.2208486 C6.81732446,5.36412916 6.51443705,5.72233054 6.51443705,6.22381249 Z M2,2 L14,2 L14,14 L2,14 L2,2 Z" id="Combined-Shape"></path>
                    </g>
                </g>
            </g>
        </g>
    </g>
</svg>