<?xml version="1.0" encoding="UTF-8" standalone="no"?>
<svg width="14px" height="14px" viewBox="0 0 14 14" version="1.1" xmlns="http://www.w3.org/2000/svg" xmlns:xlink="http://www.w3.org/1999/xlink">
    <!-- Generator: Sketch 3.6.1 (26313) - http://www.bohemiancoding.com/sketch -->
    <title>ui-16px-1_calendar-57</title>
    <desc>Created with Sketch.</desc>
    <defs></defs>
    <g id="Page-1" stroke="none" stroke-width="1" fill="none" fill-rule="evenodd">
        <g id="34项目代码浏览分支" transform="translate(-275.000000, -328.000000)" fill="#58666E">
            <g id="Product-list" transform="translate(220.000000, 130.000000)">
                <g id="Group-2" transform="translate(0.000000, 196.000000)">
                    <g transform="translate(55.000000, 0.000000)" id="ui-16px-1_calendar-57">
                        <g transform="translate(0.000000, 2.000000)">
                            <path d="M13.125,1.75 L11.375,1.75 L11.375,0.875 C11.375,0.35 11.025,0 10.5,0 C9.975,0 9.625,0.35 9.625,0.875 L9.625,1.75 L7.875,1.75 L7.875,0.875 C7.875,0.35 7.525,0 7,0 C6.475,0 6.125,0.35 6.125,0.875 L6.125,1.75 L4.375,1.75 L4.375,0.875 C4.375,0.35 4.025,0 3.5,0 C2.975,0 2.625,0.35 2.625,0.875 L2.625,1.75 L0.875,1.75 C0.35,1.75 0,2.1 0,2.625 L0,13.125 C0,13.65 0.35,14 0.875,14 L13.125,14 C13.65,14 14,13.65 14,13.125 L14,2.625 C14,2.1 13.65,1.75 13.125,1.75 L13.125,1.75 Z M12.25,12.25 L1.75,12.25 L1.75,6.125 L12.25,6.125 L12.25,12.25 L12.25,12.25 Z" id="Shape"></path>
                        </g>
                    </g>
                </g>
            </g>
        </g>
    </g>
</svg>