<?xml version="1.0" encoding="UTF-8" standalone="no"?>
<svg width="10px" height="6px" viewBox="0 0 10 6" version="1.1" xmlns="http://www.w3.org/2000/svg" xmlns:xlink="http://www.w3.org/1999/xlink">
    <!-- Generator: Sketch 3.6.1 (26313) - http://www.bohemiancoding.com/sketch -->
    <title>Caret</title>
    <desc>Created with Sketch.</desc>
    <defs></defs>
    <g id="Page-1" stroke="none" stroke-width="1" fill="none" fill-rule="evenodd">
        <g id="38机构人员" transform="translate(-256.000000, -319.000000)" fill="#666666">
            <g id="Table-head-options" transform="translate(200.000000, 184.000000)">
                <g id="table-white">
                    <g id="pagination-sm" transform="translate(0.000000, 120.000000)">
                        <g id="Dropdown-Toggle" transform="translate(10.000000, 2.000000)">
                            <path d="M55.814375,14.1353333 L51.439375,18.802 C51.315625,18.934 51.1691667,19 51,19 C50.8308333,19 50.684375,18.934 50.560625,18.802 L46.185625,14.1353333 C46.061875,14.0033333 46,13.8471111 46,13.6666667 C46,13.4862222 46.061875,13.33 46.185625,13.198 C46.309375,13.066 46.4558333,13 46.625,13 L55.375,13 C55.5441667,13 55.690625,13.066 55.814375,13.198 C55.938125,13.33 56,13.4862222 56,13.6666667 C56,13.8471111 55.938125,14.0033333 55.814375,14.1353333 Z" id="Caret"></path>
                        </g>
                    </g>
                </g>
            </g>
        </g>
    </g>
</svg>