<?xml version="1.0" encoding="UTF-8" standalone="no"?>
<svg width="16px" height="16px" viewBox="0 0 16 16" version="1.1" xmlns="http://www.w3.org/2000/svg" xmlns:xlink="http://www.w3.org/1999/xlink">
    <!-- Generator: Sketch 3.6.1 (26313) - http://www.bohemiancoding.com/sketch -->
    <title>Shape</title>
    <desc>Created with Sketch.</desc>
    <defs></defs>
    <g id="Page-1" stroke="none" stroke-width="1" fill="none" fill-rule="evenodd">
        <g id="18构建定义参数" transform="translate(-203.000000, -87.000000)" fill="#58666E">
            <g id="modal-body" transform="translate(50.000000, 80.000000)">
                <g id="form-group:focus-copy-6">
                    <path d="M165.7,18.2298137 C166.6,17.0372671 167.1,15.6459627 167.1,14.0559006 C167.1,10.1801242 164,7 160.1,7 C156.2,7 153,10.1801242 153,14.0559006 C153,17.931677 156.2,21.1118012 160.1,21.1118012 C161.7,21.1118012 163.2,20.6149068 164.3,19.7204969 L167.3,22.7018634 C167.5,22.9006211 167.8,23 168,23 C168.2,23 168.5,22.9006211 168.7,22.7018634 C169.1,22.3043478 169.1,21.7080745 168.7,21.310559 L165.7,18.2298137 L165.7,18.2298137 Z M160.1,19.0248447 C157.3,19.0248447 155,16.8385093 155,14.0559006 C155,11.2732919 157.3,8.98757764 160.1,8.98757764 C162.9,8.98757764 165.2,11.2732919 165.2,14.0559006 C165.2,16.8385093 162.9,19.0248447 160.1,19.0248447 L160.1,19.0248447 Z" id="Shape"></path>
                </g>
            </g>
        </g>
    </g>
</svg>